<svg width="332" height="247" viewBox="0 0 332 247" fill="none" xmlns="http://www.w3.org/2000/svg">
<path d="M332 217.06H0V217.226H332V217.06Z" fill="#EBEBEB"/>
<path d="M298.734 227.727H276.742V227.893H298.734V227.727Z" fill="#EBEBEB"/>
<path d="M219.93 229.53H214.16V229.696H219.93V229.53Z" fill="#EBEBEB"/>
<path d="M276.078 221.575H263.336V221.741H276.078V221.575Z" fill="#EBEBEB"/>
<path d="M63.5117 222.688H34.8335V222.854H63.5117V222.688Z" fill="#EBEBEB"/>
<path d="M73.6309 222.688H69.4277V222.854H73.6309V222.688Z" fill="#EBEBEB"/>
<path d="M149.5 225.486H87.2961V225.652H149.5V225.486Z" fill="#EBEBEB"/>
<path d="M157.368 187.491H29.1561C28.1517 187.489 27.1891 187.089 26.4795 186.38C25.7699 185.67 25.3713 184.708 25.3713 183.705V3.75247C25.3801 2.75536 25.7825 1.80196 26.4911 1.09937C27.1998 0.396766 28.1575 0.00170809 29.1561 0H157.368C158.373 0 159.338 0.398841 160.049 1.10878C160.76 1.81872 161.159 2.78161 161.159 3.78561V183.705C161.159 184.709 160.76 185.672 160.049 186.382C159.338 187.092 158.373 187.491 157.368 187.491ZM29.1561 0.132596C28.1958 0.134353 27.2753 0.516504 26.5969 1.19517C25.9184 1.87384 25.5373 2.79356 25.5373 3.75247V183.705C25.5373 184.664 25.9184 185.584 26.5969 186.262C27.2753 186.941 28.1958 187.323 29.1561 187.325H157.368C158.329 187.323 159.25 186.941 159.93 186.263C160.609 185.584 160.992 184.665 160.993 183.705V3.75247C160.992 2.79295 160.609 1.87324 159.93 1.19477C159.25 0.516289 158.329 0.134349 157.368 0.132596H29.1561Z" fill="#EBEBEB"/>
<path d="M300.998 187.491H172.779C171.774 187.489 170.811 187.09 170.1 186.38C169.39 185.67 168.99 184.709 168.988 183.705V3.75247C168.999 2.75476 169.402 1.80137 170.112 1.09895C170.822 0.396534 171.78 0.00168946 172.779 0H300.998C301.995 0.00345048 302.951 0.399279 303.659 1.10169C304.366 1.80411 304.767 2.75651 304.776 3.75247V183.705C304.776 184.707 304.378 185.668 303.67 186.377C302.962 187.087 302.001 187.487 300.998 187.491ZM172.779 0.132596C171.818 0.134349 170.897 0.516289 170.218 1.19477C169.538 1.87324 169.156 2.79295 169.154 3.75247V183.705C169.156 184.665 169.538 185.584 170.218 186.263C170.897 186.941 171.818 187.323 172.779 187.325H300.998C301.959 187.323 302.88 186.941 303.56 186.263C304.239 185.584 304.622 184.665 304.623 183.705V3.75247C304.622 2.79295 304.239 1.87324 303.56 1.19477C302.88 0.516289 301.959 0.134349 300.998 0.132596H172.779Z" fill="#EBEBEB"/>
<path d="M118.949 124.435L272.791 124.435V22.2893L118.949 22.2893V124.435Z" fill="#E6E6E6"/>
<path d="M116.565 124.435L270.407 124.435V22.2893L116.565 22.2893V124.435Z" fill="#F5F5F5"/>
<path d="M266.131 119.635V27.0762L120.835 27.0762V119.635L266.131 119.635Z" fill="white"/>
<path d="M122.641 119.642V27.083H120.841V119.642H122.641Z" fill="#E6E6E6"/>
<path d="M118.331 97.2988L268.641 97.2988V90.8613L118.331 90.8613V97.2988Z" fill="#F5F5F5"/>
<g opacity="0.4">
<path d="M126.313 17.2441H111.791V103.657H126.313V17.2441Z" fill="#E6E6E6"/>
<path d="M126.319 96.7153H133.517V17.2439H126.319L126.319 96.7153Z" fill="#F5F5F5"/>
<path d="M148.039 17.2441H133.517V103.657H148.039V17.2441Z" fill="#E6E6E6"/>
<path d="M148.045 96.7153H155.243V17.2439H148.045V96.7153Z" fill="#F5F5F5"/>
<path d="M169.765 17.2441H155.243V103.657H169.765V17.2441Z" fill="#E6E6E6"/>
<path d="M169.771 96.7153H176.969V17.2439H169.771V96.7153Z" fill="#F5F5F5"/>
<path d="M191.491 17.2441H176.969V103.657H191.491V17.2441Z" fill="#E6E6E6"/>
<path d="M191.498 96.7153H198.695V17.2439H191.498V96.7153Z" fill="#F5F5F5"/>
<path d="M213.217 17.2441H198.695V103.657H213.217V17.2441Z" fill="#E6E6E6"/>
<path d="M213.217 96.7153H220.415V17.2439H213.217V96.7153Z" fill="#F5F5F5"/>
<path d="M234.936 17.2441H220.415V103.657H234.936V17.2441Z" fill="#E6E6E6"/>
<path d="M234.943 96.7153H242.141V17.2439H234.943V96.7153Z" fill="#F5F5F5"/>
<path d="M256.663 17.2441H242.141V103.657H256.663V17.2441Z" fill="#E6E6E6"/>
<path d="M256.669 96.7153H263.867V17.2439H256.669V96.7153Z" fill="#F5F5F5"/>
<path d="M278.389 17.2441H263.867V103.657H278.389V17.2441Z" fill="#E6E6E6"/>
</g>
<path d="M54.9725 217.06H89.0291L89.0291 147.182H54.9725L54.9725 217.06Z" fill="#EBEBEB"/>
<path d="M61.44 217.06H54.9727V202.826H68.2261L61.44 217.06Z" fill="#F5F5F5"/>
<path d="M249.285 217.06H283.342V147.182H249.285V217.06Z" fill="#EBEBEB"/>
<path d="M54.9725 208.328L254.929 208.328V147.181L54.9725 147.181V208.328Z" fill="#F5F5F5"/>
<path d="M248.283 191.077H189.008C188.863 191.077 188.725 191.02 188.623 190.918C188.521 190.816 188.463 190.678 188.463 190.533V151.822C188.463 151.678 188.521 151.54 188.623 151.438C188.725 151.336 188.863 151.278 189.008 151.278H199.95C200.068 151.276 200.182 151.313 200.276 151.385C201.902 152.572 203.706 153.496 205.621 154.123C207.93 154.886 210.347 155.271 212.779 155.263H224.505C228.991 155.342 233.385 153.99 237.048 151.404C237.139 151.334 237.252 151.297 237.367 151.298H248.316C248.461 151.298 248.599 151.356 248.701 151.458C248.803 151.56 248.861 151.698 248.861 151.842V190.533C248.861 190.608 248.846 190.681 248.816 190.749C248.787 190.818 248.744 190.879 248.69 190.93C248.635 190.981 248.571 191.02 248.501 191.046C248.432 191.071 248.357 191.082 248.283 191.077ZM189.552 189.99H247.738V152.386H237.513C233.701 155.038 229.151 156.43 224.505 156.363H212.779C210.229 156.372 207.695 155.966 205.276 155.164C203.312 154.52 201.458 153.581 199.778 152.379H189.552V189.99Z" fill="#E6E6E6"/>
<path d="M184.592 191.077H125.31C125.166 191.077 125.027 191.02 124.925 190.918C124.823 190.816 124.766 190.678 124.766 190.533V151.822C124.766 151.678 124.823 151.54 124.925 151.438C125.027 151.336 125.166 151.278 125.31 151.278H135.662C135.779 151.276 135.894 151.313 135.987 151.385C137.602 152.571 139.395 153.495 141.299 154.123C143.608 154.886 146.025 155.271 148.457 155.263H160.183C164.654 155.329 169.029 153.97 172.673 151.385C172.767 151.315 172.882 151.278 172.999 151.278H184.592C184.664 151.278 184.735 151.291 184.801 151.318C184.868 151.345 184.928 151.385 184.979 151.436C185.03 151.486 185.07 151.547 185.097 151.613C185.124 151.679 185.137 151.75 185.137 151.822V190.514C185.139 190.587 185.127 190.659 185.101 190.728C185.075 190.796 185.035 190.858 184.984 190.911C184.933 190.964 184.872 191.005 184.805 191.034C184.738 191.062 184.665 191.077 184.592 191.077ZM125.861 189.99H184.048V152.386H173.211C169.403 155.037 164.858 156.429 160.217 156.363H148.49C145.941 156.372 143.407 155.966 140.987 155.164C139.02 154.524 137.163 153.585 135.483 152.379H125.855L125.861 189.99Z" fill="#E6E6E6"/>
<path d="M120.895 191.077H61.6192C61.4748 191.077 61.3363 191.02 61.2342 190.918C61.1321 190.816 61.0747 190.678 61.0747 190.533V151.822C61.0739 151.75 61.0873 151.679 61.1144 151.613C61.1414 151.547 61.1815 151.486 61.2322 151.436C61.283 151.385 61.3434 151.345 61.4098 151.318C61.4763 151.291 61.5475 151.278 61.6192 151.278H71.971C72.0862 151.277 72.1985 151.314 72.2897 151.385C73.9062 152.569 75.6986 153.493 77.6017 154.123C79.9127 154.886 82.3321 155.271 84.7663 155.263H96.4925C100.967 155.328 105.346 153.969 108.996 151.385C109.089 151.313 109.204 151.276 109.321 151.278H120.861C121.006 151.278 121.144 151.336 121.246 151.438C121.348 151.54 121.406 151.678 121.406 151.822V190.514C121.411 190.656 121.361 190.794 121.265 190.899C121.17 191.005 121.037 191.069 120.895 191.077ZM62.1637 189.99H120.35V152.386H109.56C105.75 155.037 101.203 156.429 96.5589 156.363H84.7995C82.2498 156.373 79.7155 155.967 77.2963 155.164C75.3286 154.524 73.4718 153.585 71.7917 152.379H62.1637V189.99Z" fill="#E6E6E6"/>
<path d="M248.462 217.06H254.929V202.826H241.683L248.462 217.06Z" fill="#F5F5F5"/>
<path d="M95.5763 135.473H90.2046C90.2444 131.76 90.2046 122.333 89.8261 100.739C89.1621 61.6237 87.9204 59.2104 87.9204 59.2104L94.2882 78.5297C95.8002 83.0732 96.6804 87.8023 96.9043 92.5848C97.6082 107.648 94.9522 119.674 95.5763 135.473Z" fill="#E6E6E6"/>
<path d="M99.6596 72.7023C106.824 61.8759 121.127 56.2273 135.748 50.9102C141.485 48.8218 125.376 74.7244 113.663 86.4724C104.567 95.595 95.7354 95.3895 93.1259 104.373C92.6212 93.9375 93.4844 82.0304 99.6596 72.7023Z" fill="#E6E6E6"/>
<path d="M91.4527 65.7544C85.8353 53.0915 71.6456 36.6695 55.6963 25.1005C49.4348 20.5591 64.8861 59.5755 75.7823 75.5268C84.2682 87.9643 92.1831 95.5355 93.4182 104.406C98.77 93.3079 97.0635 78.4107 91.4527 65.7544Z" fill="#E6E6E6"/>
<path d="M91.984 147.181C95.0207 147.181 97.9422 146.021 100.15 143.939C102.357 141.857 103.683 139.011 103.856 135.984L104.912 125.25H79.0559L80.105 135.984C80.2796 139.011 81.6072 141.858 83.8157 143.94C86.0243 146.022 88.9466 147.181 91.984 147.181Z" fill="#F0F0F0"/>
<path d="M77.3825 125.31H106.585L107.422 121.498H76.5459L77.3825 125.31Z" fill="#F0F0F0"/>
<path d="M78.8234 131.846H105.144L105.901 128.034H78.0664L78.8234 131.846Z" fill="#F0F0F0"/>
<path d="M166 247C237.103 247 294.743 243.64 294.743 239.495C294.743 235.35 237.103 231.99 166 231.99C94.8973 231.99 37.2571 235.35 37.2571 239.495C37.2571 243.64 94.8973 247 166 247Z" fill="#F5F5F5"/>
<path d="M269.106 174.583H62.8875V197.893H269.106V174.583Z" fill="#7B3DFF"/>
<path opacity="0.3" d="M269.113 174.583H224.877V197.893H269.113V174.583Z" fill="black"/>
<path d="M85.656 197.893H62.8875V239.495H85.656V197.893Z" fill="#7B3DFF"/>
<path opacity="0.3" d="M62.894 197.893V200.22L79.016 205.079V239.495H85.656V197.893H62.894Z" fill="black"/>
<path d="M269.113 197.893H246.344V239.495H269.113V197.893Z" fill="#7B3DFF"/>
<path opacity="0.2" d="M269.113 197.893H246.344V239.495H269.113V197.893Z" fill="black"/>
<path opacity="0.3" d="M246.344 197.893V200.22L262.473 205.079V239.495H269.113V197.893H246.344Z" fill="black"/>
<path d="M224.877 197.893H202.108V239.495H224.877V197.893Z" fill="#7B3DFF"/>
<path opacity="0.3" d="M202.108 197.893V200.22L218.237 205.079V239.495H224.877V197.893H202.108Z" fill="black"/>
<path d="M129.892 197.893H107.123V239.495H129.892V197.893Z" fill="#7B3DFF"/>
<path opacity="0.2" d="M129.892 197.893H107.123V239.495H129.892V197.893Z" fill="black"/>
<path opacity="0.3" d="M107.123 197.893V200.22L123.252 205.079V239.495H129.892V197.893H107.123Z" fill="black"/>
<path d="M240.687 170.001H114.606C114.213 170.004 113.824 169.926 113.463 169.771C113.102 169.616 112.777 169.388 112.509 169.102C112.241 168.815 112.035 168.476 111.904 168.106C111.774 167.736 111.722 167.343 111.751 166.952L116.944 84.6826C117.009 83.8626 117.378 83.0963 117.978 82.5327C118.578 81.9691 119.367 81.6484 120.191 81.6329H246.264C246.657 81.63 247.046 81.7084 247.407 81.8633C247.768 82.0181 248.093 82.2461 248.362 82.5326C248.63 82.8192 248.836 83.1583 248.966 83.5283C249.097 83.8984 249.149 84.2914 249.119 84.6826L243.927 166.952C243.861 167.771 243.493 168.536 242.895 169.099C242.296 169.663 241.509 169.984 240.687 170.001Z" fill="#263238"/>
<path opacity="0.6" d="M240.687 170.001H114.606C114.213 170.004 113.824 169.926 113.463 169.771C113.102 169.616 112.777 169.388 112.509 169.102C112.241 168.815 112.035 168.476 111.904 168.106C111.774 167.736 111.722 167.343 111.751 166.952L116.944 84.6826C117.009 83.8626 117.378 83.0963 117.978 82.5327C118.578 81.9691 119.367 81.6484 120.191 81.6329H246.264C246.657 81.63 247.046 81.7084 247.407 81.8633C247.768 82.0181 248.093 82.2461 248.362 82.5326C248.63 82.8192 248.836 83.1583 248.966 83.5283C249.097 83.8984 249.149 84.2914 249.119 84.6826L243.927 166.952C243.861 167.771 243.493 168.536 242.895 169.099C242.296 169.663 241.509 169.984 240.687 170.001Z" fill="black"/>
<path d="M239.744 170.002H113.67C113.277 170.005 112.887 169.928 112.525 169.773C112.163 169.619 111.837 169.391 111.568 169.104C111.299 168.818 111.093 168.478 110.962 168.108C110.831 167.737 110.779 167.344 110.808 166.952L116.001 84.6827C116.066 83.8627 116.435 83.0964 117.035 82.5328C117.635 81.9691 118.424 81.6484 119.248 81.633H245.321C245.715 81.629 246.104 81.7068 246.466 81.8613C246.827 82.0158 247.153 82.2437 247.421 82.5305C247.69 82.8173 247.895 83.1568 248.025 83.5273C248.156 83.8978 248.207 84.2912 248.177 84.6827L242.984 166.952C242.918 167.771 242.551 168.536 241.952 169.1C241.353 169.663 240.566 169.984 239.744 170.002Z" fill="#263238"/>
<path d="M239.584 171.049H89.567C88.8763 171.043 88.1981 171.232 87.6105 171.594C87.023 171.957 86.5503 172.478 86.247 173.098C86.1701 173.258 86.1357 173.436 86.1468 173.614C86.158 173.792 86.2145 173.964 86.3109 174.114C86.4073 174.264 86.5404 174.387 86.6977 174.471C86.855 174.556 87.0313 174.599 87.2098 174.596H241.908C242.087 174.599 242.263 174.556 242.421 174.471C242.578 174.387 242.711 174.264 242.807 174.114C242.904 173.964 242.96 173.792 242.971 173.614C242.983 173.436 242.948 173.258 242.871 173.098C242.572 172.482 242.104 171.964 241.523 171.601C240.942 171.239 240.27 171.047 239.584 171.049Z" fill="#263238"/>
<path opacity="0.6" d="M239.585 171.049H218.25C217.565 171.047 216.893 171.238 216.311 171.6C215.73 171.962 215.262 172.482 214.963 173.097C214.887 173.258 214.852 173.435 214.863 173.612C214.874 173.79 214.93 173.961 215.026 174.111C215.121 174.261 215.254 174.384 215.41 174.469C215.566 174.554 215.742 174.597 215.92 174.596H241.909C242.087 174.598 242.263 174.556 242.421 174.471C242.578 174.387 242.711 174.264 242.807 174.114C242.904 173.964 242.96 173.792 242.972 173.614C242.983 173.436 242.948 173.258 242.871 173.097C242.572 172.482 242.105 171.963 241.523 171.601C240.942 171.239 240.27 171.047 239.585 171.049Z" fill="black"/>
<path d="M226.357 173.634H220.846C220.719 173.633 220.597 173.581 220.508 173.49C220.418 173.4 220.368 173.278 220.368 173.15C220.368 173.023 220.418 172.901 220.508 172.811C220.597 172.72 220.719 172.668 220.846 172.667H226.357C226.421 172.667 226.484 172.679 226.543 172.703C226.602 172.728 226.655 172.763 226.7 172.808C226.745 172.853 226.781 172.907 226.805 172.965C226.83 173.024 226.842 173.087 226.842 173.15C226.842 173.214 226.83 173.277 226.805 173.336C226.781 173.394 226.745 173.448 226.7 173.493C226.655 173.538 226.602 173.573 226.543 173.598C226.484 173.622 226.421 173.634 226.357 173.634Z" fill="#7B3DFF"/>
<path opacity="0.7" d="M155.489 173.634H149.984C149.856 173.634 149.732 173.583 149.641 173.493C149.551 173.402 149.5 173.279 149.5 173.15C149.5 173.087 149.512 173.024 149.536 172.965C149.561 172.907 149.596 172.853 149.641 172.808C149.686 172.763 149.74 172.728 149.799 172.703C149.858 172.679 149.921 172.667 149.984 172.667H155.489C155.552 172.667 155.615 172.679 155.674 172.703C155.733 172.728 155.787 172.763 155.832 172.808C155.877 172.853 155.912 172.907 155.937 172.965C155.961 173.024 155.974 173.087 155.974 173.15C155.974 173.279 155.922 173.402 155.832 173.493C155.741 173.583 155.617 173.634 155.489 173.634Z" fill="white"/>
<path d="M232.061 172.667H228.456C228.236 172.667 228.057 172.845 228.057 173.064V173.237C228.057 173.456 228.236 173.634 228.456 173.634H232.061C232.281 173.634 232.46 173.456 232.46 173.237V173.064C232.46 172.845 232.281 172.667 232.061 172.667Z" fill="#7B3DFF"/>
<path d="M113.65 163.981L118.471 87.6524C118.496 87.334 118.639 87.0363 118.872 86.818C119.106 86.5996 119.413 86.4763 119.733 86.4723H244.226C244.378 86.47 244.53 86.4995 244.67 86.559C244.811 86.6184 244.937 86.7065 245.042 86.8176C245.146 86.9287 245.226 87.0603 245.277 87.2041C245.327 87.3478 245.347 87.5005 245.335 87.6524L240.521 163.981C240.494 164.3 240.35 164.598 240.115 164.816C239.881 165.034 239.573 165.158 239.253 165.161H114.766C114.613 165.163 114.462 165.132 114.322 165.073C114.182 165.013 114.055 164.925 113.95 164.814C113.846 164.703 113.765 164.572 113.713 164.429C113.662 164.286 113.64 164.133 113.65 163.981Z" fill="white"/>
<path opacity="0.1" d="M184.473 84.1191L143.006 162.815H112.415C112.262 162.817 112.11 162.787 111.968 162.728C111.827 162.668 111.7 162.579 111.595 162.468C111.49 162.356 111.409 162.223 111.359 162.079C111.308 161.934 111.288 161.781 111.3 161.628L116.12 85.3059C116.145 84.9868 116.288 84.6884 116.521 84.469C116.755 84.2495 117.062 84.1248 117.382 84.1191H184.473Z" fill="#7B3DFF"/>
<path opacity="0.1" d="M220.786 84.1191L179.32 162.815H169.652L211.119 84.1191H220.786Z" fill="#7B3DFF"/>
<path opacity="0.1" d="M242.984 85.3058L238.163 161.628C238.14 161.948 237.998 162.247 237.764 162.467C237.53 162.686 237.223 162.811 236.902 162.815H189.758L231.225 84.119H241.849C242.003 84.1149 242.157 84.1432 242.301 84.2021C242.444 84.261 242.573 84.3492 242.68 84.461C242.787 84.5728 242.869 84.7057 242.922 84.8512C242.974 84.9967 242.995 85.1516 242.984 85.3058Z" fill="#7B3DFF"/>
<path opacity="0.4" d="M183.018 84.1983C183 84.4388 182.893 84.6638 182.717 84.8294C182.541 84.9949 182.31 85.0891 182.069 85.0933C181.953 85.0946 181.839 85.0719 181.733 85.0266C181.627 84.9812 181.531 84.9143 181.453 84.8301C181.374 84.7459 181.314 84.6462 181.276 84.5374C181.238 84.4286 181.223 84.3131 181.232 84.1983C181.249 83.9573 181.356 83.7314 181.532 83.5655C181.708 83.3997 181.94 83.306 182.182 83.3033C182.297 83.302 182.411 83.3247 182.518 83.3701C182.624 83.4154 182.719 83.4823 182.798 83.5665C182.876 83.6507 182.937 83.7504 182.975 83.8592C183.013 83.968 183.028 84.0835 183.018 84.1983Z" fill="white"/>
<path d="M162.448 65.8934C158.816 70.0437 156.717 82.7662 159.407 89.0248C162.096 95.2833 130.894 101.548 156.638 111.719C182.381 121.889 202.972 110.094 195.521 99.5595C188.071 89.0248 196.325 71.4823 187.7 67.0735C179.904 63.0559 169.725 57.573 162.448 65.8934Z" fill="#263238"/>
<path d="M154.752 117.122C153.391 121.763 151.943 126.404 150.442 131.045C148.942 135.685 147.381 140.273 145.728 144.881L145.097 146.618L144.779 147.487L144.679 147.745L144.52 148.136C144.42 148.388 144.267 148.66 144.134 148.919C143.485 150.102 142.517 151.081 141.339 151.743C140.27 152.323 139.076 152.636 137.86 152.658C136.153 152.666 134.463 152.335 132.886 151.683C131.596 151.16 130.346 150.542 129.148 149.833C124.794 147.161 120.804 143.938 117.276 140.247L120.137 136.879C121.1 137.495 122.129 138.152 123.125 138.768C124.121 139.385 125.164 139.982 126.173 140.572C128.151 141.727 130.193 142.77 132.289 143.694C133.244 144.115 134.229 144.463 135.237 144.735C135.934 144.966 136.67 145.052 137.401 144.987C137.587 144.987 137.554 144.881 137.401 144.941C137.249 145 137.083 145.173 137.076 145.153C137.069 145.133 137.076 145.153 137.076 145.113C137.079 145.1 137.079 145.086 137.076 145.073L137.129 144.908L137.382 144.052L137.893 142.329L141.95 128.406C143.331 123.765 144.752 119.124 146.213 114.483L154.752 117.122Z" fill="#B65B52"/>
<path d="M119.932 136.773L112.216 133.922L115.277 142.063C115.277 142.063 120.722 142.846 122.833 139.988L121.114 137.688C120.816 137.276 120.405 136.958 119.932 136.773Z" fill="#B55B52"/>
<path d="M105.41 136.289L108.345 142.965L115.31 142.05L112.243 133.909L105.41 136.289Z" fill="#B55B52"/>
<path d="M149.121 105.116C145.589 106.011 143.145 120.51 143.145 120.51L152.873 127.14C152.873 127.14 162.169 112.515 159.479 108.643C156.624 104.579 154.267 103.81 149.121 105.116Z" fill="#7B3DFF"/>
<path opacity="0.5" d="M149.121 105.116C145.589 106.011 143.145 120.51 143.145 120.51L152.873 127.14C152.873 127.14 162.169 112.515 159.479 108.643C156.624 104.579 154.267 103.81 149.121 105.116Z" fill="white"/>
<path opacity="0.2" d="M148.803 110.386L156.352 112.13L157.076 119.509C155.797 122.114 154.385 124.652 152.846 127.113L146.943 123.135C147.202 119.721 147.84 112.707 148.803 110.386Z" fill="black"/>
<path d="M149.121 105.116C149.121 105.116 145.038 106.548 153.211 156.709H187.978C187.394 142.581 187.381 133.862 194.14 104.87C189.274 103.865 184.341 103.216 179.38 102.928C173.53 102.643 168.756 102.457 163.59 102.928C156.81 103.544 149.121 105.116 149.121 105.116Z" fill="#7B3DFF"/>
<path opacity="0.5" d="M149.121 105.116C149.121 105.116 145.038 106.548 153.211 156.709H187.978C187.394 142.581 187.381 133.862 194.14 104.87C189.274 103.865 184.341 103.216 179.38 102.928C173.53 102.643 168.756 102.457 163.59 102.928C156.81 103.544 149.121 105.116 149.121 105.116Z" fill="white"/>
<path opacity="0.2" d="M185.96 118.329L190.448 122.147C189.492 127.219 188.848 131.429 188.456 135.201C187.6 131.436 185.462 121.213 185.96 118.329Z" fill="black"/>
<path d="M177.813 85.1733C176.817 90.2451 175.82 99.5401 179.38 102.928C179.38 102.928 176.06 110.526 167.262 110.526C158.464 110.526 163.59 102.928 163.59 102.928C169.254 101.602 169.107 97.3788 168.125 93.4407L177.813 85.1733Z" fill="#B55B52"/>
<path d="M178.251 101.031C177.414 102.722 174.718 106.587 167.189 107.966C166.979 108.005 166.763 107.962 166.584 107.847C165.177 106.866 164.3 104.791 164.918 102.384C164.959 102.236 164.957 102.08 164.914 101.933C164.87 101.785 164.787 101.653 164.672 101.551C164.557 101.449 164.416 101.381 164.265 101.355C164.114 101.329 163.958 101.345 163.815 101.403C163.237 101.644 162.681 101.937 162.155 102.278C162.04 102.354 161.946 102.459 161.883 102.583C161.332 103.617 159.101 108.682 165.834 111.805C165.941 111.851 166.056 111.878 166.173 111.884C170.157 111.964 177.122 111.182 181.524 103.266C181.603 103.123 181.638 102.96 181.625 102.797C181.612 102.635 181.552 102.48 181.451 102.351C180.86 101.704 180.172 101.152 179.413 100.713C179.317 100.652 179.21 100.611 179.097 100.594C178.985 100.577 178.87 100.584 178.761 100.614C178.651 100.644 178.549 100.696 178.461 100.768C178.373 100.84 178.302 100.93 178.251 101.031Z" fill="#FAFAFA"/>
<path d="M180.097 121.902L171.133 121.644C171.039 121.644 170.946 121.625 170.861 121.587C170.775 121.55 170.698 121.494 170.636 121.425C170.573 121.355 170.526 121.273 170.497 121.184C170.468 121.095 170.459 121.001 170.469 120.908L170.555 119.801C170.581 119.615 170.674 119.444 170.818 119.322C170.961 119.2 171.144 119.134 171.332 119.138L180.296 119.396C180.39 119.396 180.484 119.415 180.57 119.453C180.656 119.491 180.733 119.548 180.796 119.618C180.859 119.688 180.906 119.771 180.934 119.861C180.963 119.951 180.971 120.045 180.96 120.139L180.874 121.239C180.848 121.426 180.754 121.596 180.611 121.718C180.468 121.84 180.285 121.906 180.097 121.902Z" fill="#FAFAFA"/>
<path opacity="0.2" d="M173.862 88.5479L168.125 93.434C168.371 94.3503 168.535 95.2865 168.616 96.2318C170.774 95.9202 173.749 93.5467 173.981 91.286C174.108 90.3736 174.068 89.4457 173.862 88.5479Z" fill="black"/>
<path d="M184.506 75.5799C182.905 83.9135 182.407 87.4737 177.6 91.2328C170.369 96.8947 160.469 93.1024 159.553 84.4638C158.723 76.6871 161.478 64.3689 170.177 62.0882C172.083 61.5825 174.086 61.5709 175.998 62.0546C177.91 62.5383 179.667 63.5013 181.102 64.8523C182.537 66.2034 183.602 67.8977 184.198 69.775C184.794 71.6523 184.9 73.6503 184.506 75.5799Z" fill="#B55B52"/>
<path d="M179.758 69.4141C178.722 74.6318 178.477 81.5466 183.264 81.5466C188.051 81.5466 191.803 73.4119 187.673 67.0406C183.543 60.6694 180.362 66.3379 179.758 69.4141Z" fill="#263238"/>
<path d="M188.032 70.057C188.032 75.7321 180.874 72.9277 177.706 70.4813C174.539 68.0349 174.386 68.3001 168.517 68.2935C162.647 68.2869 161.472 67.8825 159.739 65.0847C158.005 62.2869 158.165 60.4438 162.069 61.0339C165.973 61.6239 162.693 57.6461 165.602 55.4383C168.51 53.2306 171.956 53.7875 175.933 58.8262C179.911 63.8648 188.032 60.225 188.032 70.057Z" fill="#263238"/>
<path d="M185.93 82.9942C186.683 80.4293 185.944 77.955 184.28 77.4677C182.615 76.9805 180.655 78.6648 179.902 81.2298C179.149 83.7947 179.888 86.269 181.552 86.7563C183.217 87.2435 185.177 85.5592 185.93 82.9942Z" fill="white"/>
<path d="M172.64 89.4094C171.099 89.4091 169.574 89.0955 168.158 88.4878C168.128 88.4755 168.1 88.4573 168.077 88.4342C168.054 88.411 168.035 88.3836 168.023 88.3533C168.011 88.323 168.005 88.2906 168.005 88.2579C168.005 88.2252 168.012 88.1929 168.025 88.163C168.053 88.1025 168.103 88.055 168.165 88.0303C168.226 88.0056 168.295 88.0056 168.357 88.0304C169.691 88.6021 171.127 88.9007 172.579 88.9087C174.031 88.9167 175.469 88.6338 176.81 88.0768C178.114 87.5441 179.297 86.7565 180.292 85.7602C181.286 84.764 182.071 83.5792 182.6 82.2757C184.592 76.5807 186.624 69.4736 184.273 65.0382C183.8 64.175 183.146 63.424 182.355 62.837C181.564 62.2499 180.656 61.8406 179.692 61.6371C179.628 61.62 179.573 61.5784 179.539 61.5213C179.506 61.4643 179.496 61.3963 179.512 61.3322C179.53 61.2683 179.571 61.2137 179.628 61.1802C179.686 61.1467 179.754 61.137 179.818 61.1532C180.848 61.3745 181.818 61.8147 182.663 62.4439C183.507 63.0731 184.206 63.8766 184.711 64.7996C187.155 69.3807 185.117 76.6271 183.065 82.4282C182.508 83.7971 181.683 85.041 180.637 86.0862C179.591 87.1315 178.346 87.9571 176.976 88.5143C175.602 89.0906 174.13 89.3946 172.64 89.4094Z" fill="white"/>
<path opacity="0.6" d="M185.688 83.0184C185.097 85.0073 183.742 86.4062 182.66 86.0946C181.578 85.783 181.179 83.8869 181.77 81.8714C182.361 79.8559 183.716 78.4769 184.798 78.7952C185.88 79.1134 186.279 81.0029 185.688 83.0184Z" fill="#7B3DFF"/>
<path d="M168.847 87.3911L166.246 86.89C165.789 86.8019 165.346 87.1006 165.258 87.5572L165.229 87.7069C165.141 88.1635 165.44 88.6051 165.898 88.6932L168.499 89.1943C168.956 89.2824 169.398 88.9837 169.487 88.5271L169.516 88.3773C169.604 87.9207 169.305 87.4792 168.847 87.3911Z" fill="white"/>
<path d="M165.449 76.2759C165.449 76.2759 163.908 79.067 162.448 80.32C163.238 81.2814 164.831 81.0957 164.831 81.0957L165.449 76.2759Z" fill="#A02724"/>
<path d="M166.916 84.6624H166.976C168.482 84.781 169.976 84.3262 171.159 83.3895C171.184 83.3647 171.197 83.3314 171.197 83.2966C171.197 83.2619 171.184 83.2286 171.159 83.2038C171.148 83.192 171.134 83.1826 171.118 83.1762C171.103 83.1698 171.086 83.1665 171.07 83.1665C171.053 83.1665 171.037 83.1698 171.021 83.1762C171.006 83.1826 170.992 83.192 170.98 83.2038C169.85 84.0906 168.429 84.5233 166.996 84.4171C166.979 84.4143 166.961 84.415 166.945 84.4193C166.928 84.4235 166.912 84.4311 166.898 84.4417C166.885 84.4523 166.873 84.4656 166.865 84.4807C166.857 84.4959 166.852 84.5126 166.85 84.5298C166.847 84.556 166.851 84.5826 166.863 84.6062C166.875 84.6298 166.893 84.6494 166.916 84.6624Z" fill="#263238"/>
<path d="M174.512 72.9943C174.55 73.0152 174.592 73.0262 174.635 73.0262C174.678 73.0262 174.721 73.0152 174.758 72.9943C174.815 72.9564 174.855 72.8979 174.87 72.8312C174.885 72.7646 174.873 72.6947 174.838 72.6363C174.52 72.1053 174.081 71.6576 173.555 71.3302C173.03 71.0027 172.434 70.805 171.817 70.7534C171.747 70.7534 171.681 70.7804 171.631 70.8287C171.582 70.877 171.553 70.9428 171.551 71.012C171.551 71.0794 171.577 71.1442 171.625 71.1925C171.672 71.2408 171.736 71.2688 171.803 71.2705C172.335 71.3212 172.848 71.4965 173.299 71.7822C173.75 72.0679 174.127 72.4559 174.4 72.9147C174.429 72.951 174.468 72.9785 174.512 72.9943Z" fill="#263238"/>
<path d="M170.708 76.3886C170.595 77.0515 170.137 77.562 169.685 77.4891C169.234 77.4162 168.975 76.8261 169.088 76.1101C169.201 75.3941 169.665 74.9366 170.11 75.0096C170.555 75.0825 170.827 75.7057 170.708 76.3886Z" fill="#263238"/>
<path d="M162.966 75.0758C162.853 75.7388 162.395 76.2493 161.943 76.1764C161.492 76.1034 161.233 75.4803 161.345 74.7974C161.458 74.1145 161.923 73.6173 162.368 73.6968C162.813 73.7764 163.085 74.3863 162.966 75.0758Z" fill="#263238"/>
<path d="M162.56 73.77L160.993 73.0142C160.993 73.0142 161.618 74.4396 162.56 73.77Z" fill="#263238"/>
<path d="M170.303 75.0827L168.736 74.3335C168.736 74.3335 169.36 75.7589 170.303 75.0827Z" fill="#263238"/>
<path d="M160.336 70.4549C160.376 70.4789 160.422 70.4915 160.469 70.4915C160.516 70.4915 160.561 70.4789 160.602 70.4549C161.011 70.1111 161.498 69.8712 162.021 69.7557C162.543 69.6403 163.086 69.6527 163.603 69.7919C163.668 69.8148 163.74 69.8109 163.802 69.781C163.864 69.7512 163.912 69.6979 163.935 69.6328C163.958 69.5678 163.954 69.4963 163.924 69.4341C163.894 69.372 163.841 69.3242 163.775 69.3013C163.18 69.1319 162.552 69.1085 161.945 69.2332C161.338 69.3578 160.77 69.6268 160.289 70.0174C160.262 70.0369 160.238 70.062 160.221 70.0911C160.203 70.1202 160.192 70.1525 160.188 70.1862C160.183 70.2198 160.186 70.254 160.195 70.2866C160.205 70.3191 160.221 70.3494 160.243 70.3754C160.265 70.4107 160.298 70.4384 160.336 70.4549Z" fill="#263238"/>
<path d="M151.89 165.161C151.89 165.161 151.797 160.415 153.218 156.708H187.978C187.978 156.708 191.106 161.747 191.916 165.161H151.89Z" fill="#7B3DFF"/>
<path d="M188.503 154.673L188.775 157.776C188.901 158.021 188.616 158.267 188.211 158.267H153.019C152.707 158.267 152.448 158.114 152.428 157.915L152.109 154.806C152.109 154.594 152.361 154.408 152.707 154.408H187.899C188.014 154.396 188.13 154.414 188.236 154.46C188.342 154.507 188.434 154.58 188.503 154.673Z" fill="#7B3DFF"/>
<path opacity="0.3" d="M188.503 154.673L188.775 157.776C188.901 158.021 188.616 158.267 188.211 158.267H153.019C152.707 158.267 152.448 158.114 152.428 157.915L152.109 154.806C152.109 154.594 152.361 154.408 152.707 154.408H187.899C188.014 154.396 188.13 154.414 188.236 154.46C188.342 154.507 188.434 154.58 188.503 154.673Z" fill="#FAFAFA"/>
<path d="M183.769 158.598H184.711C184.904 158.598 185.043 158.505 185.03 158.386L184.592 154.348C184.592 154.229 184.413 154.136 184.227 154.136H183.264C183.071 154.136 182.932 154.229 182.945 154.348L183.383 158.386C183.417 158.505 183.583 158.598 183.769 158.598Z" fill="#7B3DFF"/>
<path d="M155.688 158.598H156.631C156.817 158.598 156.963 158.505 156.95 158.386L156.505 154.348C156.505 154.229 156.332 154.136 156.14 154.136H155.197C155.011 154.136 154.865 154.229 154.878 154.348L155.323 158.386C155.336 158.505 155.502 158.598 155.688 158.598Z" fill="#7B3DFF"/>
<path d="M169.732 158.598H170.648C170.834 158.598 170.98 158.505 170.967 158.386L170.522 154.348C170.522 154.229 170.343 154.136 170.157 154.136H169.214C169.028 154.136 168.882 154.229 168.895 154.348L169.34 158.386C169.38 158.505 169.539 158.598 169.732 158.598Z" fill="#7B3DFF"/>
<path d="M197.115 114.696C198.642 119.646 200.11 124.623 201.517 129.626L203.635 137.091L204.691 140.804L204.957 141.719L205.09 142.176L205.123 142.282L205.017 142.117C204.849 141.877 204.642 141.666 204.406 141.493C203.886 141.116 203.268 140.897 202.626 140.864C202.141 140.841 201.658 140.936 201.218 141.142C200.74 141.401 200.787 141.46 200.827 141.414C200.939 141.316 201.042 141.207 201.132 141.089C201.445 140.699 201.733 140.289 201.995 139.863C202.58 138.908 203.157 137.834 203.702 136.733C204.831 134.532 205.847 132.198 206.876 129.852C207.905 127.505 208.868 125.131 209.864 122.738C210.86 120.344 211.809 117.938 212.792 115.564L217.035 116.824C215.933 121.995 214.645 127.074 213.051 132.132C212.267 134.671 211.398 137.184 210.395 139.73C209.877 141.003 209.326 142.276 208.642 143.595C208.277 144.309 207.869 145 207.42 145.664C207.141 146.08 206.83 146.475 206.491 146.844C205.952 147.454 205.297 147.952 204.565 148.309C203.834 148.664 203.027 148.832 202.214 148.799C201.252 148.746 200.327 148.407 199.558 147.825C199.069 147.456 198.645 147.008 198.304 146.499C198.088 146.172 197.899 145.829 197.739 145.471C197.679 145.325 197.613 145.173 197.566 145.04L197.44 144.716L197.268 144.245L196.922 143.31C196.471 142.07 196.013 140.83 195.594 139.591C194.744 137.111 193.895 134.638 193.098 132.152C191.469 127.184 189.95 122.192 188.543 117.175L197.115 114.696Z" fill="#B65B52"/>
<path d="M194.14 104.87C197.626 105.924 202.958 119.575 202.958 119.575L189.446 129.221C189.446 129.221 183.37 117.553 184.831 113.058C186.358 108.377 190.17 103.663 194.14 104.87Z" fill="#7B3DFF"/>
<path opacity="0.5" d="M194.14 104.87C197.626 105.924 202.958 119.575 202.958 119.575L189.446 129.221C189.446 129.221 183.37 117.553 184.831 113.058C186.358 108.377 190.17 103.663 194.14 104.87Z" fill="white"/>
<path d="M212.945 117.381L211.092 109.226L218.795 113.284C218.795 113.284 218.888 118.773 215.78 120.503L212.945 117.381Z" fill="#B55B52"/>
<path d="M214.319 102.755L219.233 106.236L218.795 113.283L211.092 109.226L214.319 102.755Z" fill="#B55B52"/>
<path d="M76.36 61.7167H130.144C131.171 61.7066 132.189 61.9093 133.133 62.3121C134.077 62.7148 134.928 63.3089 135.631 64.0566C136.333 64.8043 136.873 65.6895 137.216 66.6561C137.558 67.6227 137.696 68.6498 137.621 69.6724L136.12 93.9773C135.955 96.1169 134.997 98.118 133.432 99.5894C131.868 101.061 129.81 101.896 127.661 101.933H121.432L123.975 110.28L111.811 101.933H73.8966C72.8697 101.943 71.8519 101.74 70.9075 101.338C69.9631 100.935 69.1126 100.341 68.4099 99.5931C67.7072 98.8454 67.1676 97.9602 66.825 96.9936C66.4825 96.0269 66.3446 94.9999 66.4199 93.9773L67.9073 69.6724C68.0722 67.534 69.0297 65.5337 70.5928 64.0625C72.1559 62.5913 74.2122 61.7549 76.36 61.7167Z" fill="#7B3DFF"/>
<path d="M125.217 74.4462H79.733C79.5399 74.4452 79.3491 74.4041 79.1728 74.3256C78.9964 74.2471 78.8383 74.1328 78.7084 73.9901C78.5786 73.8474 78.4798 73.6793 78.4185 73.4964C78.3571 73.3136 78.3344 73.12 78.3519 72.928C78.3817 72.5257 78.5609 72.1489 78.8545 71.8717C79.1481 71.5945 79.5349 71.4369 79.9389 71.4297H125.43C125.622 71.4301 125.812 71.47 125.988 71.5468C126.164 71.6237 126.322 71.7358 126.453 71.8763C126.584 72.0169 126.684 72.1827 126.748 72.3637C126.812 72.5446 126.838 72.7367 126.824 72.928C126.8 73.3379 126.621 73.7232 126.322 74.0054C126.023 74.2875 125.628 74.4452 125.217 74.4462Z" fill="white"/>
<path d="M98.2719 83.3234H79.1886C78.9953 83.3248 78.8039 83.2863 78.6263 83.2103C78.4487 83.1342 78.2888 83.0224 78.1566 82.8816C78.0243 82.7409 77.9227 82.5744 77.8581 82.3926C77.7934 82.2108 77.7671 82.0175 77.7809 81.8251C77.8107 81.4216 77.9909 81.0439 78.2859 80.7666C78.5809 80.4892 78.9693 80.3323 79.3745 80.3268H98.4778C98.6716 80.3244 98.8637 80.3623 99.0421 80.4379C99.2205 80.5135 99.3813 80.6253 99.5142 80.7661C99.6471 80.9069 99.7493 81.0737 99.8144 81.256C99.8794 81.4383 99.9059 81.6321 99.8921 81.8251C99.8603 82.2325 99.6759 82.6131 99.3756 82.8908C99.0753 83.1685 98.6812 83.323 98.2719 83.3234Z" fill="white"/>
<path d="M114.626 92.2009H78.6441C78.4509 92.2023 78.2595 92.1638 78.0819 92.0877C77.9043 92.0117 77.7443 91.8998 77.6121 91.7591C77.4799 91.6184 77.3783 91.4519 77.3136 91.27C77.249 91.0882 77.2227 90.895 77.2365 90.7025C77.2648 90.2985 77.4446 89.92 77.7399 89.6423C78.0352 89.3646 78.4244 89.2082 78.8301 89.2042H114.812C115.006 89.2018 115.198 89.2396 115.376 89.3153C115.554 89.391 115.714 89.5029 115.847 89.6438C115.979 89.7848 116.081 89.9517 116.145 90.134C116.209 90.3162 116.235 90.5099 116.22 90.7025C116.19 91.106 116.01 91.4837 115.715 91.7611C115.42 92.0384 115.031 92.1953 114.626 92.2009Z" fill="white"/>
<path d="M112.289 83.3234H104.766C104.573 83.3248 104.381 83.2863 104.204 83.2103C104.026 83.1342 103.866 83.0224 103.734 82.8816C103.602 82.7409 103.5 82.5744 103.435 82.3926C103.371 82.2108 103.345 82.0176 103.358 81.8251C103.39 81.4222 103.57 81.0454 103.865 80.7683C104.16 80.4912 104.547 80.3338 104.952 80.3268H112.468C112.662 80.3244 112.854 80.3622 113.032 80.4379C113.21 80.5136 113.37 80.6255 113.503 80.7664C113.635 80.9073 113.737 81.0742 113.801 81.2565C113.865 81.4388 113.891 81.6324 113.876 81.8251C113.846 82.2275 113.667 82.6042 113.373 82.8814C113.08 83.1586 112.693 83.3163 112.289 83.3234Z" fill="white"/>
<path d="M151.253 18.0261H121.93C120.258 18.0512 118.656 18.6997 117.438 19.8443C116.221 20.9889 115.476 22.5467 115.35 24.2117L114.208 43.1332C114.151 43.9287 114.26 44.7274 114.528 45.4789C114.795 46.2304 115.216 46.9183 115.763 47.4995C116.31 48.0806 116.972 48.5423 117.706 48.8554C118.441 49.1685 119.233 49.3263 120.031 49.3188H124.832L122.057 55.816L132.322 49.3188H149.334C151.006 49.2937 152.608 48.6452 153.826 47.5006C155.043 46.356 155.788 44.7982 155.914 43.1332L157.076 24.2117C157.133 23.4162 157.024 22.6175 156.756 21.866C156.489 21.1146 156.068 20.4266 155.521 19.8454C154.974 19.2643 154.312 18.8026 153.578 18.4895C152.843 18.1764 152.051 18.0186 151.253 18.0261Z" fill="#7B3DFF"/>
<g opacity="0.5">
<path d="M151.253 18.0261H121.93C120.258 18.0512 118.656 18.6997 117.438 19.8443C116.221 20.9889 115.476 22.5467 115.35 24.2117L114.208 43.1332C114.151 43.9287 114.26 44.7274 114.528 45.4789C114.795 46.2304 115.216 46.9183 115.763 47.4995C116.31 48.0806 116.972 48.5423 117.706 48.8554C118.441 49.1685 119.233 49.3263 120.031 49.3188H124.832L122.057 55.816L132.322 49.3188H149.334C151.006 49.2937 152.608 48.6452 153.826 47.5006C155.043 46.356 155.788 44.7982 155.914 43.1332L157.076 24.2117C157.133 23.4162 157.024 22.6175 156.756 21.866C156.489 21.1146 156.068 20.4266 155.521 19.8454C154.974 19.2643 154.312 18.8026 153.578 18.4895C152.843 18.1764 152.051 18.0186 151.253 18.0261Z" fill="#FAFAFA"/>
</g>
<path d="M137.116 36.7688C137.015 37.1855 136.777 37.5563 136.44 37.8219C136.103 38.0876 135.686 38.2326 135.257 38.2339H133.524C133.524 37.7433 133.564 37.445 133.57 37.3389C133.595 36.3833 133.841 35.4464 134.287 34.6008C134.915 33.6583 135.712 32.84 136.638 32.1876C137.377 31.6532 138.074 31.0636 138.723 30.424C139.067 30.017 139.272 29.5105 139.307 28.9788C139.333 28.6265 139.278 28.2729 139.146 27.9453C139.013 27.6177 138.807 27.3248 138.544 27.0893C137.899 26.5383 137.066 26.2579 136.22 26.3069C135.329 26.2827 134.459 26.5739 133.763 27.129C133.349 27.4698 133.01 27.8918 132.767 28.3688C132.587 28.7173 132.309 29.0051 131.966 29.1962C131.624 29.3873 131.232 29.4731 130.841 29.4428C130.56 29.408 130.292 29.3029 130.061 29.1372C129.831 28.9715 129.647 28.7505 129.525 28.4947C129.403 28.2389 129.348 27.9566 129.365 27.6738C129.381 27.3911 129.469 27.1171 129.619 26.8771C130.02 26.2057 130.535 25.609 131.14 25.1136C132.579 23.9586 134.388 23.3628 136.233 23.4362C138.404 23.4362 140.091 23.9998 141.306 25.1335C141.875 25.6218 142.322 26.2351 142.614 26.9253C142.905 27.6155 143.033 28.3638 142.986 29.1114C142.925 29.9611 142.631 30.7776 142.136 31.4716C141.203 32.6182 140.125 33.6389 138.929 34.508C138.309 34.9401 137.773 35.4816 137.348 36.1058C137.24 36.3149 137.162 36.538 137.116 36.7688ZM133.325 41.529V41.3168C133.359 40.8377 133.573 40.3892 133.924 40.0601C134.274 39.731 134.736 39.5454 135.217 39.54H135.456C135.686 39.5367 135.914 39.5811 136.126 39.6705C136.338 39.76 136.529 39.8924 136.687 40.0595C136.845 40.2266 136.967 40.4246 137.044 40.6411C137.121 40.8575 137.153 41.0876 137.136 41.3168V41.529C137.101 42.0087 136.887 42.458 136.537 42.7881C136.187 43.1183 135.725 43.3053 135.244 43.3124H135.031C134.798 43.3196 134.566 43.2777 134.351 43.1896C134.135 43.1014 133.94 42.9689 133.779 42.8007C133.618 42.6325 133.495 42.4323 133.416 42.2132C133.338 41.9941 133.307 41.7609 133.325 41.529Z" fill="white"/>
</svg>
