<svg width="32" height="24" viewBox="0 0 32 24" fill="none" xmlns="http://www.w3.org/2000/svg">
<rect width="32" height="24" rx="4" fill="#006FCF"/>
<path d="M28.0802 10.9784H30.5033V5H27.8664V5.83243L27.3675 5H25.0869V6.05946L24.6592 5H20.4543C20.3118 5 20.1693 5.07568 20.0267 5.07568C19.8842 5.07568 19.8129 5.15135 19.6704 5.22703C19.5278 5.3027 19.4566 5.3027 19.314 5.37838V5H7.26949L6.91314 5.98378L6.55679 5H3.70601V6.05946L3.2784 5H0.997773L0 7.57297V10.9784H1.6392L1.92428 10.1459H2.49443L2.77951 10.9784H15.3229V10.2216L15.8218 10.9784H19.314V10.5243C19.3853 10.6 19.5278 10.6 19.5991 10.6757C19.6704 10.7514 19.8129 10.7514 19.8842 10.827C20.0267 10.9027 20.1693 10.9027 20.3118 10.9027H22.8775L23.1626 10.0703H23.7327L24.0178 10.9027H27.51V10.1459L28.0802 10.9784ZM32 18.5459V12.9459H12.4009L11.902 13.7027L11.4031 12.9459H5.70156V18.9243H11.4031L11.902 18.1676L12.4009 18.9243H15.9644V17.6378H15.8218C16.3207 17.6378 16.7483 17.5622 17.1047 17.4108V19H19.6704V18.2432L20.1693 19H30.7884C31.216 18.8486 31.6437 18.773 32 18.5459Z" fill="white"/>
<path d="M30.7884 17.1646H28.8641V18H30.7171C31.5011 18 32 17.4684 32 16.7089C32 15.9494 31.5724 15.5696 30.8597 15.5696H30.0045C29.7906 15.5696 29.6481 15.4177 29.6481 15.1899C29.6481 14.962 29.7906 14.8101 30.0045 14.8101H31.6437L32 13.9747H30.0757C29.2918 13.9747 28.7929 14.5063 28.7929 15.1899C28.7929 15.9494 29.2205 16.3291 29.9332 16.3291H30.7884C31.0022 16.3291 31.1448 16.481 31.1448 16.7089C31.216 17.0127 31.0735 17.1646 30.7884 17.1646ZM27.2962 17.1646H25.3719V18H27.2249C28.0089 18 28.5078 17.4684 28.5078 16.7089C28.5078 15.9494 28.0802 15.5696 27.3675 15.5696H26.5123C26.2984 15.5696 26.1559 15.4177 26.1559 15.1899C26.1559 14.962 26.2984 14.8101 26.5123 14.8101H28.1514L28.5078 13.9747H26.5835C25.7996 13.9747 25.3007 14.5063 25.3007 15.1899C25.3007 15.9494 25.7283 16.3291 26.441 16.3291H27.2962C27.51 16.3291 27.6526 16.481 27.6526 16.7089C27.7238 17.0127 27.51 17.1646 27.2962 17.1646ZM24.8018 14.7342V13.8987H21.8085V17.9241H24.8018V17.0886H22.6637V16.2532H24.7305V15.4177H22.6637V14.6582H24.8018V14.7342ZM19.9555 14.7342C20.3118 14.7342 20.4543 14.962 20.4543 15.1899C20.4543 15.4177 20.3118 15.6456 19.9555 15.6456H18.8864V14.6582L19.9555 14.7342ZM18.8864 16.481H19.314L20.4543 17.9241H21.5234L20.2405 16.4051C20.882 16.2532 21.2383 15.7975 21.2383 15.1899C21.2383 14.4304 20.7394 13.8987 19.9555 13.8987H17.9599V17.9241H18.8151L18.8864 16.481ZM16.6058 15.2658C16.6058 15.5696 16.4633 15.7975 16.1069 15.7975H14.9666V14.7342H16.0356C16.392 14.7342 16.6058 14.962 16.6058 15.2658ZM14.1114 13.8987V17.9241H14.9666V16.557H16.1069C16.8909 16.557 17.461 16.0253 17.461 15.1899C17.461 14.4304 16.9621 13.8228 16.1782 13.8228L14.1114 13.8987ZM12.8285 17.9241H13.8976L12.4009 15.8734L13.8976 13.8987H12.8285L11.902 15.1899L10.9755 13.8987H9.90646L11.4031 15.8734L9.90646 17.8481H10.9755L11.902 16.557L12.8285 17.9241ZM9.62138 14.7342V13.8987H6.62806V17.9241H9.62138V17.0886H7.4833V16.2532H9.55011V15.4177H7.4833V14.6582H9.62138V14.7342ZM26.9399 7.59494L28.4365 10.0253H29.5056V6H28.6503V8.65823L28.4365 8.27848L27.0824 6H25.9421V10.0253H26.7973V7.29114L26.9399 7.59494ZM23.2339 7.51899L23.5189 6.68354L23.804 7.51899L24.1604 8.43038H22.8775L23.2339 7.51899ZM24.7305 10.0253H25.657L24.0178 6H22.8775L21.2383 10.0253H22.1648L22.5212 9.18987H24.3742L24.7305 10.0253ZM20.7394 10.0253L21.0958 9.18987H20.882C20.2405 9.18987 19.8842 8.73418 19.8842 8.05063V7.97468C19.8842 7.29114 20.2405 6.83544 20.882 6.83544H21.8085V6H20.8107C19.6704 6 19.029 6.83544 19.029 7.97468V8.05063C19.029 9.26582 19.6704 10.0253 20.7394 10.0253ZM17.5323 10.0253H18.3875V6.07595H17.5323V10.0253ZM15.6793 6.83544C16.0356 6.83544 16.1782 7.06329 16.1782 7.29114C16.1782 7.51899 16.0356 7.74683 15.6793 7.74683H14.6102V6.75949L15.6793 6.83544ZM14.6102 8.58228H15.0379L16.1782 10.0253H17.2472L15.9644 8.50633C16.6058 8.35443 16.9621 7.89873 16.9621 7.29114C16.9621 6.53165 16.4633 6 15.6793 6H13.6837V10.0253H14.539L14.6102 8.58228ZM13.0423 6.83544V6H10.049V10.0253H13.0423V9.18987H10.9042V8.35443H12.971V7.51899H10.9042V6.75949H13.0423V6.83544ZM6.55679 10.0253H7.34076L8.4098 6.75949V10.0253H9.26503V6H7.83964L6.98441 8.73418L6.12918 6H4.70379V10.0253H5.55902V6.75949L6.55679 10.0253ZM1.92428 7.51899L2.20935 6.68354L2.49443 7.51899L2.85078 8.43038H1.56793L1.92428 7.51899ZM3.42093 10.0253H4.34744L2.70824 6H1.6392L0 10.0253H0.926503L1.28285 9.18987H3.13586L3.42093 10.0253Z" fill="#006FCF"/>
</svg>
