<svg width="20" height="23" viewBox="0 0 20 23" fill="none" xmlns="http://www.w3.org/2000/svg">
<path d="M15.6006 13.3258C15.5049 14.8435 15.0088 16.2119 13.9002 17.3065C12.7592 18.4317 11.3125 18.9968 9.72439 18.9968C6.71347 18.9999 4.0104 16.2068 4.12169 13.2277C4.14041 12.7197 4.34841 12.3927 4.85699 12.3396C5.4467 12.2793 5.69215 12.684 5.73167 13.1735C5.82319 14.2773 6.17473 15.2594 6.97868 16.0576C8.14561 17.2145 9.53198 17.5569 11.0983 17.0489C12.6906 16.5318 13.5902 15.4035 13.8908 13.799C13.9303 13.5895 13.9449 13.3748 13.9792 13.1633C14.0624 12.6646 14.2985 12.2793 14.8747 12.3437C15.4311 12.406 15.6329 12.8189 15.6017 13.3248L15.6006 13.3258Z" fill="#FC3C8D"/>
<path d="M17.1794 13.4065C17.1139 13.7417 17.0151 14.0872 16.5512 14.0279C16.1269 13.9717 16.2226 13.6395 16.2246 13.3626C16.2288 12.4132 15.8773 11.8551 15.1482 11.6446C14.4275 11.4361 13.8024 11.7621 13.3146 12.6482C13.1347 12.9763 12.9017 13.1418 12.5658 12.9783C12.2517 12.824 12.2943 12.5358 12.4004 12.2343C12.7488 11.246 13.6765 10.594 14.7748 10.594C16.2787 10.594 17.4602 11.9716 17.1794 13.4065Z" fill="#FC3C8D"/>
<path d="M15.3697 5.12224C15.2845 2.28416 12.909 0 10 0C7.091 0 4.71555 2.28416 4.63027 5.12224C2.0104 5.52491 0 7.75694 0 10.4417V17.6151C0 20.584 2.45866 23 5.47998 23H14.52C17.5413 23 20 20.584 20 17.6151V10.4417C20 7.75694 17.9896 5.52491 15.3697 5.12224ZM10 1.98369C11.7733 1.98369 13.2293 3.34295 13.3469 5.05785H6.65315C6.77067 3.34397 8.22569 1.98369 10 1.98369ZM17.9813 17.6161C17.9813 19.4915 16.4285 21.0173 14.52 21.0173H5.47998C3.5715 21.0173 2.01872 19.4915 2.01872 17.6161V10.4417C2.01872 8.56636 3.5715 7.04052 5.47998 7.04052H14.52C16.4285 7.04052 17.9813 8.56636 17.9813 10.4417V17.6161Z" fill="#FC3C8D"/>
</svg>
