<svg width="400" height="243" viewBox="0 0 400 243" fill="none" xmlns="http://www.w3.org/2000/svg">
<path d="M195.589 72.8442C195.115 72.845 194.644 72.7657 194.197 72.6097L187.017 70.1239C186.311 69.8775 185.682 69.4506 185.192 68.8859C184.703 68.3212 184.371 67.6384 184.228 66.9054L182.789 59.4423C182.648 58.7084 182.703 57.9504 182.948 57.2444C183.194 56.5385 183.621 55.9094 184.187 55.4205L189.935 50.4491C190.502 49.9601 191.187 49.6282 191.923 49.4862C192.658 49.3443 193.418 49.3973 194.127 49.64L201.313 52.1316C202.021 52.3762 202.651 52.8023 203.142 53.3673C203.632 53.9322 203.966 54.6161 204.108 55.3502L205.54 62.8074C205.68 63.5416 205.625 64.2996 205.381 65.0061C205.137 65.7126 204.712 66.3431 204.149 66.835L198.395 71.8065C197.615 72.4788 196.619 72.8473 195.589 72.8442ZM188.778 65.7739L195.495 68.1189L200.873 63.4757L199.528 56.5051L192.812 54.1601L187.439 58.8091L188.778 65.7739Z" fill="#F5F5F5"/>
<path d="M279.453 51.1818C278.979 51.1826 278.509 51.1033 278.061 50.9473L274.421 49.6868C273.715 49.4414 273.085 49.0149 272.596 48.45C272.106 47.8851 271.774 47.2017 271.632 46.4683L270.904 42.6928C270.764 41.9594 270.818 41.2021 271.062 40.4964C271.307 39.7907 271.732 39.1613 272.296 38.671L275.231 36.1501C275.798 35.6616 276.482 35.3303 277.217 35.1894C277.952 35.0484 278.711 35.1027 279.418 35.3469L283.052 36.6074C283.76 36.852 284.39 37.2781 284.881 37.843C285.371 38.408 285.704 39.0918 285.847 39.826L286.575 43.6015C286.716 44.3353 286.661 45.0933 286.416 45.7993C286.17 46.5053 285.743 47.1343 285.177 47.6232L282.242 50.1441C281.465 50.8102 280.476 51.1781 279.453 51.1818ZM276.194 45.3192L279.365 46.4155L281.895 44.2229L281.261 40.9399L278.097 39.8435L275.56 42.0713L276.194 45.3192Z" fill="#F5F5F5"/>
<path d="M379.992 106.425C379.528 106.422 379.07 106.315 378.652 106.112C378.235 105.909 377.868 105.616 377.579 105.253L375.53 102.697C375.191 102.274 374.97 101.77 374.888 101.235C374.805 100.7 374.865 100.153 375.06 99.6481L376.234 96.5995C376.431 96.0954 376.757 95.6519 377.179 95.3133C377.602 94.9748 378.106 94.7531 378.642 94.6707L381.882 94.1724C382.419 94.0913 382.968 94.152 383.473 94.3484C383.979 94.5449 384.425 94.8703 384.765 95.2922L386.814 97.8482C387.153 98.271 387.374 98.775 387.456 99.3099C387.539 99.8448 387.479 100.392 387.284 100.897L386.11 103.945C385.913 104.451 385.586 104.895 385.163 105.234C384.739 105.572 384.233 105.793 383.697 105.874L380.456 106.372C380.303 106.402 380.148 106.42 379.992 106.425ZM382.37 96.4998H382.258L379.017 96.9982C378.887 97.0174 378.765 97.0703 378.662 97.1516C378.559 97.2329 378.479 97.3396 378.43 97.4613L377.256 100.51C377.208 100.631 377.193 100.763 377.213 100.891C377.233 101.02 377.286 101.141 377.367 101.243L379.417 103.799C379.499 103.899 379.607 103.976 379.728 104.024C379.849 104.071 379.98 104.086 380.109 104.068L383.35 103.57C383.48 103.552 383.604 103.5 383.707 103.418C383.81 103.337 383.89 103.229 383.937 103.107L385.112 100.058C385.158 99.9371 385.172 99.8058 385.153 99.6773C385.133 99.5489 385.081 99.4277 385 99.3256L382.951 96.7695C382.88 96.6849 382.791 96.6169 382.69 96.5703C382.59 96.5237 382.48 96.4996 382.37 96.4998Z" fill="#E0E0E0"/>
<path d="M14.2281 131.904C13.6325 131.903 13.0447 131.769 12.5074 131.513C11.9701 131.256 11.4969 130.883 11.1222 130.421L6.30785 124.417C5.87575 123.873 5.59415 123.225 5.49113 122.538C5.38812 121.85 5.46728 121.148 5.72073 120.501L8.53303 113.331C8.78656 112.684 9.2057 112.114 9.74863 111.679C10.2916 111.244 10.9393 110.959 11.6272 110.851L19.2597 109.679C19.9487 109.576 20.6528 109.654 21.3017 109.907C21.9507 110.16 22.522 110.579 22.9586 111.121L27.7318 117.113C28.1644 117.658 28.4463 118.307 28.5493 118.996C28.6523 119.684 28.5729 120.387 28.3189 121.035L25.5595 128.211C25.3063 128.86 24.8866 129.431 24.3425 129.868C23.7985 130.304 23.1491 130.59 22.4595 130.696L14.827 131.869C14.6287 131.898 14.4284 131.91 14.2281 131.904ZM9.56636 121.938L14.2633 127.8L21.7197 126.663L24.4557 119.628L19.7588 113.765L12.3023 114.908L9.56636 121.938Z" fill="#E0E0E0"/>
<path d="M33.7076 79.3578H29.1691C28.6284 79.3595 28.0967 79.2196 27.6269 78.9522C27.1572 78.6847 26.7658 78.299 26.4919 77.8335L24.2197 73.9114C23.9515 73.4406 23.8105 72.9083 23.8105 72.3666C23.8105 71.825 23.9515 71.2927 24.2197 70.8218L26.4919 66.8998C26.7631 66.4306 27.1534 66.041 27.6234 65.7704C28.0934 65.4997 28.6266 65.3574 29.1691 65.3579H33.7076C34.2501 65.3574 34.7832 65.4997 35.2532 65.7704C35.7232 66.041 36.1135 66.4306 36.3848 66.8998L38.657 70.7984C38.9251 71.2692 39.0661 71.8016 39.0661 72.3432C39.0661 72.8848 38.9251 73.4172 38.657 73.888L36.3848 77.8335C36.1104 78.2986 35.719 78.684 35.2493 78.9514C34.7797 79.2188 34.2482 79.3589 33.7076 79.3578ZM29.1691 67.6795C29.0386 67.6798 28.9104 67.714 28.7972 67.7787C28.684 67.8435 28.5896 67.9366 28.5233 68.0488L26.257 71.9709C26.191 72.0839 26.1562 72.2124 26.1562 72.3432C26.1562 72.474 26.191 72.6025 26.257 72.7155L28.5233 76.661C28.5893 76.7739 28.6835 76.8679 28.7966 76.9337C28.9098 76.9994 29.0382 77.0347 29.1691 77.0362H33.7076C33.8405 77.0368 33.9713 77.0024 34.0867 76.9366C34.2021 76.8707 34.2981 76.7757 34.3651 76.661L36.6314 72.7389C36.6974 72.6259 36.7322 72.4975 36.7322 72.3666C36.7322 72.2358 36.6974 72.1074 36.6314 71.9944L34.3651 68.0488C34.2989 67.9366 34.2045 67.8435 34.0912 67.7787C33.978 67.714 33.8498 67.6798 33.7193 67.6795H29.1691Z" fill="#EBEBEB"/>
<path d="M111.148 35.0072L102.295 29.4436L91.4269 11.1289L76.3086 1.8894L73.3848 5.04934L74.9171 7.11298L79.6904 13.5032L98.6368 38.9L106.363 43.1445L111.148 35.0072Z" fill="#EBEBEB"/>
<path d="M100.024 48.1747L97.4873 39.7442L69.6461 7.98071L65.9355 10.1733L71.8126 26.8759L87.976 42.7283L91.5985 52.6244L100.024 48.1747Z" fill="#EBEBEB"/>
<path d="M115.107 36.5781C115.107 36.5781 146.548 53.8083 152.883 59.624C159.218 65.4397 174.019 89.658 172.516 92.7535C171.013 95.8489 169.862 96.2711 166.451 93.2694C163.04 90.2678 152.014 73.6766 149.055 70.9916C146.096 68.3065 109.26 46.7615 109.26 46.7615L115.107 36.5781Z" fill="#E0E0E0"/>
<path d="M93.7896 43.9592C99.289 43.9592 103.747 39.5075 103.747 34.0162C103.747 28.5249 99.289 24.0732 93.7896 24.0732C88.2902 24.0732 83.832 28.5249 83.832 34.0162C83.832 39.5075 88.2902 43.9592 93.7896 43.9592Z" fill="#EBEBEB"/>
<path d="M91.3178 43.6369C92.1197 43.7876 92.9327 43.8719 93.7485 43.889C94.7035 43.8923 95.6535 43.752 96.5667 43.4727C98.7647 42.8304 100.67 41.444 101.956 39.5515C103.241 37.659 103.827 35.3786 103.612 33.1018C103.512 32.1515 103.267 31.2222 102.884 30.3464C102.703 29.8968 102.491 29.46 102.25 29.039C101.992 28.6139 101.704 28.2083 101.387 27.8255C100.077 26.2028 98.2799 25.0424 96.2604 24.5148C94.241 23.9872 92.1053 24.1202 90.1671 24.8942C89.7077 25.0787 89.2606 25.2921 88.8284 25.5332C88.4189 25.7865 88.0266 26.0665 87.6542 26.3716C86.911 26.956 86.2633 27.6522 85.7343 28.4352C84.7363 29.8792 84.1424 31.5631 84.014 33.3129C83.9188 34.7029 84.118 36.0975 84.5985 37.4056C85.079 38.7137 85.8301 39.906 86.8029 40.9049C87.4637 41.6012 88.2257 42.1941 89.0633 42.6637C89.7859 43.0437 90.5378 43.3653 91.3119 43.6252C91.2593 43.6319 91.206 43.6319 91.1534 43.6252L90.6955 43.4962C90.4461 43.433 90.2025 43.3486 89.9674 43.2441C89.6378 43.1195 89.3179 42.9705 89.0104 42.7985C88.143 42.3513 87.3506 41.7718 86.662 41.0808C85.6509 40.0739 84.8662 38.8635 84.3601 37.5302C83.8539 36.1968 83.6379 34.7712 83.7264 33.348C83.8538 31.5481 84.462 29.8152 85.4877 28.3297C86.0324 27.522 86.6977 26.8024 87.4604 26.1957C88.2421 25.547 89.1246 25.0302 90.0731 24.6655C92.0683 23.8665 94.2674 23.7269 96.3479 24.2671C98.4284 24.8073 100.281 25.9989 101.634 27.6672C101.955 28.0649 102.25 28.4841 102.514 28.9218C102.763 29.3573 102.981 29.8098 103.166 30.276C103.539 31.1726 103.769 32.1222 103.847 33.0901C104.008 34.7672 103.741 36.4577 103.071 38.0038C102.4 39.5499 101.348 40.901 100.013 41.9309C98.9975 42.7225 97.8367 43.308 96.596 43.6545C95.6661 43.9263 94.6994 44.0509 93.7309 44.0238C93.3772 44.0253 93.0239 43.9998 92.6741 43.9476C92.4149 43.9295 92.1577 43.8903 91.9049 43.8304L91.4411 43.719C91.3964 43.6975 91.3549 43.6698 91.3178 43.6369Z" fill="#E0E0E0"/>
<path d="M92.38 39.4507C91.3026 39.1724 90.3321 38.5812 89.5913 37.752C88.8506 36.9228 88.3728 35.8928 88.2184 34.7923C88.0641 33.6918 88.2401 32.5704 88.7243 31.5698C89.2085 30.5693 89.979 29.7347 90.9383 29.1715C91.8977 28.6084 93.0028 28.3421 94.1138 28.4064C95.2247 28.4706 96.2917 28.8625 97.1795 29.5324C98.0674 30.2023 98.7363 31.1201 99.1016 32.1698C99.4669 33.2194 99.5122 34.3536 99.2317 35.429C98.8561 36.8689 97.9236 38.1011 96.639 38.8551C95.3544 39.6092 93.8226 39.8234 92.38 39.4507Z" fill="#E0E0E0"/>
<path d="M92.3779 39.4508C92.3779 39.4098 92.8652 39.5681 93.7458 39.5681C94.7998 39.5585 95.8296 39.2519 96.7167 38.6835C97.6037 38.1151 98.312 37.3081 98.7598 36.3554C99.1704 35.4651 99.3366 34.4817 99.2413 33.5062C99.1344 32.4308 98.7116 31.411 98.0259 30.5749C97.2937 29.6716 96.2908 29.0264 95.1643 28.7341C94.0379 28.4419 92.8473 28.5179 91.7673 28.9509C91.2545 29.1416 90.7765 29.4149 90.3523 29.76C89.9349 30.0923 89.5724 30.4879 89.2779 30.9325C88.7201 31.7379 88.3859 32.6765 88.3091 33.6527C88.2446 34.505 88.3813 35.3604 88.7084 36.1502C89.1819 37.3091 90.0317 38.2754 91.1214 38.8939C91.5285 39.1135 91.948 39.3093 92.3779 39.4802C91.9169 39.3993 91.4725 39.2428 91.0627 39.017C89.9176 38.4187 89.0151 37.4431 88.5087 36.2557C88.154 35.436 87.9991 34.5439 88.0567 33.6527C88.1234 32.6264 88.4639 31.6365 89.043 30.7859C89.3437 30.3184 89.7139 29.8993 90.1409 29.5431C90.588 29.1741 91.0915 28.8791 91.6322 28.6695C92.7714 28.2091 94.0286 28.127 95.2181 28.4353C96.4076 28.7436 97.4662 29.4259 98.2373 30.3814C98.9677 31.2619 99.4194 32.3394 99.5348 33.4769C99.6266 34.5013 99.4422 35.5317 99.0006 36.4609C98.6157 37.2656 98.0465 37.9686 97.339 38.5128C96.316 39.3038 95.051 39.7179 93.7576 39.6854C93.2878 39.6849 92.8214 39.6057 92.3779 39.4508Z" fill="#E0E0E0"/>
<path d="M108.975 34.674L104.907 41.7449C103.714 43.8167 104.43 46.4614 106.505 47.6518L106.887 47.8708C108.962 49.0613 111.61 48.3467 112.802 46.2748L116.871 39.204C118.063 37.1321 117.348 34.4875 115.273 33.2971L114.891 33.078C112.816 31.8876 110.167 32.6022 108.975 34.674Z" fill="#EBEBEB"/>
<path d="M104.904 41.7489C104.661 42.2709 104.497 42.8261 104.417 43.3963C104.356 44.0663 104.446 44.7414 104.681 45.372C104.827 45.7602 105.024 46.127 105.268 46.4624C105.555 46.8306 105.9 47.1495 106.29 47.4063C106.717 47.6942 107.179 47.9285 107.664 48.104C108.511 48.3906 109.428 48.399 110.281 48.1279C111.133 47.8568 111.876 47.3204 112.402 46.5973C113.752 44.3519 115.179 41.7782 116.717 39.1342C117.069 38.5074 117.253 37.8008 117.253 37.0823C117.253 36.3638 117.069 35.6572 116.717 35.0304C116.406 34.4284 115.95 33.9128 115.39 33.5296C114.847 33.1487 114.235 32.8778 113.588 32.7323C112.988 32.6107 112.369 32.6212 111.774 32.763C111.179 32.9047 110.621 33.1743 110.141 33.553C109.219 34.2507 108.814 35.3118 108.274 36.1677L105.855 40.2716L105.186 41.3796C105.115 41.5129 105.03 41.6386 104.933 41.7548C104.992 41.6142 105.059 41.4771 105.133 41.3444C105.292 41.063 105.497 40.6819 105.755 40.2129C106.343 39.2046 107.112 37.7975 108.104 36.0681L108.879 34.6962C109.165 34.1839 109.545 33.7303 110 33.3596C110.504 32.9556 111.089 32.6656 111.715 32.5097C112.342 32.3538 112.995 32.3357 113.629 32.4567C114.306 32.6046 114.949 32.8834 115.519 33.2775C116.144 33.668 116.659 34.2107 117.016 34.8545C117.4 35.528 117.602 36.2897 117.602 37.0647C117.602 37.8397 117.4 38.6014 117.016 39.2749C115.472 41.9307 114.081 44.4633 112.666 46.7556C112.276 47.2761 111.779 47.7065 111.207 48.0171C110.636 48.3278 110.004 48.5114 109.355 48.5554C108.767 48.5891 108.179 48.5095 107.623 48.3209C107.122 48.1291 106.647 47.8771 106.208 47.5705C105.801 47.2969 105.441 46.9582 105.145 46.568C104.897 46.2055 104.699 45.811 104.558 45.3955C104.361 44.864 104.273 44.2986 104.299 43.7326C104.326 43.1667 104.465 42.6117 104.71 42.1007C104.765 41.9782 104.83 41.8605 104.904 41.7489Z" fill="#E0E0E0"/>
<path d="M92.7656 57.6309C92.7656 57.6309 104.678 91.4112 109.399 98.5987C114.119 105.786 135.637 124.3 138.937 123.327C142.236 122.354 142.818 121.281 140.434 117.465C138.05 113.648 123.407 100.058 121.247 96.6992C119.086 93.34 103.745 53.5505 103.745 53.5505L92.7656 57.6309Z" fill="#E0E0E0"/>
<path d="M99.5328 48.4271L91.8842 51.2856C89.643 52.1232 88.5062 54.6164 89.345 56.8543L89.4994 57.2661C90.3382 59.504 92.8351 60.6392 95.0762 59.8016L102.725 56.943C104.966 56.1054 106.103 53.6122 105.264 51.3743L105.11 50.9625C104.271 48.7246 101.774 47.5895 99.5328 48.4271Z" fill="#EBEBEB"/>
<path d="M99.5356 48.4208C99.67 48.3508 99.8118 48.2957 99.9583 48.2566C100.38 48.1366 100.817 48.0812 101.256 48.0925C101.951 48.1156 102.631 48.3024 103.24 48.6377C103.618 48.8545 103.966 49.1206 104.274 49.4292C104.609 49.7864 104.886 50.1939 105.096 50.6369C105.328 51.1196 105.497 51.6298 105.601 52.1553C105.704 52.7387 105.688 53.3369 105.554 53.914C105.402 54.5493 105.113 55.1438 104.707 55.6561C104.302 56.1685 103.789 56.5863 103.205 56.8805C100.716 57.883 97.9856 58.8621 95.1087 59.9525C94.3805 60.2205 93.5955 60.2966 92.8293 60.1733C92.0631 60.0501 91.3417 59.7318 90.7346 59.249C90.1562 58.7814 89.7041 58.1768 89.4195 57.4902C89.1189 56.8581 88.9473 56.1725 88.9146 55.4735C88.8929 54.824 89.0142 54.1777 89.2698 53.58C89.5254 52.9824 89.9092 52.448 90.3941 52.0146C90.8345 51.6272 91.3446 51.3268 91.8971 51.1293L93.3767 50.5841L97.8505 48.966L99.0717 48.538C99.2123 48.4818 99.3577 48.4387 99.5062 48.4091C99.3769 48.4873 99.239 48.5502 99.0952 48.5967L97.921 49.0774L93.4824 50.7893C92.5606 51.1821 91.4333 51.4107 90.5937 52.2022C90.1418 52.6148 89.7849 53.1205 89.5478 53.6843C89.3106 54.2481 89.1987 54.8565 89.2199 55.4676C89.2623 56.1288 89.4317 56.7757 89.7189 57.373C89.9875 58.0071 90.4115 58.5635 90.9519 58.9911C91.5184 59.4412 92.1916 59.7376 92.9065 59.8516C93.6214 59.9656 94.3537 59.8934 95.0324 59.6418C97.8916 58.5572 100.669 57.5664 103.111 56.605C103.908 56.2017 104.556 55.5565 104.962 54.7622C105.368 53.9679 105.512 53.0654 105.372 52.1846C105.274 51.6764 105.115 51.1821 104.896 50.7131C104.706 50.2839 104.448 49.888 104.133 49.5406C103.845 49.2389 103.517 48.9785 103.158 48.7667C102.576 48.427 101.923 48.2264 101.25 48.1804C100.67 48.1728 100.091 48.2538 99.5356 48.4208Z" fill="#E0E0E0"/>
<path d="M400 242.848C400 242.93 310.5 243.001 200.121 243.001C89.7427 243.001 0.224609 242.93 0.224609 242.848C0.224609 242.766 89.7075 242.695 200.121 242.695C310.535 242.695 400 242.766 400 242.848Z" fill="#263238"/>
<path d="M31.4316 175.78C31.5902 175.287 49.8848 115.571 49.8848 115.571L49.4268 108.155L54.2119 100.287L60.1535 102.251L59.3433 111.045L55.116 117.459L36.7157 177.497L31.4316 175.78Z" fill="#E0E0E0"/>
<path d="M31.4316 175.78L31.7839 175.879L32.7996 176.196L36.7157 177.421L36.6511 177.456C39.6278 167.718 46.5089 145.183 54.9869 117.435L59.2083 111.027V111.092C59.4666 108.284 59.7425 105.299 60.0185 102.298L60.1242 102.456L59.631 102.298L54.1825 100.498L54.3587 100.433L49.5736 108.301V108.213C49.7263 110.742 49.877 113.214 50.0257 115.629V115.682C44.6771 133.03 40.0447 148.055 36.7509 158.749C35.0953 164.101 33.7684 168.363 32.8583 171.301C32.4063 172.766 32.0481 173.898 31.8074 174.672L31.5314 175.545L31.4316 175.844C31.4516 175.747 31.4771 175.651 31.508 175.557C31.5667 175.352 31.6489 175.064 31.7604 174.695C31.9953 173.921 32.3475 172.795 32.7703 171.342C33.6568 168.41 34.9485 164.142 36.5689 158.796C39.8451 148.067 44.4363 133 49.7439 115.594V115.647C49.5912 113.232 49.4366 110.759 49.2801 108.231V108.184V108.143L54.0651 100.275L54.1238 100.17L54.2412 100.211L59.6956 102.005L60.1829 102.169L60.3003 102.204V102.327C60.0243 105.346 59.7484 108.33 59.4842 111.121V111.162V111.191L55.2628 117.605V117.564C46.6967 145.253 39.757 167.76 36.7509 177.497V177.55H36.6981L32.7761 176.254L31.7839 175.92L31.4316 175.78Z" fill="#263238"/>
<path d="M27.0223 178.67L18.8027 189.762L7.31275 231.386C7.31275 231.386 5.66295 239.875 15.051 242.285C25.6191 244.993 28.0263 236.926 28.0263 236.926L39.1816 196.281L39.0642 182.187L41.8178 179.086C41.9423 178.942 42.0296 178.769 42.0722 178.583C42.1148 178.397 42.1114 178.204 42.0622 178.02C42.013 177.835 41.9196 177.666 41.7901 177.526C41.6605 177.386 41.4987 177.279 41.3187 177.216L28.1203 172.866C27.9368 172.809 27.7421 172.797 27.5532 172.833C27.3644 172.868 27.1871 172.949 27.0369 173.069C26.8868 173.189 26.7684 173.344 26.6922 173.52C26.6159 173.696 26.5842 173.888 26.5996 174.079L27.0223 178.67Z" fill="#7B3DFF"/>
<path d="M39.1362 182.674C39.1069 182.756 36.3416 181.953 32.9597 180.88C29.5779 179.807 26.8478 178.869 26.8772 178.787C26.9065 178.705 29.666 179.514 33.0537 180.587C36.4414 181.66 39.1597 182.592 39.1362 182.674Z" fill="#263238"/>
<path d="M39.2067 196.287C38.9284 196.269 38.6529 196.222 38.3847 196.146C37.8563 196.035 37.1048 195.853 36.1713 195.618C34.3042 195.155 31.7444 194.446 28.9556 193.555C26.1668 192.664 23.6715 191.761 21.869 191.063C20.9766 190.711 20.2545 190.418 19.7613 190.207C19.4995 190.113 19.2477 189.993 19.0098 189.85C19.2833 189.905 19.5508 189.988 19.8082 190.096L21.9454 190.858C23.7537 191.503 26.2548 192.376 29.0436 193.262C31.8325 194.147 34.3806 194.891 36.2241 195.413L38.4141 196.029C38.6856 196.09 38.9509 196.177 39.2067 196.287Z" fill="#263238"/>
<g opacity="0.3">
<path d="M23.7529 194.175L23.4655 194.091C22.4382 193.792 21.3626 194.381 21.063 195.407L10.8887 230.239C10.589 231.265 11.1789 232.339 12.2062 232.638L12.4936 232.722C13.5209 233.021 14.5965 232.432 14.8961 231.406L25.0704 196.574C25.37 195.548 24.7802 194.474 23.7529 194.175Z" fill="black"/>
</g>
<g opacity="0.3">
<path d="M29.6455 196.082L29.358 195.998C28.3308 195.699 27.2552 196.288 26.9556 197.314L16.7812 232.146C16.4816 233.172 17.0715 234.246 18.0987 234.545L18.3862 234.629C19.4134 234.928 20.4891 234.339 20.7887 233.313L30.963 198.481C31.2626 197.455 30.6727 196.381 29.6455 196.082Z" fill="black"/>
</g>
<g opacity="0.3">
<path d="M34.9594 197.836L34.6723 197.752C33.6462 197.448 32.5682 198.033 32.2645 199.057L21.9504 233.849C21.6466 234.873 22.2322 235.95 23.2582 236.253L23.5453 236.338C24.5714 236.641 25.6494 236.056 25.9531 235.032L36.2672 200.241C36.5709 199.216 35.9854 198.14 34.9594 197.836Z" fill="black"/>
</g>
<path d="M55.0748 117.464C54.177 117.314 53.2987 117.064 52.4562 116.72C51.5814 116.474 50.7382 116.128 49.9434 115.688C50.8384 115.842 51.7143 116.092 52.556 116.433C53.4324 116.679 54.2775 117.025 55.0748 117.464Z" fill="#263238"/>
<path d="M60.1647 102.251C60.1207 102.53 60.0519 102.805 59.9592 103.072C59.7889 103.658 59.5658 104.397 59.2899 105.311L56.9414 112.933L56.8944 113.079L56.7476 113.032L54.041 112.089L51.2581 111.115L51.123 111.068L51.1641 110.934C52.0096 107.92 52.7552 105.276 53.3071 103.312C53.5772 102.404 53.7944 101.653 53.9647 101.09C54.0337 100.818 54.124 100.551 54.2348 100.293C54.2026 100.573 54.1457 100.85 54.0645 101.12L53.4774 103.365C52.9549 105.317 52.2503 107.967 51.4401 110.986L51.3462 110.805L54.135 111.778L56.8357 112.722L56.642 112.821L59.1079 105.253C59.4132 104.344 59.695 103.605 59.8594 103.043C59.9386 102.771 60.0408 102.506 60.1647 102.251Z" fill="#263238"/>
<path d="M233.343 42.6106C232.869 42.6114 232.398 42.5321 231.951 42.3761L224.759 39.8904C224.053 39.6439 223.424 39.2171 222.935 38.6524C222.445 38.0877 222.113 37.4048 221.97 36.6718L220.532 29.2087C220.39 28.4749 220.445 27.7168 220.691 27.0109C220.936 26.3049 221.363 25.6758 221.929 25.187L227.683 20.2155C228.249 19.7276 228.934 19.3966 229.668 19.2556C230.403 19.1147 231.162 19.1687 231.869 19.4123L239.055 21.8981C239.762 22.1437 240.392 22.5701 240.883 23.1349C241.373 23.6996 241.707 24.383 241.85 25.1166L243.288 32.5797C243.426 33.3135 243.37 34.0706 243.125 34.7761C242.88 35.4815 242.455 36.1107 241.891 36.6014L236.137 41.5729C235.361 42.2426 234.369 42.6109 233.343 42.6106ZM226.532 35.5403L233.254 37.8854L238.627 33.2422L237.282 26.2422L230.565 23.8972L225.182 28.5873L226.532 35.5403Z" fill="#E0E0E0"/>
<path d="M226.533 35.54C226.484 35.3883 226.445 35.2336 226.416 35.0769L226.122 33.6992C225.87 32.4622 225.535 30.721 225.083 28.5928C225.078 28.5728 225.079 28.552 225.086 28.5325C225.092 28.5129 225.103 28.4953 225.118 28.4815L230.473 23.7914C230.494 23.7801 230.518 23.7742 230.543 23.7742C230.568 23.7742 230.592 23.7801 230.613 23.7914L237.33 26.1364L237.436 26.2537V26.3533V26.4706L237.483 26.6992L237.571 27.1565C237.63 27.4555 237.682 27.7428 237.741 28.0593C237.859 28.6456 237.97 29.2319 238.082 29.8181C238.305 30.9906 238.522 32.1163 238.727 33.2008C238.732 33.2255 238.731 33.2509 238.722 33.2747C238.714 33.2984 238.7 33.3194 238.68 33.3357L233.326 37.9671C233.309 37.9769 233.29 37.982 233.27 37.982C233.251 37.982 233.231 37.9769 233.214 37.9671L228.3 36.2084L226.979 35.7159C226.826 35.6662 226.677 35.6054 226.533 35.5342C226.701 35.5692 226.865 35.6162 227.026 35.6749L228.382 36.1087L233.291 37.7502H233.179L238.534 33.0601L238.487 33.2008C238.275 32.1104 238.052 30.9848 237.829 29.8181C237.718 29.2319 237.6 28.6456 237.483 28.0593C237.424 27.7604 237.371 27.4731 237.312 27.1565L237.224 26.6992L237.177 26.4706V26.3533V26.2947V26.2537C237.177 26.2537 237.365 26.4706 237.271 26.3651L230.561 24.02H230.702L225.306 28.6456L225.347 28.5342C225.729 30.6565 226.046 32.3859 226.269 33.6229C226.369 34.2092 226.451 34.6724 226.51 35.0241C226.533 35.195 226.541 35.3677 226.533 35.54Z" fill="#263238"/>
<path d="M233.343 42.6106C233.343 42.6106 233.596 42.6106 234.071 42.5168C234.757 42.3865 235.4 42.0906 235.944 41.655L241.786 36.5487C242.425 35.9976 242.882 35.2657 243.095 34.4499C243.21 34.0201 243.258 33.5751 243.236 33.1308C243.184 32.6675 243.106 32.2075 243.001 31.7531C242.632 29.8595 242.238 27.8427 241.827 25.7205C241.754 25.1896 241.61 24.6709 241.399 24.1786C241.17 23.6819 240.845 23.2357 240.442 22.8662C240.038 22.4968 239.565 22.2114 239.05 22.027L237.394 21.4408L233.995 20.2682L232.234 19.682C231.676 19.4475 231.078 19.3221 230.472 19.3126C229.864 19.3119 229.263 19.444 228.711 19.6996C228.175 19.9682 227.684 20.3183 227.255 20.7373L224.536 23.0823L221.912 25.3511C221.113 26.0821 220.633 27.0965 220.573 28.1769C220.565 28.7002 220.624 29.2223 220.75 29.7305C220.849 30.2522 220.943 30.7623 221.043 31.2665C221.231 32.2748 221.419 33.248 221.595 34.1978C221.771 35.1475 221.941 36.0621 222.123 36.918C222.342 37.7296 222.801 38.4568 223.439 39.0051C223.735 39.2579 224.065 39.4689 224.419 39.6324C224.765 39.7848 225.135 39.8962 225.476 40.0252L227.443 40.717L230.59 41.8309C231.241 42.0932 231.907 42.3145 232.586 42.4933C233.056 42.5813 233.314 42.5754 233.314 42.5871C233.068 42.6169 232.82 42.6169 232.574 42.5871C231.887 42.4293 231.212 42.2236 230.554 41.9716L227.419 40.8987L225.447 40.2304C225.094 40.1073 224.736 40.0017 224.366 39.8434C223.992 39.6747 223.642 39.4558 223.327 39.1927C222.65 38.6213 222.161 37.8592 221.924 37.006C221.724 36.1148 221.566 35.212 221.378 34.2681C221.19 33.3242 221.002 32.3452 220.791 31.3368C220.689 30.8405 220.589 30.3304 220.491 29.8067C220.359 29.2777 220.296 28.7338 220.303 28.1886C220.364 27.031 220.876 25.9431 221.73 25.1577L224.349 22.883L227.067 20.5379C227.302 20.3386 227.519 20.1393 227.772 19.9517C228.029 19.7607 228.304 19.5958 228.593 19.4592C229.178 19.1881 229.816 19.048 230.461 19.0488C231.1 19.0588 231.731 19.1901 232.322 19.4358L234.083 20.022L237.482 21.1945L239.138 21.7808C239.697 21.98 240.21 22.289 240.647 22.6895C241.075 23.0822 241.421 23.5567 241.663 24.0848C241.884 24.5994 242.035 25.1418 242.109 25.697C242.5 27.8271 242.882 29.8399 243.254 31.7355C243.36 32.2012 243.436 32.6731 243.483 33.1484C243.517 33.8233 243.394 34.4969 243.126 35.117C242.857 35.7372 242.449 36.2872 241.933 36.7245L236.026 41.7605C235.458 42.1942 234.79 42.4803 234.083 42.593C233.838 42.6292 233.59 42.6351 233.343 42.6106Z" fill="#263238"/>
<path d="M183.3 30.4045C182.835 30.4033 182.376 30.2973 181.957 30.0943C181.538 29.8913 181.17 29.5965 180.881 29.2319L178.832 26.6817C178.494 26.2578 178.273 25.7528 178.19 25.217C178.108 24.6811 178.167 24.1331 178.363 23.6273L179.537 20.5788C179.735 20.0742 180.061 19.6305 180.485 19.2919C180.909 18.9534 181.414 18.732 181.95 18.65L185.185 18.1516C185.722 18.0705 186.27 18.1312 186.776 18.3277C187.282 18.5242 187.727 18.8495 188.068 19.2714L190.117 21.8275C190.455 22.2503 190.677 22.7543 190.759 23.2892C190.841 23.8241 190.782 24.3712 190.587 24.876L189.412 27.9304C189.218 28.4353 188.894 28.8806 188.474 29.222C188.054 29.5635 187.551 29.7892 187.017 29.8768L183.776 30.3693C183.619 30.393 183.46 30.4048 183.3 30.4045ZM185.649 20.4791H185.537L182.32 20.9657C182.19 20.985 182.068 21.0379 181.965 21.1191C181.862 21.2004 181.782 21.3072 181.733 21.4288L180.559 24.4832C180.512 24.6046 180.498 24.7359 180.517 24.8644C180.537 24.9928 180.59 25.114 180.67 25.2161L182.719 27.7663C182.801 27.8674 182.908 27.9454 183.03 27.9927C183.151 28.04 183.283 28.0549 183.412 28.036L186.653 27.5377C186.783 27.519 186.906 27.4663 187.009 27.3849C187.112 27.3036 187.192 27.1965 187.24 27.0745L188.414 24.026C188.462 23.9048 188.477 23.7733 188.457 23.6446C188.438 23.5159 188.384 23.3946 188.303 23.2931L186.254 20.7429C186.182 20.659 186.093 20.5919 185.992 20.5463C185.892 20.5007 185.783 20.4778 185.672 20.4791H185.649Z" fill="#E0E0E0"/>
<path d="M185.672 20.4792C185.754 20.4535 185.842 20.4535 185.924 20.4792C186.026 20.5068 186.12 20.5569 186.2 20.6258C186.3 20.7241 186.394 20.8279 186.482 20.9365L188.149 22.9356L188.419 23.2698C188.521 23.4078 188.579 23.5734 188.584 23.7447C188.58 23.9134 188.54 24.0794 188.466 24.2313C188.414 24.3778 188.355 24.5244 188.302 24.6768C188.067 25.2631 187.821 25.9256 187.562 26.6056C187.498 26.7756 187.433 26.9457 187.363 27.1215C187.286 27.3333 187.13 27.5075 186.928 27.6081C186.739 27.6784 186.542 27.7238 186.341 27.743L185.754 27.8368C184.961 27.954 184.186 28.0889 183.306 28.2003C183.179 28.2006 183.054 28.1741 182.939 28.1226C182.823 28.071 182.72 27.9956 182.636 27.9013L182.249 27.4147L181.491 26.4767L180.769 25.5621L180.587 25.3393C180.518 25.2571 180.462 25.164 180.423 25.0638C180.343 24.8561 180.343 24.6265 180.423 24.4189L181.186 22.5018L181.533 21.6342C181.583 21.4864 181.65 21.3448 181.732 21.212C181.826 21.0799 181.957 20.978 182.108 20.9189C183.235 20.7137 184.092 20.6316 184.709 20.5496C185.024 20.488 185.345 20.4604 185.666 20.4675C185.588 20.4963 185.507 20.516 185.425 20.5261L184.732 20.6668C184.145 20.7841 183.218 20.9131 182.19 21.1182C182.08 21.1666 181.985 21.2435 181.914 21.341C181.848 21.463 181.793 21.5905 181.75 21.7221L181.421 22.5956L180.681 24.5244C180.628 24.6662 180.628 24.8223 180.681 24.9641C180.763 25.1151 180.863 25.255 180.981 25.3803L181.732 26.3008L182.49 27.2388L182.871 27.7137C182.927 27.7751 182.995 27.8241 183.071 27.8575C183.147 27.8908 183.229 27.9078 183.312 27.9071L185.713 27.5495L186.3 27.4616C186.478 27.4505 186.654 27.4149 186.823 27.356C186.962 27.29 187.069 27.1721 187.122 27.0277C187.187 26.8519 187.257 26.6818 187.322 26.5118C187.592 25.8435 187.844 25.1986 188.085 24.5948C188.151 24.4502 188.21 24.3036 188.261 24.1551C188.325 24.0332 188.363 23.8995 188.373 23.7623C188.367 23.6373 188.328 23.516 188.261 23.4105L188.003 23.0822L186.412 21.0244C186.341 20.8807 186.238 20.756 186.109 20.6611C185.98 20.5662 185.83 20.5038 185.672 20.4792Z" fill="#263238"/>
<path d="M183.302 30.4047C183.429 30.3757 183.559 30.3561 183.689 30.346L184.811 30.1526L186.572 29.8536C186.938 29.8137 187.297 29.727 187.64 29.5956C188.017 29.4405 188.357 29.2089 188.639 28.9156C188.962 28.5944 189.21 28.2061 189.367 27.7782C189.537 27.3327 189.719 26.8637 189.901 26.3771C190.224 25.398 190.881 24.3955 190.641 23.2757C190.537 22.7079 190.276 22.1802 189.889 21.7515L188.715 20.2975L188.128 19.5471C187.941 19.2949 187.719 19.07 187.47 18.8788C186.962 18.4983 186.344 18.2925 185.709 18.2925C185.382 18.3046 185.056 18.3418 184.734 18.4039L183.754 18.5505L181.846 18.8495C181.26 18.9764 180.727 19.2791 180.319 19.7171C180.122 19.9272 179.956 20.1641 179.826 20.4207C179.703 20.6728 179.603 20.9659 179.497 21.2297L178.869 22.8185C178.65 23.2975 178.477 23.796 178.352 24.3076C178.283 24.7694 178.319 25.2409 178.458 25.6866C178.598 26.1324 178.836 26.5408 179.157 26.8812L180.63 28.7573C180.853 29.0269 181.035 29.2966 181.247 29.5018C181.438 29.6895 181.653 29.8512 181.887 29.9825C182.336 30.2206 182.83 30.3642 183.337 30.4047C183.337 30.4047 183.302 30.4047 183.231 30.4047C183.161 30.4047 183.067 30.4047 182.938 30.4047C182.552 30.3698 182.177 30.2603 181.834 30.0822C181.586 29.9508 181.355 29.7893 181.147 29.6015C180.917 29.3649 180.699 29.1164 180.495 28.8569L178.986 27.0102C178.641 26.6494 178.382 26.2149 178.23 25.7396C178.077 25.2643 178.035 24.7606 178.106 24.2665C178.223 23.7329 178.395 23.2124 178.616 22.7129L179.233 21.1242C179.344 20.8486 179.433 20.5789 179.568 20.2917C179.708 20.0079 179.888 19.7453 180.102 19.512C180.54 19.0406 181.108 18.7083 181.734 18.5564C182.38 18.445 183.008 18.357 183.66 18.2515L184.64 18.1049C184.977 18.0375 185.319 17.9983 185.662 17.9877C186.361 17.9813 187.044 18.2037 187.605 18.6208C187.875 18.8265 188.114 19.0693 188.316 19.3419L188.903 20.0924C189.302 20.5848 189.689 21.0773 190.077 21.5521C190.496 22.0188 190.775 22.5938 190.881 23.2113C190.985 23.8035 190.92 24.413 190.693 24.97C190.494 25.4801 190.294 25.9784 190.106 26.465C189.918 26.9516 189.731 27.4089 189.554 27.8603C189.39 28.3012 189.131 28.7013 188.797 29.0328C188.202 29.6045 187.42 29.9437 186.595 29.9884L184.834 30.2346C184.347 30.2991 183.965 30.3519 183.707 30.3695C183.574 30.3972 183.438 30.409 183.302 30.4047Z" fill="#263238"/>
<path d="M240.499 22.7539C240.086 23.4636 239.576 24.1127 238.984 24.6827C238.464 25.3245 237.839 25.8736 237.135 26.3066C237.63 25.6584 238.173 25.0489 238.761 24.4834C239.273 23.8432 239.856 23.263 240.499 22.7539Z" fill="#263238"/>
<path d="M229.492 19.3831C229.876 20.0725 230.14 20.8218 230.273 21.5991C230.511 22.3571 230.616 23.1504 230.584 23.9442C230.321 23.2089 230.125 22.4515 229.997 21.6812C229.759 20.9323 229.589 20.163 229.492 19.3831Z" fill="#263238"/>
<path d="M225.111 28.4524C224.342 28.3014 223.588 28.0857 222.856 27.8075C222.094 27.6208 221.348 27.3738 220.625 27.0688C222.204 27.1961 223.735 27.6685 225.111 28.4524Z" fill="#263238"/>
<path d="M223.859 38.624C224.167 38.011 224.562 37.4461 225.034 36.9473C225.438 36.3889 225.92 35.8913 226.466 35.47C226.163 36.0854 225.767 36.6508 225.292 37.1467C224.888 37.7051 224.405 38.2027 223.859 38.624Z" fill="#263238"/>
<path d="M233.748 41.8307C233.512 41.2273 233.373 40.59 233.337 39.943C233.196 39.3083 233.158 38.655 233.226 38.0083C233.46 38.6145 233.599 39.2533 233.637 39.9019C233.775 40.5351 233.812 41.1859 233.748 41.8307Z" fill="#263238"/>
<path d="M242.102 34.321C241.501 34.2509 240.915 34.0805 240.37 33.8168C239.787 33.6501 239.237 33.3844 238.744 33.0312C239.928 33.2711 241.063 33.7071 242.102 34.321Z" fill="#263238"/>
<path d="M358.656 79.2752C362.631 74.4913 366.606 69.6605 369.706 64.2669C372.806 58.8734 374.99 52.8466 375.148 46.6323C375.148 45.6884 374.767 39.1516 373.857 38.8878C373.211 38.7002 372.765 44.4748 372.236 44.8911C367.164 48.8542 363.87 54.7344 361.973 60.8784C360.188 66.8689 359.076 73.0391 358.656 79.2752Z" fill="#263238"/>
<path d="M306.877 115.635C308.462 111.531 316.271 91.0123 316.23 91.0123C316.189 91.0123 302.779 84.0241 307.423 69.7897C309.654 62.9129 315.402 49.13 320.745 36.713C323.518 30.2797 328.615 25.1246 335.021 22.2731C341.428 19.4216 348.675 19.0826 355.32 21.3237L356.688 21.7868C371.166 27.6494 374.302 43.1677 368.037 57.4548L339.268 123.995L314.057 116.216L306.877 115.635Z" fill="#FFBF9D"/>
<path d="M316.235 91.0239C316.235 91.0239 325.001 94.5415 336.555 91.7978C336.555 91.7978 328.559 100.82 314.832 94.7701L316.235 91.0239Z" fill="#FF9A6C"/>
<path d="M320.72 50.4138C320.537 50.9397 320.567 51.5162 320.802 52.0209C321.038 52.5255 321.461 52.9185 321.983 53.1165C322.234 53.2235 322.504 53.2794 322.776 53.2809C323.049 53.2824 323.32 53.2294 323.572 53.1251C323.824 53.0208 324.053 52.8673 324.245 52.6735C324.437 52.4797 324.588 52.2496 324.689 51.9967C324.874 51.4708 324.845 50.8937 324.609 50.3887C324.374 49.8836 323.949 49.4908 323.427 49.2941C323.176 49.1862 322.906 49.1296 322.633 49.1277C322.36 49.1258 322.089 49.1787 321.837 49.2831C321.584 49.3874 321.356 49.5413 321.164 49.7355C320.972 49.9297 320.821 50.1604 320.72 50.4138Z" fill="#263238"/>
<path d="M321.767 43.631C321.931 43.9828 323.851 43.3613 326.03 44.1059C328.208 44.8504 329.441 46.4509 329.764 46.2868C329.922 46.2106 329.828 45.6477 329.3 44.9032C328.579 43.9321 327.574 43.2089 326.423 42.8337C325.284 42.441 324.049 42.4245 322.9 42.7868C322.055 43.0741 321.685 43.4727 321.767 43.631Z" fill="#263238"/>
<path d="M339.856 58.0998C339.672 58.6248 339.701 59.2012 339.937 59.7052C340.173 60.2093 340.597 60.6011 341.119 60.7966C341.37 60.9044 341.64 60.961 341.913 60.9629C342.186 60.9648 342.457 60.912 342.709 60.8076C342.961 60.7032 343.19 60.5493 343.382 60.3551C343.574 60.1609 343.724 59.9302 343.825 59.6768C344.008 59.1509 343.979 58.5744 343.743 58.0698C343.508 57.5651 343.084 57.1721 342.563 56.9742C342.312 56.8673 342.042 56.8117 341.768 56.8106C341.495 56.8095 341.225 56.8629 340.972 56.9678C340.72 57.0727 340.492 57.2269 340.3 57.4213C340.108 57.6156 339.957 57.8463 339.856 58.0998Z" fill="#263238"/>
<path d="M342.837 51.7154C342.996 52.0672 344.921 51.4516 347.099 52.1903C349.278 52.929 350.505 54.5354 350.834 54.3771C350.986 54.295 350.898 53.7322 350.37 52.9935C349.647 52.0209 348.64 51.2959 347.487 50.9181C346.348 50.5241 345.113 50.5077 343.964 50.8712C343.142 51.1585 342.755 51.5572 342.837 51.7154Z" fill="#263238"/>
<path d="M329.35 65.815C329.403 65.6978 328.123 65.006 326.021 63.9859C325.487 63.7396 324.994 63.4524 325.029 63.0361C325.064 62.6199 325.469 62.0688 325.957 61.5177L329.039 57.836C333.366 52.5597 336.701 48.1803 336.484 48.0044C336.266 47.8286 332.591 51.9558 328.264 57.2146C327.213 58.5161 326.203 59.7531 325.246 60.9432C324.823 61.5294 324.219 62.1157 324.219 63.0303C324.234 63.253 324.3 63.4693 324.411 63.6632C324.521 63.8571 324.675 64.0235 324.859 64.15C325.141 64.3365 325.444 64.4881 325.763 64.6014C327.923 65.4632 329.297 65.9381 329.35 65.815Z" fill="#263238"/>
<path d="M335.265 69.4848C334.913 69.3499 334.091 71.7126 331.519 72.7034C328.948 73.6941 326.488 72.592 326.358 72.9144C326.276 73.0492 326.769 73.5593 327.82 73.9521C329.202 74.4364 330.71 74.4218 332.083 73.911C333.398 73.4152 334.469 72.4296 335.071 71.1615C335.494 70.2117 335.429 69.5258 335.265 69.4848Z" fill="#263238"/>
<path d="M345.943 42.9213C345.943 43.5837 348.233 44.041 350.687 45.2077C353.141 46.3743 354.979 47.7755 355.496 47.3592C355.731 47.154 355.56 46.474 354.909 45.6005C354.034 44.5206 352.924 43.6545 351.664 43.0683C350.403 42.482 349.025 42.1911 347.634 42.2177C346.577 42.2998 345.949 42.6105 345.943 42.9213Z" fill="#263238"/>
<path d="M325.118 36.6952C325.335 37.3225 327.008 37.2815 328.823 37.8677C330.637 38.454 332.052 39.3275 332.574 38.9289C332.815 38.7295 332.745 38.155 332.234 37.4573C331.525 36.5937 330.575 35.9596 329.505 35.635C328.435 35.3105 327.292 35.3101 326.222 35.6341C325.411 35.9565 325.03 36.3962 325.118 36.6952Z" fill="#263238"/>
<path d="M363.304 67.5735C363.586 67.5735 374.031 67.978 370.449 77.5399C366.868 87.1018 357.961 81.5558 358.049 81.2744C358.138 80.993 363.304 67.5735 363.304 67.5735Z" fill="#FFBF9D"/>
<path d="M362.342 78.7595C362.394 78.7595 362.465 78.9412 362.7 79.1757C363.032 79.4956 363.477 79.6725 363.939 79.6682C365.113 79.6682 366.545 78.3843 367.238 76.6724C367.572 75.8593 367.718 74.9818 367.667 74.1046C367.691 73.7699 367.633 73.4343 367.497 73.1275C367.361 72.8207 367.151 72.5522 366.886 72.3458C366.712 72.218 366.498 72.1566 366.282 72.1727C366.067 72.1888 365.865 72.2814 365.712 72.4337C365.483 72.6565 365.471 72.8676 365.418 72.8676C365.365 72.8676 365.271 72.6272 365.494 72.2813C365.634 72.0671 365.84 71.9045 366.082 71.8182C366.42 71.7181 366.785 71.7538 367.097 71.9178C367.459 72.1457 367.756 72.4617 367.962 72.836C368.167 73.2104 368.274 73.6308 368.271 74.0577C368.366 75.041 368.221 76.0328 367.849 76.9479C367.062 78.8533 365.4 80.2955 363.862 80.1782C363.576 80.1554 363.299 80.0694 363.05 79.9265C362.801 79.7835 362.587 79.5872 362.424 79.3516C362.271 79.0057 362.3 78.7653 362.342 78.7595Z" fill="#FF9A6C"/>
<path d="M332.996 23.2699C331.775 21.8277 338.345 18.5799 342.813 18.3336C349.565 17.935 358.965 19.6937 363.685 23.2289C369.38 27.4793 373.461 32.6853 374.435 39.7145C375.41 46.7438 374.018 53.9665 371.288 60.5209C370.455 62.52 369.433 64.5426 367.695 65.8382C365.552 67.4387 362.476 67.7846 361.466 70.7452C361.299 71.2859 361.026 71.7882 360.663 72.2229C360.3 72.6576 359.855 73.0162 359.352 73.2779C356.886 74.4504 355.418 71.9001 355.107 69.7603C354.444 65.2109 355.923 60.6557 357.385 56.2763C358.425 53.1809 359.499 50.0209 361.495 47.4238C362.575 46.0109 363.902 44.7974 364.906 43.32C365.91 41.8426 366.562 39.9959 366.081 38.2899C365.958 37.9137 365.799 37.5504 365.605 37.2053C364.718 35.5324 363.401 34.1252 361.789 33.128C360.178 32.1308 358.329 31.5794 356.434 31.5303C350.311 31.372 339.995 30.6861 338.322 27.9424C335.873 23.991 335.703 21.9626 335.703 21.9626L332.996 23.2699Z" fill="#263238"/>
<path d="M364.914 17.378C365.53 17.6887 379.956 26.5882 379.862 39.568C379.768 52.5477 377.39 55.7253 377.39 55.7253C377.874 56.3203 378.269 56.9817 378.564 57.6892C378.952 58.6741 376.738 62.0158 374.842 60.9019C361.89 48.9012 344.042 42.0068 323.681 35.6928L308.321 30.1995C303.824 29.2205 302.703 27.5496 304.899 27.0982C306.584 26.7465 320.534 26.0429 320.534 26.0429L323.545 25.1167L332.939 18.4861C332.939 18.4861 332.575 16.9852 334.483 16.4986C336.392 16.012 352.784 11.2223 364.914 17.378Z" fill="#7B3DFF"/>
<path d="M323.531 25.1401C323.531 25.1401 323.737 25.2222 324.118 25.3512L325.88 25.9023C327.394 26.3537 329.549 27.1158 332.203 28.089C339.069 30.7278 345.692 33.9606 351.995 37.7506C358.294 41.5564 364.371 45.7178 370.195 50.2145C372.45 51.9205 374.241 53.3392 375.48 54.3183L376.918 55.438C377.247 55.6901 377.429 55.8132 377.429 55.8132C377.429 55.8132 377.27 55.6608 376.947 55.3911L375.544 54.2186C374.317 53.222 372.538 51.7798 370.301 50.0562C364.497 45.5065 358.419 41.3167 352.1 37.5102C345.778 33.7062 339.12 30.4897 332.209 27.9014C329.364 26.8365 326.468 25.9149 323.531 25.1401Z" fill="#263238"/>
<g opacity="0.3">
<path d="M376.855 29.1735C376.855 29.1735 360.933 20.661 352.138 21.6928L353.171 21.5521L344.951 22.2322C343.56 22.3494 341.969 22.3905 341.018 21.3762C341.018 21.3762 346.002 19.2657 353.876 19.3067C361.749 19.3478 373.303 22.1384 376.855 29.1735Z" fill="black"/>
</g>
<path d="M377.066 29.3145C376.712 28.7838 376.32 28.2802 375.891 27.8078C374.744 26.5002 373.448 25.3314 372.028 24.3255C369.926 22.822 367.613 21.6367 365.165 20.8079C362.181 19.7105 358.994 19.2685 355.824 19.5123C354.196 19.6761 352.58 19.9424 350.986 20.3096C349.448 20.6555 347.95 20.8958 346.535 21.3062C345.238 21.736 343.906 22.0537 342.555 22.256C341.372 22.3727 340.178 22.2142 339.067 21.7928C334.905 20.4268 332.656 18.6974 332.938 18.5039C332.953 18.6723 333.03 18.8291 333.155 18.9436C333.493 19.2736 333.872 19.5592 334.282 19.7937C335.777 20.6868 337.363 21.416 339.014 21.9687C340.15 22.4071 341.371 22.5796 342.584 22.4729C343.951 22.2822 345.298 21.9742 346.612 21.5525C347.997 21.1714 349.512 20.9134 351.05 20.5675C352.635 20.2153 354.238 19.9569 355.853 19.7937C358.986 19.5582 362.134 19.9878 365.088 21.0541C367.519 21.866 369.82 23.0209 371.922 24.4838C373.341 25.4694 374.646 26.6077 375.815 27.8782C376.232 28.3296 376.543 28.6931 376.743 28.9452C376.942 29.1973 377.066 29.3145 377.066 29.3145Z" fill="#263238"/>
<g opacity="0.3">
<path d="M379.673 44.9323C376.655 43.8712 374.636 42.3058 371.858 40.6174C368.923 38.8235 365.923 37.1819 363.052 35.2473C360.873 33.7816 358.237 32.2339 357.269 29.9709C356.947 30.5199 356.773 31.1426 356.764 31.7785C356.755 32.4143 356.91 33.0418 357.216 33.5999C357.832 34.7724 360.445 36.8654 361.56 37.6216C367.907 41.9306 372.316 44.8737 379.409 47.8694C379.56 46.8991 379.646 45.9199 379.667 44.9381" fill="black"/>
</g>
<path d="M379.826 38.1316C381.458 39.6148 382.438 40.5763 381.934 42.2354C381.517 43.6072 380.671 45.1667 379.25 44.9498C378.83 44.8523 378.432 44.6773 378.076 44.4338L358.631 33.0663C357.927 32.7583 357.356 32.2094 357.022 31.5186C356.635 30.4164 357.609 29.2087 358.731 28.9038C359.852 28.599 361.05 28.9038 362.165 29.2908C368.494 31.3368 374.266 34.4792 379.826 38.1257" fill="#7B3DFF"/>
<path d="M357.234 31.9407C357.055 31.6018 356.97 31.2213 356.987 30.8386C357.031 30.322 357.219 29.8281 357.531 29.4134C357.842 28.9987 358.264 28.6799 358.749 28.4935C359.993 28.0714 361.643 28.3528 363.264 29.0094C364.884 29.6661 366.71 30.4106 368.548 31.2607C371.74 32.6743 374.799 34.3695 377.689 36.326C378.793 37.0822 379.644 37.7506 380.237 38.2137L380.906 38.7589C380.982 38.8262 381.065 38.8851 381.153 38.9348C381.153 38.9348 381.088 38.8527 380.942 38.7179L380.302 38.1316C379.715 37.645 378.899 36.9591 377.801 36.1677C374.929 34.156 371.868 32.43 368.659 31.0145C366.792 30.1585 364.99 29.4198 363.334 28.7691C361.678 28.1183 359.982 27.8369 358.637 28.3118C358.128 28.5148 357.687 28.8598 357.369 29.3057C357.05 29.7517 356.867 30.2797 356.84 30.8269C356.833 31.1206 356.895 31.412 357.022 31.6769C357.077 31.7765 357.149 31.8658 357.234 31.9407Z" fill="#263238"/>
<path d="M329.991 20.5908L343.207 24.8177L340.829 28.1301L326.662 22.9359L329.991 20.5908Z" fill="white"/>
<path d="M345.845 39.0284C345.875 38.9581 340.314 36.0971 333.416 32.6851C326.517 29.2731 320.881 26.5118 320.881 26.5821C320.881 26.6525 326.412 29.5134 333.31 32.9255C340.209 36.3375 345.81 39.0929 345.845 39.0284Z" fill="#263238"/>
<path d="M349.172 110.154L349.348 101.489L319.652 112.504C319.652 112.504 314.162 94.6998 314.162 93.8614L307.581 97.9653L296.643 93.2752L285.705 87.8816L263.582 126.575L240.373 194.897L295.046 231.316L335.592 187.933L360.251 150.412L373.802 126.657L349.172 110.154Z" fill="#7B3DFF"/>
<path d="M317.008 112.376C316.974 112.088 316.96 111.798 316.967 111.508C316.967 110.922 316.967 110.089 316.932 109.081L317.067 109.163C313.804 110.755 310.791 112.815 308.125 115.278L307.891 115.5V115.178C307.891 114.791 307.844 114.381 307.82 113.964C307.579 109.714 307.38 105.868 307.233 103.078C307.174 101.717 307.127 100.604 307.092 99.777C307.092 99.4174 307.092 99.1184 307.092 98.88C307.053 98.8727 307.019 98.8512 306.995 98.8197C306.971 98.7882 306.96 98.749 306.964 98.7097C306.967 98.6705 306.985 98.634 307.015 98.6074C307.044 98.5809 307.082 98.5662 307.121 98.5662C307.161 98.5662 307.199 98.5809 307.228 98.6074C307.257 98.634 307.276 98.6705 307.279 98.7097C307.283 98.749 307.272 98.7882 307.248 98.8197C307.224 98.8512 307.19 98.8727 307.151 98.88C307.151 99.1145 307.198 99.4135 307.233 99.7711C307.292 100.598 307.368 101.712 307.462 103.066C307.65 105.851 307.879 109.696 308.12 113.947C308.12 114.363 308.167 114.773 308.184 115.16L307.932 115.055C310.618 112.575 313.677 110.529 316.997 108.993L317.138 108.934V109.081C317.138 110.089 317.097 110.904 317.085 111.508C317.081 111.799 317.055 112.089 317.008 112.376Z" fill="#263238"/>
<path d="M346.435 110.57C346.329 110.644 346.215 110.705 346.095 110.752L345.103 111.227L341.427 112.909L329.239 118.35L323.45 120.906L323.203 121.011L323.25 120.748C323.728 117.999 323.952 115.212 323.919 112.423L324.054 112.505L321.313 113.836L320.579 114.176C320.414 114.252 320.326 114.287 320.32 114.275C320.392 114.217 320.471 114.168 320.555 114.129L321.266 113.742L323.972 112.335L324.101 112.264V112.423C324.184 115.236 323.987 118.05 323.514 120.824L323.315 120.665L329.098 118.098L341.322 112.733L345.044 111.139L346.06 110.723C346.178 110.657 346.304 110.605 346.435 110.57Z" fill="#263238"/>
<path d="M294.516 67.2102H70.8824C66.158 67.2102 62.3281 71.0345 62.3281 75.752V230.372C62.3281 235.09 66.158 238.914 70.8824 238.914H294.516C299.241 238.914 303.07 235.09 303.07 230.372V75.752C303.07 71.0345 299.241 67.2102 294.516 67.2102Z" fill="#455A64"/>
<path d="M52.918 227.822H313.746V232.412C313.746 235.18 312.645 237.834 310.685 239.791C308.725 241.748 306.067 242.848 303.295 242.848H63.3687C60.597 242.848 57.9388 241.748 55.9789 239.791C54.019 237.834 52.918 235.18 52.918 232.412V227.822Z" fill="#455A64"/>
<path d="M295.94 74.0339H68.7949V219.033H295.94V74.0339Z" fill="#263238"/>
<path d="M158.971 226.216L162.206 231.767H207.749L210.755 226.216H158.971Z" fill="#263238"/>
<path d="M289.805 78.9412H75.3886C74.3283 78.9412 73.4688 79.7995 73.4688 80.8582V216.648C73.4688 217.706 74.3283 218.565 75.3886 218.565H289.805C290.865 218.565 291.724 217.706 291.724 216.648V80.8582C291.724 79.7995 290.865 78.9412 289.805 78.9412Z" fill="#EBEBEB"/>
<path d="M291.494 218.77H73.2383L73.4673 89.3767H291.494V218.77Z" fill="#FAFAFA"/>
<path d="M91.8098 84.3348C91.7925 84.6853 91.6727 85.0231 91.4651 85.3064C91.2575 85.5896 90.9713 85.8058 90.6419 85.9282C90.3124 86.0506 89.9543 86.0738 89.6118 85.9949C89.2693 85.9161 88.9575 85.7387 88.7149 85.4846C88.4724 85.2306 88.3098 84.9111 88.2474 84.5657C88.1849 84.2203 88.2252 83.8642 88.3634 83.5415C88.5016 83.2188 88.7316 82.9437 89.0248 82.7502C89.318 82.5567 89.6617 82.4533 90.0132 82.4529C90.5011 82.4652 90.9643 82.6702 91.3011 83.023C91.6379 83.3757 91.8208 83.8475 91.8098 84.3348Z" fill="#263238"/>
<path d="M80.9113 84.3348C80.8941 84.6853 80.7743 85.0231 80.5667 85.3064C80.3591 85.5896 80.0728 85.8058 79.7434 85.9282C79.414 86.0506 79.0559 86.0738 78.7134 85.9949C78.3709 85.9161 78.059 85.7387 77.8165 85.4846C77.574 85.2306 77.4114 84.9111 77.3489 84.5657C77.2864 84.2203 77.3268 83.8642 77.465 83.5415C77.6032 83.2188 77.8331 82.9437 78.1264 82.7502C78.4196 82.5567 78.7632 82.4533 79.1147 82.4529C79.6027 82.4652 80.0658 82.6702 80.4026 83.023C80.7394 83.3757 80.9224 83.8475 80.9113 84.3348Z" fill="#263238"/>
<path d="M86.5109 84.3348C86.4937 84.6853 86.3739 85.0231 86.1663 85.3064C85.9587 85.5896 85.6725 85.8058 85.343 85.9282C85.0136 86.0506 84.6555 86.0738 84.313 85.9949C83.9705 85.9161 83.6586 85.7387 83.4161 85.4846C83.1736 85.2306 83.011 84.9111 82.9485 84.5657C82.8861 84.2203 82.9264 83.8642 83.0646 83.5415C83.2028 83.2188 83.4327 82.9437 83.726 82.7502C84.0192 82.5567 84.3629 82.4533 84.7143 82.4529C85.2023 82.4652 85.6655 82.6702 86.0022 83.023C86.339 83.3757 86.522 83.8475 86.5109 84.3348Z" fill="#263238"/>
<path d="M301.004 226.216C301.004 226.31 247.576 226.38 181.672 226.38C115.768 226.38 62.3281 226.31 62.3281 226.216C62.3281 226.122 115.756 226.045 181.672 226.045C247.588 226.045 301.004 226.122 301.004 226.216Z" fill="#263238"/>
<path d="M159.151 114.181C162.7 112.042 166.518 110.386 170.506 109.257L172.854 98.0297L191.842 97.6956L194.578 108.834C198.602 109.827 202.475 111.349 206.097 113.36L215.697 107.082L229.359 120.255L223.417 130.063C225.56 133.608 227.219 137.423 228.349 141.407L239.586 143.752L239.921 162.712L228.766 165.444C227.77 169.45 226.244 173.307 224.227 176.911L230.521 186.496L217.329 200.139L207.518 194.2C203.968 196.34 200.147 197.996 196.157 199.124L193.809 210.351L174.815 210.679L172.085 199.541C168.072 198.559 164.208 197.047 160.595 195.044L150.996 201.329L137.334 188.155L143.281 178.359C141.136 174.814 139.476 170.999 138.344 167.015L127.106 164.67L126.771 145.71L137.927 142.978C138.919 138.96 140.444 135.092 142.459 131.476L136.171 121.89L149.364 108.248L159.151 114.181ZM169.273 139.443C166.475 142.338 164.598 145.996 163.882 149.955C163.166 153.914 163.641 157.997 165.248 161.686C166.855 165.376 169.522 168.507 172.911 170.683C176.3 172.859 180.259 173.983 184.287 173.912C188.316 173.842 192.233 172.58 195.544 170.287C198.854 167.993 201.409 164.771 202.886 161.028C204.363 157.284 204.695 153.188 203.84 149.256C202.985 145.324 200.981 141.734 198.083 138.939C196.157 137.084 193.884 135.626 191.394 134.648C188.904 133.671 186.245 133.192 183.57 133.241C180.894 133.289 178.255 133.864 175.802 134.931C173.349 135.998 171.13 137.537 169.273 139.461V139.443Z" fill="#E0E0E0"/>
<path d="M235.013 121.433C235.274 120.031 235.718 118.669 236.334 117.382L233.986 114.216L238.237 109.245L241.759 111.086C242.934 110.277 244.212 109.629 245.558 109.157L246.145 105.247L252.668 104.737L253.842 108.506C255.248 108.765 256.612 109.211 257.899 109.831L261.07 107.486L266.049 111.737L264.205 115.254C265.018 116.428 265.669 117.706 266.143 119.053L270.053 119.639L270.564 126.158L266.788 127.331C266.531 128.735 266.084 130.097 265.461 131.382L267.81 134.554L263.559 139.519L260.036 137.678C258.86 138.49 257.581 139.141 256.232 139.613L255.645 143.523L249.122 144.034L247.948 140.258C246.543 140.001 245.178 139.557 243.891 138.939L240.714 141.284L235.747 136.987L237.591 133.469C236.779 132.294 236.128 131.017 235.653 129.67L231.743 129.084L231.232 122.565L235.008 121.392L235.013 121.433ZM243.861 123.409C243.722 124.875 244.047 126.348 244.79 127.62C245.534 128.892 246.658 129.899 248.005 130.499C249.352 131.098 250.854 131.261 252.298 130.964C253.743 130.666 255.057 129.924 256.057 128.841C257.056 127.757 257.69 126.388 257.869 124.927C258.048 123.465 257.762 121.984 257.054 120.692C256.345 119.401 255.248 118.364 253.918 117.728C252.587 117.092 251.091 116.889 249.639 117.148C248.123 117.418 246.737 118.176 245.694 119.307C244.65 120.437 244.007 121.878 243.861 123.409Z" fill="#E0E0E0"/>
<path d="M92.0319 186.877C92.0794 185.193 92.3539 183.523 92.848 181.912L89.5191 178.67L93.5937 172.115L98.0088 173.64C99.2419 172.484 100.624 171.498 102.119 170.708L102.083 166.048L109.61 164.289L111.648 168.481C113.334 168.527 115.007 168.802 116.62 169.295L119.902 165.971L126.466 170.04L124.94 174.449C126.097 175.68 127.084 177.06 127.876 178.553L132.543 178.517L134.305 186.027L130.101 188.05C130.048 189.734 129.772 191.404 129.279 193.016L132.608 196.287L128.533 202.847L124.118 201.323C122.886 202.48 121.504 203.466 120.008 204.254L120.043 208.915L112.522 210.674L110.479 206.482C108.797 206.423 107.13 206.139 105.524 205.638L102.248 208.962L95.6779 204.893L97.2045 200.484C96.0473 199.253 95.06 197.873 94.2689 196.381L89.5719 196.416L87.8105 188.906L92.0084 186.866L92.0319 186.877ZM102.911 188.988C103.288 190.58 104.13 192.025 105.329 193.14C106.528 194.255 108.031 194.991 109.649 195.253C111.266 195.516 112.925 195.294 114.416 194.616C115.907 193.937 117.164 192.833 118.026 191.442C118.889 190.051 119.32 188.435 119.264 186.8C119.208 185.165 118.668 183.583 117.712 182.254C116.757 180.925 115.428 179.909 113.894 179.333C112.36 178.758 110.689 178.649 109.094 179.022C108.03 179.269 107.025 179.724 106.138 180.361C105.251 180.997 104.498 181.802 103.924 182.73C103.349 183.658 102.964 184.69 102.79 185.767C102.616 186.844 102.658 187.944 102.911 189.006V188.988Z" fill="#E0E0E0"/>
<path d="M105.541 124.253C105.733 123.194 106.068 122.167 106.539 121.199L104.778 118.807L107.983 115.06L110.625 116.45C111.512 115.839 112.475 115.348 113.49 114.99L113.925 112.059L118.845 111.672L119.726 114.515C120.785 114.712 121.813 115.047 122.785 115.512L125.18 113.753L128.926 116.954L127.54 119.592C128.152 120.476 128.642 121.438 128.996 122.453L131.932 122.881L132.319 127.794L129.478 128.65C129.283 129.707 128.95 130.734 128.485 131.704L130.247 134.09L127.041 137.837L124.399 136.447C123.514 137.06 122.55 137.551 121.534 137.907L121.105 140.838L116.185 141.219L115.299 138.376C114.239 138.184 113.21 137.848 112.24 137.379L109.85 139.138L106.099 135.937L107.484 133.299C106.872 132.415 106.382 131.453 106.028 130.438L103.093 130.004L102.711 125.091L105.558 124.212L105.541 124.253ZM112.205 126.639C112.288 127.678 112.677 128.67 113.324 129.488C113.971 130.307 114.847 130.916 115.84 131.238C116.833 131.56 117.899 131.581 118.904 131.298C119.91 131.015 120.808 130.442 121.487 129.649C122.166 128.857 122.595 127.882 122.719 126.846C122.843 125.811 122.657 124.762 122.184 123.832C121.712 122.903 120.974 122.133 120.064 121.622C119.154 121.11 118.113 120.879 117.072 120.958C116.378 121.011 115.702 121.2 115.081 121.514C114.461 121.828 113.909 122.262 113.457 122.789C113.005 123.317 112.661 123.929 112.446 124.59C112.231 125.25 112.149 125.947 112.205 126.639Z" fill="#EBEBEB"/>
<path d="M235.259 177.163C235.429 176.254 235.717 175.371 236.116 174.537L234.584 172.485L237.337 169.266L239.609 170.439C240.37 169.913 241.197 169.491 242.069 169.184L242.439 166.652L246.667 166.323L247.424 168.768C248.335 168.935 249.22 169.223 250.054 169.624L252.109 168.094L255.332 170.843L254.158 173.106C254.685 173.867 255.108 174.695 255.415 175.569L257.951 175.938L258.28 180.159L255.832 180.915C255.664 181.825 255.376 182.708 254.974 183.542L256.507 185.594L253.753 188.806L251.487 187.634C250.723 188.158 249.894 188.579 249.021 188.888L248.651 191.415L244.424 191.743L243.666 189.305C242.756 189.135 241.872 188.847 241.036 188.449L238.981 189.979L235.746 187.229L236.92 184.966C236.393 184.207 235.971 183.381 235.664 182.51L233.133 182.141L232.799 177.919L235.247 177.163H235.259ZM240.983 179.209C241.053 180.106 241.387 180.963 241.945 181.67C242.502 182.377 243.258 182.903 244.115 183.181C244.972 183.459 245.892 183.476 246.759 183.231C247.627 182.986 248.401 182.489 248.985 181.804C249.569 181.118 249.936 180.275 250.04 179.381C250.144 178.488 249.979 177.583 249.567 176.783C249.155 175.982 248.515 175.322 247.726 174.886C246.938 174.449 246.038 174.256 245.14 174.332C243.942 174.43 242.832 174.999 242.053 175.913C241.274 176.827 240.889 178.013 240.983 179.209Z" fill="#EBEBEB"/>
<path d="M183.335 183.524H154.138C152.422 183.52 150.737 183.066 149.251 182.207C147.766 181.349 146.532 180.116 145.673 178.633C144.815 177.149 144.361 175.466 144.357 173.753C144.354 172.039 144.801 170.354 145.654 168.867L160.262 143.606L174.863 118.344C175.725 116.857 176.962 115.623 178.452 114.766C179.941 113.908 181.631 113.456 183.35 113.456C185.07 113.456 186.759 113.908 188.249 114.766C189.738 115.623 190.976 116.857 191.837 118.344L206.444 143.606L221.052 168.867C221.905 170.355 222.352 172.04 222.349 173.754C222.345 175.468 221.891 177.151 221.031 178.635C220.172 180.119 218.937 181.352 217.451 182.21C215.965 183.067 214.279 183.521 212.562 183.524H183.335Z" fill="#7B3DFF"/>
<path d="M214.781 171.764C214.781 171.764 214.858 171.91 215.004 172.215C215.255 172.826 215.351 173.489 215.283 174.146C215.216 174.802 214.987 175.432 214.617 175.979C214.326 176.411 213.953 176.782 213.519 177.069C213.014 177.39 212.437 177.58 211.84 177.621C206.861 177.673 199.675 177.662 190.786 177.685L159.563 177.72H155.101C154.305 177.712 153.531 177.457 152.887 176.99C152.242 176.524 151.758 175.87 151.502 175.117C151.23 174.366 151.179 173.552 151.355 172.772C151.402 172.579 151.466 172.385 151.531 172.186C151.596 171.987 151.701 171.817 151.789 171.641L152.376 170.615C153.128 169.237 153.891 167.853 154.654 166.452L164.119 149.105L173.642 131.769C175.172 128.967 176.679 126.217 178.163 123.521C178.539 122.852 178.885 122.178 179.284 121.516C179.681 120.839 180.247 120.277 180.928 119.886C181.595 119.504 182.344 119.287 183.111 119.252C183.879 119.218 184.644 119.367 185.343 119.686C186.036 120 186.641 120.479 187.105 121.082C187.506 121.69 187.868 122.322 188.191 122.975C188.878 124.23 189.559 125.467 190.222 126.686C191.561 129.125 192.854 131.492 194.103 133.786C196.61 138.365 198.941 142.633 201.066 146.525C205.317 154.317 208.752 160.625 211.13 164.993L213.854 170.017C214.159 170.603 214.394 171.025 214.552 171.33C214.711 171.635 214.787 171.781 214.787 171.781C214.787 171.781 214.693 171.635 214.529 171.342L213.801 170.046L211.024 165.045C208.628 160.689 205.153 154.405 200.878 146.631L193.886 133.903L189.987 126.815C189.318 125.596 188.643 124.359 187.95 123.104C187.627 122.471 187.268 121.856 186.876 121.263C186.442 120.701 185.878 120.252 185.232 119.956C184.574 119.655 183.854 119.514 183.13 119.547C182.407 119.58 181.703 119.784 181.075 120.144C180.439 120.515 179.909 121.044 179.537 121.68C179.149 122.319 178.797 123.005 178.427 123.673L173.906 131.922C170.841 137.526 167.659 143.324 164.407 149.269L154.901 166.605C154.132 168.006 153.375 169.395 152.617 170.767C152.204 171.414 151.879 172.111 151.648 172.843C151.481 173.573 151.528 174.336 151.783 175.041C152.016 175.739 152.461 176.347 153.057 176.779C153.653 177.212 154.37 177.446 155.107 177.451H159.569L190.792 177.48L211.84 177.509C212.417 177.476 212.976 177.298 213.466 176.993C213.894 176.716 214.263 176.357 214.552 175.938C215.004 175.274 215.246 174.49 215.245 173.687C215.238 173.019 215.08 172.362 214.781 171.764Z" fill="#263238"/>
<path d="M178.604 166.359C178.604 163.773 180.67 161.844 183.612 161.844C186.553 161.844 188.573 163.773 188.573 166.359C188.573 168.944 186.553 170.961 183.612 170.961C180.67 170.961 178.604 168.909 178.604 166.359ZM178.65 139.877H188.573L186.905 159.388H180.277L178.65 139.877Z" fill="white"/>
<path d="M184.73 115.424C184.13 115.222 183.507 115.092 182.875 115.037C181.34 115.004 179.841 115.506 178.636 116.456C177.46 117.436 176.512 118.66 175.859 120.044C175.325 121.099 175.072 121.803 175.025 121.773C175.041 121.6 175.083 121.43 175.149 121.269C175.295 120.82 175.468 120.379 175.665 119.95C176.286 118.498 177.246 117.215 178.466 116.21C179.722 115.214 181.304 114.721 182.905 114.826C183.384 114.862 183.854 114.977 184.296 115.166C184.584 115.301 184.742 115.407 184.73 115.424Z" fill="white"/>
<path d="M172.52 126.141C172.64 125.635 172.857 125.158 173.159 124.734C173.588 124.013 173.993 123.462 174.07 123.503C173.946 124.001 173.726 124.471 173.424 124.886C173.206 125.359 172.899 125.785 172.52 126.141Z" fill="white"/>
<g opacity="0.3">
<path d="M197.988 128.99L152.492 156.978L146.586 167.203L201.2 134.542L197.988 128.99Z" fill="white"/>
</g>
<g opacity="0.3">
<path d="M205.153 141.395L144.85 176.911C145.091 177.842 145.539 178.707 146.159 179.443L206.215 143.236L205.153 141.395Z" fill="white"/>
</g>
<path d="M354.182 207.631C351.889 205.108 348.918 203.298 345.623 202.416C342.328 201.535 338.848 201.619 335.599 202.659L329.981 196.504L329.2 195.63L284.737 146.918C285.987 144.027 286.443 140.855 286.059 137.729C285.674 134.604 284.464 131.637 282.55 129.133C280.637 126.63 278.091 124.68 275.174 123.484C272.256 122.289 269.072 121.89 265.949 122.33L263.777 123.192L271.333 128.251L270.928 136.488L264.816 142.029L256.567 141.624L251.178 135.691L248.952 136.565C248.312 141.53 251.647 147.791 255.282 151.807C257.57 154.327 260.536 156.136 263.826 157.018C267.115 157.901 270.59 157.82 273.834 156.785L319.043 206.312L320.428 207.854L324.714 212.544C323.374 215.664 322.959 219.103 323.52 222.452C324.081 225.801 325.594 228.918 327.879 231.433C331.495 235.42 336.298 238.081 341.294 237.946L343.526 237.079L338.13 231.14L338.535 222.932L344.647 217.392L352.867 217.791L356.025 224.597L358.256 223.724C358.944 220.913 358.933 217.977 358.223 215.172C357.512 212.366 356.125 209.777 354.182 207.631Z" fill="#E0E0E0"/>
<g opacity="0.3">
<path d="M354.182 207.631C351.889 205.108 348.918 203.298 345.623 202.416C342.328 201.535 338.848 201.619 335.599 202.659L329.981 196.504L329.2 195.63L284.737 146.918C285.987 144.027 286.443 140.855 286.059 137.729C285.674 134.604 284.464 131.637 282.55 129.133C280.637 126.63 278.091 124.68 275.174 123.484C272.256 122.289 269.072 121.89 265.949 122.33L263.777 123.192L271.333 128.251L270.928 136.488L264.816 142.029L256.567 141.624L251.178 135.691L248.952 136.565C248.312 141.53 251.647 147.791 255.282 151.807C257.57 154.327 260.536 156.136 263.826 157.018C267.115 157.901 270.59 157.82 273.834 156.785L319.043 206.312L320.428 207.854L324.714 212.544C323.374 215.664 322.959 219.103 323.52 222.452C324.081 225.801 325.594 228.918 327.879 231.433C331.495 235.42 336.298 238.081 341.294 237.946L343.526 237.079L338.13 231.14L338.535 222.932L344.647 217.392L352.867 217.791L356.025 224.597L358.256 223.724C358.944 220.913 358.933 217.977 358.223 215.172C357.512 212.366 356.125 209.777 354.182 207.631Z" fill="black"/>
</g>
<path d="M351.949 208.499C349.657 205.976 346.687 204.167 343.392 203.286C340.098 202.405 336.619 202.491 333.372 203.533L327.748 197.371L326.967 196.498L282.504 147.786C283.754 144.895 284.211 141.723 283.827 138.598C283.443 135.472 282.232 132.505 280.318 130.002C278.405 127.498 275.858 125.549 272.941 124.354C270.023 123.16 266.839 122.762 263.716 123.204L269.106 129.137L268.707 137.344L262.583 142.908L254.363 142.509L248.974 136.576C248.229 139.635 248.313 142.837 249.217 145.852C250.122 148.867 251.815 151.588 254.121 153.733C256.428 155.879 259.265 157.373 262.342 158.06C265.418 158.748 268.622 158.605 271.625 157.647L316.833 207.174L318.224 208.716L322.51 213.406C321.266 216.296 320.814 219.464 321.201 222.586C321.588 225.708 322.8 228.671 324.712 231.171C326.624 233.671 329.169 235.618 332.083 236.811C334.998 238.005 338.179 238.403 341.298 237.964L335.903 232.019L336.302 223.812L342.42 218.272L350.639 218.676L356.029 224.609C356.721 221.795 356.712 218.855 356 216.046C355.289 213.237 353.897 210.645 351.949 208.499Z" fill="#E0E0E0"/>
<path d="M351.948 208.499C351.948 208.499 352.207 208.78 352.694 209.349C353.388 210.214 354.003 211.14 354.532 212.116C356.572 215.947 357.136 220.391 356.117 224.609V224.726L356.035 224.638L350.639 218.711L350.686 218.741L342.466 218.348H342.525L336.419 223.894V223.829C336.302 226.385 336.167 229.17 336.026 232.066V231.99L341.374 237.882L341.515 238.034L341.31 238.064C338.333 238.496 335.295 238.168 332.479 237.111C329.663 236.054 327.16 234.302 325.205 232.019C323.078 229.552 321.676 226.545 321.154 223.331C320.6 219.962 321.02 216.504 322.364 213.365V213.505L271.466 157.758L271.625 157.799C268.408 158.814 264.971 158.911 261.702 158.08C257.149 156.904 253.241 153.986 250.824 149.957C248.407 145.928 247.675 141.111 248.786 136.547L248.856 136.266L249.05 136.477L254.44 142.41L254.334 142.363L262.583 142.761L262.471 142.802L268.624 137.256L268.572 137.362C268.707 134.583 268.842 131.845 268.977 129.125L269.012 129.231L263.622 123.298L263.44 123.092L263.71 123.057C266.957 122.599 270.268 123.04 273.281 124.332C276.293 125.625 278.893 127.719 280.795 130.385C282.616 132.93 283.732 135.909 284.03 139.021C284.308 142.021 283.834 145.043 282.651 147.815V147.674L333.466 203.463H333.395C335.814 202.691 338.37 202.446 340.891 202.742C343.413 203.038 345.842 203.87 348.015 205.18C349.119 205.854 350.15 206.639 351.091 207.525C351.678 208.153 351.995 208.475 351.995 208.475L351.068 207.549C350.118 206.667 349.084 205.882 347.979 205.204C345.812 203.913 343.394 203.098 340.886 202.813C338.379 202.528 335.839 202.78 333.437 203.551H333.395V203.515L282.486 147.821L282.428 147.756L282.463 147.68C283.627 144.94 284.091 141.955 283.813 138.992C283.52 135.926 282.418 132.993 280.619 130.491C278.746 127.867 276.188 125.808 273.222 124.537C270.257 123.266 266.999 122.834 263.804 123.286L263.892 123.045L269.212 129.037L269.253 129.078V129.143C269.124 131.855 268.99 134.591 268.853 137.35V137.415L268.806 137.456L262.695 142.996L262.648 143.037H262.583L254.363 142.632H254.299L254.258 142.586L248.862 136.653L249.126 136.588C248.389 139.619 248.472 142.791 249.368 145.78C250.263 148.768 251.938 151.465 254.221 153.593C256.504 155.722 259.313 157.207 262.36 157.894C265.407 158.581 268.582 158.448 271.56 157.506H271.648L271.719 157.576C290.201 177.849 307.533 196.826 322.581 213.347L322.639 213.412L322.604 213.494C321.283 216.582 320.866 219.981 321.401 223.296C321.916 226.383 323.241 229.279 325.242 231.687C327.243 234.096 329.848 235.932 332.791 237.008C335.506 237.989 338.421 238.291 341.28 237.888L341.21 238.07L335.826 232.137L335.797 232.101V232.019C335.938 229.129 336.073 226.344 336.202 223.812V223.771V223.741L342.326 218.213H342.361L350.58 218.623C352.553 220.804 354.367 222.803 355.958 224.568H355.853C356.88 220.377 356.339 215.955 354.332 212.133C353.811 211.158 353.208 210.228 352.53 209.355C352.189 208.798 351.948 208.499 351.948 208.499Z" fill="#263238"/>
<path d="M280.48 150.629C280.438 150.785 280.373 150.933 280.286 151.069C280.08 151.45 279.851 151.818 279.599 152.171C277.934 154.535 275.587 156.337 272.871 157.336C272.465 157.488 272.049 157.614 271.626 157.711C271.475 157.762 271.316 157.787 271.156 157.787C271.156 157.734 271.796 157.558 272.794 157.136C275.413 156.048 277.701 154.294 279.429 152.048C280.092 151.186 280.433 150.605 280.48 150.629Z" fill="#263238"/>
<path d="M330.133 171.787L313.247 163.931L298.152 162.049L303.695 166.739C303.695 166.739 284.179 173.534 283.838 175.064C283.498 176.594 285.377 180.71 288.817 179.948C288.817 179.948 286.885 182.293 287.69 184.878C288.494 187.464 290.273 187.95 293.561 187.346C293.561 187.346 291.33 190.682 293.08 192.382C294.829 194.083 297.553 193.655 297.553 193.655C297.553 193.655 297.589 197.717 299.738 198.069C301.886 198.421 307.875 198.005 310.112 197.319L321.473 193.801L328.835 192.154L330.133 171.787Z" fill="#FFBF9D"/>
<path d="M299.051 176.946C299.116 177.169 296.867 178.013 294.037 178.84C291.207 179.666 288.847 180.147 288.783 179.924C288.718 179.702 290.967 178.851 293.797 178.031C296.627 177.21 298.987 176.723 299.051 176.946Z" fill="#FF9A6C"/>
<path d="M301.921 184.96C301.985 185.183 300.207 185.916 297.94 186.602C295.674 187.288 293.778 187.651 293.707 187.428C293.637 187.206 295.427 186.473 297.694 185.793C299.96 185.113 301.856 184.743 301.921 184.96Z" fill="#FF9A6C"/>
<path d="M304.498 191.626C304.539 191.878 302.918 192.212 301.016 192.693C299.114 193.174 297.628 193.866 297.493 193.625C297.358 193.385 298.756 192.418 300.781 191.867C302.807 191.315 304.468 191.421 304.498 191.626Z" fill="#FF9A6C"/>
<path d="M306.63 166.065C306.695 166.294 304.482 167.097 301.74 168.041C298.998 168.985 296.761 169.706 296.667 169.489C296.573 169.272 298.698 168.193 301.47 167.244C304.241 166.294 306.572 165.843 306.63 166.065Z" fill="#FF9A6C"/>
<path d="M326.951 170.31L363.523 183.536L361.386 208.598L321.121 192.388L326.951 170.31Z" fill="#FFBF9D"/>
<path d="M373.874 126.452C373.874 126.452 378.642 131.37 381.419 140.217C384.196 149.064 397.271 186.567 396.954 198.497C396.608 210.838 388.288 219.643 370.005 214.766C359.096 211.834 346.098 207.144 346.098 207.144L355.339 176.811L362.566 178.67L350.894 156.791L373.874 126.452Z" fill="#7B3DFF"/>
<path d="M365.5 140.786C365.57 140.838 360.509 148.032 354.204 156.855C347.898 165.678 342.737 172.807 342.667 172.748C342.596 172.69 347.657 165.502 353.963 156.679C360.269 147.856 365.435 140.739 365.5 140.786Z" fill="#263238"/>
<path d="M379.496 182.774C379.496 182.774 379.179 182.621 378.609 182.358C377.799 181.996 376.96 181.7 376.102 181.472C375.016 181.173 373.701 180.886 372.239 180.575L367.495 179.532C364.131 178.781 361.084 178.084 358.888 177.562L356.287 176.929C355.965 176.867 355.648 176.777 355.342 176.659C355.668 176.686 355.992 176.739 356.311 176.817L358.935 177.351C361.148 177.82 364.219 178.482 367.566 179.233L372.304 180.306C373.76 180.634 375.075 180.939 376.161 181.267C377.024 181.517 377.861 181.847 378.662 182.252C378.879 182.362 379.089 182.486 379.29 182.621C379.365 182.663 379.434 182.714 379.496 182.774Z" fill="#263238"/>
<g opacity="0.3">
<path d="M388.846 184.11C388.73 183.39 388.44 182.709 388.002 182.125C387.565 181.541 386.992 181.072 386.334 180.757C385.011 180.132 383.587 179.751 382.13 179.631C375.56 178.728 368.914 178.459 362.285 178.23L362.872 178.494C371.062 180.005 379.077 182.339 386.797 185.459C387.22 185.692 387.717 185.751 388.183 185.623C388.435 185.468 388.633 185.24 388.752 184.97C388.87 184.7 388.903 184.4 388.846 184.11Z" fill="black"/>
</g>
<g opacity="0.3">
<path d="M238.178 67.8197C232.013 66.7703 224.639 68.5584 218.474 67.509C217.559 67.3565 216.549 67.21 215.739 67.679C214.764 68.2359 214.429 69.4788 214.382 70.6103C214.358 72.1627 214.658 73.7032 215.265 75.1328C215.872 76.5624 216.771 77.8496 217.905 78.9117C220.213 81.0192 223.097 82.3945 226.189 82.8631C228.649 83.2793 231.297 83.1973 233.487 82.013C237.339 79.9259 239.188 72.0466 238.178 67.8197Z" fill="black"/>
</g>
<path d="M214.251 79.0816C214.251 79.0816 210.512 74.7023 209.971 72.6855C209.613 71.3488 209.789 67.6027 209.971 65.2283C210.013 64.4282 210.288 63.6577 210.762 63.0118C211.237 62.3659 211.891 61.8728 212.643 61.5935C212.863 61.4844 213.109 61.4371 213.354 61.4567C213.599 61.4763 213.834 61.5621 214.034 61.7049C214.542 61.0171 215.112 60.3774 215.737 59.7937C217.205 58.2928 217.903 57.2786 221.132 58.2108C221.132 58.2108 223.51 55.7074 224.878 55.8951C225.796 56.0307 226.704 56.2265 227.597 56.4813C227.597 56.4813 232.804 56.2585 233.873 57.9118C234.48 58.6581 235.298 59.2038 236.221 59.4771C237.036 59.7641 237.785 60.2114 238.423 60.7924C239.061 61.3735 239.576 62.0765 239.938 62.8598C240.546 64.2986 240.897 65.8322 240.977 67.3916L235.693 67.6027C235.693 67.6027 236.069 79.7441 234.736 80.7231C233.403 81.7022 232.898 81.3504 232.898 81.3504C232.898 81.3504 231.883 84.1997 227.92 82.095C227.92 82.095 224.632 83.0858 223.223 81.7315C221.814 80.3772 216.659 67.3681 216.659 67.3681L216.805 73.817C216.805 73.817 219.524 77.997 218.191 78.9761C216.858 79.9551 214.251 79.0816 214.251 79.0816Z" fill="#FFBF9D"/>
<path d="M220.852 62.6257C220.977 62.8692 221.077 63.1245 221.151 63.3879L221.867 65.4984C222.454 67.2572 223.259 69.7664 224.116 72.5042C224.973 75.242 225.689 77.7805 226.5 79.4455C226.811 80.1162 227.172 80.7629 227.58 81.3802C227.868 81.8199 228.05 82.0427 228.032 82.0602C228.014 82.0778 227.967 82.0192 227.874 81.9137C227.736 81.7666 227.606 81.612 227.486 81.4505C227.035 80.8521 226.642 80.2121 226.312 79.5393C225.437 77.845 224.703 75.33 223.834 72.598C222.965 69.866 222.208 67.3686 221.668 65.5629C221.421 64.7011 221.21 63.9859 221.045 63.423C220.956 63.1638 220.891 62.8969 220.852 62.6257Z" fill="#FF9A6C"/>
<path d="M227.352 61.1248C227.469 61.3763 227.56 61.6396 227.622 61.9103L228.25 64.0854C228.761 65.9204 229.424 68.4647 230.199 71.2788C230.974 74.0928 231.602 76.6489 232.06 78.5015C232.277 79.3809 232.454 80.1196 232.595 80.6941C232.673 80.9617 232.725 81.2368 232.747 81.5149C232.636 81.2607 232.546 80.998 232.477 80.7293C232.313 80.143 232.107 79.4278 231.855 78.5542C231.338 76.7193 230.645 74.1749 229.906 71.3608C229.166 68.5468 228.502 65.9907 228.038 64.1381C227.827 63.2529 227.645 62.5201 227.51 61.9397C227.431 61.6737 227.378 61.4008 227.352 61.1248Z" fill="#FF9A6C"/>
</svg>
