<svg width="68" height="68" viewBox="0 0 68 68" fill="none" xmlns="http://www.w3.org/2000/svg">
<path d="M50.7076 5.28545C54.482 7.48365 57.7104 10.2965 60.3879 13.7616C63.0733 17.1645 65.0215 20.9933 66.2223 25.2213C67.4357 29.4509 67.7486 33.7951 67.1855 38.2562C66.6223 42.7176 65.2255 46.8582 63.0084 50.6804C60.7913 54.5022 57.9496 57.752 54.4965 60.4302C51.0435 63.1087 47.2157 65.0438 43.0135 66.235C38.8108 67.4262 34.4788 67.7402 30.0039 67.1753C25.5419 66.612 21.4004 65.2157 17.5774 62.9988C13.7564 60.769 10.5281 57.9562 7.89251 54.5596C5.26314 51.1135 3.34319 47.2627 2.13294 43.0082C0.935258 38.7549 0.611721 34.3972 1.17488 29.9361C1.73808 25.4747 3.11879 21.3573 5.31903 17.5709C7.51728 13.7972 10.343 10.5711 13.7964 7.89258C17.193 5.25781 21.0321 3.3368 25.2747 2.12539C29.5303 0.91561 33.8873 0.604779 38.3493 1.16806C42.8133 1.71894 46.9313 3.09965 50.7076 5.28545ZM29.276 16.6708C26.9785 17.3174 24.8831 18.3695 23.0021 19.8284C21.1211 21.2874 19.595 23.0447 18.4253 25.0871C17.2543 27.1424 16.5038 29.3771 16.1955 31.8193C15.8887 34.2494 16.0588 36.6129 16.7073 38.8979C17.3558 41.1824 18.4116 43.2526 19.8709 45.1333C21.2868 46.9579 23.0457 48.4713 25.1338 49.6846C27.2236 50.8851 29.496 51.6406 31.9263 51.9474C34.3197 52.2496 36.671 52.0777 39.0061 51.4358C41.3286 50.7919 43.4084 49.7632 45.2349 48.3352C47.1159 46.8762 48.6545 45.1209 49.8489 43.0816C51.0449 41.0295 51.7955 38.7948 52.1038 36.3523C52.4106 33.9225 52.2405 31.559 51.592 29.274C50.9434 26.9895 49.8893 24.9065 48.4284 23.0382C46.969 21.1575 45.2132 19.6193 43.1733 18.4251C41.1212 17.229 38.8859 16.4785 36.4428 16.1701C33.9749 15.8585 31.5738 16.0238 29.276 16.6708Z" fill="url(#paint0_linear_382_2365)"/>
<defs>
<linearGradient id="paint0_linear_382_2365" x1="55.1752" y1="60.0675" x2="10.1288" y2="4.62351" gradientUnits="userSpaceOnUse">
<stop offset="0.359375" stop-color="#00FFE6" stop-opacity="0"/>
<stop offset="1" stop-color="#7B3DFF"/>
</linearGradient>
</defs>
</svg>
