<svg width="323" height="303" viewBox="0 0 323 303" fill="none" xmlns="http://www.w3.org/2000/svg">
<path d="M176.608 240.126H102.508V297.279H176.608V240.126Z" fill="#EBEBEB"/>
<path d="M158.052 296.88C157.953 296.88 157.867 284.138 157.867 268.421C157.867 252.704 157.953 239.962 158.052 239.962C158.152 239.962 158.237 252.704 158.237 268.421C158.237 284.138 158.152 296.88 158.052 296.88Z" fill="#E0E0E0"/>
<path d="M170.334 284.273H164.656V290.698H170.334V284.273Z" fill="#FAFAFA"/>
<path d="M133.534 240.275H125.117V252.47H133.534V240.275Z" fill="#E0E0E0"/>
<path d="M133.534 284.914H125.117V297.109H133.534V284.914Z" fill="#E0E0E0"/>
<path d="M311.079 225.798H217.641V297.863H311.079V225.798Z" fill="#EBEBEB"/>
<path d="M287.662 297.351C287.562 297.351 287.477 281.293 287.477 261.478C287.477 241.664 287.562 225.605 287.662 225.605C287.761 225.605 287.847 241.664 287.847 261.478C287.847 281.293 287.768 297.351 287.662 297.351Z" fill="#E0E0E0"/>
<path d="M303.157 281.457H295.992V289.554H303.157V281.457Z" fill="#FAFAFA"/>
<path d="M256.756 225.982H246.141V241.357H256.756V225.982Z" fill="#E0E0E0"/>
<path d="M256.756 282.268H246.141V297.643H256.756V282.268Z" fill="#E0E0E0"/>
<path d="M41.6442 227.917C45.4293 225.968 49.8831 225.712 54.0808 226.409C56.3362 226.779 58.6841 227.455 60.2209 229.148C61.7577 230.841 62.0423 233.823 60.2849 235.281C59.2319 236.149 57.7734 236.277 56.4074 236.263C53.1203 236.22 49.4776 235.644 46.8522 237.622C45.351 238.753 44.3549 240.624 42.5833 241.179C40.8118 241.734 38.8552 240.688 37.9303 239.109C37.0746 237.462 36.8861 235.548 37.4038 233.766C37.6133 232.53 38.1048 231.36 38.8403 230.346C39.5757 229.331 40.5352 228.5 41.6442 227.917Z" fill="#EBEBEB"/>
<path d="M32.974 211.19C35.2863 214.492 39.7828 213.403 41.8675 211.382C43.9521 209.362 44.8343 206.445 45.6312 203.663C47.4668 197.295 49.3095 190.614 47.9506 184.133C47.6234 182.167 46.7591 180.33 45.4533 178.825C44.7922 178.086 43.9494 177.532 43.0085 177.219C42.0675 176.906 41.061 176.844 40.0888 177.039C37.8192 177.637 36.4104 179.885 35.393 181.97C32.3933 188.202 30.8231 195.025 30.7969 201.941C30.7969 205.164 31.1597 208.537 32.974 211.19Z" fill="#EBEBEB"/>
<path d="M26.6334 215.93C29.1449 212.949 29.6216 208.609 28.5046 204.873C27.3876 201.138 24.8618 197.965 21.9519 195.368C18.5293 192.324 14.5469 189.975 10.2267 188.453C8.55233 187.776 6.75135 187.47 4.94754 187.556C4.04771 187.607 3.17409 187.878 2.40277 188.344C1.63145 188.811 0.985833 189.458 0.522151 190.231C-0.715821 192.586 0.472347 195.439 1.75301 197.773C4.00826 201.879 6.58222 205.802 9.4512 209.505C11.7635 212.479 14.4315 215.418 17.9249 216.762C21.4183 218.107 25.1037 217.95 26.9678 215.51" fill="#EBEBEB"/>
<path d="M32.8128 261.008C32.9363 260.519 33.0079 260.018 33.0262 259.514C33.1329 258.418 33.261 257.045 33.4246 255.416C33.6286 253.4 33.9349 251.396 34.3424 249.411C34.8771 246.984 35.6075 244.605 36.5267 242.296C37.4282 240.003 38.6472 237.847 40.1481 235.893C41.3751 234.304 42.937 233.004 44.7229 232.086C45.9375 231.488 47.2389 231.084 48.5791 230.891C49.0836 230.871 49.5845 230.798 50.0732 230.671C49.5696 230.615 49.0614 230.615 48.5578 230.671C47.166 230.775 45.8044 231.13 44.5379 231.716C42.652 232.606 40.9984 233.921 39.707 235.558C38.1362 237.539 36.87 239.742 35.9504 242.097C35.0323 244.433 34.3182 246.845 33.816 249.304C33.4289 251.314 33.1604 253.346 33.012 255.387C32.8839 257.13 32.8341 258.539 32.8128 259.514C32.7603 260.011 32.7603 260.511 32.8128 261.008Z" fill="#E0E0E0"/>
<path d="M33.1028 257.864C33.145 257.629 33.1594 257.39 33.1455 257.152C33.1455 256.626 33.1455 255.964 33.1455 255.16C33.1455 253.431 33.1455 250.927 33.2309 247.839C33.3874 241.663 33.9424 235.032 34.9455 225.648C35.9203 216.833 37.2223 206.581 38.6025 199.914C38.8942 198.399 39.1931 197.032 39.4777 195.837C39.7622 194.642 39.9686 193.603 40.1891 192.771C40.4097 191.938 40.5306 191.348 40.6587 190.836C40.7283 190.604 40.7689 190.365 40.7797 190.124C40.6725 190.331 40.5912 190.551 40.5378 190.779C40.3812 191.284 40.1891 191.91 39.9543 192.685C39.7196 193.461 39.435 194.542 39.1361 195.73C38.8373 196.919 38.4958 198.285 38.1756 199.8C36.4665 207.685 35.1816 215.655 34.3266 223.677C33.302 233.069 32.8396 241.621 32.7969 247.811C32.7969 250.906 32.7969 253.417 32.9036 255.146C32.9534 255.95 32.9961 256.612 33.0245 257.131C33.0211 257.378 33.0474 257.624 33.1028 257.864Z" fill="#E0E0E0"/>
<path d="M33.153 241.372C33.2073 240.678 33.2073 239.981 33.153 239.287C33.0748 237.95 32.8898 236.022 32.5127 233.652C32.0474 230.882 31.425 228.141 30.6486 225.442C29.7514 222.12 28.6026 218.871 27.2122 215.723C24.8318 209.923 21.4155 204.605 17.1306 200.028C16.3871 199.242 15.5933 198.505 14.7542 197.822C14.3914 197.509 14.0428 197.203 13.7439 196.961L12.8617 196.328C12.308 195.906 11.7202 195.53 11.1043 195.204C11.0047 195.339 13.5874 196.862 16.846 200.327C20.9909 204.946 24.3162 210.24 26.6786 215.979C28.045 219.106 29.1979 222.323 30.1293 225.606C30.9116 228.28 31.5599 230.992 32.0716 233.731C32.4985 236.071 32.7831 238 32.8969 239.309C32.9273 240.002 33.013 240.692 33.153 241.372Z" fill="#E0E0E0"/>
<path d="M16.1016 267.952L17.7522 290.598H46.8445L48.4951 267.952H16.1016Z" fill="#EBEBEB"/>
<path d="M51.9579 259.03H13.2891V267.952H51.9579V259.03Z" fill="#EBEBEB"/>
<path d="M13.2891 289.73V292.199H15.1104H51.3247V289.73H13.2891Z" fill="#E0E0E0"/>
<path d="M16.8959 296.283L15.1172 291.929H49.944L47.8665 296.283H16.8959Z" fill="#E0E0E0"/>
<path d="M47.9635 275.353C47.9272 275.429 47.8818 275.501 47.8283 275.566C47.7145 275.715 47.5651 275.908 47.3943 276.142L45.701 278.277L45.6227 278.376L45.5516 278.277L41.3894 272.521H41.6242L37.5261 278.319L37.3981 278.504L37.2558 278.334L32.3964 272.549H32.6738L32.4106 272.891L28.0635 278.334L27.9141 278.519L27.786 278.327L23.6808 272.528H23.9227L18.8712 278.277L18.7858 278.383L18.7147 278.263L17.1352 275.644C16.9644 275.36 16.8364 275.125 16.7296 274.933C16.676 274.853 16.6329 274.767 16.6016 274.677C16.6681 274.745 16.7255 274.821 16.7723 274.904L17.2205 275.58L18.8783 278.191H18.7218L23.7021 272.372L23.8231 272.222L23.9369 272.379L28.0777 278.156H27.8073L32.1402 272.699C32.2327 272.585 32.3252 272.471 32.4035 272.364L32.5458 272.187L32.6881 272.357L37.5332 278.156H37.2629L41.4037 272.386L41.5246 272.215L41.6385 272.386C43.282 274.726 44.6765 276.712 45.7152 278.206H45.5658L47.3303 276.071C47.5224 275.851 47.6789 275.673 47.7999 275.523C47.8502 275.463 47.9049 275.405 47.9635 275.353Z" fill="#F5F5F5"/>
<path d="M48.901 267.804C48.901 267.903 41.6083 267.989 32.6224 267.989C23.6364 267.989 16.3438 267.903 16.3438 267.804C16.3438 267.704 23.6293 267.626 32.6224 267.626C41.6154 267.626 48.901 267.704 48.901 267.804Z" fill="#F5F5F5"/>
<path d="M252.923 11.0674L246.961 11.0996L247.121 40.7678L253.084 40.7355L252.923 11.0674Z" fill="#E0E0E0"/>
<path d="M210.751 11.146L195.312 11.2295L195.401 27.6075L210.84 27.5239L210.751 11.146Z" fill="#EBEBEB"/>
<path d="M226.119 11.063L210.68 11.1465L210.768 27.5245L226.207 27.4409L226.119 11.063Z" fill="#F5F5F5"/>
<path d="M195.329 15.7621C205.594 15.8475 215.863 15.8 226.136 15.6198C226.18 15.6198 226.221 15.6025 226.252 15.5719C226.283 15.5412 226.3 15.4995 226.3 15.4561C226.3 15.4127 226.283 15.3711 226.252 15.3404C226.221 15.3097 226.18 15.2925 226.136 15.2925C215.877 15.2356 205.589 15.2925 195.329 15.4846C195.298 15.4918 195.27 15.5094 195.25 15.5346C195.23 15.5598 195.219 15.5911 195.219 15.6233C195.219 15.6556 195.23 15.6869 195.25 15.7121C195.27 15.7373 195.298 15.7549 195.329 15.7621Z" fill="#E0E0E0"/>
<path d="M213.741 27.2515L185.688 27.4033L185.76 40.7504L213.813 40.5987L213.741 27.2515Z" fill="#EBEBEB"/>
<path d="M241.655 27.1002L213.602 27.252L213.674 40.5991L241.727 40.4473L241.655 27.1002Z" fill="#F5F5F5"/>
<path d="M185.705 31.1305C204.338 31.3368 223.036 31.1305 241.677 30.853C241.72 30.853 241.762 30.8357 241.792 30.8051C241.823 30.7744 241.84 30.7327 241.84 30.6893C241.84 30.6459 241.823 30.6043 241.792 30.5736C241.762 30.5429 241.72 30.5257 241.677 30.5257C223.043 30.4261 204.338 30.4332 185.705 30.8459C185.667 30.8459 185.631 30.8609 185.604 30.8875C185.578 30.9142 185.562 30.9504 185.562 30.9882C185.562 31.0259 185.578 31.0621 185.604 31.0888C185.631 31.1155 185.667 31.1305 185.705 31.1305Z" fill="#E0E0E0"/>
<path d="M283.896 40.7627H175.211V45.5438H283.896V40.7627Z" fill="#E0E0E0"/>
<path d="M197.411 43.0605H193V59.3747H197.411V43.0605Z" fill="#E0E0E0"/>
<path d="M263.278 43.0605H258.867V59.3747H263.278V43.0605Z" fill="#E0E0E0"/>
<path d="M258.743 -3.18126e-05L252.781 0.0322266L253.002 40.8349L258.964 40.8026L258.743 -3.18126e-05Z" fill="#EBEBEB"/>
<path d="M268.052 7.59832L258.789 7.64844L258.968 40.7174L268.231 40.6673L268.052 7.59832Z" fill="#F5F5F5"/>
<path d="M267.991 13.9832C264.912 14.2007 261.821 14.2007 258.742 13.9832C261.822 13.7751 264.912 13.7751 267.991 13.9832Z" fill="#E0E0E0"/>
<path d="M267.998 12.6319C266.459 12.7876 264.912 12.8399 263.366 12.7884C261.82 12.8396 260.273 12.7873 258.734 12.6319C261.814 12.4144 264.904 12.4144 267.984 12.6319H267.998Z" fill="#E0E0E0"/>
<path d="M267.991 35.7049C264.912 35.9224 261.821 35.9224 258.742 35.7049C261.822 35.4968 264.912 35.4968 267.991 35.7049Z" fill="#E0E0E0"/>
<path d="M267.991 34.3174C264.912 34.5255 261.822 34.5255 258.742 34.3174C261.821 34.0999 264.912 34.0999 267.991 34.3174Z" fill="#E0E0E0"/>
<path d="M263.516 31.2863C263.431 31.2863 263.359 27.9495 263.359 23.8371C263.359 19.7248 263.431 16.3809 263.516 16.3809C263.601 16.3809 263.68 19.7177 263.68 23.8371C263.68 27.9566 263.608 31.2863 263.516 31.2863Z" fill="#E0E0E0"/>
<path d="M278.183 15.7334H268.102V40.692H278.183V15.7334Z" fill="#EBEBEB"/>
<path d="M255.676 8.6969C256.623 8.6969 257.39 7.92922 257.39 6.98224C257.39 6.03526 256.623 5.26758 255.676 5.26758C254.729 5.26758 253.961 6.03526 253.961 6.98224C253.961 7.92922 254.729 8.6969 255.676 8.6969Z" fill="#E0E0E0"/>
<path d="M256.201 11.7002H255.141V35.9758H256.201V11.7002Z" fill="#E0E0E0"/>
<path d="M314.28 297.473C314.28 297.579 245.892 297.658 161.561 297.658C77.2296 297.658 8.82812 297.579 8.82812 297.473C8.82812 297.366 77.2011 297.288 161.561 297.288C245.921 297.288 314.28 297.373 314.28 297.473Z" fill="#263238"/>
<path d="M89.8368 36.3584C93.192 40.4644 95.0087 45.6128 94.9736 50.9152C94.9381 53.9177 94.3831 57.226 96.1334 59.6664C97.4567 61.5163 99.8757 62.4483 100.95 64.4547C102.245 66.8666 101.142 69.9188 101.939 72.537C103.063 76.2509 107.417 77.8091 110 80.7048C111.101 81.9853 111.871 83.5162 112.243 85.1633C112.615 86.8105 112.578 88.5238 112.134 90.1532C111.664 91.7758 110.813 93.2627 109.652 94.4903C108.492 95.7178 107.055 96.6506 105.461 97.2111C103.759 97.8819 101.861 97.8512 100.182 97.1257C98.4385 96.2577 97.3358 94.4719 96.482 92.7288C94.7673 89.2995 79.7053 70.7655 78.8516 67.0231" fill="#263238"/>
<path d="M78.8817 31.9906C72.7203 30.9945 66.7866 35.0855 64.2039 40.7631C61.6213 46.4407 61.5359 52.8582 61.358 59.1192C61.1801 65.3802 60.7248 71.8689 57.5445 77.2334C55.5239 80.6414 52.3934 83.6367 51.9025 87.557C51.4614 91.0717 53.2827 94.6148 52.678 98.1082C52.1515 101.153 49.8321 103.8 49.9246 106.881C50.0384 110.595 53.859 113.391 57.5658 113.49C61.2726 113.59 64.7446 111.648 67.6546 109.342C72.3956 105.578 76.1895 100.756 78.7323 95.2623" fill="#263238"/>
<path d="M68.7461 46.6759C68.5526 45.126 68.6724 43.5531 69.0984 42.0504C69.5244 40.5477 70.2479 39.1459 71.2261 37.9282C72.2042 36.7105 73.417 35.7017 74.7925 34.9616C76.168 34.2216 77.6782 33.7655 79.2333 33.6203C85.4445 33.0227 90.9727 37.6544 91.9047 43.83C92.7229 49.2443 93.4202 54.7085 93.3988 56.6935C93.3206 62.677 89.8414 65.0036 88.4185 65.7079C87.9066 65.8917 87.3774 66.0228 86.839 66.0992V66.1419L88.1624 73.0148C88.7671 77.5185 86.2556 81.5525 81.7591 82.1858C77.2625 82.819 73.7265 79.3825 73.0363 74.8789L68.7461 46.6759Z" fill="#FFBE9D"/>
<path d="M90.685 46.4483C90.5854 46.5906 89.7956 46.1708 88.7853 46.3202C87.775 46.4696 87.0991 47.0815 86.9711 46.9748C86.843 46.8681 86.9711 46.6902 87.2841 46.4056C87.6732 46.0266 88.1704 45.778 88.7071 45.6941C89.2336 45.6129 89.7722 45.7027 90.2439 45.9503C90.5996 46.1779 90.7348 46.3914 90.685 46.4483Z" fill="#263238"/>
<path d="M81.6772 48.639C81.5776 48.7813 80.7878 48.3544 79.7704 48.5038C78.753 48.6532 78.0913 49.2722 77.9633 49.1655C77.8352 49.0587 77.9633 48.8738 78.2763 48.5963C78.6654 48.2173 79.1626 47.9686 79.6993 47.8848C80.2265 47.8098 80.7639 47.9018 81.2361 48.148C81.5847 48.3686 81.727 48.5749 81.6772 48.639Z" fill="#263238"/>
<path d="M85.3638 54.0679C85.8727 53.8231 86.4106 53.6438 86.9646 53.5343C87.2208 53.4703 87.4556 53.3849 87.4769 53.1999C87.4539 52.94 87.3549 52.6925 87.1923 52.4884L86.1322 50.5959C84.6595 47.9492 83.5567 45.7578 83.6634 45.6938C83.7701 45.6298 85.0863 47.7429 86.5093 50.3896C86.8722 51.0441 87.2208 51.6702 87.5338 52.2607C87.7406 52.5501 87.8411 52.9019 87.8184 53.2568C87.7949 53.3539 87.7493 53.4442 87.6852 53.5208C87.621 53.5973 87.54 53.6579 87.4485 53.6979C87.3097 53.7586 87.1639 53.8017 87.0145 53.826C86.4771 53.9783 85.9222 54.0596 85.3638 54.0679Z" fill="#263238"/>
<path d="M86.7867 66.1061C86.7867 66.1061 82.9234 66.9955 77.6016 64.7686C77.6016 64.7686 79.8996 69.7133 87.1496 67.956L86.7867 66.1061Z" fill="#EB996E"/>
<path d="M81.1592 45.9859C81.1023 46.2776 80.0707 46.2918 78.9038 46.612C77.737 46.9322 76.8192 47.3875 76.6271 47.167C76.5417 47.0602 76.6698 46.7756 77.0184 46.4555C77.4878 46.054 78.0425 45.7646 78.6404 45.6093C79.2382 45.4539 79.8636 45.4368 80.4691 45.559C80.9387 45.6657 81.1592 45.8507 81.1592 45.9859Z" fill="#263238"/>
<path d="M89.8582 44.2062C89.7159 44.4623 88.983 44.3271 88.1435 44.4338C87.304 44.5406 86.6138 44.818 86.4146 44.5975C86.3292 44.4907 86.4146 44.2488 86.685 43.9856C87.0581 43.6548 87.5263 43.4506 88.0225 43.4022C88.5126 43.3431 89.009 43.435 89.4455 43.6654C89.787 43.8575 89.9222 44.0781 89.8582 44.2062Z" fill="#263238"/>
<path d="M79.4765 49.948C79.4921 50.0581 79.5295 50.164 79.5864 50.2596C79.6433 50.3551 79.7186 50.4384 79.808 50.5046C79.8973 50.5708 79.9989 50.6186 80.1069 50.6452C80.2149 50.6718 80.3271 50.6766 80.437 50.6595C80.5438 50.6472 80.6471 50.6138 80.7409 50.5612C80.8347 50.5086 80.9171 50.4378 80.9833 50.3531C81.0495 50.2684 81.0982 50.1713 81.1266 50.0675C81.1549 49.9638 81.1624 49.8555 81.1485 49.7488C81.1151 49.5273 80.9952 49.328 80.8152 49.1946C80.6352 49.0613 80.4096 49.0047 80.188 49.0373C80.0807 49.0487 79.9769 49.0815 79.8826 49.1338C79.7883 49.1862 79.7055 49.2569 79.6392 49.3419C79.5728 49.4268 79.5242 49.5243 79.4962 49.6284C79.4683 49.7326 79.4616 49.8413 79.4765 49.948Z" fill="#263238"/>
<path d="M88.4452 48.0057C88.4786 48.2272 88.5984 48.4265 88.7785 48.5598C88.9585 48.6932 89.1841 48.7498 89.4057 48.7171C89.5126 48.7048 89.6159 48.6714 89.7097 48.6188C89.8035 48.5662 89.8859 48.4955 89.9521 48.4107C90.0183 48.326 90.067 48.2289 90.0953 48.1252C90.1237 48.0214 90.1311 47.9131 90.1172 47.8064C90.0838 47.5849 89.964 47.3856 89.7839 47.2523C89.6039 47.1189 89.3784 47.0623 89.1567 47.095C89.0495 47.1063 88.9456 47.1392 88.8514 47.1915C88.7571 47.2438 88.6743 47.3145 88.6079 47.3995C88.5415 47.4845 88.4929 47.5819 88.465 47.686C88.437 47.7902 88.4303 47.8989 88.4452 48.0057Z" fill="#263238"/>
<path d="M86.9527 56.0312C86.6734 55.9443 86.3725 55.9579 86.1021 56.0696C85.8318 56.1814 85.6092 56.3843 85.4728 56.643C85.3425 56.8807 85.2897 57.153 85.3215 57.4221C85.3534 57.6912 85.4685 57.9437 85.6507 58.1443C85.8446 58.3347 86.0999 58.45 86.371 58.4696C86.6421 58.4891 86.9113 58.4117 87.1305 58.251C87.405 58.0011 87.5709 57.6539 87.593 57.2834C87.6413 56.9437 87.56 56.5983 87.3653 56.3158C87.2654 56.1776 87.1227 56.0763 86.9594 56.0274C86.796 55.9786 86.6211 55.9849 86.4617 56.0454" fill="#EB996E"/>
<path d="M91.115 38.9558C90.5565 36.7016 89.163 34.7436 87.2161 33.4774C85.6225 32.3264 83.7296 31.6616 81.7662 31.5636C79.7906 31.4785 77.8617 32.1794 76.4016 33.513C75.3656 34.54 74.773 35.9319 74.751 37.3906L74.8648 36.3945C74.5659 37.205 74.5659 38.0955 74.8648 38.906C75.0285 39.34 75.2277 39.7811 75.3985 40.2151C75.9078 41.4693 76.8526 42.4975 78.0594 43.1109C78.6059 43.404 79.218 43.5533 79.8381 43.5449C80.1485 43.5386 80.4539 43.4647 80.7328 43.3283C81.0117 43.1919 81.2576 42.9963 81.4531 42.7551C81.8949 41.9839 82.0319 41.0752 81.8373 40.208C82.3042 41.065 82.9704 41.7971 83.7797 42.3425C84.1929 42.6065 84.6844 42.7203 85.1716 42.6645C85.6588 42.6088 86.1119 42.3871 86.4548 42.0365C87.0382 41.325 86.8106 40.2009 86.4548 39.3187C87.0053 40.1508 87.7763 40.8135 88.6817 41.2325C88.92 41.3692 89.184 41.455 89.4571 41.4844C89.7302 41.5138 90.0065 41.4862 90.2683 41.4033C90.4777 41.2995 90.6608 41.1495 90.8037 40.9646C90.9467 40.7797 91.0458 40.5648 91.0937 40.3361C91.1993 39.8828 91.2065 39.4122 91.115 38.9558Z" fill="#263238"/>
<path d="M85.9734 40.8478C85.9094 40.8478 85.9236 40.0011 85.6461 38.7133C85.326 37.0021 84.4657 35.4386 83.1915 34.2524C82.4912 33.6155 81.6463 33.1588 80.7298 32.9219C79.9792 32.7377 79.1976 32.7183 78.4388 32.865C77.7395 33.0284 77.0714 33.3048 76.4609 33.6832C76.4609 33.6832 76.5819 33.5053 76.8949 33.2776C77.3442 32.9634 77.8487 32.7365 78.3819 32.6088C79.1799 32.4221 80.0101 32.4221 80.8081 32.6088C81.7912 32.8543 82.6967 33.3437 83.4405 34.0318C84.7747 35.2669 85.6459 36.9215 85.9094 38.7204C85.994 39.2522 86.0369 39.7899 86.0374 40.3284C86.0462 40.5039 86.0246 40.6796 85.9734 40.8478Z" fill="#455A64"/>
<path d="M151.499 123.799L124.143 112.949C124.143 112.949 110.134 94.5716 110.426 94.2158L100.586 104.988L114.887 124.333L148.034 132.102L153.726 130.523C152.474 124.482 151.499 123.799 151.499 123.799Z" fill="#FFBE9D"/>
<path d="M91.8815 71.3712L88.1534 69.9482L72.0598 71.9902V74.8361L71.5973 74.893C68.1281 75.6306 64.8007 76.9231 61.7433 78.7208C58.8795 80.469 56.6039 83.0339 55.2093 86.0856C53.8146 89.1374 53.3646 92.5365 53.9171 95.846C54.5716 99.9157 55.8381 104.86 58.2855 107.721C62.96 113.192 67.2288 106.433 67.2288 106.433C67.2288 106.433 70.1601 113.121 69.9894 116.287C69.8471 118.941 68.6802 124.462 68.3032 126.183C68.2877 126.252 68.2864 126.324 68.2993 126.393C68.3123 126.462 68.3392 126.528 68.3785 126.587C68.4177 126.645 68.4685 126.695 68.5278 126.734C68.587 126.772 68.6534 126.798 68.7229 126.81L102.675 133.092L102.838 124.789L101.757 90.638L100.227 77.3761C100.227 77.3761 100.277 71.0439 91.8815 71.3712Z" fill="#7B3DFF"/>
<path d="M99.7109 75.1699L112.66 93.8747L102.237 106.567L99.7109 75.1699Z" fill="#7B3DFF"/>
<path d="M102.499 114.529C102.452 114.128 102.436 113.723 102.449 113.32C102.449 112.48 102.449 111.377 102.406 110.033C102.343 106.423 102.085 102.82 101.631 99.2394C101.097 95.0417 100.279 91.2922 99.6601 88.5673L98.906 85.3656C98.7966 84.9784 98.7158 84.5836 98.6641 84.1846C98.8259 84.5542 98.9545 84.9376 99.0483 85.33C99.2688 86.0415 99.5676 87.1585 99.9091 88.5103C100.828 92.0207 101.526 95.5851 102.001 99.1825C102.458 102.779 102.682 106.4 102.67 110.025C102.67 111.448 102.634 112.544 102.591 113.32C102.595 113.725 102.564 114.129 102.499 114.529Z" fill="#263238"/>
<path d="M70.6243 86.0919C70.6243 86.1488 69.6425 86.1417 68.0701 86.22C66.0185 86.3313 63.978 86.5952 61.9656 87.0097C59.9537 87.4319 57.9753 88.0003 56.0461 88.7102C54.5662 89.258 53.6769 89.6635 53.6484 89.6066C53.8308 89.4637 54.0319 89.3464 54.2461 89.258C54.6374 89.0446 55.2208 88.7742 55.9536 88.4683C59.7928 86.8829 63.8957 86.0333 68.0487 85.9639C68.8456 85.9639 69.4717 85.9639 69.9342 86.0066C70.1672 85.999 70.4001 86.0278 70.6243 86.0919Z" fill="#FAFAFA"/>
<path d="M100.613 94.6498C100.092 94.8388 99.5493 94.9584 98.9977 95.0055C96.3668 95.3896 93.7014 95.4802 91.0505 95.2759C90.4968 95.2663 89.9468 95.185 89.4141 95.034C89.9632 94.9852 90.5156 94.9852 91.0647 95.034C92.075 95.034 93.4766 95.034 95.0205 95.034C96.5644 95.034 97.9589 94.8774 98.9692 94.7849C99.5118 94.6902 100.062 94.6449 100.613 94.6498Z" fill="#FAFAFA"/>
<path d="M106.549 86.191C105.765 87.0971 104.825 87.8561 103.774 88.4321C102.782 89.1027 101.675 89.5851 100.509 89.8551C100.466 89.7555 101.932 89.1436 103.582 88.0906C105.233 87.0376 106.478 86.1056 106.549 86.191Z" fill="#FAFAFA"/>
<path d="M101.329 77.5178C99.0842 79.5371 96.2241 80.7403 93.2109 80.9329C93.2109 80.8191 95.1675 80.5203 97.4158 79.5598C99.664 78.5993 101.258 77.4253 101.329 77.5178Z" fill="#FAFAFA"/>
<path d="M102.03 109.136C101.82 109.277 101.596 109.394 101.361 109.485C100.913 109.698 100.265 109.962 99.4397 110.267C97.2955 111.038 95.0821 111.6 92.8301 111.947C90.5783 112.294 88.2978 112.42 86.0213 112.324C85.1462 112.288 84.4418 112.224 83.958 112.16C83.7047 112.143 83.4541 112.098 83.2109 112.025C83.2109 111.961 84.2924 112.025 86.0568 112.067C90.5804 112.11 95.0809 111.418 99.3828 110.018C101.005 109.485 102.008 109.079 102.03 109.136Z" fill="#FAFAFA"/>
<path d="M102.296 118.776C102.296 118.776 102.196 118.848 101.99 118.954L101.079 119.353C100.297 119.723 99.1369 120.206 97.6855 120.776C96.2341 121.345 94.4768 121.893 92.4989 122.433C88.1989 123.591 83.7852 124.276 79.3365 124.475C77.2875 124.554 75.4447 124.546 73.8937 124.475C72.3427 124.404 71.0976 124.29 70.2367 124.169L69.2478 124.034C69.1313 124.026 69.0164 124.002 68.9062 123.963C69.0217 123.945 69.1394 123.945 69.2549 123.963L70.2509 124.027C71.1118 124.098 72.3854 124.169 73.9008 124.212C75.4163 124.255 77.2875 124.212 79.3223 124.141C81.3571 124.07 83.5912 123.814 85.9177 123.429C88.2442 123.045 90.4356 122.583 92.4135 122.085C94.3914 121.587 96.1416 121.025 97.593 120.505C99.0444 119.986 100.225 119.552 101.022 119.225L101.947 118.862C102.06 118.821 102.177 118.793 102.296 118.776Z" fill="#FAFAFA"/>
<path d="M39.8901 270.029L36.041 287.411L29.0188 300.281C28.8993 300.501 28.8263 300.743 28.8041 300.992C28.7819 301.241 28.811 301.492 28.8897 301.73C28.9684 301.967 29.095 302.186 29.2616 302.372C29.4282 302.559 29.6313 302.709 29.8583 302.814C30.1219 302.935 30.4106 302.991 30.7003 302.978C30.9899 302.964 31.2721 302.881 31.5232 302.736C34.7817 300.858 46.7417 293.864 46.948 292.576C47.197 291.089 52.2272 274.512 52.2272 274.512L39.8901 270.029Z" fill="#7B3DFF"/>
<g opacity="0.6">
<path d="M29.8594 302.815L47.2408 291.432L47.0558 292.143C46.9037 292.778 46.5304 293.338 46.0028 293.723C44.5798 294.74 40.6169 297.472 31.5811 302.751C31.3217 302.903 31.0287 302.989 30.7283 303C30.4279 303.011 30.1294 302.948 29.8594 302.815Z" fill="white"/>
</g>
<g opacity="0.6">
<path d="M45.0534 284.965C44.8024 285.07 44.5989 285.263 44.482 285.509C44.3651 285.755 44.3431 286.035 44.4202 286.295C44.5152 286.549 44.7038 286.757 44.9473 286.876C45.1908 286.995 45.4706 287.017 45.7293 286.936C45.9981 286.825 46.2157 286.617 46.3394 286.354C46.4631 286.091 46.4841 285.791 46.3981 285.513C46.2721 285.261 46.0545 285.067 45.7899 284.97C45.5253 284.874 45.2338 284.882 44.9752 284.993" fill="white"/>
</g>
<path d="M35.6659 296.226C35.3789 295.587 34.9761 295.005 34.4778 294.512C33.9038 294.112 33.2592 293.825 32.5781 293.665C32.5781 293.615 32.8271 293.537 33.2469 293.58C33.7932 293.65 34.3072 293.877 34.7268 294.234C35.1496 294.577 35.4615 295.038 35.6232 295.558C35.7442 295.963 35.7086 296.226 35.6659 296.226Z" fill="#263238"/>
<path d="M33.8632 298.24C33.7636 298.297 33.3438 297.6 32.5114 297.123C31.9804 296.876 31.4337 296.665 30.875 296.49C31.1821 296.389 31.5088 296.363 31.8281 296.414C32.1473 296.465 32.4498 296.591 32.7106 296.782C33.6569 297.329 33.9628 298.219 33.8632 298.24Z" fill="#263238"/>
<path d="M38.6796 293.821C38.0745 293.15 37.418 292.527 36.7159 291.957C35.9424 291.486 35.1336 291.074 34.2969 290.726C35.2591 290.707 36.1971 291.03 36.9436 291.637C37.7666 292.132 38.3831 292.908 38.6796 293.821Z" fill="#263238"/>
<path d="M40.2919 288.634C40.2207 288.727 39.3598 288.094 38.1575 287.745C36.9551 287.396 35.8665 287.453 35.8594 287.332C36.6513 287.127 37.4839 287.14 38.2691 287.369C39.0544 287.598 39.7631 288.036 40.3203 288.634H40.2919Z" fill="#263238"/>
<path d="M41.5586 283.562C40.8646 283.132 40.1154 282.8 39.3317 282.573C38.5243 282.463 37.7058 282.463 36.8984 282.573C36.8984 282.53 37.119 282.359 37.5743 282.224C38.1729 282.061 38.8011 282.041 39.4089 282.165C40.0167 282.288 40.5872 282.552 41.0748 282.935C41.4377 283.277 41.5871 283.533 41.5586 283.562Z" fill="#263238"/>
<path d="M39.5917 281.613C39.5922 281.388 39.6407 281.165 39.734 280.959C39.9356 280.372 40.2552 279.832 40.6731 279.372C40.9466 279.008 41.3313 278.744 41.7688 278.618C41.9178 278.594 42.0707 278.615 42.2076 278.678C42.3446 278.741 42.4594 278.845 42.5372 278.974C42.668 279.239 42.6959 279.543 42.6155 279.828C42.433 280.398 42.0579 280.888 41.5543 281.212C41.0507 281.537 40.45 281.676 39.8549 281.606C39.2682 281.523 38.7193 281.267 38.2774 280.872C37.8355 280.477 37.5204 279.96 37.3719 279.387C37.3377 279.241 37.3346 279.089 37.3628 278.942C37.391 278.795 37.4499 278.656 37.5355 278.533C37.6338 278.418 37.7661 278.338 37.9132 278.303C38.0603 278.268 38.2146 278.282 38.3537 278.341C38.7559 278.541 39.0991 278.843 39.3498 279.216C39.7269 279.709 40.0135 280.266 40.1964 280.859C40.2831 281.071 40.3243 281.299 40.3174 281.528C40.0306 280.761 39.63 280.042 39.1292 279.394C38.896 279.09 38.5936 278.846 38.247 278.682C38.1708 278.649 38.0859 278.642 38.0051 278.661C37.9243 278.68 37.8519 278.725 37.7988 278.789C37.749 278.873 37.7171 278.966 37.7048 279.063C37.6926 279.159 37.7003 279.257 37.7276 279.351C37.876 279.834 38.1578 280.265 38.5404 280.595C38.9231 280.925 39.391 281.14 39.8905 281.215C40.3937 281.273 40.9019 281.16 41.3322 280.892C41.7625 280.625 42.0894 280.219 42.2597 279.742C42.3287 279.549 42.3287 279.338 42.2597 279.145C42.2194 279.072 42.1572 279.013 42.0819 278.978C42.0066 278.942 41.922 278.931 41.84 278.945C41.4692 279.047 41.1388 279.261 40.8937 279.557C40.3479 280.165 39.9078 280.86 39.5917 281.613Z" fill="#263238"/>
<g opacity="0.3">
<path d="M39.4262 271.915L38.5938 275.899L51.1798 277.991L52.2328 274.512L39.8744 270.029L39.4262 271.915Z" fill="black"/>
</g>
<path d="M96.0954 276.461L95.0566 290.35C95.0566 290.35 108.831 296.041 108.888 298.66L81.8516 297.614L82.563 275.899L96.0954 276.461Z" fill="#7B3DFF"/>
<g opacity="0.6">
<path d="M86.7756 288.855C86.5132 288.926 86.2857 289.09 86.1363 289.317C85.9868 289.544 85.9257 289.817 85.9645 290.086C86.0244 290.351 86.1828 290.583 86.4075 290.735C86.6321 290.887 86.9062 290.947 87.1741 290.905C87.4531 290.831 87.6948 290.656 87.8525 290.414C88.0102 290.172 88.0727 289.881 88.0278 289.595C87.9379 289.325 87.747 289.1 87.4951 288.968C87.2431 288.835 86.9496 288.805 86.676 288.884" fill="white"/>
</g>
<g opacity="0.6">
<path d="M81.8594 297.613L82.0159 295.422L107.878 297.222C107.878 297.222 109.066 297.791 108.896 298.645L81.8594 297.613Z" fill="white"/>
</g>
<path d="M95.5134 290.229C95.5134 290.364 94.8446 290.4 94.1829 290.798C93.5213 291.196 93.1513 291.737 93.0303 291.68C92.9094 291.623 93.1371 290.869 93.9481 290.4C94.7592 289.93 95.549 290.108 95.5134 290.229Z" fill="#263238"/>
<path d="M98.3028 291.53C98.3028 291.665 97.7478 291.864 97.2782 292.405C96.8087 292.946 96.6593 293.529 96.5241 293.522C96.3889 293.515 96.3391 292.761 96.9367 292.099C97.5344 291.437 98.3028 291.388 98.3028 291.53Z" fill="#263238"/>
<path d="M99.7803 294.967C99.6594 294.967 99.5028 294.319 99.8657 293.615C100.229 292.911 100.862 292.64 100.912 292.754C100.961 292.868 100.57 293.238 100.278 293.821C99.9867 294.405 99.9084 294.96 99.7803 294.967Z" fill="#263238"/>
<path d="M95.3853 287.041C95.3283 287.155 94.7307 286.949 93.9623 286.97C93.1939 286.992 92.6247 287.205 92.5393 287.091C92.454 286.977 93.0516 286.529 93.9623 286.515C94.873 286.501 95.4706 286.942 95.3853 287.041Z" fill="#263238"/>
<g opacity="0.3">
<path d="M95.9072 279.215L95.7222 281.691L82.4531 281.051L82.5456 278.19L95.9072 279.215Z" fill="black"/>
</g>
<path d="M95.5633 284.23C95.1163 284.338 94.6479 284.318 94.2115 284.173C93.7182 284.07 93.2401 283.905 92.7885 283.682C92.5251 283.552 92.2708 283.405 92.0272 283.241C91.8787 283.15 91.7444 283.037 91.6288 282.906C91.5504 282.804 91.5078 282.679 91.5078 282.551C91.5078 282.422 91.5504 282.297 91.6288 282.195C91.698 282.105 91.7877 282.033 91.8904 281.985C91.9931 281.936 92.1059 281.913 92.2193 281.917C92.3907 281.924 92.5604 281.953 92.7245 282.003C93.0092 282.086 93.2855 282.196 93.5498 282.33C93.9991 282.55 94.4099 282.84 94.7664 283.191C95.3712 283.796 95.5633 284.301 95.5206 284.322C95.4779 284.344 95.172 283.938 94.553 283.433C94.1896 283.149 93.793 282.91 93.3719 282.721C93.1209 282.617 92.8644 282.527 92.6035 282.451C92.3189 282.366 92.0771 282.359 91.9988 282.451C91.9205 282.544 91.9988 282.522 91.9988 282.608C92.0841 282.702 92.1823 282.783 92.2905 282.85C92.5187 283.008 92.7563 283.153 93.002 283.284C93.4122 283.51 93.8435 283.696 94.2897 283.838C94.723 283.938 95.1486 284.069 95.5633 284.23Z" fill="#263238"/>
<path d="M95.3913 284.416C95.1549 284.017 95.0481 283.555 95.0854 283.092C95.0882 282.592 95.1699 282.095 95.3273 281.62C95.4294 281.341 95.5556 281.072 95.7044 280.816C95.7844 280.64 95.9081 280.487 96.0638 280.373C96.2195 280.258 96.4019 280.185 96.5937 280.161C96.7152 280.169 96.832 280.211 96.9302 280.283C97.0285 280.355 97.1043 280.453 97.1487 280.567C97.2105 280.726 97.2489 280.894 97.2625 281.065C97.3093 281.366 97.3093 281.674 97.2625 281.975C97.1674 282.478 96.9499 282.95 96.6293 283.349C96.0744 284.06 95.5194 284.167 95.5052 284.124C95.491 284.081 95.9321 283.818 96.3661 283.156C96.6151 282.779 96.7779 282.352 96.8428 281.904C96.8788 281.645 96.8788 281.381 96.8428 281.122C96.8072 280.837 96.7076 280.595 96.6009 280.624C96.4941 280.652 96.2309 280.823 96.1099 281.05C95.971 281.278 95.8497 281.516 95.7471 281.762C95.5824 282.192 95.4771 282.642 95.434 283.1C95.3415 283.896 95.4625 284.416 95.3913 284.416Z" fill="#263238"/>
<path d="M68.1458 126.681C68.1458 126.681 63.877 126.873 61.0311 141.473C58.1851 156.072 36.4922 274.369 36.4922 274.369L52.223 274.512L81.8631 162.041L79.8923 278.012L95.8721 279.236C95.8721 279.236 107.861 150.964 107.967 143.5C108.11 134.194 102.766 124.781 102.766 124.781L68.1458 126.681Z" fill="#263238"/>
<path d="M89.7692 125.437C89.8688 125.437 88.2324 133.796 86.1193 144.063C84.0062 154.33 82.2133 162.64 82.1137 162.618C82.0141 162.597 83.6434 154.259 85.7565 143.992C87.8696 133.725 89.6909 125.415 89.7692 125.437Z" fill="#455A64"/>
<path d="M92.2172 127.521C92.2172 127.478 92.6441 127.35 93.135 127.784C93.2745 127.91 93.3848 128.066 93.4585 128.239C93.5322 128.412 93.5675 128.599 93.5619 128.787C93.5441 129.025 93.4591 129.253 93.3168 129.444C93.1744 129.636 92.9806 129.783 92.7579 129.869C92.5407 129.967 92.3002 130.003 92.0637 129.971C91.8272 129.94 91.6043 129.843 91.4204 129.691C91.2828 129.562 91.1742 129.405 91.1018 129.231C91.0295 129.057 90.995 128.869 91.0006 128.68C91.0006 128.026 91.4417 127.798 91.4488 127.841C91.3289 128.102 91.2658 128.386 91.2638 128.673C91.2734 128.818 91.3116 128.959 91.3764 129.088C91.4411 129.218 91.5311 129.333 91.6409 129.427C91.7813 129.524 91.9437 129.584 92.1133 129.602C92.2829 129.619 92.4542 129.594 92.6115 129.528C92.7687 129.462 92.9069 129.358 93.0133 129.225C93.1197 129.092 93.1909 128.934 93.2204 128.766C93.2309 128.622 93.2124 128.477 93.1659 128.34C93.1195 128.203 93.0461 128.077 92.95 127.969C92.6014 127.563 92.2101 127.578 92.2172 127.521Z" fill="#455A64"/>
<path d="M91.5443 133.298C91.5443 133.255 91.9854 133.298 92.2558 133.888C92.3245 134.057 92.3557 134.239 92.3471 134.42C92.3385 134.602 92.2903 134.78 92.206 134.941C92.0836 135.133 91.9113 135.288 91.7076 135.389C91.5039 135.491 91.2764 135.534 91.0497 135.516C90.8229 135.498 90.6054 135.418 90.4206 135.286C90.2357 135.153 90.0904 134.972 90.0004 134.764C89.9435 134.592 89.9249 134.41 89.9458 134.231C89.9667 134.051 90.0266 133.879 90.1214 133.725C90.4558 133.191 90.9111 133.205 90.8969 133.248C90.8826 133.291 90.5554 133.39 90.349 133.846C90.2446 134.101 90.2446 134.387 90.349 134.643C90.4233 134.784 90.5321 134.904 90.6652 134.992C90.7984 135.08 90.9516 135.132 91.1106 135.145C91.2697 135.158 91.4293 135.13 91.5748 135.065C91.7203 134.999 91.8469 134.898 91.9427 134.771C92.0768 134.527 92.11 134.241 92.0352 133.974C91.8289 133.49 91.5087 133.348 91.5443 133.298Z" fill="#455A64"/>
<path d="M76.4698 127.662C76.4405 127.907 76.3783 128.146 76.2848 128.374C76.0625 129.025 75.784 129.656 75.4524 130.259C74.3668 132.272 72.799 133.984 70.8892 135.242C68.9795 136.5 66.7876 137.264 64.5098 137.467C63.8257 137.526 63.1378 137.526 62.4537 137.467C62.2126 137.459 61.9736 137.421 61.7422 137.353C61.7422 137.282 62.8165 137.403 64.517 137.189C66.7331 136.92 68.8568 136.141 70.7209 134.913C72.585 133.684 74.1389 132.04 75.2603 130.11C76.0927 128.673 76.4057 127.641 76.4698 127.662Z" fill="#455A64"/>
<path d="M107.074 138.043C107.074 138.043 106.889 137.958 106.598 137.759C106.19 137.465 105.809 137.137 105.459 136.777C104.289 135.592 103.376 134.179 102.778 132.625C102.179 131.072 101.908 129.411 101.98 127.748C101.997 127.247 102.061 126.749 102.172 126.261C102.251 125.912 102.3 125.727 102.329 125.735C102.357 125.742 102.244 126.51 102.244 127.755C102.245 131.023 103.459 134.175 105.652 136.599C106.484 137.517 107.11 137.986 107.074 138.043Z" fill="#455A64"/>
<path d="M162.261 138.456C162.496 137.887 162.432 138.114 158.661 135.61C158.661 135.61 164.068 139.167 163.506 137.474C163.02 136.833 162.425 136.281 161.749 135.845C163.172 136.684 163.997 136.777 164.246 136.435C164.673 135.845 161.578 133.589 160.105 132.572C161.452 133.535 162.864 134.403 164.331 135.169C165.206 135.439 164.787 134.415 164.196 133.668C163.606 132.921 159.024 128.51 157.793 127.193C157.676 127.093 157.582 126.969 157.517 126.829C157.453 126.689 157.419 126.536 157.419 126.382C157.419 126.228 157.453 126.076 157.517 125.936C157.582 125.796 157.676 125.671 157.793 125.571C159.998 124.148 160.966 121.879 160.938 121.131C160.913 120.963 160.836 120.807 160.717 120.686C160.598 120.564 160.444 120.483 160.277 120.455C160.109 120.426 159.937 120.452 159.785 120.527C159.632 120.603 159.508 120.725 159.429 120.875C158.872 121.567 158.224 122.18 157.501 122.697C156.941 123.134 156.311 123.473 155.637 123.7C154.854 123.956 151.005 123.743 150.18 123.323L147.555 132.223C147.555 132.223 157.081 136.677 158.889 137.545C161.108 138.598 162.097 138.89 162.261 138.456Z" fill="#FFBE9D"/>
<path d="M156.949 134.295C156.871 134.401 158.109 135.305 159.709 136.322C161.31 137.34 162.655 138.073 162.719 137.966C162.783 137.859 161.545 136.949 159.951 135.938C158.358 134.928 157.02 134.16 156.949 134.295Z" fill="#EB996E"/>
<path d="M157.854 132.552C157.783 132.658 159.05 133.697 160.7 134.878C162.351 136.059 163.717 136.934 163.788 136.835C163.859 136.735 162.6 135.689 160.942 134.508C159.284 133.327 157.933 132.452 157.854 132.552Z" fill="#EB996E"/>
<path d="M158.792 130.786C158.721 130.886 159.902 131.896 161.432 133.035C162.961 134.173 164.278 135.013 164.335 134.913C164.391 134.813 163.232 133.803 161.702 132.665C160.172 131.526 158.87 130.687 158.792 130.786Z" fill="#EB996E"/>
<path d="M61.8906 98.5492L68.8773 98.9334C69.3722 100.884 70.0339 102.788 70.8552 104.625C76.483 94.8637 80.8159 81.7796 81.9258 76.5218C81.7693 76.0048 81.5772 75.4214 81.3495 74.7716C81.179 73.7893 81.2081 72.7827 81.4349 71.8118C81.627 70.645 81.9543 69.0655 82.0467 68.3398C82.3527 66.12 82.7084 65.7643 83.4697 66.0204C84.5227 66.3619 83.0357 72.2601 83.8966 72.3881C84.3662 72.4522 84.9282 70.4316 85.099 68.7738C85.2697 67.1161 86.0097 62.0219 86.5575 61.659C87.3615 61.161 88.0587 61.9507 87.8595 63.6014C87.6603 65.252 87.3971 70.2537 88.2722 70.3177C89.1473 70.3818 89.8588 61.9294 89.8588 61.9294C89.8588 61.9294 89.7236 60.0938 90.7339 60.1365C92.5624 60.2147 91.1394 69.1296 90.9829 69.9762C90.8691 70.5596 91.8224 70.6877 91.9078 70.0331C91.9932 69.3786 92.4343 61.5737 94.2913 61.6377C95.7142 61.6875 93.1885 68.9801 93.9925 70.6735C94.7964 72.3668 95.3514 64.9318 96.7174 65.0314C97.2226 65.0741 97.5997 65.1737 96.6676 69.3786C95.758 72.7222 94.6678 76.014 93.4019 79.2397C91.2675 90.9079 81.7408 128.232 66.8567 121.402C58.5324 117.581 54.6406 98.6345 54.6406 98.6345L61.8906 98.5492Z" fill="#FFBE9D"/>
<path d="M93.4245 79.3045C93.4368 79.2163 93.4607 79.1302 93.4956 79.0484C93.5597 78.8634 93.6379 78.6215 93.7447 78.3369C93.9795 77.661 94.2996 76.7218 94.7194 75.491C95.1392 74.2601 95.6443 72.766 96.1423 71.0015C96.3985 70.1264 96.6119 69.173 96.804 68.1556C96.9036 67.6434 96.9961 67.1169 97.0602 66.5762C97.0779 66.3085 97.0779 66.0399 97.0602 65.7722C97.0602 65.4947 96.9961 65.267 96.7756 65.2599C96.555 65.2528 96.3985 65.388 96.242 65.6228C96.1002 65.874 95.9835 66.1385 95.8933 66.4125C95.6941 66.9746 95.5376 67.5722 95.3811 68.177C95.2245 68.7817 95.0822 69.415 94.8973 70.0553C94.8166 70.4061 94.6719 70.7389 94.4704 71.0371C94.4197 71.0955 94.3529 71.1376 94.2783 71.1581C94.2313 71.1684 94.1826 71.168 94.1358 71.1569C94.089 71.1458 94.0453 71.1243 94.0079 71.094C93.9261 71.0191 93.8586 70.9299 93.8087 70.8308C93.7335 70.6561 93.6833 70.4717 93.6593 70.283C93.6269 68.8479 93.7702 67.4143 94.0862 66.0141C94.2071 65.3026 94.3352 64.5911 94.4277 63.8797C94.4704 63.5168 94.5131 63.1682 94.5202 62.784C94.5273 62.3998 94.4704 61.9942 94.321 61.9302C94.1716 61.8662 93.8087 62.0654 93.6095 62.3642C93.4128 62.6798 93.2574 63.0194 93.147 63.3745C92.9044 64.1177 92.7212 64.879 92.5992 65.6512C92.464 66.4339 92.3573 67.2307 92.2648 68.0418C92.2292 68.4474 92.1865 68.8529 92.151 69.2656L92.094 69.8845C92.1016 70.0167 92.0801 70.149 92.0309 70.2719C91.9817 70.3949 91.9061 70.5055 91.8095 70.596C91.6876 70.6851 91.5406 70.733 91.3897 70.733C91.2388 70.733 91.0918 70.6851 90.9699 70.596C90.9009 70.5504 90.8424 70.4907 90.7982 70.4208C90.7541 70.3509 90.7253 70.2724 90.7138 70.1905C90.703 70.115 90.703 70.0383 90.7138 69.9628V69.8134L90.9059 68.5683C91.0268 67.7288 91.1264 66.8892 91.2047 66.0354C91.283 65.1817 91.347 64.3208 91.3612 63.4599C91.4029 62.6075 91.3166 61.7538 91.1051 60.927C91.056 60.7172 90.9288 60.534 90.7493 60.4148C90.6635 60.3872 90.5712 60.3875 90.4856 60.4156C90.4 60.4437 90.3254 60.4982 90.2727 60.5713C90.0423 60.9925 89.9479 61.4746 90.0023 61.9516C89.8458 63.6235 89.6679 65.267 89.426 66.8821C89.305 67.6861 89.1699 68.49 88.9707 69.2798C88.9137 69.4719 88.8568 69.6711 88.7857 69.8703C88.718 70.1117 88.5761 70.3258 88.3801 70.4822C88.2934 70.5247 88.1949 70.5367 88.1006 70.516C88.0062 70.4953 87.9217 70.4433 87.8607 70.3683C87.7739 70.2771 87.7083 70.1678 87.6686 70.0482C87.5919 69.8508 87.537 69.6456 87.505 69.4363C87.3383 67.888 87.324 66.3272 87.4623 64.7761C87.5675 64.0531 87.6079 63.3221 87.5833 62.5919C87.5602 62.2802 87.4175 61.9895 87.1848 61.7808C87.1302 61.7468 87.0693 61.7243 87.0057 61.7145C86.9421 61.7047 86.8772 61.7079 86.8149 61.7239C86.7483 61.7463 86.684 61.7749 86.6228 61.8093C86.5587 61.8662 86.5659 61.8093 86.5232 61.9302C86.2659 62.57 86.0774 63.2355 85.9611 63.9152C85.8188 64.6267 85.6979 65.2742 85.5911 65.9429C85.4844 66.6117 85.3848 67.2663 85.2994 67.9209C85.2141 68.5754 85.1714 69.2157 85.0433 69.8561C84.9327 70.4817 84.766 71.096 84.5453 71.6917C84.4866 71.8433 84.4177 71.9907 84.3389 72.1328C84.2393 72.268 84.1824 72.4387 83.912 72.5241C83.8429 72.5368 83.7715 72.5287 83.7069 72.5009C83.6423 72.473 83.5874 72.4266 83.5492 72.3676C83.4994 72.2854 83.4611 72.1969 83.4354 72.1043C83.4034 71.9497 83.3843 71.7926 83.3784 71.6348C83.3784 70.4181 83.5421 69.3082 83.6061 68.2339C83.6525 67.7203 83.6525 67.2036 83.6061 66.69C83.6061 66.4623 83.4994 66.192 83.3713 66.1422C83.2816 66.0982 83.1831 66.0753 83.0832 66.0753C82.9833 66.0753 82.8847 66.0982 82.795 66.1422C82.4964 66.4629 82.3114 66.8729 82.2685 67.309C82.1618 67.743 82.1191 68.1841 82.0409 68.6039C81.742 70.283 81.429 71.7344 81.2796 72.9154C81.2094 73.4348 81.2094 73.9613 81.2796 74.4807C81.3792 74.9076 81.5286 75.2918 81.6069 75.5906C81.6851 75.8894 81.7634 76.1029 81.8132 76.3021C81.8397 76.3783 81.8587 76.4569 81.8701 76.5369C81.8275 76.468 81.794 76.3938 81.7705 76.3163L81.5286 75.6048C81.429 75.2989 81.2796 74.9574 81.1586 74.4878C81.0825 73.9545 81.0825 73.4131 81.1586 72.8798C81.2938 71.6775 81.5784 70.2403 81.8701 68.5541C81.9484 68.1343 81.9911 67.6932 82.0836 67.2378C82.1345 66.9973 82.1986 66.7598 82.2757 66.5264C82.3468 66.2676 82.502 66.0398 82.7168 65.8789C82.8461 65.8104 82.9902 65.7746 83.1365 65.7746C83.2829 65.7746 83.427 65.8104 83.5563 65.8789C83.6954 65.9666 83.8097 66.0885 83.8882 66.2331C83.9667 66.3776 84.0067 66.5398 84.0045 66.7042C84.0544 67.239 84.0544 67.7773 84.0045 68.3122C83.9547 69.3936 83.784 70.5249 83.8124 71.6775C83.8176 71.8138 83.8343 71.9495 83.8622 72.083C83.8622 72.2182 83.9618 72.2751 83.9476 72.2466C83.9334 72.2182 84.0828 72.1328 84.1397 72.019C84.2099 71.8927 84.2717 71.762 84.3247 71.6277C84.5354 71.0509 84.6903 70.4553 84.7872 69.849C84.9081 69.23 84.9508 68.5896 85.0362 67.928C85.1216 67.2663 85.2069 66.6117 85.3137 65.9358C85.4204 65.2599 85.5413 64.584 85.6765 63.8939C85.7922 63.1731 85.9928 62.4686 86.2742 61.795C86.331 61.6821 86.417 61.5863 86.5232 61.5176C86.6177 61.4657 86.718 61.4251 86.822 61.3966C86.9413 61.3625 87.0666 61.3544 87.1893 61.3728C87.312 61.3912 87.4294 61.4357 87.5335 61.5033C87.6986 61.6344 87.8349 61.7981 87.9341 61.9841C88.0332 62.1702 88.093 62.3746 88.1098 62.5848C88.1632 62.9719 88.1632 63.3645 88.1098 63.7516C88.0742 64.1145 88.0386 64.4631 88.0173 64.8615C87.8786 66.3769 87.8929 67.9024 88.06 69.415C88.0904 69.5946 88.1381 69.7709 88.2023 69.9415C88.2236 70.0103 88.2601 70.0735 88.309 70.1264C88.309 70.1264 88.309 70.1264 88.3446 70.1264C88.3446 70.2901 88.3446 70.1264 88.3446 70.1905C88.3446 70.2545 88.3446 70.1905 88.3446 70.1336C88.4333 70.0147 88.5029 69.8826 88.5509 69.7422C88.6173 69.5667 88.6742 69.3818 88.7216 69.1873C88.9137 68.4331 89.0418 67.6363 89.1628 66.8394C89.4047 65.2386 89.5825 63.5951 89.7319 61.9302V61.9658C89.6687 61.3793 89.7959 60.7881 90.0948 60.2796C90.2089 60.1342 90.3654 60.0281 90.5427 59.9758C90.7199 59.9235 90.909 59.9277 91.0837 59.9879C91.233 60.0707 91.364 60.1826 91.4691 60.3171C91.5742 60.4515 91.6513 60.6057 91.6956 60.7705C91.9235 61.6454 92.017 62.5498 91.9731 63.4528C91.9731 64.335 91.8948 65.203 91.8166 66.0639C91.7383 66.9248 91.6316 67.7714 91.5106 68.611C91.4466 69.0379 91.3826 69.4505 91.3185 69.8703C91.2616 70.1335 91.2758 70.1407 91.3185 70.2189C91.3679 70.2523 91.4261 70.2701 91.4857 70.2701C91.5453 70.2701 91.6035 70.2523 91.6529 70.2189C91.7383 70.1549 91.7525 70.0339 91.7739 69.7992L91.8237 69.1802L91.9517 67.9493C92.0371 67.1382 92.151 66.3271 92.2861 65.5374C92.4178 64.7442 92.608 63.9618 92.8553 63.1966C92.9845 62.8099 93.1588 62.4398 93.3747 62.0939C93.4922 61.9074 93.6473 61.7475 93.83 61.6243C93.9315 61.5509 94.049 61.5029 94.1728 61.4843C94.2966 61.4657 94.423 61.4771 94.5415 61.5176C94.6505 61.5848 94.7425 61.6763 94.8104 61.7849C94.8783 61.8934 94.9202 62.0162 94.9328 62.1437C94.9622 62.3438 94.9741 62.5462 94.9684 62.7484C94.9684 63.1397 94.9186 63.5168 94.8759 63.8939C94.7763 64.6054 94.6411 65.3595 94.5131 66.0781C94.2075 67.4296 94.0594 68.812 94.0719 70.1976C94.092 70.3464 94.1302 70.4921 94.1858 70.6316C94.2116 70.6821 94.2426 70.7298 94.2783 70.7739C94.2783 70.7739 94.2783 70.7739 94.2783 70.7241C94.438 70.4669 94.5557 70.1859 94.6269 69.8916C94.8119 69.2727 94.9613 68.6466 95.1249 68.0347C95.2717 67.4259 95.4498 66.8251 95.6585 66.2346C95.7571 65.9422 95.8858 65.6608 96.0427 65.3951C96.1276 65.2503 96.2386 65.1224 96.37 65.018C96.4416 64.956 96.527 64.9121 96.619 64.89C96.711 64.8756 96.8046 64.8756 96.8965 64.89C96.9936 64.8997 97.0863 64.9351 97.1651 64.9926C97.2439 65.0502 97.3059 65.1277 97.3447 65.2172C97.4042 65.3668 97.4355 65.5259 97.4372 65.6868C97.4428 65.9746 97.4261 66.2624 97.3874 66.5477C97.3234 67.1027 97.2167 67.6291 97.1171 68.1485C96.9107 69.1659 96.6831 70.1335 96.4056 70.9944C95.872 72.7589 95.3384 74.253 94.9044 75.4696C94.4704 76.6863 94.1004 77.6041 93.8514 78.2586C93.7304 78.5575 93.6308 78.7922 93.5597 78.9701C93.5278 79.0865 93.4825 79.1987 93.4245 79.3045Z" fill="#EB996E"/>
<path d="M54.5859 99.3536C55.9377 104.128 58.5844 111.491 61.4232 119.275C61.5127 119.526 61.6746 119.744 61.8884 119.903C62.1023 120.062 62.3584 120.153 62.6243 120.166C62.8902 120.179 63.154 120.113 63.3823 119.976C63.6105 119.839 63.7929 119.637 63.9063 119.396L70.8645 104.675C70.8645 104.675 69.1855 92.5803 69.3278 93.0143C69.4701 93.4483 54.9701 94.5796 54.9701 94.5796L54.5859 99.3536Z" fill="#7B3DFF"/>
<path d="M70.2618 96.9837C70.2618 97.0406 69.3938 97.2967 68.0207 97.8232C66.2261 98.5044 64.4972 99.3474 62.8554 100.342C61.2157 101.341 59.668 102.484 58.2307 103.757C57.128 104.732 56.4947 105.4 56.4521 105.358C56.4094 105.315 56.573 105.159 56.8434 104.838C57.2245 104.393 57.6282 103.968 58.0529 103.565C59.4553 102.214 61.0013 101.022 62.6633 100.007C64.3257 99.0058 66.0908 98.1853 67.9282 97.56C68.4836 97.3686 69.0488 97.2071 69.6215 97.0762C69.8287 97.0114 70.0448 96.9801 70.2618 96.9837Z" fill="#FAFAFA"/>
<path d="M73.025 100.655C72.5729 100.199 72.1808 99.6878 71.8582 99.1327C71.0273 97.8372 70.313 96.4706 69.7237 95.0488C69.1341 93.6228 68.6745 92.1464 68.3506 90.6377C68.1848 90.0205 68.101 89.3842 68.1016 88.7451C68.3138 89.3417 68.4826 89.9528 68.6067 90.5736C68.9879 92.0469 69.4632 93.4941 70.0297 94.9065C70.6215 96.3115 71.3012 97.6778 72.0645 98.9975C72.4198 99.529 72.7406 100.083 73.025 100.655Z" fill="#263238"/>
<path d="M77.6643 35.4697C76.4573 37.4591 75.709 39.6926 75.4739 42.0077C75.2388 44.3228 75.5229 46.6611 76.3054 48.8526C77.0169 50.8091 78.1552 52.7372 77.9489 54.8148C77.7426 56.8923 76.1204 58.9484 76.6896 60.9975C77.0311 62.2141 78.0699 63.1319 78.4754 64.313C78.9379 65.7359 78.4754 67.2372 78.2264 68.6957C77.6572 72.4238 78.8525 76.1733 79.1442 79.9299C79.4359 83.6865 78.4327 88.0906 75.0745 89.727C74.0571 90.225 72.7267 90.3673 71.88 89.606C70.7986 88.6455 71.0974 86.9095 71.3962 85.4866C74.3417 71.257 65.2419 57.369 67.3194 42.9686C67.6538 40.6635 68.9416 36.7503 70.5994 35.1424C72.2571 33.5345 76.8604 33.7194 78.4256 35.427" fill="#263238"/>
<path d="M63.6406 76.7493C63.6406 76.7493 64.0746 76.2371 64.715 75.2268C65.6135 73.7999 66.2429 72.2204 66.5719 70.5666C66.7866 69.4273 66.8606 68.2661 66.7925 67.1088C66.668 65.7632 66.6181 64.4117 66.6431 63.0605C66.6855 62.3205 66.8218 61.589 67.0486 60.8834C67.3086 60.1565 67.6374 59.4561 68.0304 58.7916C68.8273 57.4469 69.8305 56.1947 70.7554 54.8572C71.7052 53.593 72.3658 52.1357 72.6906 50.5883C72.8484 49.1307 72.7642 47.6571 72.4416 46.2269C72.1724 44.8977 72.0673 43.5405 72.1286 42.1857C72.2132 41.0023 72.4524 39.8351 72.84 38.7137C73.3835 37.0866 74.239 35.581 75.3587 34.2812C75.6561 33.9279 75.9795 33.5973 76.3263 33.2923C76.4362 33.1751 76.5605 33.0723 76.6962 32.9863C76.6962 32.9863 76.2195 33.4488 75.4654 34.4093C73.6691 36.6389 72.6188 39.3766 72.4629 42.2355C72.4153 43.5682 72.5324 44.9016 72.8116 46.2056C73.151 47.6742 73.2423 49.1892 73.0819 50.6879C72.7447 52.2785 72.0648 53.7765 71.0898 55.0777C70.1578 56.4366 69.1546 57.6817 68.372 58.9908C67.987 59.6306 67.6676 60.3076 67.4186 61.0114C67.1935 61.6882 67.0572 62.3913 67.013 63.1032C66.9816 64.4395 67.0196 65.7765 67.1269 67.1088C67.1834 68.2894 67.0925 69.4725 66.8565 70.6306C66.5 72.307 65.8236 73.8989 64.8644 75.3193C64.6047 75.7032 64.3194 76.0693 64.0106 76.4149C63.8999 76.5396 63.7758 76.6517 63.6406 76.7493Z" fill="#455A64"/>
<path d="M56.9062 77.8098C56.9636 77.6439 57.0375 77.4842 57.1268 77.3332C57.3047 76.9988 57.5323 76.5577 57.8383 76.0027C58.4359 74.843 59.3253 73.1568 60.2004 71.0224C61.2709 68.5294 61.8645 65.8579 61.9506 63.1463C61.951 62.365 61.8916 61.5848 61.7728 60.8126C61.6518 60.0158 61.4668 59.2118 61.3459 58.3723C61.1979 57.5039 61.2172 56.6152 61.4028 55.754C61.6434 54.8699 62.1381 54.0758 62.8257 53.4702C64.1633 52.2536 65.7784 51.4567 66.6179 50.0266C67.3453 48.6086 67.7739 47.0564 67.8772 45.4661C68.0278 44.0082 68.3576 42.5744 68.8591 41.1972C69.9868 38.2406 71.9962 35.7022 74.6149 33.9259C75.0324 33.6449 75.4673 33.3906 75.9169 33.1646C76.0687 33.0737 76.2312 33.002 76.4007 32.9512C76.4007 32.9512 75.7604 33.2927 74.7003 34.0468C73.2061 35.1131 71.9126 36.4355 70.8797 37.9529C70.1633 38.993 69.5801 40.1188 69.1437 41.3039C68.6642 42.6843 68.3537 44.1177 68.2187 45.5728C68.0053 47.0882 67.8345 48.7816 66.9239 50.2828C66.0132 51.784 64.3483 52.6378 63.0748 53.8402C62.4257 54.4034 61.9579 55.146 61.7301 55.9746C61.5571 56.7893 61.5402 57.6295 61.6803 58.4505C61.7941 59.2687 61.972 60.0798 62.0929 60.8838C62.216 61.6745 62.2731 62.4741 62.2637 63.2744C62.167 66.0357 61.5415 68.7528 60.4209 71.2785C59.6931 72.9853 58.8664 74.6482 57.945 76.2588L57.1908 77.3758C57.1116 77.5302 57.0162 77.6756 56.9062 77.8098Z" fill="#455A64"/>
<path d="M292.306 278.852C292.339 278.748 292.382 278.648 292.435 278.553C292.534 278.339 292.669 278.055 292.833 277.692C293.328 276.581 293.725 275.428 294.021 274.248C294.804 271.189 295.081 266.515 293.921 260.965C293.292 257.939 292.467 254.956 291.453 252.036C290.414 248.87 289.197 245.512 288.208 241.876C287.092 238.084 286.552 234.146 286.608 230.194C286.757 226.06 287.981 221.941 289.325 217.828C290.67 213.716 292.057 209.71 292.47 205.655C292.929 201.766 292.147 197.831 290.236 194.413C288.457 191.134 286.216 188.323 284.544 185.42C282.979 182.723 281.825 179.807 281.122 176.769C280.112 172.37 280.037 167.808 280.901 163.379C281.216 161.758 281.693 160.173 282.324 158.647C282.305 158.754 282.277 158.859 282.239 158.961L281.954 159.864C281.713 160.661 281.392 161.856 281.086 163.421C280.291 167.831 280.41 172.357 281.435 176.719C282.149 179.72 283.307 182.598 284.871 185.257C286.543 188.103 288.792 190.949 290.613 194.243C292.571 197.73 293.375 201.747 292.911 205.719C292.491 209.831 291.097 213.879 289.752 217.985C288.408 222.09 287.198 226.167 287.049 230.229C286.985 234.142 287.513 238.042 288.614 241.798C289.589 245.412 290.784 248.77 291.816 251.951C292.82 254.887 293.628 257.886 294.235 260.929C295.366 266.522 295.046 271.246 294.235 274.312C293.917 275.495 293.491 276.645 292.961 277.749L292.52 278.595C292.459 278.689 292.387 278.775 292.306 278.852Z" fill="#263238"/>
<path d="M286.82 188.287C286.82 188.287 283.419 177.395 289.523 171.02C289.571 170.968 289.631 170.931 289.698 170.912C289.766 170.894 289.837 170.894 289.904 170.913C289.971 170.932 290.031 170.97 290.079 171.021C290.126 171.073 290.158 171.136 290.171 171.205C290.498 173.005 290.903 178.483 286.82 188.287Z" fill="#7B3DFF"/>
<path d="M288.872 174.649C288.861 175.324 288.785 175.996 288.644 176.656C288.416 178.043 288.153 179.665 287.869 181.458C287.584 183.251 287.321 184.88 287.1 186.261C287.038 186.934 286.919 187.6 286.744 188.253C286.678 187.58 286.692 186.902 286.787 186.232C286.901 184.987 287.121 183.28 287.427 181.401C287.733 179.523 288.068 177.844 288.331 176.613C288.435 175.94 288.616 175.281 288.872 174.649Z" fill="#263238"/>
<path d="M290.82 213.979C290.82 213.979 292.905 202.759 301.286 199.984C301.352 199.961 301.423 199.957 301.492 199.972C301.56 199.987 301.623 200.021 301.673 200.069C301.723 200.118 301.759 200.18 301.776 200.248C301.793 200.316 301.791 200.387 301.77 200.454C301.215 202.182 299.017 207.213 290.82 213.979Z" fill="#7B3DFF"/>
<path d="M299.005 202.865C298.68 203.458 298.298 204.018 297.866 204.537L294.928 208.415L292.011 212.307C291.643 212.871 291.227 213.402 290.766 213.893C291.025 213.267 291.36 212.675 291.762 212.129C292.473 211.083 293.441 209.674 294.608 208.159C295.774 206.643 296.835 205.313 297.639 204.345C298.038 203.803 298.496 203.307 299.005 202.865Z" fill="#263238"/>
<path d="M288.554 242.103C288.554 242.103 287.288 230.762 294.502 225.675C294.558 225.632 294.625 225.605 294.695 225.598C294.765 225.592 294.836 225.605 294.899 225.637C294.962 225.669 295.014 225.719 295.05 225.78C295.085 225.841 295.103 225.911 295.1 225.981C295.079 227.81 294.431 233.26 288.554 242.103Z" fill="#7B3DFF"/>
<path d="M293.184 229.104C293.051 229.767 292.849 230.413 292.579 231.033L290.9 235.6C290.274 237.308 289.712 238.852 289.235 240.168C289.052 240.816 288.814 241.447 288.523 242.053C288.589 241.379 288.737 240.714 288.965 240.075C289.313 238.88 289.854 237.23 290.516 235.451C291.177 233.672 291.825 232.071 292.316 230.926C292.542 230.291 292.833 229.681 293.184 229.104Z" fill="#263238"/>
<path d="M294.866 270.406C294.866 270.406 294.012 259.022 301.397 254.198C301.455 254.159 301.523 254.136 301.593 254.132C301.663 254.129 301.733 254.145 301.794 254.179C301.855 254.213 301.906 254.264 301.94 254.325C301.975 254.386 301.991 254.456 301.988 254.526C301.903 256.354 301.063 261.783 294.866 270.406Z" fill="#7B3DFF"/>
<path d="M299.933 257.585C299.774 258.242 299.547 258.881 299.257 259.492C298.731 260.787 298.105 262.338 297.414 263.995C296.724 265.653 296.12 267.197 295.593 268.499C295.382 269.141 295.113 269.763 294.789 270.356C294.883 269.683 295.058 269.024 295.308 268.392C295.7 267.211 296.297 265.589 297.023 263.832C297.749 262.074 298.446 260.495 298.98 259.371C299.233 258.743 299.553 258.145 299.933 257.585Z" fill="#263238"/>
<path d="M281.927 178.718C281.927 178.718 271.838 173.424 271.617 164.609C271.617 164.54 271.635 164.472 271.67 164.412C271.704 164.353 271.755 164.303 271.815 164.27C271.876 164.236 271.944 164.22 272.013 164.222C272.082 164.224 272.149 164.245 272.208 164.282C273.709 165.321 277.878 168.906 281.927 178.718Z" fill="#7B3DFF"/>
<path d="M273.719 167.64C274.192 168.124 274.614 168.655 274.978 169.226C275.803 170.358 276.764 171.695 277.824 173.168L280.67 177.095C281.103 177.612 281.489 178.167 281.822 178.753C281.302 178.32 280.836 177.825 280.435 177.28C279.631 176.327 278.578 174.961 277.468 173.417C276.358 171.873 275.384 170.443 274.715 169.397C274.323 168.847 273.989 168.258 273.719 167.64Z" fill="#263238"/>
<path d="M292.791 202.104C292.791 202.104 282.375 197.444 281.642 188.643C281.636 188.573 281.649 188.504 281.68 188.442C281.711 188.38 281.759 188.327 281.818 188.291C281.877 188.254 281.945 188.234 282.014 188.233C282.083 188.233 282.152 188.251 282.211 188.287C283.769 189.233 288.145 192.549 292.791 202.104Z" fill="#7B3DFF"/>
<path d="M283.938 191.546C284.439 191.998 284.892 192.501 285.289 193.047L288.377 196.811L291.472 200.56C291.936 201.051 292.355 201.582 292.724 202.147C292.178 201.744 291.682 201.278 291.244 200.76C290.391 199.849 289.252 198.554 288.05 197.081C286.847 195.608 285.794 194.235 285.055 193.232C284.621 192.713 284.246 192.148 283.938 191.546Z" fill="#263238"/>
<path d="M286.785 228.209C286.785 228.209 279.671 219.316 282.993 211.134C283.02 211.069 283.063 211.014 283.119 210.973C283.175 210.932 283.241 210.907 283.31 210.901C283.379 210.895 283.449 210.908 283.511 210.939C283.573 210.97 283.625 211.018 283.662 211.077C284.651 212.621 287.02 217.573 286.785 228.209Z" fill="#7B3DFF"/>
<path d="M283.704 214.748C283.947 215.38 284.123 216.036 284.23 216.705C284.529 218.071 284.878 219.679 285.262 221.457C285.646 223.236 286.009 224.837 286.308 226.203C286.498 226.851 286.629 227.516 286.699 228.188C286.387 227.583 286.148 226.943 285.988 226.281C285.639 225.079 285.212 223.435 284.814 221.543C284.415 219.65 284.102 217.985 283.903 216.762C283.763 216.1 283.696 215.424 283.704 214.748Z" fill="#263238"/>
<path d="M293.9 258.881C293.9 258.881 283.562 254.05 282.978 245.242C282.971 245.172 282.984 245.101 283.016 245.038C283.047 244.975 283.096 244.921 283.156 244.884C283.216 244.847 283.285 244.828 283.355 244.828C283.426 244.828 283.495 244.849 283.555 244.886C285.084 245.861 289.403 249.255 293.9 258.881Z" fill="#7B3DFF"/>
<path d="M285.188 248.173C285.676 248.639 286.12 249.152 286.511 249.703L289.535 253.509L292.566 257.315C293.021 257.813 293.431 258.351 293.789 258.923C293.26 258.508 292.782 258.03 292.366 257.5C291.52 256.575 290.41 255.259 289.229 253.765C288.048 252.271 287.023 250.884 286.297 249.866C285.863 249.347 285.49 248.779 285.188 248.173Z" fill="#263238"/>
<path d="M314.459 214.028C314.459 214.028 314.459 214.114 314.459 214.277C314.459 214.441 314.459 214.711 314.459 214.989C314.459 215.7 314.388 216.604 314.338 217.756C314.21 220.19 314.018 223.583 313.798 227.639C313.086 231.765 310.952 236.34 308.106 240.787C306.035 244.06 303.837 247.034 301.987 249.801C300.299 252.23 298.782 254.774 297.448 257.414C296.565 259.198 295.85 261.061 295.313 262.978C295.136 263.654 294.993 264.187 294.915 264.55C294.881 264.739 294.831 264.925 294.766 265.105C294.768 264.914 294.792 264.723 294.837 264.536C294.887 264.166 294.993 263.625 295.157 262.935C295.636 260.985 296.315 259.089 297.185 257.279C298.507 254.618 300.022 252.057 301.717 249.616C303.581 246.827 305.737 243.846 307.8 240.595C310.61 236.17 312.702 231.666 313.492 227.603C313.776 223.555 314.011 220.168 314.203 217.735C314.296 216.583 314.374 215.665 314.431 214.975C314.431 214.69 314.481 214.448 314.502 214.263C314.478 214.187 314.464 214.108 314.459 214.028Z" fill="#263238"/>
<path d="M308.306 239.969C308.306 239.969 312.682 229.439 307.182 222.531C307.139 222.475 307.082 222.433 307.017 222.408C306.951 222.383 306.88 222.377 306.812 222.391C306.743 222.404 306.68 222.436 306.628 222.483C306.577 222.531 306.539 222.591 306.52 222.659C306.029 224.423 305.126 229.838 308.306 239.969Z" fill="#7B3DFF"/>
<path d="M307.512 226.209C307.701 226.858 307.818 227.526 307.861 228.201C308.017 229.439 308.188 231.154 308.323 233.053C308.459 234.953 308.523 236.675 308.523 237.927C308.565 238.603 308.525 239.282 308.402 239.948C308.279 239.284 308.219 238.609 308.224 237.934C308.131 236.511 308.017 234.896 307.897 233.082C307.776 231.268 307.662 229.624 307.562 228.23C307.479 227.559 307.463 226.883 307.512 226.209Z" fill="#263238"/>
<g opacity="0.3">
<path d="M308.306 239.969C308.306 239.969 312.682 229.439 307.182 222.531C307.139 222.475 307.082 222.433 307.017 222.408C306.951 222.383 306.88 222.377 306.812 222.391C306.743 222.404 306.68 222.436 306.628 222.483C306.577 222.531 306.539 222.591 306.52 222.659C306.029 224.423 305.126 229.838 308.306 239.969Z" fill="black"/>
</g>
<path d="M294.755 265.362C294.755 265.362 298.263 254.505 292.216 248.073C292.169 248.022 292.109 247.984 292.042 247.965C291.975 247.946 291.904 247.945 291.837 247.964C291.77 247.982 291.71 248.019 291.662 248.069C291.615 248.12 291.582 248.183 291.568 248.251C291.227 250.044 290.764 255.522 294.755 265.362Z" fill="#7B3DFF"/>
<path d="M292.836 251.688C293.082 252.32 293.254 252.979 293.348 253.651C293.604 254.868 293.91 256.568 294.202 258.447C294.494 260.325 294.693 262.039 294.8 263.285C294.892 263.957 294.904 264.637 294.835 265.312C294.666 264.659 294.552 263.993 294.494 263.32C294.287 261.933 294.045 260.311 293.782 258.511C293.519 256.711 293.263 255.088 293.071 253.701C292.926 253.039 292.848 252.365 292.836 251.688Z" fill="#263238"/>
<g opacity="0.3">
<path d="M294.755 265.363C294.755 265.363 298.263 254.506 292.216 248.074C292.169 248.023 292.109 247.985 292.042 247.966C291.975 247.947 291.904 247.946 291.837 247.965C291.77 247.983 291.71 248.02 291.662 248.07C291.615 248.121 291.582 248.184 291.568 248.252C291.227 250.045 290.764 255.523 294.755 265.363Z" fill="black"/>
</g>
<path d="M313.883 227.098C313.883 227.098 323.225 220.553 322.285 211.773C322.278 211.704 322.252 211.639 322.21 211.583C322.168 211.528 322.111 211.486 322.046 211.461C321.982 211.436 321.911 211.429 321.843 211.442C321.775 211.454 321.711 211.485 321.659 211.531C320.3 212.755 316.658 216.825 313.883 227.098Z" fill="#7B3DFF"/>
<g opacity="0.3">
<path d="M313.891 227.098C313.891 227.098 323.232 220.553 322.293 211.773C322.286 211.704 322.26 211.639 322.218 211.583C322.175 211.528 322.119 211.486 322.054 211.461C321.989 211.436 321.919 211.429 321.851 211.442C321.782 211.454 321.719 211.485 321.667 211.531C320.308 212.755 316.665 216.825 313.891 227.098Z" fill="black"/>
</g>
<path d="M320.593 215.053C320.408 215.704 320.148 216.332 319.818 216.924C319.284 218.048 318.509 219.585 317.605 221.264C316.702 222.943 315.834 224.43 315.165 225.483C314.836 226.074 314.437 226.624 313.977 227.119C314.226 226.493 314.536 225.893 314.901 225.326C315.57 224.096 316.36 222.658 317.228 221.058L319.547 216.789C319.839 216.177 320.189 215.596 320.593 215.053Z" fill="#263238"/>
<path d="M298.516 254.597C298.516 254.597 309.785 252.839 312.802 244.544C312.827 244.479 312.833 244.409 312.82 244.341C312.807 244.273 312.776 244.209 312.73 244.158C312.683 244.107 312.624 244.069 312.558 244.049C312.491 244.029 312.421 244.028 312.354 244.045C310.597 244.572 305.502 246.6 298.516 254.597Z" fill="#7B3DFF"/>
<g opacity="0.3">
<path d="M298.523 254.597C298.523 254.597 309.793 252.839 312.81 244.544C312.834 244.479 312.841 244.409 312.828 244.341C312.815 244.273 312.784 244.209 312.737 244.158C312.691 244.107 312.632 244.069 312.565 244.049C312.499 244.029 312.429 244.028 312.362 244.045C310.604 244.572 305.51 246.6 298.523 254.597Z" fill="black"/>
</g>
<path d="M309.856 246.743C309.4 247.242 308.889 247.688 308.334 248.074C307.359 248.856 305.986 249.895 304.442 251.005C302.898 252.115 301.454 253.061 300.387 253.716C299.83 254.104 299.228 254.422 298.594 254.662C299.099 254.212 299.644 253.809 300.223 253.46L304.193 250.656L308.156 247.81C308.683 247.395 309.253 247.038 309.856 246.743Z" fill="#263238"/>
<path d="M287.771 275.344L284.484 297.471H304.975L302.321 275.344H287.771Z" fill="#455A64"/>
<path d="M303.145 282.196C303.145 282.317 299.445 282.409 294.885 282.409C290.324 282.409 286.617 282.317 286.617 282.196C289.368 281.985 292.127 281.914 294.885 281.982C297.64 281.914 300.397 281.985 303.145 282.196Z" fill="#263238"/>
<path d="M303.536 283.96C303.536 284.08 299.716 284.173 294.999 284.173C290.282 284.173 286.461 284.08 286.461 283.96C286.461 283.839 290.282 283.746 294.999 283.746C299.716 283.746 303.536 283.839 303.536 283.96Z" fill="#263238"/>
<path d="M223.866 60.6845C223.866 60.6845 223.674 60.6845 223.304 60.6845C222.764 60.6524 222.222 60.6524 221.682 60.6845C219.592 60.8068 217.539 61.2881 215.613 62.1074C212.56 63.3873 209.903 65.4575 207.915 68.1052C206.689 69.7584 205.778 71.6225 205.225 73.6049C203.98 78.3271 204.653 83.3501 207.097 87.5783C207.763 88.7489 208.576 89.8297 209.516 90.7942C210.464 91.8161 211.569 92.6807 212.788 93.3555C214.04 94.0599 215.458 94.4162 216.894 94.3872C218.374 94.3694 219.794 93.7954 220.871 92.7792C221.391 92.2338 221.8 91.5911 222.072 90.888C222.344 90.1848 222.475 89.4349 222.457 88.6811C222.447 87.115 221.949 85.5909 221.035 84.3198C219.192 81.7229 216.204 79.9797 213.023 79.0406C209.725 78.1144 206.243 78.0653 202.92 78.8983C201.224 79.3395 199.59 79.9895 198.054 80.8335C196.503 81.7085 195.095 82.8145 193.877 84.1134C193.586 84.4478 193.251 84.7538 192.988 85.1237L192.184 86.2052C191.695 86.9672 191.258 87.7611 190.875 88.5815C190.114 90.2472 189.594 92.0128 189.331 93.8251C188.815 97.4456 189.307 101.138 190.754 104.497C192.137 107.779 194.546 110.525 197.62 112.324C199.11 113.175 200.774 113.679 202.486 113.796C204.165 113.89 205.835 113.489 207.289 112.644C208.731 111.846 209.872 110.596 210.533 109.086C211.157 107.598 211.2 105.93 210.654 104.412C210.092 102.947 209.172 101.646 207.979 100.627C206.821 99.6266 205.487 98.852 204.044 98.343C201.231 97.4559 198.221 97.404 195.379 98.1936C192.719 98.9142 190.277 100.275 188.264 102.157C186.431 103.913 185.034 106.074 184.187 108.467C182.705 112.62 182.773 117.168 184.379 121.274C185.632 124.339 187.647 127.033 190.235 129.1C191.864 130.407 193.68 131.465 195.621 132.238C196.289 132.487 196.809 132.672 197.164 132.771L197.691 132.942C197.691 132.942 197.506 132.907 197.15 132.807C196.625 132.666 196.107 132.498 195.599 132.302C193.633 131.563 191.794 130.521 190.149 129.214C187.518 127.149 185.463 124.441 184.18 121.352C182.546 117.207 182.462 112.612 183.945 108.41C184.794 105.981 186.206 103.787 188.065 102.007C190.106 100.088 192.585 98.6955 195.286 97.9517C198.188 97.142 201.263 97.1915 204.137 98.094C205.622 98.6118 206.996 99.4061 208.185 100.435C209.425 101.487 210.38 102.835 210.96 104.355C211.545 105.941 211.52 107.688 210.889 109.257C210.187 110.826 208.997 112.127 207.495 112.964C205.988 113.842 204.257 114.263 202.515 114.173C200.76 114.051 199.057 113.53 197.534 112.651C194.39 110.827 191.922 108.034 190.498 104.689C189.02 101.269 188.513 97.5076 189.032 93.818C189.304 91.969 189.836 90.1677 190.612 88.4677C191.003 87.6298 191.449 86.8193 191.949 86.0415L192.775 84.9387C193.038 84.5617 193.379 84.2273 193.678 83.9C194.924 82.5764 196.364 81.449 197.947 80.556C199.519 79.6959 201.192 79.0362 202.927 78.5924C206.313 77.7438 209.862 77.7953 213.222 78.7418C216.467 79.7094 219.505 81.481 221.419 84.1703C222.381 85.4946 222.903 87.0871 222.913 88.7238C222.947 90.3345 222.341 91.8931 221.227 93.0567C220.088 94.1252 218.59 94.7271 217.029 94.7429C215.535 94.7768 214.06 94.4056 212.76 93.6686C211.511 92.9795 210.382 92.0929 209.416 91.0432C208.464 90.0571 207.639 88.9551 206.961 87.7633C204.474 83.4566 203.799 78.3384 205.083 73.5338C205.653 71.5284 206.586 69.6449 207.837 67.9771C209.861 65.3094 212.563 63.2333 215.663 61.9651C217.605 61.1617 219.674 60.7088 221.774 60.6275C222.319 60.5916 222.866 60.5916 223.411 60.6275L223.866 60.6845Z" fill="#263238"/>
<path d="M247.623 131.875H147.867V208.814H247.623V131.875Z" fill="#7B3DFF"/>
<path d="M147.867 131.875L166.294 149.064H264.357L247.623 131.875H147.867Z" fill="#7B3DFF"/>
<path d="M147.867 131.875L247.652 131.697H247.73L247.787 131.747L264.35 148.758L264.521 148.936L264.827 149.249H264.386L166.323 149.171H166.28L147.867 131.875L166.366 148.951H166.287L264.35 148.879L264.222 149.193L264.044 149.015L247.488 132.003L247.616 132.06L147.867 131.875Z" fill="#263238"/>
<path d="M177.825 167.356C177.284 167.376 176.773 167.607 176.401 168C176.029 168.392 175.826 168.915 175.836 169.456C175.846 169.996 176.068 170.512 176.454 170.89C176.839 171.269 177.358 171.482 177.899 171.482C178.44 171.482 178.959 171.269 179.345 170.89C179.731 170.512 179.952 169.996 179.962 169.456C179.972 168.915 179.769 168.392 179.397 168C179.025 167.607 178.514 167.376 177.974 167.356" fill="#263238"/>
<path d="M201.408 167.356C200.869 167.377 200.361 167.608 199.991 167.999C199.621 168.391 199.42 168.912 199.43 169.45C199.44 169.989 199.661 170.502 200.046 170.879C200.43 171.256 200.947 171.467 201.486 171.467C202.024 171.467 202.541 171.256 202.926 170.879C203.31 170.502 203.531 169.989 203.542 169.45C203.552 168.912 203.351 168.391 202.981 167.999C202.611 167.608 202.102 167.377 201.564 167.356" fill="#263238"/>
<path d="M201.534 185.77C201.123 184.198 200.454 182.705 199.556 181.352C198.557 179.904 197.274 178.674 195.785 177.737C193.989 176.545 191.894 175.882 189.739 175.823C187.584 175.764 185.456 176.311 183.598 177.403C182.062 178.26 180.715 179.417 179.635 180.804C178.662 182.108 177.914 183.565 177.422 185.115C177.427 185 177.446 184.885 177.479 184.774C177.547 184.453 177.635 184.137 177.742 183.828C178.132 182.685 178.701 181.611 179.428 180.647C180.501 179.195 181.865 177.983 183.434 177.09C185.341 175.952 187.532 175.379 189.752 175.44C191.971 175.5 194.128 176.191 195.97 177.431C197.485 178.405 198.779 179.685 199.769 181.188C200.445 182.192 200.957 183.296 201.285 184.461C201.372 184.777 201.441 185.097 201.491 185.421C201.516 185.536 201.53 185.653 201.534 185.77Z" fill="#263238"/>
<path opacity="0.5" d="M148.086 132.722L165.731 155.091H247.615V149.064H166.286L148.086 132.722Z" fill="black"/>
<path d="M227.943 208.643C227.843 208.643 227.758 195.26 227.758 178.761C227.758 162.262 227.843 148.879 227.943 148.879C228.042 148.879 228.135 162.255 228.135 178.761C228.135 195.267 228.05 208.643 227.943 208.643Z" fill="#263238"/>
<path d="M243.606 191.198H234.812V201.138H243.606V191.198Z" fill="#F5F5F5"/>
<path d="M147.859 131.875L127.383 149.064H147.859V131.875Z" fill="#7B3DFF"/>
<g opacity="0.4">
<path d="M147.859 131.875L127.383 149.064H147.859V131.875Z" fill="black"/>
</g>
<path d="M250.557 208.814H135.859V297.28H250.557V208.814Z" fill="#7B3DFF"/>
<path opacity="0.3" d="M250.557 208.814H135.859V297.28H250.557V208.814Z" fill="black"/>
<path d="M221.826 296.654C221.726 296.654 221.641 276.939 221.641 252.621C221.641 228.302 221.726 208.58 221.826 208.58C221.925 208.58 222.011 228.295 222.011 252.621C222.011 276.946 221.925 296.654 221.826 296.654Z" fill="#263238"/>
<path d="M240.849 277.145H232.055V287.084H240.849V277.145Z" fill="#F5F5F5"/>
<path d="M183.887 209.049H170.859V227.924H183.887V209.049Z" fill="#263238"/>
<path d="M183.887 278.141H170.859V297.016H183.887V278.141Z" fill="#263238"/>
<path d="M249.561 208.814H249.262H248.401L245.093 208.849L232.905 208.906L192.714 208.999L152.508 208.949L140.327 208.892L137.019 208.856H136.151H135.859H136.151H137.019L140.327 208.821L152.508 208.764L192.714 208.707L232.905 208.764L245.093 208.821L248.401 208.856H249.262L249.561 208.814Z" fill="#263238"/>
<path d="M53.0065 55.655L40.513 52.5814H40.6055C37.3796 54.6334 33.6492 55.7537 29.8266 55.8186C27.5635 55.8289 25.3116 55.5004 23.1458 54.8439C19.3381 53.6213 15.9599 51.3342 13.4106 48.2528C10.8613 45.1715 9.24746 41.4247 8.75971 37.4554C8.37664 34.4534 8.65864 31.4039 9.58572 28.5231C10.5128 25.6422 12.0623 23.0006 14.1243 20.7855C15.2082 19.5949 16.423 18.5304 17.7457 17.6123C18.4145 17.1925 19.0833 16.7585 19.7805 16.3957L20.8406 15.8834L21.3671 15.6273L21.9221 15.428C24.779 14.3206 27.8436 13.852 30.9009 14.0549C34.9983 14.3209 38.9252 15.7939 42.1867 18.2882C45.4483 20.7825 47.8985 24.1864 49.2286 28.071C49.9675 30.244 50.3566 32.5207 50.3812 34.8158C50.399 38.6301 49.3624 42.3751 47.3858 45.6374V45.5236C50.8578 51.7917 52.6081 54.9577 52.9994 55.655C52.5939 54.9435 50.7796 51.8344 47.1866 45.6303V45.5734V45.5164C49.0922 42.2857 50.0764 38.5948 50.0325 34.8443C49.9995 32.5859 49.6056 30.3473 48.8657 28.2133C47.5501 24.4082 45.1412 21.0757 41.9406 18.6331C38.74 16.1906 34.8899 14.7465 30.8724 14.4818C27.8754 14.2864 24.8718 14.7478 22.0715 15.8336L21.5307 16.0257L21.0114 16.2818L19.9726 16.7799C19.2611 17.1427 18.635 17.5625 17.9734 17.9751C16.6762 18.8687 15.483 19.9043 14.416 21.0629C12.3917 23.2375 10.8701 25.8305 9.9591 28.6583C9.04805 31.4861 8.76975 34.4796 9.14391 37.4269C9.80353 42.8265 12.5738 47.7454 16.8492 51.1087C18.7607 52.6232 20.9299 53.7801 23.2525 54.5237C25.3794 55.1812 27.5932 55.5146 29.8195 55.5127C33.5963 55.4722 37.2889 54.3915 40.4916 52.3893H40.5343H40.6126L53.0065 55.655Z" fill="#263238"/>
<path d="M27.808 25.6514L28.4412 36.1101C28.4665 36.5226 28.6417 36.9117 28.934 37.2039C29.2262 37.4961 29.6153 37.6714 30.0278 37.6967C30.4618 37.7212 30.8888 37.5786 31.221 37.298C31.5531 37.0175 31.7652 36.6204 31.8136 36.1884L32.9733 25.7083C32.9935 25.5208 32.9736 25.3311 32.9149 25.1519C32.8563 24.9727 32.7602 24.808 32.633 24.6687C32.5059 24.5295 32.3505 24.4188 32.1774 24.3441C32.0042 24.2694 31.8172 24.2324 31.6286 24.2355H29.0886C28.9104 24.2408 28.7351 24.2821 28.5732 24.3569C28.4113 24.4316 28.2662 24.5383 28.1466 24.6706C28.027 24.8028 27.9353 24.9579 27.8771 25.1264C27.819 25.2949 27.7954 25.4735 27.808 25.6514Z" fill="#7B3DFF"/>
<path d="M32.7917 43.5389C32.6325 44.0166 32.3352 44.4365 31.9374 44.7454C31.5397 45.0542 31.0593 45.2383 30.557 45.2742C30.0547 45.3101 29.553 45.1964 29.1153 44.9473C28.6777 44.6982 28.3236 44.3249 28.098 43.8747C27.8724 43.4245 27.7853 42.9175 27.8478 42.4178C27.9102 41.9181 28.1194 41.4481 28.4489 41.0672C28.7783 40.6864 29.2133 40.4117 29.6988 40.278C30.1843 40.1442 30.6986 40.1574 31.1766 40.3159C31.4944 40.4212 31.7884 40.5882 32.0416 40.8073C32.2948 41.0263 32.5024 41.2932 32.6524 41.5925C32.8024 41.8919 32.8919 42.2178 32.9158 42.5518C32.9397 42.8858 32.8975 43.2212 32.7917 43.5389Z" fill="#7B3DFF"/>
</svg>
