<svg width="572" height="1080" viewBox="0 0 572 1080" fill="none" xmlns="http://www.w3.org/2000/svg">
<path d="M790.04 1069.34C720.304 1097.51 647.977 1111.76 572.595 1111.64C497.976 1112.29 425.348 1098.41 355.182 1070.15C284.861 1042.05 222.49 1000.49 167.777 945.777C113.06 891.06 71.5053 828.387 42.9402 757.911C14.3794 687.439 0.192525 614.502 0.230055 539.277C0.2631 464.048 14.3603 391.563 42.5261 321.828C70.6965 252.088 112.159 189.841 167.081 134.919C221.845 80.1546 284.553 38.5368 355.056 9.90832C425.712 -18.5586 498.039 -32.8127 572.048 -32.8453C646.662 -32.272 719.291 -17.7777 789.917 10.6292C860.393 39.1944 923.062 80.7541 977.774 135.467C1032.49 190.183 1073.9 252.394 1102.16 322.263C1130.26 391.971 1144.3 464.439 1144.26 539.673C1144.23 613.673 1129.82 686.163 1101.5 756.66C1073.02 827.316 1031.25 889.871 976.49 944.635C921.874 999.556 859.627 1041.02 790.04 1069.34ZM861.484 657.687C876.945 619.61 884.762 580.005 884.781 539.027C884.8 498.049 877.018 458.752 861.595 421.297C846.011 383.69 823.55 349.909 793.598 319.957C763.794 290.153 729.86 267.539 691.945 252.263C654.035 236.991 614.741 229.519 573.763 229.538C534.006 229.557 494.86 237.525 456.319 253.137C417.935 268.906 383.67 291.853 353.843 321.68C324.468 351.055 301.982 384.858 286.06 423.396C270.295 461.785 262.327 500.93 262.461 540.84C262.442 581.818 270.066 621.265 285.185 659.022C300.462 696.937 322.923 730.718 352.88 760.675C382.68 790.474 416.613 813.088 454.528 828.365C492.438 843.637 531.889 851.265 572.715 851.094C613.693 851.075 653.144 843.412 690.917 828.253C728.845 812.951 762.647 790.456 792.633 760.47C822.922 730.181 846.023 695.772 861.484 657.687Z" fill="url(#paint0_linear_382_2357)"/>
<defs>
<linearGradient id="paint0_linear_382_2357" x1="-2.00268" y1="552.335" x2="1150.69" y2="542.818" gradientUnits="userSpaceOnUse">
<stop stop-color="#00FFE6" stop-opacity="0"/>
<stop offset="0.453125" stop-color="#7B3DFF"/>
</linearGradient>
</defs>
</svg>
