<svg width="332" height="274" viewBox="0 0 332 274" fill="none" xmlns="http://www.w3.org/2000/svg">
<path d="M247.493 57.8359H210.898V110.985H247.493V57.8359Z" fill="#E0E0E0"/>
<path d="M245.661 57.8359H209.066V110.985H245.661V57.8359Z" fill="#F5F5F5"/>
<path d="M241.116 63.5903H213.613V105.231H241.116V63.5903Z" fill="white"/>
<path d="M241.108 105.223C241.108 105.223 241.108 105.158 241.108 105.026V104.434C241.108 103.907 241.108 103.147 241.108 102.153C241.108 100.156 241.108 97.2463 241.108 93.5685C241.108 86.2568 241.108 75.8302 241.065 63.5904L241.152 63.6781H213.657L213.759 63.5757C213.759 79.2814 213.759 93.766 213.759 105.209L213.679 105.136H233.702H239.226H241.108H240.627H239.167H233.651H213.584H213.504V105.055C213.504 93.6124 213.504 79.1278 213.504 63.4222V63.3198H241.196V63.4149C241.196 75.684 241.16 86.0813 241.152 93.4589C241.152 97.1147 241.152 100.039 241.152 102.014C241.152 103.001 241.152 103.761 241.152 104.28V104.858C241.151 104.981 241.136 105.103 241.108 105.223Z" fill="#E0E0E0"/>
<path d="M245.764 57.8359C245.576 58.1716 245.359 58.4898 245.115 58.7866C244.691 59.3497 244.086 60.1248 243.4 60.9804C242.714 61.836 242.065 62.5599 241.59 63.0864C241.344 63.3838 241.073 63.6602 240.78 63.9128C241.001 63.5904 241.244 63.2848 241.51 62.9987L243.276 60.8561L245.034 58.7135C245.251 58.4 245.496 58.1063 245.764 57.8359Z" fill="#E0E0E0"/>
<path d="M241.255 105.092C242.626 107.269 244.236 109.286 246.056 111.103L241.255 105.092Z" fill="white"/>
<path d="M246.056 111.103C245.751 110.89 245.469 110.645 245.217 110.372C244.58 109.72 243.976 109.037 243.407 108.324C242.839 107.622 242.308 106.889 241.817 106.13C241.595 105.822 241.407 105.491 241.255 105.143C241.507 105.425 241.734 105.728 241.933 106.05C242.335 106.62 242.904 107.395 243.561 108.244C244.217 109.092 244.86 109.801 245.319 110.32C245.584 110.563 245.83 110.824 246.056 111.103Z" fill="#E0E0E0"/>
<path d="M209.066 110.942L213.853 105.019L209.066 110.942Z" fill="white"/>
<path d="M213.853 105.019C213.135 106.065 212.363 107.073 211.54 108.039C210.212 109.677 209.103 110.964 209.066 110.964C209.783 109.914 210.555 108.904 211.38 107.936C212.155 106.923 212.98 105.949 213.853 105.019Z" fill="#E0E0E0"/>
<path d="M209.066 57.8359C209.894 58.7201 210.671 59.6502 211.394 60.6221C212.174 61.5584 212.905 62.5348 213.583 63.5471C212.756 62.663 211.979 61.7328 211.256 60.761C210.472 59.8275 209.741 58.851 209.066 57.8359Z" fill="#E0E0E0"/>
<path d="M232.549 72.0425H223.34V98.2405H232.549V72.0425Z" fill="#E0E0E0"/>
<path d="M174.705 206.543C173.041 207.093 171.505 207.975 170.188 209.135C168.872 210.294 167.802 211.708 167.044 213.291C165.548 216.472 164.799 219.954 164.854 223.469C164.767 230.247 167.693 237.471 171.093 243.328C177.332 239.131 179.711 230.737 180.652 226.401C182.112 219.543 180.652 206.257 174.713 206.543" fill="#F5F5F5"/>
<path d="M163.169 253.535C163.796 251.672 163.92 249.676 163.528 247.75C163.136 245.823 162.241 244.035 160.936 242.567C159.61 241.125 158.011 239.963 156.232 239.147C154.453 238.331 152.53 237.878 150.574 237.815C148.772 237.72 146.773 237.998 145.561 239.343C145.034 240.006 144.693 240.798 144.574 241.638C144.455 242.477 144.561 243.333 144.883 244.118C145.549 245.682 146.616 247.042 147.977 248.059C152.45 251.714 157.463 254.471 163.169 253.52" fill="#F5F5F5"/>
<path d="M167.847 269.826C167.93 268.331 167.862 266.832 167.642 265.351C167.464 263.723 167.092 262.122 166.533 260.583C165.908 258.691 165.16 256.842 164.293 255.048C162.695 251.753 160.308 248.905 157.346 246.757C156.43 246.13 155.452 245.598 154.427 245.17C154.062 244.994 153.67 244.881 153.267 244.834C153.209 244.958 154.836 245.565 157.003 247.188C159.773 249.4 162.017 252.203 163.571 255.392C164.42 257.158 165.173 258.969 165.825 260.817C166.396 262.306 166.812 263.85 167.066 265.424C167.518 268.137 167.73 269.84 167.847 269.826Z" fill="#E0E0E0"/>
<path d="M174.931 216.779C174.697 217.494 174.527 218.228 174.421 218.972C174.143 220.435 173.771 222.482 173.333 225.048C172.45 230.167 171.319 237.288 170.254 245.17C169.189 253.052 168.437 260.211 167.999 265.409C167.78 268.005 167.627 270.103 167.547 271.558C167.46 272.311 167.446 273.07 167.503 273.825C167.679 273.09 167.792 272.342 167.839 271.588C168.021 270.001 168.255 267.932 168.568 265.46C169.145 260.284 169.984 253.14 171.042 245.273C172.1 237.405 173.151 230.415 173.895 225.129C174.245 222.657 174.53 220.596 174.749 219.024C174.874 218.282 174.935 217.531 174.931 216.779Z" fill="#E0E0E0"/>
<path d="M171.312 257.176C173.036 253.416 175.629 250.122 178.876 247.566C182.124 245.01 185.932 243.267 189.985 242.479C192.043 242.099 194.583 242.172 195.714 243.942C196.845 245.711 195.852 248.065 194.604 249.791C191.934 253.27 188.296 255.879 184.149 257.291C180.002 258.703 175.53 258.853 171.298 257.724" fill="#F5F5F5"/>
<path d="M187.111 247.927C186.713 247.946 186.321 248.03 185.951 248.175C185.221 248.38 184.163 248.738 182.886 249.214C179.508 250.443 176.386 252.288 173.677 254.654C172.216 256.005 170.984 257.586 170.029 259.333C169.264 260.767 168.702 262.3 168.357 263.888C168.123 264.951 167.986 266.033 167.949 267.12C167.882 267.515 167.882 267.917 167.949 268.312C168.102 268.312 168.16 266.623 168.839 264.02C169.73 260.63 171.58 257.571 174.166 255.209C176.822 252.912 179.827 251.056 183.068 249.711C185.586 248.621 187.169 248.044 187.111 247.927Z" fill="#E0E0E0"/>
<path d="M313.779 78.4111C313.779 78.4111 306.132 76.1517 303.038 93.7657C299.944 111.38 299.696 121.082 299.696 121.082C299.696 121.082 298.623 124.906 295.792 123.488C292.961 122.07 288.152 117.076 284.759 119.284C281.234 121.572 281.286 126.281 283.964 132.394C286.642 138.506 291.99 152.135 292.486 153.364C292.983 154.592 292.807 156.618 290.728 155.967C288.648 155.316 275.404 147.317 271.975 153.898C268.545 160.478 278.805 176.242 279.892 178.026C280.979 179.81 280.855 180.702 280.096 181.448C279.337 182.194 275.134 179.087 271.267 176.966C267.399 174.846 262.547 173.069 260.898 177.003C259.249 180.936 262.357 194.2 281.198 211.536L290.436 218.994L301.622 214.87C325.024 204.575 332.27 193.052 331.992 188.789C331.715 184.526 326.534 184.607 322.192 185.338C317.851 186.069 312.867 187.671 312.385 186.713C311.904 185.755 312.093 184.841 313.691 183.539C315.29 182.238 330.095 170.598 328.979 163.308C327.862 156.018 312.728 159.286 310.546 159.228C308.365 159.169 308.89 157.188 309.722 156.201C310.554 155.214 320.062 144.049 324.571 139.128C329.081 134.207 330.65 129.776 328.059 126.464C325.564 123.269 319.39 126.464 316.26 126.859C313.13 127.254 313.341 123.32 313.341 123.32C313.341 123.32 316.26 114.063 319.011 96.3833C321.762 78.7035 313.611 78.3965 313.611 78.3965" fill="#F5F5F5"/>
<path d="M310.984 94.1973C310.984 94.1973 310.984 94.3216 310.948 94.5702L310.795 95.6596C310.649 96.6321 310.437 98.0432 310.174 99.8419C309.627 103.498 308.803 108.733 307.759 115.197C305.672 128.175 302.651 146.074 299.229 165.838C295.807 185.601 292.735 203.493 290.582 216.457C289.509 222.928 288.641 228.156 288.043 231.812C287.743 233.61 287.51 235.014 287.313 235.987C287.233 236.447 287.174 236.806 287.123 237.069C287.072 237.332 287.043 237.434 287.043 237.434C287.043 237.434 287.043 237.31 287.087 237.061C287.131 236.813 287.174 236.44 287.233 235.972C287.379 235 287.59 233.588 287.853 231.79C288.4 228.134 289.225 222.899 290.268 216.435C292.355 203.457 295.376 185.55 298.806 165.787C302.235 146.023 305.322 128.138 307.511 115.145C308.576 108.675 309.445 103.447 310.05 99.7907L310.744 95.6157L310.933 94.5336C310.945 94.4207 310.962 94.3084 310.984 94.1973Z" fill="#E0E0E0"/>
<path d="M291.21 126.566C291.41 126.773 291.586 127.001 291.735 127.246C292.056 127.7 292.465 128.365 293.034 129.191C294.107 130.851 295.53 133.176 297.048 135.772L300.908 142.448L302.082 144.458C302.249 144.682 302.384 144.928 302.484 145.189C302.281 144.987 302.102 144.761 301.951 144.517C301.637 144.063 301.221 143.398 300.667 142.565C299.609 140.89 298.215 138.543 296.697 135.947L292.793 129.301C292.326 128.511 291.925 127.839 291.604 127.29C291.441 127.067 291.309 126.824 291.21 126.566Z" fill="#E0E0E0"/>
<path d="M303.592 145.123C303.526 145.028 308.189 141.884 314.004 138.09C319.82 134.295 324.57 131.304 324.636 131.392C324.702 131.48 320.032 134.638 314.223 138.426C308.415 142.213 303.65 145.204 303.592 145.123Z" fill="#E0E0E0"/>
<path d="M296.981 175.22C297.244 175.09 297.521 174.989 297.806 174.92L300.083 174.225C302.002 173.633 304.658 172.814 307.547 171.798C310.437 170.781 313.035 169.794 314.91 169.055L317.099 168.185C317.365 168.055 317.648 167.962 317.938 167.907C317.696 168.074 317.437 168.213 317.165 168.324C316.654 168.573 315.917 168.916 314.976 169.319C313.137 170.123 310.554 171.169 307.679 172.178C304.804 173.187 302.104 173.977 300.163 174.496C299.185 174.752 298.397 174.949 297.842 175.074C297.562 175.157 297.273 175.206 296.981 175.22Z" fill="#E0E0E0"/>
<path d="M282.096 160.917C282.329 161.055 282.545 161.222 282.738 161.414C283.132 161.75 283.701 162.247 284.387 162.876C285.773 164.126 287.663 165.867 289.736 167.804C291.808 169.742 293.669 171.519 295.004 172.82C295.668 173.463 296.201 173.997 296.566 174.37C296.767 174.552 296.948 174.756 297.106 174.977C296.87 174.845 296.653 174.68 296.463 174.487C296.062 174.151 295.5 173.646 294.807 173.025C293.428 171.782 291.531 170.042 289.458 168.097C287.386 166.152 285.525 164.382 284.197 163.088C283.526 162.437 282.993 161.911 282.628 161.531C282.425 161.35 282.246 161.143 282.096 160.917Z" fill="#E0E0E0"/>
<path d="M272.887 186.757C273.182 186.941 273.456 187.157 273.704 187.4L275.827 189.265C277.608 190.851 280.045 193.06 282.73 195.524C285.416 197.988 287.838 200.232 289.553 201.87L291.589 203.83C291.856 204.048 292.1 204.293 292.319 204.561C292.028 204.371 291.754 204.156 291.501 203.918L289.378 202.053C287.597 200.466 285.16 198.251 282.475 195.794C279.79 193.337 277.367 191.085 275.66 189.448L273.602 187.532C273.337 187.299 273.097 187.04 272.887 186.757Z" fill="#E0E0E0"/>
<path d="M291.954 204.027C292.285 203.863 292.629 203.728 292.983 203.625L295.843 202.638C298.251 201.804 301.579 200.642 305.22 199.26C308.861 197.878 312.123 196.547 314.473 195.567L317.267 194.405C317.603 194.246 317.952 194.119 318.311 194.024C318.004 194.234 317.677 194.41 317.333 194.551C316.691 194.865 315.757 195.282 314.589 195.823C312.262 196.876 309.007 198.251 305.359 199.633C301.71 201.014 298.368 202.155 295.931 202.886C294.712 203.266 293.742 203.559 293.012 203.749C292.669 203.876 292.315 203.969 291.954 204.027Z" fill="#E0E0E0"/>
<path d="M57.107 234.583C73.9558 224.946 79.4285 204.707 80.4574 186.157C80.6325 183.057 81.2674 179.84 80.0488 176.995C78.8302 174.151 75.583 171.987 72.708 173.032C70.3219 173.902 69.0595 176.476 67.6001 178.567C65.6198 181.351 62.8958 183.518 59.7412 184.819C57.6835 185.66 55.2025 186.055 53.3637 184.819C50.8389 183.101 50.8608 179.394 51.1746 176.33C51.7534 170.598 52.3105 164.875 52.8456 159.162C53.1447 156.098 53.4439 152.962 52.758 149.964C52.0721 146.966 50.2113 144.056 47.3728 142.974C44.5343 141.892 40.769 143.237 39.8788 146.191C39.5139 147.419 39.6453 148.735 39.4483 150C39.2513 151.265 38.5216 152.625 37.2592 152.874C35.9968 153.122 34.8585 152.143 34.0266 151.156C31.1078 147.763 29.3638 143.573 27.722 139.413C26.0802 135.253 24.504 131.019 21.9428 127.37C19.3815 123.722 15.66 120.688 11.2964 120.059C6.93283 119.43 2.00735 121.697 0.504167 125.908C-0.999015 130.12 1.10982 134.755 3.53242 138.514C7.1459 144.075 11.54 149.087 16.5795 153.393C17.4843 154.168 18.4621 155.009 18.7686 156.179C19.2429 158.285 17.1194 160.142 15.0471 160.632C12.6902 161.18 10.2311 160.712 7.82306 160.778C5.41505 160.844 2.71516 161.655 1.61331 163.841C0.0663475 166.861 2.38679 170.422 4.76562 172.784C9.53299 177.575 15.0897 181.505 21.1912 184.402C23.3803 185.433 25.6715 186.376 27.3425 188.131C29.0136 189.886 29.86 192.745 28.5684 194.807C27.2769 196.869 24.3873 197.307 22.0668 196.649C19.7464 195.991 17.7543 194.514 15.5798 193.461C11.5153 191.48 6.04989 191.268 3.02163 194.668C1.02955 196.905 0.56984 200.225 1.20468 203.164C1.83952 206.103 3.43026 208.736 5.15236 211.207C11.1724 219.762 19.2283 226.942 28.6925 231.234C38.1567 235.526 47.1101 237.273 57.1508 234.612" fill="#F5F5F5"/>
<path d="M56.0997 248.314C56.0225 239.659 55.1209 231.031 53.4071 222.547C51.261 212.189 48.525 201.963 45.2126 191.918L42.6295 184.014C41.783 181.419 40.9439 178.845 39.9661 176.374C38.0861 171.64 35.9448 167.014 33.552 162.518C31.2972 158.211 29.006 154.204 26.8315 150.475C24.657 146.747 22.5481 143.31 20.505 140.239C17.2983 135.42 13.7165 130.863 9.79297 126.61C8.40654 125.104 7.29739 123.97 6.53121 123.21L5.65557 122.355C5.5587 122.253 5.45376 122.161 5.3418 122.077C5.424 122.188 5.51423 122.293 5.61179 122.391L6.45094 123.29C7.18064 124.073 8.27519 125.235 9.63243 126.763C13.4852 131.07 17.0098 135.66 20.1766 140.495C22.1979 143.544 24.2702 146.988 26.4301 150.731C28.59 154.475 30.8667 158.482 33.0996 162.781C35.4743 167.257 37.6057 171.858 39.4845 176.564C40.4477 179.021 41.2795 181.572 42.1187 184.175C42.9578 186.778 43.8116 189.411 44.6799 192.087C47.9809 202.107 50.7239 212.303 52.8964 222.628C54.6267 231.076 55.5648 239.668 55.6984 248.292" fill="#E0E0E0"/>
<path d="M39.835 176.337C40.0287 175.93 40.1709 175.5 40.2582 175.058C40.499 174.224 40.7982 173.01 41.1557 171.497C41.8854 168.477 42.71 164.28 43.6221 159.644C44.5342 155.009 45.4318 150.834 46.1906 147.836C46.5628 146.374 46.8766 145.123 47.1101 144.29C47.2525 143.862 47.3503 143.421 47.402 142.974C47.1857 143.369 47.0167 143.789 46.8985 144.224C46.6066 145.043 46.2271 146.242 45.8039 147.734C44.9429 150.709 43.9797 154.892 43.0675 159.535L40.7617 171.446C40.4771 172.871 40.2363 174.078 40.032 175.043C39.9258 175.467 39.8598 175.9 39.835 176.337Z" fill="#E0E0E0"/>
<path d="M1.11719 165.348C1.62483 165.502 2.14486 165.612 2.67145 165.677C3.67843 165.86 5.13054 166.116 6.91101 166.496C10.4865 167.227 15.3828 168.382 20.7315 169.91C26.0802 171.438 30.8598 173.047 34.2894 174.297C36.0042 174.912 37.3833 175.445 38.3319 175.811C38.8149 176.033 39.3183 176.207 39.8351 176.33C39.3884 176.04 38.9142 175.795 38.4195 175.599C37.4927 175.167 36.1355 174.575 34.428 173.91C31.0276 172.55 26.2554 170.89 20.8848 169.347C16.3104 168.019 11.6706 166.928 6.98398 166.079C5.18892 165.757 3.72222 165.56 2.70793 165.443C2.18227 165.357 1.64928 165.325 1.11719 165.348Z" fill="#E0E0E0"/>
<path d="M52.9844 221.78C53.1112 221.643 53.217 221.488 53.2981 221.319L54.1081 219.952C54.8378 218.767 55.7572 217.027 56.9102 214.834C59.2233 210.491 62.237 204.385 65.4622 197.6C68.6875 190.815 71.6355 184.687 73.8611 180.3L76.5026 175.109L77.2323 173.691C77.3222 173.529 77.3932 173.357 77.4439 173.179C77.3207 173.316 77.2153 173.468 77.1302 173.632L76.3275 174.999C75.6343 176.191 74.6784 177.924 73.5181 180.118C71.205 184.468 68.1986 190.573 64.9661 197.359C61.7335 204.144 58.7928 210.264 56.5745 214.658L53.9257 219.85L53.196 221.268C53.1021 221.428 53.0309 221.6 52.9844 221.78Z" fill="#E0E0E0"/>
<path d="M2.18262 200.064C2.33688 200.176 2.50647 200.264 2.68611 200.327L4.14551 200.978L9.58178 203.318C14.1789 205.285 20.5273 208.085 27.4594 211.185C34.3916 214.285 40.7692 217.035 45.4101 218.906C47.7232 219.85 49.6058 220.588 50.9193 221.1L52.4298 221.656C52.6033 221.727 52.7845 221.779 52.9697 221.809C52.819 221.696 52.6516 221.607 52.4736 221.546L51.0142 220.895L45.5487 218.533C40.9516 216.559 34.6032 213.759 27.671 210.659C20.7389 207.558 14.354 204.809 9.72042 202.937C7.40727 202.002 5.52464 201.256 4.21118 200.744L2.70071 200.196C2.53374 200.132 2.35986 200.087 2.18262 200.064Z" fill="#E0E0E0"/>
<path d="M108.916 14.0234V74.3746H22.4171L19.2939 14.4475L108.916 14.0234Z" fill="#E0E0E0"/>
<path d="M19.2939 14.4555L19.2939 74.251H105.793V14.4555L19.2939 14.4555Z" fill="white"/>
<path d="M106.208 74.6598H18.8848V14.0381H106.208V74.6598ZM19.7093 73.8336H105.383V14.857H19.7093V73.8336Z" fill="#E0E0E0"/>
<path d="M96.423 21.8765H28.6631V66.8145H96.423V21.8765Z" fill="white"/>
<path d="M96.4308 21.8765H96.0951H95.1684H91.4469L77.4805 21.9277L28.7 22.0228L28.897 21.8254C28.897 35.5568 28.897 50.7726 28.897 66.7634L28.6781 66.5513L96.4454 66.5952L96.2703 66.7634C96.314 53.0904 96.3432 41.9034 96.3651 34.0725C96.3651 30.1681 96.3651 27.1191 96.4089 25.0279C96.4089 23.9969 96.4089 23.2 96.4089 22.6516C96.4089 22.1032 96.4089 21.8254 96.4089 21.8254C96.4089 21.8254 96.4089 22.0886 96.4089 22.615C96.4089 23.1415 96.4089 23.9384 96.4089 24.9621C96.4089 27.0386 96.4089 30.0803 96.4527 33.9629C96.4527 41.7937 96.5038 53.0465 96.5403 66.7634V66.9388H96.3724L28.6052 66.9827H28.3936V66.7634C28.3936 50.7726 28.3936 35.5568 28.3936 21.8254V21.6279H28.5833L77.4732 21.7303L91.3959 21.7815H95.0444H95.9857L96.4308 21.8765Z" fill="#E0E0E0"/>
<path d="M19.2795 14.2798C19.8015 14.544 20.2913 14.8679 20.7389 15.2451C21.6292 15.8886 22.8332 16.7953 24.132 17.8411C25.4309 18.8868 26.5765 19.8667 27.3865 20.6052C27.8502 20.9748 28.2646 21.4024 28.6197 21.8776C28.5394 21.9727 26.4306 20.2542 23.862 18.1701C21.2935 16.086 19.2211 14.3822 19.2795 14.2798Z" fill="#E0E0E0"/>
<path d="M105.8 14.4478C104.377 15.8496 102.855 17.1473 101.247 18.3308C99.7285 19.6274 98.1189 20.8127 96.4307 21.8774C97.8632 20.4774 99.392 19.1799 101.006 17.9944C102.518 16.6995 104.12 15.5143 105.8 14.4478Z" fill="#E0E0E0"/>
<path d="M105.727 74.2591L96.0879 66.4199L105.727 74.2591Z" fill="white"/>
<path d="M96.0882 66.4199C97.82 67.5602 99.4751 68.8134 101.043 70.1713C102.697 71.4232 104.263 72.7891 105.728 74.2591C103.994 73.1217 102.338 71.8684 100.773 70.5077C98.0876 68.3505 96.0079 66.515 96.0882 66.4199Z" fill="#E0E0E0"/>
<path d="M19.2793 74.2516C20.6888 72.8631 22.1959 71.5776 23.7888 70.4051C25.2926 69.124 26.8849 67.951 28.5538 66.895C27.1479 68.2846 25.6432 69.5702 24.0515 70.7415C22.5454 72.0229 20.9507 73.1959 19.2793 74.2516Z" fill="#E0E0E0"/>
<path d="M42.4258 35.886V50.9336H85.0622V35.886H42.4258Z" fill="#E0E0E0"/>
<path d="M308.649 0H262.4V67.173H308.649V0Z" fill="#E0E0E0"/>
<path d="M306.336 0H260.088V67.173H306.336V0Z" fill="#F5F5F5"/>
<path d="M300.586 7.27539H265.83V59.898H300.586V7.27539Z" fill="white"/>
<path d="M300.593 59.8978C300.593 59.8978 300.593 59.8101 300.593 59.6419V58.9107C300.593 58.2454 300.593 57.2802 300.593 56.0226C300.593 53.5 300.593 49.8296 300.593 45.1866C300.593 35.908 300.557 22.7615 300.535 7.2898L300.652 7.40679H265.83L265.962 7.28249C265.962 27.1339 265.962 45.4352 265.962 59.9271L265.86 59.8247L291.158 59.8832H298.149H299.988H300.622H300.009H298.193H291.224L265.86 59.9344H265.765V59.832C265.765 45.3621 265.765 27.0608 265.765 7.18743V7.15088H300.79V7.26786C300.79 22.7761 300.754 35.9372 300.739 45.2378C300.739 49.8661 300.739 53.5366 300.703 56.0518C300.703 57.2948 300.703 58.2454 300.703 58.9107V59.6419C300.593 59.8174 300.593 59.8978 300.593 59.8978Z" fill="#E0E0E0"/>
<path d="M306.468 0C306.233 0.425982 305.957 0.827692 305.644 1.19928C305.104 1.93055 304.345 2.90313 303.455 3.96347C302.564 5.02381 301.769 5.95983 301.163 6.62528C300.864 7 300.532 7.34748 300.171 7.66368C300.431 7.25336 300.726 6.86673 301.054 6.50828L303.279 3.80259C304.119 2.7715 304.885 1.84279 305.505 1.08959C305.795 0.699654 306.117 0.33514 306.468 0Z" fill="#E0E0E0"/>
<path d="M300.769 59.73C302.5 62.4822 304.534 65.0308 306.832 67.3278L300.769 59.73Z" fill="white"/>
<path d="M306.833 67.3278C306.448 67.0434 306.093 66.7199 305.775 66.3626C305.154 65.7337 304.315 64.8342 303.483 63.7812C302.768 62.8793 302.098 61.9422 301.477 60.9731C301.192 60.5847 300.947 60.1682 300.747 59.73C301.061 60.0897 301.347 60.4736 301.601 60.8781C302.112 61.6093 302.827 62.5746 303.659 63.6203C304.49 64.666 305.293 65.5874 305.884 66.2383C306.226 66.5781 306.543 66.9423 306.833 67.3278Z" fill="#E0E0E0"/>
<path d="M260.08 67.1229L266.137 59.6348L260.08 67.1229Z" fill="white"/>
<path d="M266.137 59.6348C265.233 60.961 264.259 62.2376 263.218 63.4593C261.54 65.5215 260.139 67.1668 260.088 67.1156C260.994 65.7907 261.968 64.5141 263.007 63.2911C263.986 62.0188 265.031 60.7984 266.137 59.6348Z" fill="#E0E0E0"/>
<path d="M260.08 0C261.115 1.12156 262.09 2.29817 262.999 3.5247C263.978 4.69385 264.893 5.91435 265.743 7.18104C264.705 6.06163 263.73 4.88489 262.824 3.65633C261.845 2.48719 260.929 1.26669 260.08 0Z" fill="#E0E0E0"/>
<path d="M289.764 17.9575H278.125V51.0651H289.764V17.9575Z" fill="#E0E0E0"/>
<path d="M318.405 273.81C318.405 273.919 247.317 274 159.658 274C71.9995 274 0.897461 273.949 0.897461 273.81C0.897461 273.671 71.963 273.62 159.658 273.62C247.354 273.62 318.405 273.737 318.405 273.81Z" fill="#263238"/>
<path d="M229.215 147.317C229.757 149.525 229.694 151.839 229.033 154.014C228.371 156.189 227.136 158.144 225.457 159.674C223.232 161.648 220.349 162.789 218.306 164.961C217.042 166.405 216.172 168.152 215.782 170.034C215.392 171.915 215.495 173.865 216.081 175.694C216.701 177.51 217.682 179.181 218.965 180.607C220.248 182.032 221.806 183.181 223.546 183.986C225.914 185.094 228.51 185.626 231.123 185.537C233.735 185.448 236.29 184.741 238.577 183.474C244.218 180.279 247.502 173.866 248.333 167.425C249.165 160.983 247.859 154.461 246.144 148.195" fill="#263238"/>
<path d="M300.354 260.905C306.191 259.948 311.664 261.732 317.443 263.011C318.98 263.468 320.602 263.555 322.179 263.267C324.682 262.624 326.462 260.181 326.849 257.622C327.162 255.38 326.642 253.101 325.39 251.217C324.887 250.405 324.202 249.722 323.39 249.221C322.52 248.784 321.568 248.535 320.595 248.49C317.054 248.204 313.501 248.876 310.307 250.435C307.121 251.987 304.232 254.085 301.769 256.635C300.543 257.864 300.908 259.275 300.368 260.927" fill="#263238"/>
<path d="M182.003 166.496C181.067 160.918 181.181 155.215 182.339 149.679C182.828 146.972 183.818 144.381 185.258 142.038C185.748 141.165 186.495 140.463 187.396 140.027C188.051 139.81 188.753 139.778 189.424 139.937C190.095 140.096 190.709 140.439 191.198 140.927C191.821 141.577 192.3 142.353 192.602 143.202C192.903 144.052 193.022 144.956 192.949 145.855C192.819 147.652 192.379 149.414 191.65 151.061C189.395 156.837 185.812 161.634 181.982 166.489" fill="#263238"/>
<path d="M295.107 187.634C296.428 188.577 325.754 251.875 325.754 251.875C323.396 250.865 320.784 250.61 318.275 251.144L316.684 251.568C313.837 252.335 311.137 253.57 308.694 255.224L300.324 260.897C299.993 260.707 299.712 260.439 299.505 260.117C299.298 259.795 299.171 259.429 299.135 259.048V258.806L276.397 219.703L295.107 187.634Z" fill="#7B3DFF"/>
<path d="M184.988 86.8638L192.811 131.414C195.328 137.41 224.684 173.735 224.684 173.735L214.979 204.985L176.422 152.158C172.841 148.322 170.894 143.239 170.993 137.988L172.496 90.388L184.988 86.8638Z" fill="#FFBE9D"/>
<path d="M226.618 166.752L246.75 168.28L264.307 171.007C264.307 171.007 295.107 179.116 295.107 182.494C295.107 183.62 286.701 210.447 281.973 226.518C280.814 230.422 279.869 234.386 279.141 238.392L295.107 273.811H219.343V241.339C219.343 241.339 214.235 198.69 215.132 192.862C216.03 187.035 226.618 166.752 226.618 166.752Z" fill="#7B3DFF"/>
<path d="M175.437 68.862C175.555 64.3243 176.018 59.8023 176.823 55.3352C176.932 54.6991 177.195 53.9314 177.83 53.8729C178.618 53.7705 179.019 54.7869 179.122 55.5765C179.821 60.9638 179.597 66.4313 178.457 71.7428" fill="#EB996E"/>
<path d="M184.412 163.198C193.051 155.462 193.343 142.06 192.606 131.392C192.462 130.613 192.58 129.808 192.942 129.103C193.767 127.926 195.773 128.372 196.591 129.557C197.408 130.741 197.32 132.299 197.276 133.732C197.722 132.518 199.619 132.525 200.509 133.461C201.399 134.397 201.553 135.808 201.655 137.117L201.939 140.685L227.18 164.814C227.18 164.814 227.873 162.62 229.726 163.885C231.58 165.15 232.776 167.819 232.776 167.819L214.994 206.71L181.989 166.496C182.624 165.279 183.441 164.167 184.412 163.198Z" fill="#7B3DFF"/>
<path d="M218.663 190.113C216.03 193.478 214.063 197.318 212.869 201.424C211.68 205.557 211.81 209.96 213.242 214.015C214.349 216.821 216.163 219.291 218.508 221.185C220.852 223.079 223.646 224.332 226.617 224.822" fill="#7B3DFF"/>
<path d="M300.353 260.905L299.397 273.81H318.1L322.478 250.961C316.781 250.642 311.162 252.406 306.665 255.926L300.353 260.905Z" fill="#FFBE9D"/>
<path d="M193.204 160.34C193.31 159.985 193.446 159.64 193.613 159.309C193.905 158.665 194.299 157.715 194.744 156.53C195.189 155.346 195.663 153.913 196.108 152.304C196.571 150.548 196.939 148.769 197.21 146.974C197.462 145.178 197.616 143.369 197.67 141.556C197.67 139.881 197.67 138.375 197.568 137.11C197.466 135.845 197.371 134.829 197.276 134.127C197.213 133.762 197.179 133.393 197.174 133.023C197.292 133.374 197.375 133.737 197.422 134.105C197.611 135.092 197.75 136.087 197.838 137.088C197.98 138.575 198.041 140.069 198.02 141.563C197.965 145.226 197.435 148.866 196.444 152.392C196.037 153.829 195.549 155.242 194.985 156.625C194.503 157.81 194.072 158.746 193.737 159.374C193.584 159.709 193.406 160.032 193.204 160.34Z" fill="#263238"/>
<path d="M198.699 153.547C198.937 152.918 199.21 152.303 199.516 151.704C200.794 148.737 201.535 145.565 201.706 142.338C201.705 141.666 201.741 140.995 201.815 140.327C201.958 140.99 202.012 141.668 201.976 142.345C201.95 145.624 201.203 148.858 199.786 151.814C199.508 152.44 199.142 153.024 198.699 153.547Z" fill="#263238"/>
<path d="M228.339 173.772C228.281 173.735 228.588 173.26 228.763 172.397C228.967 171.269 228.902 170.109 228.573 169.012C228.226 167.907 227.804 166.827 227.311 165.78C227.08 165.346 226.908 164.884 226.8 164.405C227.089 164.796 227.333 165.218 227.53 165.663C228.107 166.693 228.574 167.781 228.923 168.909C229.272 170.064 229.3 171.293 229.003 172.463C228.912 172.954 228.681 173.408 228.339 173.772Z" fill="#263238"/>
<path d="M223.954 225.275C223.84 225.228 223.732 225.166 223.633 225.092L222.772 224.522C222.042 224.018 220.955 223.279 219.685 222.277C218.184 221.119 216.812 219.803 215.592 218.351C214.09 216.554 213.008 214.443 212.425 212.173C211.868 209.902 211.724 207.549 212.002 205.226C212.225 203.343 212.644 201.488 213.249 199.691C213.651 198.481 214.116 197.292 214.643 196.131C214.833 195.721 214.979 195.399 215.088 195.195C215.137 195.081 215.198 194.973 215.271 194.873C215.133 195.321 214.969 195.76 214.782 196.189C214.453 197.023 213.979 198.236 213.505 199.772C212.944 201.561 212.558 203.4 212.352 205.263C212.098 207.543 212.246 209.849 212.79 212.078C213.358 214.297 214.406 216.364 215.862 218.132C217.056 219.575 218.394 220.892 219.853 222.065C221.094 223.089 222.137 223.857 222.86 224.405L223.677 225.034C223.867 225.18 223.961 225.261 223.954 225.275Z" fill="#263238"/>
<path d="M265.292 232.506C265.191 232.56 265.082 232.599 264.971 232.623C264.752 232.682 264.438 232.792 264.022 232.872C262.846 233.127 261.649 233.272 260.446 233.303C256.437 233.427 252.482 232.344 249.091 230.195C245.701 228.046 243.03 224.93 241.423 221.246C240.933 220.145 240.55 218.999 240.278 217.824C240.175 217.408 240.139 217.093 240.095 216.859C240.07 216.746 240.058 216.631 240.059 216.516C240.208 216.929 240.33 217.351 240.423 217.781C241.585 222.195 244.186 226.094 247.812 228.858C251.439 231.621 255.883 233.091 260.439 233.033C261.63 233.027 262.818 232.924 263.993 232.726C264.422 232.63 264.855 232.557 265.292 232.506Z" fill="#263238"/>
<path d="M276.901 246.757C276.799 246.757 277.762 242.684 279.09 237.727C280.418 232.77 281.513 228.77 281.608 228.799C281.702 228.829 280.747 232.865 279.455 237.822C278.163 242.78 277.003 246.757 276.901 246.757Z" fill="#263238"/>
<path d="M287.08 238.136C286.993 238.187 284.059 233.384 280.513 227.403C276.966 221.422 274.194 216.53 274.288 216.479C274.383 216.428 277.309 221.224 280.856 227.205C284.402 233.186 287.204 238.078 287.08 238.136Z" fill="#263238"/>
<path d="M315.094 249.974C315.094 250.047 314.028 250.134 312.365 250.558C311.393 250.806 310.44 251.121 309.512 251.502C308.38 251.982 307.287 252.549 306.243 253.198C305.212 253.863 304.236 254.608 303.324 255.428C302.58 256.109 301.885 256.842 301.244 257.622C300.15 258.945 299.61 259.874 299.544 259.815C299.632 259.578 299.747 259.353 299.887 259.142C300.225 258.544 300.608 257.972 301.033 257.432C301.656 256.624 302.342 255.866 303.083 255.165C304.001 254.313 304.992 253.545 306.046 252.869C307.108 252.207 308.226 251.64 309.388 251.173C310.335 250.798 311.311 250.502 312.306 250.288C312.974 250.133 313.652 250.03 314.335 249.981C314.586 249.942 314.842 249.939 315.094 249.974Z" fill="#263238"/>
<path d="M318.669 245.572C318.669 245.653 317.494 245.507 315.619 245.667C314.525 245.766 313.441 245.957 312.379 246.238C309.775 246.931 307.341 248.153 305.228 249.828C304.369 250.513 303.568 251.269 302.835 252.087C301.587 253.491 301.003 254.515 300.938 254.478C301.036 254.219 301.166 253.974 301.324 253.747C301.481 253.465 301.656 253.194 301.85 252.935C302.093 252.581 302.353 252.24 302.63 251.912C303.348 251.054 304.144 250.265 305.009 249.557C306.079 248.698 307.233 247.948 308.453 247.32C309.681 246.718 310.967 246.242 312.292 245.901C313.377 245.628 314.487 245.459 315.604 245.397C316.03 245.376 316.456 245.376 316.881 245.397C317.206 245.398 317.53 245.418 317.852 245.455C318.128 245.46 318.403 245.499 318.669 245.572Z" fill="#263238"/>
<g opacity="0.3">
<path d="M240.84 218.073C239.125 221.334 240.556 225.312 242.124 228.653C243.343 231.242 244.7 233.867 246.919 235.673C248.009 236.565 249.271 237.223 250.627 237.604C251.982 237.984 253.402 238.08 254.796 237.885C256.19 237.69 257.529 237.209 258.729 236.471C259.929 235.732 260.963 234.754 261.768 233.596C257.116 233.527 252.595 232.049 248.797 229.357C244.999 226.665 242.103 222.884 240.49 218.512" fill="black"/>
</g>
<g opacity="0.3">
<path d="M274.34 216.479C273.026 219.616 274.019 223.908 275.391 227.015C276.762 230.123 278.222 233.596 277.12 236.82C276.836 237.393 276.689 238.024 276.69 238.663C276.762 239.292 277.419 239.899 278.01 239.606C278.316 239.391 278.527 239.066 278.601 238.699C279.637 235.57 280.676 232.443 281.717 229.318" fill="black"/>
</g>
<path d="M205.31 175.175C205.427 173.212 205.671 171.258 206.039 169.326C206.287 167.383 206.66 165.458 207.156 163.564C207.045 165.528 206.802 167.482 206.426 169.413C206.18 171.356 205.807 173.281 205.31 175.175Z" fill="#FAFAFA"/>
<path d="M197.626 173.56C197.531 173.619 196.276 171.864 194.539 169.845C192.803 167.827 191.27 166.313 191.343 166.233C192.652 167.192 193.825 168.323 194.831 169.597C195.93 170.791 196.87 172.123 197.626 173.56Z" fill="#FAFAFA"/>
<path d="M204.223 154.724C204.003 155.195 203.726 155.637 203.398 156.04C202.843 156.822 202.034 157.868 201.092 158.965C200.151 160.061 199.246 161.048 198.567 161.721C198.227 162.112 197.837 162.456 197.407 162.745C197.327 162.672 198.925 160.939 200.8 158.716C202.676 156.493 204.135 154.629 204.223 154.724Z" fill="#FAFAFA"/>
<path d="M201.647 145.519C201.538 145.562 201.122 144.634 200.319 143.705C199.516 142.776 198.655 142.243 198.714 142.133C199.473 142.352 200.138 142.817 200.604 143.456C201.165 144.013 201.531 144.736 201.647 145.519Z" fill="#FAFAFA"/>
<path d="M194.991 151.192C194.395 151.474 193.752 151.64 193.094 151.682C192.456 151.849 191.792 151.889 191.139 151.799C192.372 151.351 193.68 151.145 194.991 151.192Z" fill="#FAFAFA"/>
<path d="M211.782 159.317C211.798 158.178 211.718 157.041 211.541 155.916C211.239 154.818 210.841 153.749 210.352 152.721C211.179 153.573 211.722 154.661 211.906 155.836C212.218 156.982 212.175 158.196 211.782 159.317Z" fill="#FAFAFA"/>
<path d="M220.75 168.983C219.404 166.83 217.597 165.004 215.46 163.637C216.667 164.106 217.761 164.825 218.673 165.746C219.584 166.667 220.292 167.77 220.75 168.983Z" fill="#FAFAFA"/>
<path d="M206.353 185.755C204.181 186.571 201.775 186.489 199.662 185.529C199.699 185.419 201.121 185.88 202.997 185.931C204.872 185.982 206.324 185.646 206.353 185.755Z" fill="#FAFAFA"/>
<path d="M213.111 189.229C213.008 189.185 213.578 187.503 214.052 185.368C214.526 183.233 214.738 181.463 214.847 181.478C214.922 182.815 214.779 184.157 214.424 185.448C214.192 186.771 213.749 188.048 213.111 189.229Z" fill="#FAFAFA"/>
<path d="M227.872 189.792C226.718 188.815 225.651 187.738 224.683 186.575C223.616 185.498 222.639 184.333 221.765 183.094C222.915 184.076 223.979 185.155 224.946 186.319C226.013 187.396 226.992 188.557 227.872 189.792Z" fill="#FAFAFA"/>
<path d="M234.746 206.879C233.871 206.243 233.073 205.507 232.367 204.686C231.576 203.949 230.871 203.125 230.266 202.229C231.141 202.865 231.939 203.601 232.644 204.422C233.442 205.152 234.148 205.977 234.746 206.879Z" fill="#FAFAFA"/>
<path d="M221.969 208.509C221.13 209.404 220.142 210.146 219.05 210.703C218.022 211.388 216.881 211.884 215.679 212.165C215.679 212.063 217.138 211.434 218.86 210.403C220.582 209.372 221.896 208.421 221.969 208.509Z" fill="#FAFAFA"/>
<path d="M227.85 224.763C227.741 224.763 228.179 222.818 228.398 220.412C228.616 218.007 228.551 216.025 228.66 216.025C228.928 217.473 228.968 218.953 228.777 220.412C228.704 221.903 228.391 223.372 227.85 224.763Z" fill="#FAFAFA"/>
<path d="M249.968 211.552C248.762 210.812 247.693 209.87 246.808 208.765C245.832 207.745 245.044 206.559 244.48 205.263C244.575 205.197 245.575 206.784 247.093 208.517C248.611 210.25 250.041 211.457 249.968 211.552Z" fill="#FAFAFA"/>
<path d="M258.045 218.447C257.957 218.381 259.066 216.86 260.307 214.907C261.547 212.955 262.46 211.317 262.554 211.368C262.081 212.697 261.43 213.957 260.621 215.112C259.92 216.338 259.053 217.46 258.045 218.447Z" fill="#FAFAFA"/>
<path d="M256.863 201.571C254.372 201.156 251.928 200.495 249.566 199.596C250.825 199.747 252.066 200.016 253.273 200.401C254.506 200.668 255.709 201.06 256.863 201.571Z" fill="#FAFAFA"/>
<path d="M250.975 231.272C250.846 230.12 250.846 228.957 250.975 227.806C250.984 226.647 251.116 225.492 251.369 224.361C251.5 225.513 251.5 226.676 251.369 227.828C251.362 228.986 251.23 230.141 250.975 231.272Z" fill="#FAFAFA"/>
<path d="M256.068 241.443C256.451 240.262 256.758 239.057 256.988 237.837C257.089 236.599 257.108 235.356 257.046 234.115C257.423 235.332 257.53 236.617 257.361 237.88C257.193 239.142 256.751 240.353 256.068 241.428V241.443Z" fill="#FAFAFA"/>
<path d="M242.868 239.197C242.496 236.671 242.99 234.093 244.269 231.885C244.371 231.929 243.7 233.472 243.32 235.497C242.941 237.523 242.977 239.19 242.868 239.197Z" fill="#FAFAFA"/>
<path d="M230.828 244.352C229.638 243.524 228.493 242.633 227.398 241.683C226.226 240.832 225.098 239.922 224.02 238.955C225.331 239.61 226.557 240.426 227.668 241.383C228.833 242.245 229.894 243.242 230.828 244.352Z" fill="#FAFAFA"/>
<path d="M238.978 230.006C236.185 231.782 233.258 233.334 230.222 234.649C231.596 233.702 233.04 232.861 234.542 232.134C235.963 231.311 237.447 230.6 238.978 230.006Z" fill="#FAFAFA"/>
<path d="M264.306 262.199C264.151 262.25 263.993 262.289 263.832 262.316C263.518 262.374 263.059 262.491 262.46 262.572C260.77 262.831 259.061 262.941 257.352 262.901C252.938 262.837 248.587 261.835 244.587 259.962C240.587 258.089 237.029 255.388 234.148 252.036C232.474 250.106 231.041 247.98 229.879 245.704C229.087 244.178 228.433 242.585 227.924 240.944C227.727 240.366 227.632 239.905 227.544 239.598C227.495 239.441 227.464 239.28 227.449 239.116C227.519 239.264 227.575 239.418 227.617 239.576C227.727 239.876 227.843 240.308 228.062 240.9C229.461 244.908 231.617 248.609 234.411 251.802C237.299 255.076 240.824 257.726 244.77 259.588C248.716 261.45 253 262.485 257.36 262.63C259.065 262.694 260.773 262.625 262.468 262.426C263.073 262.367 263.533 262.272 263.847 262.243C263.998 262.211 264.152 262.196 264.306 262.199Z" fill="#263238"/>
<path d="M242.503 258.413C242.254 257.252 242.374 256.043 242.846 254.954C243.202 253.821 243.907 252.831 244.86 252.124C244.215 253.059 243.661 254.053 243.203 255.093C242.869 256.176 242.634 257.287 242.503 258.413Z" fill="#FAFAFA"/>
<path d="M236.497 255.896C235.804 256.434 235.169 257.042 234.6 257.71C234.126 258.446 233.725 259.228 233.403 260.043C233.428 259.116 233.738 258.219 234.293 257.477C234.847 256.734 235.617 256.182 236.497 255.896Z" fill="#FAFAFA"/>
<path d="M259.592 269.672C258.398 269.577 257.244 269.194 256.229 268.558C255.213 267.922 254.364 267.05 253.755 266.016C255.342 267.733 257.357 268.995 259.592 269.672Z" fill="#FAFAFA"/>
<path d="M263.183 249.418C263.03 250.493 262.576 251.503 261.875 252.331C261.174 253.159 260.254 253.772 259.221 254.099C260.074 253.509 260.866 252.835 261.585 252.088C262.208 251.255 262.743 250.361 263.183 249.418Z" fill="#FAFAFA"/>
<path d="M273.392 264.518C273.304 264.445 274.267 263.224 275.157 261.542C276.048 259.86 276.522 258.375 276.617 258.412C276.204 260.738 275.07 262.874 273.377 264.518H273.392Z" fill="#FAFAFA"/>
<path d="M286.884 266.499C286.928 266.608 285.6 267.135 284.264 268.239C282.929 269.343 282.126 270.528 282.031 270.433C282.451 269.424 283.14 268.551 284.023 267.91C284.828 267.183 285.818 266.694 286.884 266.499Z" fill="#FAFAFA"/>
<path d="M276.594 249.192C276.478 249.228 275.865 247.093 274.5 244.724C273.136 242.355 271.676 240.688 271.771 240.615C272.172 240.898 272.524 241.244 272.814 241.639C274.35 243.437 275.52 245.518 276.259 247.766C276.442 248.222 276.555 248.702 276.594 249.192Z" fill="#FAFAFA"/>
<path d="M278.609 227.424C276.337 228.21 273.989 228.752 271.604 229.04C273.875 228.256 276.223 227.715 278.609 227.424Z" fill="#FAFAFA"/>
<path d="M272.399 220.918C271.566 220.141 270.817 219.279 270.166 218.344C269.423 217.482 268.775 216.543 268.232 215.543C269.073 216.309 269.823 217.17 270.465 218.11C271.215 218.968 271.864 219.911 272.399 220.918Z" fill="#FAFAFA"/>
<path d="M287.81 217.013C285.446 216.954 283.12 216.401 280.98 215.39C282.136 215.588 283.279 215.854 284.403 216.187C285.554 216.393 286.692 216.669 287.81 217.013Z" fill="#FAFAFA"/>
<path d="M298.756 216.817C299.07 215.782 299.443 214.766 299.872 213.774C300.18 212.736 300.553 211.717 300.989 210.725C300.929 211.82 300.682 212.896 300.259 213.906C299.934 214.958 299.425 215.943 298.756 216.817Z" fill="#FAFAFA"/>
<path d="M296.259 231.673C293.996 231.167 291.952 229.953 290.422 228.207C290.495 228.119 291.648 229.128 293.246 230.072C294.844 231.015 296.296 231.564 296.259 231.673Z" fill="#FAFAFA"/>
<path d="M303.368 231.219C303.514 229.752 303.783 228.299 304.17 226.876C304.434 225.43 304.82 224.009 305.323 222.628C304.914 225.546 304.252 228.423 303.346 231.227L303.368 231.219Z" fill="#FAFAFA"/>
<path d="M297.434 247.833C295.613 245.767 293.986 243.537 292.574 241.171C293.53 242.163 294.395 243.24 295.157 244.388C296.02 245.464 296.783 246.617 297.434 247.833Z" fill="#FAFAFA"/>
<path d="M307.563 241.479C307.461 241.53 306.797 240.206 305.746 238.729C304.695 237.252 303.681 236.177 303.761 236.097C304.679 236.741 305.46 237.561 306.06 238.51C306.757 239.387 307.269 240.397 307.563 241.479Z" fill="#FAFAFA"/>
<path d="M317.064 240.053C316.232 239.074 315.452 238.051 314.729 236.989C313.899 236.01 313.12 234.99 312.394 233.932C314.335 235.647 315.922 237.726 317.064 240.053Z" fill="#FAFAFA"/>
<path d="M314.809 246.362C314.679 245.484 314.384 244.638 313.94 243.869C313.407 243.159 312.746 242.554 311.992 242.085C311.992 242.041 312.328 242.085 312.788 242.311C313.381 242.628 313.883 243.091 314.247 243.657C314.618 244.221 314.842 244.87 314.896 245.543C314.969 246.026 314.874 246.362 314.809 246.362Z" fill="#FAFAFA"/>
<path d="M307.425 255.012C307.366 255.012 307.388 254.815 307.33 254.559C307.261 254.23 307.083 253.934 306.826 253.718C306.557 253.518 306.227 253.418 305.892 253.433C305.63 253.433 305.462 253.499 305.433 253.433C305.403 253.367 305.542 253.235 305.856 253.148C306.062 253.094 306.278 253.088 306.487 253.131C306.696 253.175 306.892 253.266 307.06 253.397C307.228 253.529 307.363 253.697 307.456 253.89C307.548 254.083 307.595 254.294 307.592 254.508C307.585 254.859 307.468 255.027 307.425 255.012Z" fill="#FAFAFA"/>
<path d="M231.507 268.839C230.144 268.313 228.906 267.508 227.87 266.476C226.835 265.443 226.026 264.206 225.494 262.843C226.982 265.309 229.046 267.377 231.507 268.868V268.839Z" fill="#FAFAFA"/>
<path d="M185.061 87.3608C183.886 76.2396 181.763 65.7765 181.186 54.8747C181.209 54.6013 181.175 54.3262 181.086 54.0669C180.997 53.8075 180.854 53.5697 180.668 53.3685C180.51 53.2754 180.333 53.2157 180.151 53.193C179.968 53.1703 179.783 53.185 179.606 53.2363C179.429 53.2876 179.265 53.3744 179.122 53.4914C178.98 53.6084 178.863 53.7531 178.778 53.9168C178.46 54.6012 178.334 55.3596 178.414 56.1104C178.426 61.908 177.439 67.6642 175.495 73.1248C174.247 76.671 172.576 80.071 171.642 83.7049C170.708 87.3388 172.467 88.5745 174.101 91.9599" fill="#FFBE9D"/>
<path d="M174.123 91.9453C172.677 90.8341 171.556 89.3541 170.877 87.66C170.198 85.9659 169.986 84.1201 170.263 82.3157C170.635 80.1222 171.722 78.1334 172.583 76.0861C173.444 74.0388 174.108 71.7648 173.583 69.6079C173.292 68.8073 173.096 67.9754 172.999 67.1292C172.999 66.281 173.546 65.3305 174.393 65.2939C174.713 65.3198 175.022 65.4198 175.297 65.586C175.572 65.7523 175.804 65.9802 175.976 66.2518C177.399 68.0139 178.537 73.1614 177.822 77.0074" fill="#FFBE9D"/>
<path d="M177.822 77.0073C177.822 77.0073 177.895 76.415 177.939 75.3475C177.985 73.8417 177.86 72.3356 177.567 70.8581C177.37 69.8404 177.077 68.8439 176.691 67.8822C176.488 67.359 176.213 66.8668 175.874 66.4199C175.722 66.18 175.522 65.9739 175.287 65.8142C175.053 65.6545 174.788 65.5446 174.509 65.4913C174.223 65.5049 173.948 65.6124 173.728 65.7973C173.508 65.9822 173.354 66.2343 173.291 66.5149C173.134 67.1383 173.175 67.7949 173.408 68.394C173.653 69.063 173.824 69.7569 173.918 70.4633C173.989 71.1948 173.962 71.9324 173.838 72.6568C173.327 75.6253 171.751 78.0236 170.919 80.3999C170.509 81.5102 170.29 82.682 170.27 83.8657C170.265 84.8967 170.418 85.9224 170.722 86.9074C171.164 88.3445 171.911 89.6689 172.911 90.7899C173.641 91.5723 174.115 91.9159 174.093 91.9525C173.963 91.8862 173.841 91.8052 173.729 91.7112C173.399 91.4599 173.089 91.1837 172.802 90.885C171.735 89.7827 170.936 88.4492 170.467 86.9878C170.134 85.9804 169.962 84.9268 169.956 83.8657C169.962 82.6439 170.177 81.4322 170.591 80.2829C171.394 77.8554 172.948 75.4572 173.429 72.5983C173.554 71.9035 173.581 71.1947 173.51 70.4925C173.422 69.8061 173.258 69.1316 173.021 68.4818C172.768 67.8102 172.733 67.0763 172.919 66.3833C173.027 66.0374 173.226 65.7268 173.495 65.484C173.63 65.3583 173.788 65.2617 173.962 65.2001C174.135 65.1385 174.319 65.1131 174.502 65.1257C174.836 65.17 175.157 65.2848 175.444 65.4625C175.731 65.6402 175.977 65.8768 176.166 66.1566C176.521 66.6406 176.806 67.1723 177.012 67.736C177.398 68.718 177.682 69.7373 177.859 70.7777C178.135 72.2768 178.221 73.8049 178.114 75.3256C178.089 75.7382 178.035 76.1486 177.954 76.5539C177.932 76.7105 177.887 76.8632 177.822 77.0073Z" fill="#EB996E"/>
<path d="M273.216 136.386C273.455 137.432 274.02 138.375 274.83 139.077C275.639 139.779 276.651 140.204 277.719 140.291C278.788 140.343 279.854 140.123 280.815 139.649C281.776 139.176 282.601 138.466 283.213 137.585C284.425 135.795 284.913 133.61 284.578 131.473C284.162 128.395 282.119 125.433 279.156 124.519C276.194 123.605 272.509 125.251 271.691 128.234L268.276 133.008L273.216 136.386Z" fill="#263238"/>
<path d="M269.181 127.005C269.512 124.359 269.31 121.673 268.585 119.107C267.861 116.541 266.629 114.147 264.964 112.067C263.299 109.987 261.233 108.264 258.89 106.999C256.547 105.734 253.975 104.954 251.325 104.704C240.737 103.695 231.317 111.599 229.733 122.143C228.34 131.385 227.143 140.714 227.187 144.078C227.318 154.314 233.28 158.277 235.702 159.432C236.572 159.747 237.472 159.97 238.388 160.098C238.396 160.1 238.405 160.103 238.412 160.108C238.419 160.113 238.426 160.12 238.43 160.127C238.435 160.135 238.438 160.143 238.44 160.152C238.441 160.161 238.441 160.17 238.439 160.178L236.177 171.877C235.148 179.562 239.431 186.42 247.086 187.539C254.74 188.658 260.775 182.757 261.95 175.065L269.181 127.005Z" fill="#FFBE9D"/>
<path d="M231.492 128.117C231.66 128.358 233.003 127.634 234.732 127.89C236.461 128.146 237.592 129.199 237.811 129.009C237.921 128.928 237.768 128.526 237.279 128.044C236.607 127.415 235.759 127.009 234.849 126.881C233.951 126.75 233.034 126.906 232.229 127.327C231.624 127.656 231.405 128.007 231.492 128.117Z" fill="#263238"/>
<path d="M246.844 131.451C247.012 131.692 248.362 130.968 250.084 131.224C251.806 131.48 252.952 132.533 253.171 132.343C253.273 132.262 253.127 131.86 252.631 131.37C251.961 130.745 251.115 130.341 250.208 130.215C249.31 130.083 248.393 130.239 247.589 130.661C246.998 130.99 246.764 131.341 246.844 131.451Z" fill="#263238"/>
<path d="M240.876 139.625C240.007 139.208 239.091 138.901 238.147 138.711C237.709 138.602 237.307 138.448 237.278 138.141C237.307 137.68 237.475 137.239 237.76 136.876L239.555 133.703C242.058 129.177 243.933 125.433 243.758 125.331C243.583 125.228 241.394 128.818 238.891 133.374L237.147 136.569C236.798 137.065 236.628 137.666 236.665 138.273C236.712 138.433 236.792 138.582 236.902 138.709C237.012 138.835 237.148 138.936 237.3 139.004C237.534 139.104 237.779 139.175 238.03 139.216C238.957 139.472 239.914 139.61 240.876 139.625Z" fill="#263238"/>
<path d="M238.453 160.171C238.453 160.171 245.021 161.692 254.105 157.89C254.105 157.89 250.194 166.336 237.848 163.33L238.453 160.171Z" fill="#EB996E"/>
<path d="M240.999 143.903C241.386 143.546 241.856 143.292 242.366 143.164C242.876 143.037 243.409 143.039 243.918 143.171C244.294 143.264 244.647 143.431 244.958 143.662C245.268 143.893 245.53 144.184 245.728 144.517C245.917 144.838 246.003 145.21 245.973 145.582C245.943 145.954 245.798 146.307 245.56 146.594C245.239 146.865 244.844 147.034 244.426 147.077C244.008 147.12 243.587 147.036 243.218 146.835C242.443 146.43 241.758 145.873 241.204 145.197C241.026 145.032 240.882 144.833 240.78 144.612C240.73 144.507 240.712 144.389 240.731 144.274C240.749 144.159 240.802 144.052 240.883 143.968" fill="#EB996E"/>
<path d="M245.779 141.563C245.502 141.504 245.225 143.384 243.43 144.488C241.635 145.592 239.664 145.088 239.613 145.351C239.57 145.468 240.007 145.782 240.847 145.929C241.941 146.102 243.062 145.885 244.013 145.314C244.926 144.764 245.591 143.881 245.867 142.85C246.049 142.067 245.911 141.57 245.779 141.563Z" fill="#263238"/>
<path d="M248.033 125.821C248.136 126.318 249.894 126.347 251.879 126.889C253.864 127.43 255.433 128.22 255.761 127.839C255.907 127.656 255.688 127.174 255.097 126.618C254.296 125.931 253.35 125.436 252.329 125.17C251.309 124.904 250.242 124.874 249.208 125.082C248.406 125.272 247.997 125.587 248.033 125.821Z" fill="#263238"/>
<path d="M233.236 122.786C233.477 123.225 234.732 122.991 236.155 123.181C237.578 123.371 238.76 123.825 239.073 123.459C239.227 123.276 239.073 122.852 238.614 122.406C237.969 121.855 237.174 121.509 236.332 121.412C235.49 121.316 234.638 121.474 233.885 121.865C233.353 122.194 233.126 122.574 233.236 122.786Z" fill="#263238"/>
<path d="M227.733 119.855C229.842 123.079 236.541 121.083 240.583 118.867C242.695 120.217 245.249 120.688 247.702 120.18C250.155 119.672 252.313 118.225 253.718 116.147C256.031 119.072 260.738 118.122 262.474 114.795C264.211 111.468 263.204 106.883 260.869 103.973C258.534 101.063 255.075 99.5863 251.675 98.9648C243.612 97.5025 234.833 100.603 230.01 107.907C227.784 111.278 226.449 115.818 227.77 119.855" fill="#263238"/>
<path d="M250.019 100.112C250.019 100.258 248.115 99.8929 245.123 100.39C241.237 101.038 237.675 102.959 234.995 105.852C232.472 108.881 230.804 112.532 230.164 116.425C229.942 118.048 229.857 119.686 229.909 121.324C229.753 120.901 229.662 120.457 229.639 120.007C229.511 118.791 229.531 117.563 229.697 116.352C230.226 112.308 231.903 108.501 234.528 105.384C237.302 102.374 241.04 100.431 245.094 99.8929C246.303 99.7298 247.528 99.7102 248.742 99.8344C249.18 99.861 249.61 99.9547 250.019 100.112Z" fill="#455A64"/>
<path d="M239.117 115.145C238.997 114.775 238.943 114.387 238.957 113.998C238.918 112.937 239.029 111.876 239.285 110.846C239.675 109.119 240.414 107.49 241.457 106.06C242.499 104.629 243.822 103.428 245.345 102.529C246.868 101.631 248.558 101.054 250.312 100.834C252.066 100.615 253.846 100.757 255.543 101.253C256.567 101.534 257.549 101.953 258.461 102.496C258.813 102.68 259.128 102.928 259.388 103.227C258.116 102.624 256.792 102.134 255.433 101.765C252.128 100.921 248.625 101.421 245.686 103.155C242.747 104.889 240.612 107.717 239.745 111.022C239.03 113.464 239.256 115.145 239.117 115.145Z" fill="#455A64"/>
<path d="M258.461 111.636C257.67 114.498 257.214 117.442 257.103 120.41C256.994 123.394 257.92 126.324 259.723 128.701C262.54 132.101 267.239 133.14 271.573 133.966C273.892 128.17 274.591 121.851 273.595 115.687C273.098 112.696 272.135 109.647 270.034 107.468C268.471 105.924 266.442 104.942 264.263 104.678C262.084 104.413 259.879 104.88 257.994 106.006" fill="#263238"/>
<path d="M260.87 125.791C259.731 128.262 259.811 131.121 260.205 133.834C260.6 136.547 261.285 139.201 261.256 141.921C261.227 144.641 260.366 147.529 258.235 149.232C257.589 149.664 256.983 150.154 256.426 150.695C256.15 150.97 255.966 151.323 255.898 151.706C255.83 152.089 255.882 152.484 256.046 152.837C256.455 153.495 257.688 153.481 257.863 152.727L257.754 152.918C257.646 153.1 257.588 153.307 257.586 153.519C257.584 153.73 257.637 153.939 257.74 154.123C257.844 154.308 257.994 154.462 258.176 154.57C258.357 154.677 258.564 154.736 258.775 154.738C259.521 154.702 260.251 154.514 260.922 154.185C261.592 153.855 262.187 153.392 262.672 152.823C264.066 151.207 264.62 149.035 264.985 146.973C266.109 140.517 265.89 133.812 267.67 127.517" fill="#263238"/>
<path d="M236.126 168.192C236.628 170.392 237.597 172.457 238.967 174.248C240.336 176.039 242.074 177.514 244.063 178.572C246.052 179.631 248.244 180.248 250.492 180.382C252.74 180.516 254.99 180.164 257.09 179.35C260.87 177.888 263.92 175.036 266.861 172.25C267.387 175.422 267.242 178.668 266.435 181.78C265.629 184.892 264.178 187.799 262.178 190.312C260.178 192.826 257.673 194.89 254.825 196.371C251.977 197.852 248.851 198.717 245.648 198.909C240.81 199.201 235.615 197.724 232.572 193.944C230.449 191.312 229.595 187.824 229.653 184.439C229.801 181.048 230.445 177.698 231.565 174.495C232.426 171.731 233.791 168.646 236.578 167.878" fill="#7B3DFF"/>
<path d="M270.742 134.156C273.661 135.728 275.222 139.018 275.784 142.265C276.346 145.511 276.061 148.845 276.2 152.128C276.339 155.411 276.966 158.862 279.046 161.414C281.235 164.134 284.701 165.421 287.802 167.081C294.603 170.736 300.207 176.973 302.25 184.446C304.293 191.919 302.44 200.532 296.858 205.906C291.75 210.776 284.38 212.487 277.346 212.487C272.332 212.487 266.823 211.404 263.693 207.478C260.562 203.552 260.774 198.046 261.869 193.205C262.963 188.365 264.97 183.664 265.05 178.699C264.301 181.772 262.995 184.682 261.197 187.283C260.679 188.014 259.796 188.818 259.008 188.394C258.22 187.97 258.461 186.603 258.87 185.689C264.911 172.213 262.81 145.05 266.393 130.171" fill="#263238"/>
<path d="M265.765 132.628C265.947 132.57 273.004 131.232 272.091 138.222C271.179 145.212 264.371 142.857 264.386 142.66C264.4 142.463 265.765 132.628 265.765 132.628Z" fill="#FFBE9D"/>
<path d="M266.86 140.291C266.86 140.291 266.969 140.386 267.166 140.511C267.439 140.672 267.763 140.721 268.071 140.65C268.845 140.474 269.618 139.377 269.815 138.127C269.907 137.528 269.867 136.917 269.698 136.335C269.662 136.108 269.57 135.893 269.431 135.71C269.293 135.526 269.111 135.379 268.903 135.282C268.772 135.236 268.629 135.234 268.497 135.278C268.365 135.321 268.251 135.408 268.173 135.523C268.057 135.706 268.078 135.852 268.042 135.86C268.005 135.867 267.911 135.721 267.998 135.443C268.061 135.274 268.179 135.132 268.334 135.041C268.442 134.975 268.563 134.933 268.689 134.917C268.814 134.901 268.942 134.91 269.064 134.946C269.343 135.04 269.593 135.205 269.791 135.424C269.989 135.642 270.128 135.908 270.195 136.196C270.411 136.841 270.468 137.528 270.362 138.2C270.136 139.604 269.246 140.825 268.173 140.986C267.979 141.017 267.78 141.004 267.592 140.947C267.404 140.89 267.231 140.791 267.086 140.657C266.853 140.459 266.838 140.299 266.86 140.291Z" fill="#EB996E"/>
<path d="M228.915 183.255C229.257 182.508 229.652 181.788 230.097 181.098C231.114 179.411 231.958 177.625 232.615 175.767C233.253 173.908 233.467 171.929 233.242 169.976C233.1 169.175 232.915 168.382 232.688 167.6C232.825 167.778 232.931 167.978 233.001 168.192C233.239 168.753 233.411 169.339 233.512 169.94C233.819 171.935 233.636 173.976 232.979 175.884C232.317 177.77 231.428 179.567 230.331 181.237C229.922 181.88 229.601 182.392 229.331 182.735C229.061 183.079 228.937 183.269 228.915 183.255Z" fill="#263238"/>
<path d="M232.469 175.19C232.367 175.19 232.17 174.59 231.542 174.173C230.915 173.756 230.287 173.756 230.272 173.647C230.258 173.537 230.426 173.522 230.71 173.515C231.087 173.519 231.454 173.639 231.761 173.859C232.07 174.075 232.308 174.378 232.447 174.729C232.542 175 232.52 175.175 232.469 175.19Z" fill="#FAFAFA"/>
<path d="M236.979 175.175C236.432 174.559 235.832 173.994 235.184 173.486C234.465 173.083 233.707 172.754 232.922 172.506C233.356 172.446 233.799 172.474 234.222 172.588C234.646 172.702 235.043 172.901 235.388 173.171C236.159 173.606 236.73 174.325 236.979 175.175Z" fill="#FAFAFA"/>
<path d="M239.81 190.011C239.827 189.003 239.969 188.001 240.233 187.028C240.374 186.023 240.641 185.04 241.028 184.103C241.011 185.113 240.869 186.118 240.605 187.093C240.464 188.096 240.196 189.076 239.81 190.011Z" fill="#FAFAFA"/>
<path d="M251.195 192.249C251.012 190.15 251.078 188.036 251.392 185.953C251.585 188.052 251.518 190.166 251.195 192.249Z" fill="#FAFAFA"/>
<path d="M18.7764 224.741L7.52441 273.84L31.3199 273.913L42.3092 230.737L18.7764 224.741Z" fill="#B78876"/>
<path d="M135.63 164.419C133.368 161.385 130.77 158.468 129.581 154.87C129.004 153.13 128.778 151.287 128.165 149.562C127.552 147.836 126.436 146.155 124.728 145.504C123.021 144.853 121.722 145.504 120.613 146.732L112.447 170.664L117.154 189.045C121.853 187.985 127.734 186.727 132.127 184.746C136.52 182.764 139.424 179.591 139.731 174.773C139.942 170.993 137.892 167.461 135.63 164.419Z" fill="#263238"/>
<path d="M61.3251 160.193C61.3251 160.193 32.9398 172.572 29.3934 178.158C25.8471 183.744 14.1719 223.571 14.1719 223.571L44.0896 232.345L43.5788 273.81H116.914L116.308 200.693L107.114 160.288C107.114 160.288 90.9217 159.243 89.4186 158.504C87.9154 157.766 61.3251 160.193 61.3251 160.193Z" fill="#7B3DFF"/>
<path d="M162.199 58.8454C162.432 57.171 161.258 55.3284 162.104 53.8588C162.664 53.1014 163.464 52.5573 164.373 52.316C164.814 52.1142 165.29 52.0024 165.774 51.987C166.016 51.9831 166.253 52.0503 166.457 52.1803C166.66 52.3103 166.822 52.4973 166.92 52.7182C166.973 52.9978 166.948 53.2865 166.849 53.5532C166.75 53.8199 166.58 54.0544 166.358 54.2317C165.914 54.5818 165.54 55.0136 165.256 55.5039C165.058 56.7074 165.151 57.941 165.526 59.1013C166.498 61.6544 167.305 64.2677 167.942 66.9249" fill="#B78876"/>
<path d="M156.208 59.4157C156.31 56.8785 158.397 46.8834 158.47 44.3462C160.185 44.8726 161.177 46.7006 161.498 48.47C161.819 50.2395 161.652 52.0601 161.958 53.8295C162.367 56.2058 163.6 58.3482 164.84 60.4101C166.081 62.472 167.38 64.5705 167.942 66.9102C168.503 69.25 170.62 75.3334 168.97 77.0882" fill="#B78876"/>
<path d="M155.734 76.5249L145.584 124.841C145.227 127.034 107.114 160.339 107.114 160.339L114.637 190.457L164.257 141.812C167.84 137.974 169.79 132.888 169.693 127.634L168.847 82.3012L155.734 76.5249Z" fill="#B78876"/>
<path d="M153.997 59.7225L155.734 76.5395L168.868 82.3304C168.868 82.3304 169.029 81.1386 169.598 75.3112C170.218 68.8914 163.33 66.1349 160.258 61.4188C158.945 59.3935 159.288 55.6645 158.273 51.0435C158.156 50.5097 157.427 47.2779 157.033 45.545C156.825 44.582 156.262 43.7332 155.457 43.1687C154.858 42.7739 154.187 42.5765 153.698 43.1687C153.209 43.761 153.997 59.7225 153.997 59.7225Z" fill="#B78876"/>
<path d="M162.199 79.318C163.658 78.053 164.008 75.7864 163.461 73.9073C162.791 72.0569 161.734 70.3716 160.36 68.9645C158.988 67.561 157.834 65.9589 156.938 64.2119C156.383 62.9543 156.12 61.5651 155.478 60.3294C154.836 59.0937 153.749 57.9604 152.377 57.9092C153.479 64.8627 153.45 68.8768 155.704 76.4956" fill="#B78876"/>
<path d="M153.741 65.8498C153.741 65.8498 153.69 65.6597 153.61 65.2941C153.53 64.9285 153.391 64.3216 153.26 63.7001C152.946 62.2378 152.53 60.3733 152.099 58.2309L152.056 58.0262H152.267C152.716 58.0098 153.164 58.0827 153.585 58.2409C154.006 58.399 154.391 58.6392 154.719 58.9475C155.721 59.9028 156.434 61.1217 156.777 62.4644C157.068 63.508 157.451 64.5235 157.922 65.4988C158.28 66.1395 158.711 66.7358 159.207 67.2755C159.388 67.4829 159.535 67.7173 159.645 67.9702C159.445 67.7847 159.259 67.5842 159.09 67.3706C158.547 66.8565 158.076 66.2711 157.689 65.6304C157.173 64.6519 156.753 63.626 156.434 62.5668C156.094 61.2913 155.413 60.1331 154.464 59.218C153.872 58.6615 153.086 58.3596 152.275 58.3772L152.45 58.1578C153.333 62.5595 153.902 65.8571 153.741 65.8498Z" fill="#7C5142"/>
<path d="M159.645 61.5727C159.116 59.3107 158.711 57.0211 158.434 54.7143C158.028 52.4257 157.748 50.1166 157.595 47.7974C158.128 50.0611 158.533 52.3533 158.806 54.6631C159.211 56.9493 159.491 59.2559 159.645 61.5727Z" fill="#7C5142"/>
<path d="M163.826 62.1426C163.826 62.1426 163.877 62.2157 163.921 62.3985H163.811C163.268 60.8342 162.825 59.237 162.483 57.6167C162.169 56.2055 161.943 54.9186 161.804 53.9608C161.692 53.4597 161.647 52.9456 161.673 52.4326C161.782 52.4326 162.228 54.7066 162.855 57.5508C163.359 59.8248 163.826 61.7405 163.921 62.3839H163.811C163.804 62.2304 163.804 62.1426 163.826 62.1426Z" fill="#7C5142"/>
<path d="M166.417 71.4072C166.358 71.4072 166.096 71.0269 165.57 70.4639C164.182 68.9859 162.298 68.0744 160.28 67.9044C159.858 67.9081 159.436 67.8813 159.018 67.824C159.421 67.667 159.855 67.602 160.287 67.6339C161.339 67.6471 162.375 67.8917 163.322 68.3504C164.269 68.8091 165.104 69.4707 165.767 70.2883C166.066 70.6068 166.288 70.9895 166.417 71.4072Z" fill="#7C5142"/>
<path d="M156.923 77.8555C156.562 77.2262 156.271 76.5593 156.054 75.8667C155.455 74.226 154.953 72.5511 154.551 70.8508C154.143 69.1647 153.836 67.4555 153.632 65.7326C153.512 65.0079 153.468 64.2728 153.5 63.5391C153.683 64.2377 153.815 64.9488 153.894 65.6668C154.113 66.9756 154.449 68.7889 154.916 70.785C155.383 72.7811 155.908 74.5286 156.31 75.8009C156.561 76.4706 156.766 77.1572 156.923 77.8555Z" fill="#7C5142"/>
<path d="M98.2051 161.21C98.8552 160.212 99.8638 159.504 101.021 159.231C102.179 158.959 103.397 159.144 104.422 159.747C109.778 155.36 115.258 151.105 120.614 146.74C118.863 155.514 117.695 167.746 121.614 175.775C121.614 175.775 126.554 184.973 134.42 183.569L127.4 190.457L116.331 200.744" fill="#7B3DFF"/>
<path d="M96.4668 165.305C96.4751 164.128 96.8333 162.979 97.4957 162.007C98.055 160.968 98.9079 160.119 99.9475 159.564C98.2987 161.134 97.0973 163.115 96.4668 165.305Z" fill="#263238"/>
<path d="M102.254 170.715C101.95 170.227 101.742 169.686 101.641 169.121C101.326 167.765 101.288 166.359 101.53 164.988C101.772 163.617 102.289 162.309 103.049 161.144C103.339 160.645 103.72 160.206 104.173 159.85C104.224 159.893 103.801 160.391 103.283 161.312C102.609 162.478 102.142 163.752 101.904 165.078C101.675 166.406 101.675 167.763 101.904 169.092C102.086 170.042 102.312 170.656 102.254 170.715Z" fill="#263238"/>
<path d="M129.064 189.491C128.525 189.827 127.936 190.074 127.32 190.223C125.634 190.63 123.87 190.577 122.212 190.069C119.756 189.288 117.607 187.753 116.068 185.682C114.219 183.142 112.972 180.214 112.419 177.12C111.389 171.548 111.094 165.864 111.544 160.215C111.712 158.022 111.952 156.311 112.157 155.097C112.251 154.497 112.339 154.037 112.405 153.722C112.427 153.56 112.467 153.401 112.521 153.247C112.527 153.412 112.512 153.576 112.478 153.737L112.303 155.119C112.149 156.318 111.945 158.044 111.814 160.237C111.44 165.862 111.769 171.511 112.791 177.054C113.338 180.069 114.547 182.923 116.331 185.411C117.806 187.461 119.886 188.996 122.278 189.799C123.892 190.32 125.615 190.413 127.276 190.069C127.884 189.917 128.481 189.724 129.064 189.491Z" fill="#FAFAFA"/>
<path d="M44.2292 244.688C44.1268 244.688 44.0391 234.291 44.0391 221.473C44.0391 208.656 44.1268 198.258 44.2292 198.258C44.3316 198.258 44.4193 208.648 44.4193 221.473C44.4193 234.298 44.3389 244.688 44.2292 244.688Z" fill="#263238"/>
<path d="M43.6455 190.237C43.5652 190.237 43.5871 189.199 43.2296 187.583C43.0165 186.638 42.711 185.718 42.3174 184.834C41.827 183.758 41.2228 182.738 40.5151 181.792C39.7877 180.859 38.9633 180.006 38.056 179.247C37.3089 178.635 36.505 178.097 35.6553 177.639C34.1959 176.871 33.1816 176.615 33.2035 176.542C33.4525 176.555 33.6984 176.604 33.9332 176.688C34.2097 176.757 34.4805 176.848 34.7431 176.959C35.1011 177.082 35.4498 177.231 35.7866 177.405C36.6632 177.835 37.4902 178.359 38.253 178.969C39.1897 179.736 40.0389 180.604 40.7851 181.558C41.5133 182.528 42.1256 183.581 42.6093 184.695C43.0067 185.605 43.3028 186.556 43.4922 187.532C43.5671 187.903 43.6183 188.279 43.6455 188.658C43.6796 188.941 43.6942 189.227 43.6893 189.513C43.7025 189.755 43.6878 189.998 43.6455 190.237Z" fill="#263238"/>
<path d="M93.6221 159.872C93.6827 160.074 93.7242 160.282 93.7462 160.493C93.8446 161.086 93.9079 161.684 93.9359 162.284C94.0231 164.503 93.7142 166.719 93.0238 168.828C91.9956 171.974 90.1731 174.8 87.7334 177.032C84.6734 179.712 80.8306 181.328 76.7786 181.639C72.7266 181.95 68.683 180.939 65.2514 178.758C62.5082 176.918 60.2861 174.4 58.8008 171.446C57.8059 169.464 57.1709 167.319 56.9255 165.114C56.8662 164.516 56.8394 163.916 56.8452 163.315C56.8276 163.106 56.8276 162.896 56.8452 162.687C56.8795 162.892 56.8966 163.1 56.8963 163.308C56.915 163.905 56.9637 164.5 57.0422 165.092C57.3411 167.266 58.0074 169.372 59.0124 171.322C60.5013 174.216 62.7043 176.68 65.4119 178.48C68.7814 180.603 72.7414 181.587 76.7104 181.289C80.6795 180.99 84.4483 179.424 87.4634 176.82C89.8765 174.634 91.6903 171.865 92.7319 168.777C93.4312 166.698 93.7765 164.515 93.7535 162.321C93.7535 161.546 93.6878 160.946 93.6294 160.537C93.571 160.127 93.6148 159.879 93.6221 159.872Z" fill="#263238"/>
<path d="M43.6009 223.309C43.6009 223.411 37.5371 221.503 30.1379 219.053C22.7388 216.604 16.7625 214.535 16.799 214.432C16.8355 214.33 22.8555 216.238 30.262 218.688C37.6684 221.137 43.6301 223.206 43.6009 223.309Z" fill="#FAFAFA"/>
<path d="M115.6 213.16C115.6 213.269 99.5097 213.423 79.6618 213.503C59.814 213.584 43.7168 213.569 43.7168 213.503C43.7168 213.438 59.8067 213.24 79.6618 213.16C99.517 213.079 115.6 213.057 115.6 213.16Z" fill="#FAFAFA"/>
<path d="M115.964 219.528C115.964 219.63 99.787 219.718 79.8443 219.718C59.9015 219.718 43.7168 219.63 43.7168 219.528C43.7168 219.426 59.887 219.338 79.8443 219.338C99.8016 219.338 115.964 219.418 115.964 219.528Z" fill="#FAFAFA"/>
<path d="M106.056 227.264C106.007 227.467 105.939 227.665 105.852 227.856C105.691 228.265 105.473 228.821 105.203 229.523L104.721 230.722C104.531 231.161 104.305 231.621 104.071 232.126C103.59 233.12 103.094 234.276 102.4 235.489L101.35 237.405C100.985 238.07 100.547 238.729 100.124 239.43C99.292 240.842 98.2704 242.26 97.205 243.774C94.8356 246.99 92.2254 250.021 89.3972 252.84C86.5287 255.62 83.4526 258.177 80.1957 260.488C78.6633 261.512 77.2258 262.514 75.8175 263.318C75.0878 263.727 74.4457 264.151 73.7743 264.51L71.8187 265.519C70.6001 266.184 69.4326 266.667 68.4329 267.127C67.9294 267.347 67.4624 267.566 67.0246 267.749L65.8133 268.209L64.1423 268.831C63.9495 268.914 63.7491 268.977 63.5439 269.021C63.7261 268.918 63.9165 268.83 64.1131 268.758L65.7622 268.071L66.9516 267.581C67.3895 267.391 67.8492 267.164 68.3454 266.93C69.3378 266.455 70.4907 265.957 71.6947 265.277L73.6138 264.254C74.2778 263.888 74.9419 263.457 75.6424 263.047C77.0507 262.236 78.4736 261.227 80.0206 260.203C86.5203 255.608 92.2369 249.991 96.9496 243.569C98.0077 242.07 99.0366 240.644 99.8684 239.262C100.299 238.568 100.744 237.917 101.116 237.259L102.174 235.358C102.904 234.166 103.393 233.018 103.889 232.031C104.13 231.534 104.371 231.08 104.568 230.649C104.765 230.218 104.925 229.823 105.078 229.465C105.378 228.777 105.618 228.236 105.808 227.827C105.881 227.635 105.964 227.447 106.056 227.264Z" fill="#263238"/>
<g opacity="0.3">
<path d="M103.093 233.596C98.1894 239.577 93.0523 243.913 85.8501 246.706C82.3987 248.037 78.7866 248.951 75.4446 250.538C72.1026 252.124 68.9503 254.515 67.4179 257.9C66.2577 260.518 66.8196 264.481 69.607 265.051C70.6899 265.184 71.7884 265.015 72.7812 264.561C87.0469 259.377 96.4235 246.282 103.049 233.596" fill="black"/>
</g>
<path d="M52.0654 103.505C48.9861 105.925 48.7818 110.451 48.935 114.37C49.0882 118.289 49.132 122.749 46.2789 125.455C43.9438 127.685 39.8575 128.511 39.1862 131.677C39.0163 132.423 39.0842 133.204 39.3804 133.909C39.6766 134.614 40.1862 135.208 40.8373 135.608C41.4884 136.008 42.2482 136.193 43.0098 136.137C43.7713 136.081 44.4962 135.787 45.0822 135.296C44.0898 137.775 44.5422 140.948 46.651 142.608C48.7599 144.268 52.4449 143.478 53.2183 140.934C53.0988 141.355 53.0658 141.796 53.1214 142.23C53.177 142.664 53.32 143.082 53.5418 143.459C53.7635 143.836 54.0594 144.164 54.4115 144.423C54.7635 144.682 55.1644 144.867 55.5899 144.966C56.0153 145.065 56.4564 145.077 56.8864 145C57.3164 144.923 57.7264 144.76 58.0914 144.519C58.4565 144.279 58.769 143.967 59.0101 143.602C59.2511 143.237 59.4157 142.827 59.4938 142.396" fill="#263238"/>
<path d="M96.7522 131.882C96.899 132.396 97.1496 132.874 97.4884 133.286C97.8273 133.698 98.2471 134.037 98.7219 134.28C99.1967 134.523 99.7163 134.665 100.248 134.699C100.781 134.732 101.314 134.656 101.815 134.474C102.316 134.292 102.775 134.009 103.163 133.642C103.55 133.275 103.858 132.832 104.068 132.341C104.277 131.849 104.384 131.32 104.38 130.786C104.377 130.252 104.265 129.724 104.049 129.235C103.444 127.714 101.86 126.566 101.824 124.936C101.729 122.962 103.801 121.653 105.618 120.885C107.435 120.118 109.566 119.094 109.85 117.142C110.135 115.189 108.508 113.69 107.15 112.352C105.793 111.014 104.487 108.982 105.443 107.329C105.932 106.488 106.902 106.035 107.53 105.297C108.946 103.659 108.376 100.91 106.742 99.513C105.107 98.1165 102.765 97.7947 100.627 98.0507C98.4889 98.3066 96.4458 99.1109 94.3515 99.63C90.8788 100.47 87.2699 100.579 83.7531 99.9493C80.2362 99.32 76.8879 97.9664 73.9199 95.9741" fill="#263238"/>
<path d="M54.1597 118.582L61.6684 162.19C61.9795 164.015 62.648 165.76 63.6354 167.325C64.6228 168.89 65.9096 170.244 67.4216 171.308C68.9335 172.372 70.6408 173.127 72.4449 173.527C74.249 173.927 76.1144 173.965 77.9334 173.64C81.3799 173.021 84.4704 171.132 86.5962 168.344C88.722 165.557 89.729 162.072 89.4188 158.578C89.0759 154.71 88.784 151.507 88.784 151.507C88.784 151.507 99.6857 148.699 98.7444 137.615C98.2847 132.248 96.4532 121.273 94.6727 111.358C93.7496 106.227 90.9322 101.631 86.7812 98.4868C82.6302 95.3422 77.4499 93.8788 72.2709 94.3877L71.2055 94.4901C68.4916 94.9163 65.8903 95.8829 63.5552 97.3329C61.22 98.7828 59.1984 100.687 57.6096 102.932C56.0208 105.178 54.897 107.72 54.3045 110.408C53.712 113.095 53.6628 115.875 54.1597 118.582Z" fill="#B78876"/>
<path d="M92.3439 118.516C92.3915 118.929 92.2749 119.344 92.0195 119.671C91.7641 119.998 91.3905 120.211 90.9794 120.264C90.7802 120.301 90.5757 120.297 90.3781 120.252C90.1804 120.208 89.9937 120.125 89.829 120.007C89.6642 119.889 89.5248 119.739 89.4191 119.565C89.3134 119.392 89.2435 119.2 89.2135 118.999C89.166 118.586 89.2826 118.172 89.5379 117.845C89.7933 117.517 90.167 117.304 90.5781 117.251C90.7773 117.215 90.9818 117.219 91.1794 117.263C91.377 117.307 91.5638 117.391 91.7285 117.509C91.8932 117.627 92.0326 117.777 92.1384 117.95C92.2441 118.123 92.314 118.316 92.3439 118.516Z" fill="#263238"/>
<path d="M92.8259 117.002C92.6508 117.222 91.3665 116.454 89.6663 116.622C87.9661 116.79 86.7986 117.77 86.5942 117.58C86.4994 117.492 86.6599 117.105 87.1634 116.651C87.8506 116.067 88.7025 115.712 89.6006 115.635C90.4844 115.547 91.3734 115.741 92.14 116.191C92.7018 116.542 92.9134 116.9 92.8259 117.002Z" fill="#263238"/>
<path d="M75.7072 120.469C75.7487 120.88 75.6288 121.292 75.3728 121.617C75.1168 121.942 74.7447 122.154 74.3353 122.209C74.1362 122.245 73.9321 122.24 73.7348 122.195C73.5376 122.151 73.3513 122.067 73.1867 121.949C73.0222 121.831 72.8829 121.681 72.7769 121.509C72.6709 121.336 72.6004 121.144 72.5695 120.944C72.5258 120.532 72.6438 120.119 72.8985 119.793C73.1532 119.467 73.5246 119.253 73.934 119.196C74.1341 119.161 74.3392 119.166 74.5373 119.211C74.7354 119.256 74.9226 119.34 75.0877 119.459C75.2529 119.577 75.3928 119.728 75.4992 119.901C75.6055 120.074 75.6763 120.267 75.7072 120.469Z" fill="#263238"/>
<path d="M76.1384 118.948C75.9633 119.174 74.679 118.407 72.9788 118.575C71.2786 118.743 70.1184 119.723 69.9067 119.533C69.8119 119.445 69.9724 119.057 70.4759 118.604C71.1646 118.022 72.0157 117.667 72.9131 117.588C73.7971 117.496 74.6872 117.691 75.4525 118.143C76.0143 118.494 76.1968 118.853 76.1384 118.948Z" fill="#263238"/>
<path d="M83.5447 130.99C83.5447 130.888 84.5663 130.603 86.2519 130.215C86.6824 130.127 87.091 130.003 87.1348 129.696C87.1225 129.245 86.9778 128.808 86.7189 128.438L85.1062 125.25C82.8661 120.703 81.2023 116.952 81.3848 116.864C81.5672 116.776 83.5301 120.388 85.763 124.907L87.3172 128.124C87.6406 128.621 87.7777 129.217 87.704 129.806C87.6601 129.97 87.5786 130.121 87.4658 130.248C87.3531 130.375 87.2122 130.474 87.0545 130.537C86.8188 130.623 86.574 130.682 86.3248 130.712C85.4128 130.918 84.4792 131.011 83.5447 130.99Z" fill="#263238"/>
<path d="M75.926 112.221C75.802 112.704 74.0872 112.645 72.117 113.084C70.1468 113.523 68.578 114.225 68.2788 113.815C68.1401 113.632 68.3736 113.164 69.0085 112.652C69.8189 112.011 70.7689 111.57 71.7813 111.365C72.7911 111.142 73.8395 111.165 74.8388 111.431C75.5758 111.672 75.9771 112.002 75.926 112.221Z" fill="#263238"/>
<path d="M91.7243 112.126C91.4616 112.542 90.2649 112.257 88.8055 112.374C87.3461 112.491 86.2297 112.893 85.8867 112.513C85.7481 112.33 85.8867 111.921 86.3829 111.504C87.0366 110.986 87.8347 110.685 88.6669 110.641C89.4959 110.573 90.3254 110.768 91.0384 111.197C91.6295 111.548 91.8338 111.928 91.7243 112.126Z" fill="#263238"/>
<path d="M64.9891 105.245L64.9308 105.304C63.3046 106.867 62.3428 108.999 62.2455 111.255C62.2455 111.336 62.2455 111.416 62.2455 111.482C62.1214 114.692 62.5082 117.902 62.3549 121.104C62.2017 124.307 61.4209 127.626 59.2975 130.032C58.4291 131.019 56.7946 131.801 55.9044 130.829C55.5946 130.419 55.4073 129.93 55.3644 129.418C54.0363 121.843 51.2927 115.27 50.5338 107.278C50.4249 106.209 50.5727 105.13 50.965 104.13C51.3572 103.13 51.9825 102.239 52.7885 101.531C54.3355 100.163 56.2546 98.723 58.1956 99.4249C60.1366 100.127 62.873 103.366 64.4565 104.697" fill="#263238"/>
<path d="M58.3765 123.232C58.1794 123.174 50.5541 121.726 51.5319 129.279C52.5097 136.832 59.8796 134.295 59.865 134.075C59.8505 133.856 58.3765 123.232 58.3765 123.232Z" fill="#B78876"/>
<path d="M57.2244 131.518C57.2244 131.518 57.1077 131.627 56.8961 131.752C56.7512 131.84 56.5902 131.9 56.4224 131.926C56.2546 131.952 56.0833 131.945 55.9183 131.905C55.0864 131.715 54.2472 130.53 54.0356 129.177C53.932 128.53 53.9744 127.868 54.1597 127.24C54.2013 126.994 54.3012 126.762 54.4511 126.564C54.601 126.365 54.7964 126.206 55.0207 126.099C55.1664 126.042 55.3273 126.037 55.4762 126.085C55.6251 126.132 55.7529 126.231 55.838 126.362C55.9693 126.56 55.9402 126.72 55.9839 126.728C56.0277 126.735 56.1299 126.581 56.0277 126.274C55.9617 126.092 55.8356 125.937 55.6702 125.836C55.4476 125.713 55.187 125.679 54.9405 125.741C54.6382 125.843 54.3669 126.021 54.1524 126.258C53.9379 126.494 53.7872 126.782 53.7146 127.093C53.4775 127.799 53.4149 128.552 53.5321 129.287C53.7802 130.801 54.7434 132.124 55.8745 132.3C56.0846 132.334 56.2997 132.32 56.5034 132.257C56.707 132.195 56.8938 132.087 57.0493 131.942C57.2244 131.7 57.2244 131.525 57.2244 131.518Z" fill="#7C5142"/>
<path d="M58.0414 100.624C55.8523 97.7729 60.5661 92.9179 64.1854 91.3751C67.8048 89.8323 72.9054 91.1704 76.7436 92.0405C79.1589 92.5961 81.6034 93.4516 84.0406 93.108C85.6748 92.7808 87.2512 92.2115 88.718 91.419C90.1832 90.6132 91.7972 90.1156 93.461 89.9566C94.2944 89.893 95.1292 90.059 95.8752 90.4366C96.6212 90.8142 97.2499 91.3891 97.6933 92.0989C98.4668 93.5613 97.7736 95.7548 96.1536 96.157C96.6519 95.8135 97.2259 95.5963 97.8263 95.5241C98.4268 95.4519 99.0358 95.5268 99.601 95.7425C100.166 95.9582 100.671 96.3081 101.071 96.7622C101.472 97.2163 101.756 97.7611 101.9 98.3496C102.044 98.9382 102.043 99.553 101.898 100.141C101.752 100.729 101.467 101.274 101.065 101.727C100.664 102.18 100.158 102.529 99.5925 102.743C99.0268 102.957 98.4176 103.031 97.8173 102.957C98.817 102.036 100.597 103.227 100.597 104.58C100.597 105.933 99.4665 107.044 98.2843 107.71C95.2634 109.406 91.5419 109.318 88.1707 108.536C84.7995 107.753 81.6034 106.342 78.2468 105.465C74.8901 104.587 69.2642 103.008 66.1264 104.478C63.8206 105.553 62.4342 108.602 61.0185 108.134C60.3487 107.855 59.7534 107.423 59.2807 106.872C58.808 106.32 58.4709 105.666 58.2968 104.96C57.9708 103.542 57.8771 102.08 58.0195 100.632" fill="#263238"/>
<path d="M58.4717 124.526C58.5657 128.542 59.0249 132.541 59.8435 136.474C60.6616 140.42 62.53 144.071 65.2506 147.039C68.8991 150.79 73.6859 154.351 78.8668 155.236C84.522 156.172 91.4395 154.987 96.0439 151.58C98.233 149.964 99.8165 146.462 99.1379 143.815C100.065 143.377 100.858 142.698 101.435 141.85C102.013 141.001 102.353 140.014 102.422 138.989C102.538 136.942 101.29 134.383 99.6778 134.112C100.889 133.907 101.239 131.977 100.78 130.888C100.32 129.798 98.722 129.469 97.5107 129.703C96.3134 130.017 95.1999 130.591 94.2489 131.385C93.3034 132.179 92.2366 132.816 91.0893 133.271C87.1781 134.544 83.2158 131.078 79.1076 131.246C75.3934 131.392 72.0879 134.485 68.4029 133.966C67.38 133.771 66.4095 133.362 65.5546 132.766C64.6997 132.17 63.9796 131.4 63.4409 130.507C62.3026 128.76 62.7988 122.304 62.3537 120.271" fill="#263238"/>
<g opacity="0.6">
<path d="M88.2799 141.936C87.9724 141.864 87.6701 141.771 87.3751 141.658C86.6604 141.454 85.9083 141.416 85.1769 141.549C84.4456 141.683 83.7546 141.983 83.1574 142.426C82.6904 142.763 82.4277 143.033 82.4277 142.997C82.4277 142.96 82.5737 142.638 83.0188 142.265C83.6181 141.737 84.3503 141.382 85.1362 141.24C85.922 141.099 86.7316 141.175 87.4773 141.461C88.0172 141.644 88.3018 141.9 88.2799 141.936Z" fill="#455A64"/>
</g>
<path d="M80.2896 133.534C80.5669 133.49 80.7493 135.34 82.4787 136.459C84.2081 137.578 86.1272 137.227 86.171 137.483C86.2075 137.593 85.7697 137.885 84.9378 137.987C83.8598 138.114 82.7718 137.855 81.8658 137.256C80.998 136.675 80.3906 135.778 80.1729 134.755C80.005 134.009 80.1656 133.534 80.2896 133.534Z" fill="white"/>
<path d="M74.8027 154C74.9677 154.038 75.1272 154.097 75.277 154.176C75.5908 154.293 76.0505 154.454 76.6562 154.622C78.3725 155.087 80.1341 155.364 81.91 155.448C83.1262 155.52 84.3462 155.495 85.5585 155.375C86.9567 155.25 88.3383 154.98 89.6813 154.571C91.1641 154.127 92.5786 153.48 93.8844 152.648C95.3044 151.789 96.5437 150.662 97.5329 149.328C98.7081 147.758 99.2311 145.793 98.9923 143.844V143.691L99.1236 143.632C100.031 143.21 100.817 142.563 101.408 141.753C101.694 141.371 101.939 140.959 102.137 140.525C102.312 140.103 102.42 139.657 102.458 139.201C102.538 138.378 102.42 137.547 102.116 136.778C101.811 136.009 101.328 135.323 100.707 134.778L100.598 134.69L100.685 134.58C101.014 134.162 101.229 133.665 101.308 133.138C101.388 132.611 101.329 132.073 101.138 131.575C100.988 131.198 100.761 130.857 100.472 130.572C100.183 130.288 99.8382 130.067 99.4593 129.923C98.9756 129.729 98.4522 129.657 97.9342 129.711C97.5767 129.755 97.4016 129.82 97.3943 129.799C97.5627 129.718 97.7423 129.664 97.9269 129.638C98.6201 129.525 99.3309 129.646 99.9486 129.98C100.566 130.315 101.056 130.845 101.342 131.488C101.558 132.024 101.631 132.607 101.555 133.18C101.478 133.753 101.254 134.296 100.904 134.756V134.559C101.571 135.129 102.092 135.85 102.424 136.663C102.757 137.475 102.891 138.356 102.816 139.231C102.779 139.733 102.663 140.227 102.473 140.693C102.261 141.151 102.005 141.587 101.707 141.995C101.086 142.863 100.251 143.555 99.2842 144.005L99.3936 143.786C99.6865 145.833 99.1622 147.914 97.9342 149.577C96.9158 150.95 95.6391 152.11 94.1763 152.991C92.844 153.841 91.3965 154.494 89.8783 154.929C88.5116 155.341 87.1051 155.605 85.6826 155.719C84.4464 155.817 83.2045 155.817 81.9684 155.719C80.1786 155.607 78.408 155.285 76.6927 154.761C76.2276 154.616 75.7719 154.443 75.3281 154.242C75.1449 154.18 74.9687 154.099 74.8027 154Z" fill="#455A64"/>
<path d="M41.7257 134.704C41.5861 134.665 41.4549 134.601 41.339 134.514C41.0102 134.267 40.7573 133.933 40.6093 133.549C40.3627 132.931 40.3093 132.253 40.4561 131.604C40.6863 130.745 41.2008 129.989 41.9155 129.461C42.755 128.827 43.6914 128.333 44.6883 127.999C45.8055 127.647 46.8858 127.187 47.9136 126.624C48.9952 125.938 49.8427 124.939 50.3435 123.758C50.8928 122.488 51.1855 121.121 51.2045 119.737C51.2629 116.878 50.6062 114.165 50.5332 111.643C50.4603 109.12 50.8981 106.766 52.0437 105.186C52.9017 103.92 54.2045 103.025 55.6922 102.678C56.0957 102.598 56.5088 102.578 56.9181 102.62C57.0609 102.637 57.2024 102.663 57.3413 102.7C56.8007 102.675 56.259 102.716 55.7287 102.825C54.2947 103.204 53.0505 104.1 52.2334 105.34C51.1681 106.875 50.7229 109.157 50.8543 111.628C50.9856 114.099 51.584 116.812 51.584 119.751C51.5536 121.188 51.2386 122.605 50.6573 123.919C50.1208 125.165 49.2169 126.216 48.0668 126.932C47.0109 127.504 45.8981 127.965 44.7467 128.306C43.7782 128.613 42.8644 129.072 42.0395 129.666C41.3619 130.147 40.8658 130.842 40.6312 131.64C40.4722 132.249 40.5001 132.891 40.7115 133.483C40.9038 133.992 41.2609 134.422 41.7257 134.704Z" fill="#455A64"/>
<path d="M96.4304 96.0322C96.5339 95.9692 96.644 95.9177 96.7587 95.8787C96.8974 95.8166 97.0415 95.7677 97.1893 95.7325C97.3873 95.6739 97.5899 95.6323 97.7949 95.6082C98.4759 95.5338 99.1648 95.6157 99.8095 95.8475C100.454 96.0793 101.038 96.455 101.516 96.9462C101.995 97.5893 102.341 98.3211 102.535 99.0993C102.73 99.8774 102.768 100.686 102.647 101.479C102.504 102.463 102.166 103.408 101.652 104.258C101.138 105.108 100.459 105.847 99.6556 106.43C97.8055 107.779 95.5944 108.543 93.3072 108.623C90.8277 108.721 88.3473 108.455 85.9446 107.833C82.1279 106.895 78.5065 105.288 75.2472 103.088C73.8539 102.128 72.3903 101.275 70.869 100.536C69.5364 99.9185 68.1018 99.5516 66.6367 99.4541C64.5026 99.3064 62.3659 99.7039 60.427 100.609C59.0624 101.253 58.413 101.809 58.3838 101.765C58.9831 101.248 59.648 100.813 60.3613 100.47C62.3117 99.504 64.4789 99.0606 66.6513 99.1836C68.1638 99.2613 69.6485 99.6209 71.0295 100.244C72.5728 100.981 74.0583 101.834 75.4734 102.796C78.7096 104.952 82.2944 106.531 86.0686 107.461C88.4343 108.083 90.8773 108.358 93.3218 108.279C95.5393 108.202 97.6845 107.469 99.4878 106.174C100.262 105.619 100.918 104.916 101.42 104.105C101.921 103.294 102.256 102.392 102.407 101.45C102.535 100.688 102.512 99.908 102.338 99.155C102.164 98.402 101.842 97.691 101.392 97.0632C100.94 96.5878 100.388 96.2186 99.7757 95.9822C99.1638 95.7458 98.5073 95.648 97.8533 95.6959C97.371 95.7712 96.8953 95.8836 96.4304 96.0322Z" fill="#455A64"/>
<path d="M92.5633 89.5913C92.5625 90.1669 92.4459 90.7364 92.2203 91.2657C91.5876 92.7205 90.4885 93.9221 89.0972 94.6803C88.1578 95.228 87.1267 95.5997 86.0543 95.777C84.8252 95.9566 83.5766 95.9566 82.3474 95.777C79.7424 95.448 77.0498 94.4244 74.2186 93.5396C71.3874 92.6549 68.5342 92.1285 66.0241 92.6695C63.7998 93.1564 61.7853 94.3333 60.2667 96.033C59.2323 97.1667 58.4402 98.5004 57.939 99.9521C57.6033 100.99 57.5376 101.597 57.4939 101.59C57.476 101.444 57.476 101.297 57.4939 101.151C57.5523 100.731 57.6425 100.315 57.7639 99.9082C58.2171 98.4064 58.9916 97.0216 60.0332 95.8502C61.5667 94.0749 63.6282 92.8396 65.9146 92.3259C68.5123 91.7483 71.4457 92.282 74.2916 93.1741C77.1374 94.0661 79.8081 95.0897 82.3548 95.4261C83.5524 95.6013 84.7691 95.6013 85.9668 95.4261C87.0072 95.2684 88.0108 94.9241 88.9293 94.4097C90.2893 93.6949 91.3823 92.5587 92.0452 91.1706C92.2596 90.6589 92.4328 90.1307 92.5633 89.5913Z" fill="#455A64"/>
<path d="M147.795 43.3149C147.729 43.3954 143.628 40.0539 138.63 35.8496C133.631 31.6454 129.64 28.1358 129.713 28.0846C129.786 28.0334 133.879 31.3456 138.878 35.5572C143.876 39.7687 147.868 43.2345 147.795 43.3149Z" fill="#263238"/>
<path d="M168.606 38.3064C168.504 38.3064 168.088 31.8136 167.686 23.7926C167.285 15.7716 167.037 9.26415 167.139 9.25684C167.241 9.24953 167.657 15.7497 168.066 23.778C168.475 31.8063 168.708 38.3064 168.606 38.3064Z" fill="#263238"/>
<path d="M155.355 33.6636C155.253 33.6636 153.976 30.0078 152.494 25.3794C151.013 20.7511 149.897 17.0148 149.999 16.9855C150.101 16.9563 151.378 20.6414 152.859 25.2624C154.34 29.8834 155.45 33.6344 155.355 33.6636Z" fill="#263238"/>
<path d="M143.54 50.1736C141.619 49.4962 139.74 48.7025 137.914 47.797C136.035 47.003 134.207 46.092 132.441 45.0693C134.363 45.7468 136.242 46.5404 138.067 47.446C139.946 48.2416 141.774 49.1525 143.54 50.1736Z" fill="#263238"/>
<path d="M124.357 41.7717C124.357 41.8741 123.737 41.8888 123 41.7717C122.263 41.6547 121.679 41.5231 121.694 41.4207C121.708 41.3184 122.314 41.3037 123.044 41.4207C123.773 41.5377 124.357 41.6694 124.357 41.7717Z" fill="#263238"/>
<path d="M150.473 12.2619C150.364 12.2619 150.283 11.6696 150.283 10.931C150.283 10.1924 150.364 9.59277 150.473 9.59277C150.583 9.59277 150.663 10.1924 150.663 10.931C150.663 11.6696 150.576 12.2619 150.473 12.2619Z" fill="#263238"/>
<path d="M194.409 22.5858C194.489 22.6589 191.118 26.5268 186.893 31.2283C182.668 35.9298 179.18 39.688 179.085 39.6149C178.99 39.5418 182.376 35.6812 186.601 30.9724C190.826 26.2636 194.336 22.52 194.409 22.5858Z" fill="#263238"/>
<path d="M199.772 17.2702C199.845 17.3433 199.458 17.8552 198.904 18.411C198.349 18.9667 197.845 19.347 197.773 19.2739C197.7 19.2007 198.086 18.6889 198.641 18.1404C199.195 17.592 199.699 17.1678 199.772 17.2702Z" fill="#263238"/>
<path d="M212.775 35.9888C212.462 36.2146 212.13 36.4128 211.782 36.581C211.133 36.9393 210.184 37.4438 209.002 38.0434C206.631 39.2425 203.31 40.8072 199.574 42.3646C195.838 43.922 192.387 45.165 189.862 46.0205C188.607 46.4373 187.585 46.7517 186.87 46.9637C186.508 47.0954 186.135 47.1909 185.754 47.2489C186.099 47.0778 186.458 46.9359 186.827 46.8248L189.745 45.7646C192.241 44.8652 195.663 43.5711 199.399 42.0356C203.135 40.5001 206.455 38.9573 208.885 37.824L211.717 36.4787C212.057 36.2894 212.41 36.1257 212.775 35.9888Z" fill="#263238"/>
<path d="M202.106 53.9897C201.483 54.268 200.832 54.4812 200.165 54.6259C198.954 54.9623 197.246 55.3572 195.364 55.6863C193.481 56.0154 191.715 56.1982 190.482 56.2859C189.807 56.3721 189.124 56.3843 188.446 56.3225C189.109 56.1695 189.782 56.0668 190.46 56.0154C191.701 55.8618 193.416 55.6278 195.298 55.2841C197.181 54.9404 198.881 54.6113 200.107 54.3481C200.761 54.1672 201.43 54.0472 202.106 53.9897Z" fill="#263238"/>
<path d="M211.804 52.1916C210.414 52.4451 208.99 52.4451 207.601 52.1916C208.99 51.9381 210.414 51.9381 211.804 52.1916Z" fill="#263238"/>
<path d="M156.959 233.596C157.986 233.771 158.968 234.151 159.845 234.714C160.723 235.276 161.478 236.01 162.067 236.871C163.23 238.611 163.978 240.595 164.256 242.67C164.92 246.647 163.848 251.166 162.374 254.924C158.324 253.016 156.164 248.292 155.223 245.821C153.763 241.924 153.391 233.961 156.923 233.596" fill="#7B3DFF"/>
<path d="M168.379 260.547C167.769 259.551 167.434 258.41 167.407 257.241C167.38 256.072 167.663 254.917 168.226 253.894C168.804 252.879 169.577 251.991 170.502 251.28C171.427 250.57 172.484 250.051 173.611 249.755C174.115 249.562 174.655 249.482 175.193 249.52C175.731 249.558 176.255 249.713 176.727 249.974C177.12 250.29 177.422 250.705 177.602 251.177C177.781 251.649 177.832 252.16 177.749 252.658C177.568 253.653 177.13 254.583 176.479 255.356C174.363 258.091 171.823 260.343 168.379 260.547Z" fill="#7B3DFF"/>
<path d="M167.358 273.152C167.273 272.882 167.227 272.601 167.219 272.318C167.168 271.777 167.095 270.988 167.044 270.015C166.86 267.471 167.014 264.914 167.504 262.411C168.027 259.883 169.219 257.542 170.955 255.633C171.491 255.073 172.094 254.582 172.75 254.171C172.97 254.003 173.217 253.874 173.48 253.791C172.65 254.414 171.874 255.107 171.16 255.86C169.541 257.771 168.427 260.059 167.92 262.513C167.437 264.983 167.241 267.5 167.336 270.015C167.406 271.059 167.413 272.107 167.358 273.152Z" fill="#263238"/>
<path d="M157.923 239.657C158.127 240.077 158.298 240.512 158.434 240.959C158.733 241.807 159.163 243.035 159.645 244.563C160.645 247.62 161.951 251.875 163.293 256.591C164.636 261.307 165.716 265.621 166.46 268.751C166.832 270.315 167.117 271.58 167.3 272.465C167.421 272.915 167.504 273.375 167.548 273.84C167.369 273.41 167.23 272.964 167.132 272.509C166.876 271.558 166.548 270.315 166.154 268.853C165.329 265.746 164.184 261.454 162.856 256.737C161.528 252.021 160.272 247.759 159.353 244.68L158.28 241.025C158.124 240.579 158.004 240.122 157.923 239.657Z" fill="#263238"/>
<path d="M162.986 264.305C161.968 262.069 160.434 260.108 158.51 258.582C156.587 257.057 154.33 256.011 151.924 255.531C150.698 255.297 149.188 255.326 148.502 256.379C147.816 257.432 148.407 258.836 149.144 259.845C150.716 261.938 152.873 263.516 155.341 264.38C157.809 265.244 160.477 265.356 163.008 264.7" fill="#7B3DFF"/>
<path d="M153.267 259.033C153.54 259.023 153.812 259.052 154.077 259.121C154.39 259.164 154.7 259.23 155.003 259.318C155.414 259.415 155.818 259.535 156.215 259.677C157.251 260.041 158.249 260.509 159.192 261.073C161.52 262.454 163.49 264.365 164.942 266.652C165.525 267.575 166.014 268.555 166.401 269.577C166.559 269.968 166.693 270.369 166.803 270.776C166.904 271.079 166.982 271.39 167.036 271.705C167.113 271.965 167.147 272.237 167.138 272.509C167.058 272.509 166.832 271.39 166.109 269.701C165.68 268.714 165.165 267.767 164.57 266.871C163.833 265.781 162.99 264.767 162.052 263.844C161.103 262.936 160.066 262.123 158.958 261.417C158.044 260.847 157.082 260.358 156.083 259.955C154.39 259.311 153.252 259.121 153.267 259.033Z" fill="#263238"/>
</svg>
