<svg width="48" height="49" viewBox="0 0 48 49" fill="none" xmlns="http://www.w3.org/2000/svg">
<circle cx="24" cy="24.9802" r="23" stroke="#002E73" stroke-width="2"/>
<path fill-rule="evenodd" clip-rule="evenodd" d="M19.8773 15.0402C20.9437 14.9911 21.2837 14.9802 24 14.9802C26.7164 14.9802 27.0564 14.992 28.1218 15.0402C29.1873 15.0884 29.9146 15.2584 30.5509 15.5048C31.2173 15.7566 31.8218 16.1502 32.3218 16.6593C32.8309 17.1584 33.2237 17.762 33.4746 18.4293C33.7218 19.0657 33.8909 19.793 33.94 20.8566C33.9891 21.9248 34 22.2648 34 24.9802C34 27.6966 33.9882 28.0366 33.94 29.103C33.8918 30.1666 33.7218 30.8939 33.4746 31.5302C33.2236 32.1976 32.8303 32.8022 32.3218 33.302C31.8218 33.8111 31.2173 34.2039 30.5509 34.4548C29.9146 34.702 29.1873 34.8711 28.1237 34.9202C27.0564 34.9693 26.7164 34.9802 24 34.9802C21.2837 34.9802 20.9437 34.9684 19.8773 34.9202C18.8137 34.872 18.0864 34.702 17.45 34.4548C16.7827 34.2038 16.178 33.8105 15.6782 33.302C15.1695 32.8027 14.7758 32.1983 14.5246 31.5311C14.2782 30.8948 14.1091 30.1675 14.06 29.1039C14.0109 28.0357 14 27.6957 14 24.9802C14 22.2639 14.0118 21.9239 14.06 20.8584C14.1082 19.793 14.2782 19.0657 14.5246 18.4293C14.7761 17.7621 15.1701 17.1578 15.6791 16.6584C16.1782 16.1498 16.7823 15.7561 17.4491 15.5048C18.0855 15.2584 18.8137 15.0893 19.8773 15.0402ZM28.0409 16.8402C26.9864 16.792 26.67 16.782 24 16.782C21.33 16.782 21.0137 16.792 19.9591 16.8402C18.9837 16.8848 18.4546 17.0475 18.1018 17.1848C17.6355 17.3666 17.3018 17.582 16.9518 17.932C16.6201 18.2548 16.3647 18.6478 16.2046 19.082C16.0673 19.4348 15.9046 19.9639 15.86 20.9393C15.8118 21.9939 15.8018 22.3102 15.8018 24.9802C15.8018 27.6502 15.8118 27.9666 15.86 29.0211C15.9046 29.9966 16.0673 30.5257 16.2046 30.8784C16.3646 31.312 16.62 31.7057 16.9518 32.0284C17.2746 32.3602 17.6682 32.6157 18.1018 32.7757C18.4546 32.913 18.9837 33.0757 19.9591 33.1202C21.0137 33.1684 21.3291 33.1784 24 33.1784C26.6709 33.1784 26.9864 33.1684 28.0409 33.1202C29.0164 33.0757 29.5455 32.913 29.8982 32.7757C30.3646 32.5939 30.6982 32.3784 31.0482 32.0284C31.38 31.7057 31.6355 31.312 31.7955 30.8784C31.9327 30.5257 32.0955 29.9966 32.14 29.0211C32.1882 27.9666 32.1982 27.6502 32.1982 24.9802C32.1982 22.3102 32.1882 21.9939 32.14 20.9393C32.0955 19.9639 31.9327 19.4348 31.7955 19.082C31.6137 18.6157 31.3982 18.282 31.0482 17.932C30.7254 17.6003 30.3325 17.345 29.8982 17.1848C29.5455 17.0475 29.0164 16.8848 28.0409 16.8402ZM22.7227 28.063C23.4361 28.3599 24.2304 28.4 24.97 28.1763C25.7095 27.9527 26.3486 27.4792 26.7778 26.8368C27.2071 26.1944 27.4001 25.4228 27.3237 24.654C27.2473 23.8851 26.9064 23.1666 26.3591 22.6211C26.0102 22.2725 25.5884 22.0055 25.124 21.8394C24.6595 21.6734 24.164 21.6124 23.6732 21.6608C23.1823 21.7092 22.7083 21.8658 22.2853 22.1194C21.8622 22.373 21.5007 22.7173 21.2267 23.1274C20.9526 23.5375 20.7729 24.0032 20.7005 24.4911C20.6281 24.979 20.6647 25.4769 20.8078 25.9489C20.9509 26.4209 21.1968 26.8553 21.5279 27.2209C21.8591 27.5864 22.2671 27.874 22.7227 28.063ZM20.3655 21.3457C20.8428 20.8684 21.4094 20.4898 22.033 20.2315C22.6566 19.9732 23.325 19.8402 24 19.8402C24.675 19.8402 25.3434 19.9732 25.967 20.2315C26.5906 20.4898 27.1573 20.8684 27.6346 21.3457C28.1119 21.823 28.4905 22.3896 28.7488 23.0132C29.0071 23.6368 29.14 24.3052 29.14 24.9802C29.14 25.6552 29.0071 26.3236 28.7488 26.9472C28.4905 27.5708 28.1119 28.1375 27.6346 28.6148C26.6706 29.5787 25.3632 30.1202 24 30.1202C22.6368 30.1202 21.3294 29.5787 20.3655 28.6148C19.4015 27.6508 18.86 26.3434 18.86 24.9802C18.86 23.617 19.4015 22.3096 20.3655 21.3457ZM30.28 20.6057C30.3983 20.4941 30.493 20.3599 30.5585 20.2111C30.624 20.0623 30.6589 19.9018 30.6613 19.7393C30.6637 19.5767 30.6334 19.4153 30.5723 19.2646C30.5111 19.1139 30.4204 18.9771 30.3054 18.8621C30.1905 18.7471 30.0536 18.6564 29.9029 18.5952C29.7522 18.5341 29.5908 18.5038 29.4283 18.5062C29.2657 18.5086 29.1052 18.5435 28.9564 18.609C28.8076 18.6745 28.6734 18.7692 28.5618 18.8875C28.3448 19.1175 28.226 19.4231 28.2307 19.7393C28.2353 20.0554 28.3629 20.3574 28.5865 20.581C28.8101 20.8046 29.1121 20.9323 29.4283 20.9369C29.7445 20.9415 30.05 20.8227 30.28 20.6057Z" fill="#002E73"/>
</svg>
