<svg width="48" height="49" viewBox="0 0 48 49" fill="none" xmlns="http://www.w3.org/2000/svg">
<circle cx="24" cy="24.9802" r="23" stroke="#002E73" stroke-width="2"/>
<path fill-rule="evenodd" clip-rule="evenodd" d="M21.429 21.9492H25.143V23.7992C25.678 22.7352 27.05 21.7792 29.111 21.7792C33.062 21.7792 34 23.8972 34 27.7832V34.9802H30V28.6682C30 26.4552 29.465 25.2072 28.103 25.2072C26.214 25.2072 25.429 26.5522 25.429 28.6672V34.9802H21.429V21.9492ZM14.57 34.8102H18.57V21.7792H14.57V34.8102ZM19.143 17.5302C19.1431 17.8655 19.0767 18.1975 18.9474 18.5068C18.8181 18.8162 18.6287 19.0967 18.39 19.3322C17.9064 19.8128 17.2518 20.0819 16.57 20.0802C15.8894 20.0798 15.2363 19.8114 14.752 19.3332C14.5142 19.0969 14.3254 18.816 14.1963 18.5067C14.0673 18.1973 14.0006 17.8654 14 17.5302C14 16.8532 14.27 16.2052 14.753 15.7272C15.2369 15.2484 15.8902 14.9799 16.571 14.9802C17.253 14.9802 17.907 15.2492 18.39 15.7272C18.872 16.2052 19.143 16.8532 19.143 17.5302Z" fill="#002E73"/>
</svg>
