<svg width="108" height="30" viewBox="0 0 108 30" fill="none" xmlns="http://www.w3.org/2000/svg">
<path d="M26.4014 19.5526C25.1507 19.0307 24.0447 18.3016 23.0833 17.3537C22.1218 16.425 21.3713 15.3389 20.8359 14.1033C20.2966 12.8676 20.0308 11.5627 20.0308 10.1889C20.0308 8.815 20.3005 7.50643 20.8359 6.26298C21.3713 5.01965 22.1218 3.92583 23.0833 2.98186C24.0447 2.03778 25.1507 1.30474 26.4014 0.782845C27.6521 0.260948 28.977 0 30.3802 0C31.7793 0 33.112 0.264778 34.3784 0.790506C35.6446 1.32018 36.7507 2.04928 37.6965 2.97803C38.6424 3.922 39.385 5.01582 39.9243 6.25915C40.4597 7.5026 40.7294 8.81117 40.7294 10.185C40.7294 11.5589 40.4636 12.8598 39.9321 14.0918C39.4006 15.3198 38.6541 16.4058 37.6926 17.3499C36.7469 18.2786 35.6368 19.0078 34.3745 19.5373C33.1081 20.0669 31.7754 20.3278 30.3763 20.3278C28.977 20.3317 27.6521 20.0707 26.4014 19.5526ZM32.5727 15.2814C33.2566 14.9974 33.8624 14.5983 34.3862 14.0841C34.9099 13.5699 35.3125 12.9788 35.5939 12.3149C35.8752 11.6471 36.0198 10.941 36.0198 10.1889C36.0198 9.44056 35.8752 8.73061 35.586 8.06281C35.2968 7.39511 34.8903 6.80798 34.3666 6.29374C33.8585 5.79483 33.2566 5.40341 32.5649 5.11553C31.8731 4.8316 31.1422 4.68952 30.3802 4.68952C29.6297 4.68952 28.9106 4.8316 28.2149 5.11553C27.5231 5.39958 26.9213 5.791 26.4132 6.29374C25.8894 6.80798 25.4829 7.39894 25.1937 8.06281C24.9045 8.73061 24.7599 9.43673 24.7599 10.1889C24.7599 10.9372 24.9045 11.6471 25.1937 12.3149C25.4829 12.9826 25.8894 13.5737 26.4132 14.0841C26.9369 14.5983 27.5387 14.9974 28.2149 15.2814C28.8949 15.5654 29.6141 15.7074 30.3802 15.7074C31.154 15.7074 31.8887 15.5654 32.5727 15.2814Z" fill="url(#paint0_linear_382_2358)"/>
<path d="M0.683536 19.589C0.229303 19.1379 0.00218475 18.6129 0.00218475 18.0061C-0.0252638 17.4305 0.205792 16.8939 0.703109 16.4038L12.1815 4.64739H2.59463C1.94455 4.64739 1.38851 4.42177 0.9381 3.97064C0.483867 3.51951 0.256751 2.96345 0.256751 2.30223C0.256751 1.9912 0.31547 1.69559 0.436846 1.41562C0.558221 1.13553 0.722797 0.886729 0.9381 0.676636C1.39245 0.225507 1.94455 0 2.59463 0H17.3234C17.5661 0 17.8403 0.0583453 18.1536 0.16716H18.1731L18.2593 0.209978L18.365 0.252796L18.5765 0.381138L18.7058 0.466658C19.0191 0.664991 19.254 0.929434 19.4185 1.25999C19.583 1.59054 19.6613 1.93286 19.6613 2.28282V2.36834C19.6339 3.07227 19.3794 3.63621 18.8977 4.05628L7.44283 15.77H17.8168C18.4982 15.77 19.0621 15.98 19.5164 16.4038C19.9706 16.8278 20.1978 17.3605 20.1978 18.0061C20.1978 18.6517 19.9706 19.204 19.5164 19.6512C19.0621 20.1024 18.4943 20.3279 17.8168 20.3279H2.38708C1.71743 20.3279 1.14958 20.0828 0.683536 19.589Z" fill="#002E73"/>
<path d="M43.2889 26.8289C43.0622 26.6198 42.8863 26.3644 42.7573 26.0625C42.6285 25.7606 42.5659 25.4432 42.5659 25.1066V10.2757C42.5659 8.89004 42.8356 7.57033 43.371 6.31629C43.9065 5.06238 44.6569 3.95936 45.6183 3.00725C46.5798 2.05513 47.6897 1.31585 48.9482 0.789508C50.2068 0.263169 51.5355 0 52.9348 0C54.3222 0 55.6472 0.267032 56.9135 0.797234C58.1798 1.33141 59.2858 2.06672 60.2317 3.00338C61.1775 3.95538 61.9201 5.05851 62.4595 6.31243C62.9949 7.56646 63.2645 8.88617 63.2645 10.2718C63.2645 11.6573 62.9988 12.9694 62.4673 14.2117C61.9357 15.4502 61.1893 16.5455 60.2277 17.4976C59.282 18.4341 58.172 19.1696 56.9096 19.7036C55.6432 20.2377 54.3184 20.501 52.9309 20.501C50.8672 20.501 48.9795 19.9397 47.2676 18.8212V25.1027C47.2676 25.8032 47.0605 26.3838 46.6423 26.8482C46.2241 27.3087 45.6613 27.541 44.9578 27.541C44.2973 27.541 43.7384 27.3049 43.2889 26.8289ZM55.1118 15.4114C55.7957 15.1251 56.4015 14.7226 56.9252 14.204C57.4489 13.6854 57.8515 13.0893 58.133 12.4198C58.4143 11.7463 58.5589 11.0341 58.5589 10.2757C58.5589 9.52092 58.4182 8.80493 58.133 8.13144C57.8515 7.45806 57.445 6.86593 56.9252 6.34732C56.4171 5.84416 55.8152 5.4494 55.1234 5.15908C54.4317 4.87273 53.7008 4.72944 52.9386 4.72944C52.1766 4.72944 51.4457 4.87273 50.7539 5.15908C50.0622 5.44554 49.4602 5.8403 48.9522 6.34732C48.4285 6.86593 48.0219 7.46192 47.7327 8.13144C47.4435 8.80493 47.2989 9.51705 47.2989 10.2757C47.2989 11.0303 47.4435 11.7463 47.7327 12.4198C48.0219 13.0931 48.4285 13.6892 48.9522 14.204C49.4759 14.7226 50.0778 15.1251 50.7656 15.4114C51.4496 15.6979 52.1766 15.8411 52.9386 15.8411C53.7047 15.8411 54.4277 15.6979 55.1118 15.4114Z" fill="#002E73"/>
<path d="M65.6566 26.8289C65.4299 26.6198 65.254 26.3644 65.125 26.0625C64.9961 25.7606 64.9336 25.4432 64.9336 25.1066V10.2757C64.9336 8.89004 65.2033 7.57033 65.7387 6.31629C66.2742 5.06238 67.0246 3.95936 67.986 3.00725C68.9474 2.05513 70.0574 1.31585 71.3159 0.789508C72.5744 0.263169 73.9032 0 75.3025 0C76.6899 0 78.0148 0.267032 79.2812 0.797234C80.5474 1.33141 81.6535 2.06672 82.5993 3.00338C83.5452 3.95538 84.2878 5.05851 84.8271 6.31243C85.3625 7.56646 85.6322 8.88617 85.6322 10.2718C85.6322 11.6573 85.3665 12.9694 84.835 14.2117C84.3034 15.4502 83.557 16.5455 82.5954 17.4976C81.6497 18.4341 80.5397 19.1696 79.2773 19.7036C78.0109 20.2377 76.6861 20.501 75.2986 20.501C73.2349 20.501 71.3471 19.9397 69.6353 18.8212V25.1027C69.6353 25.8032 69.4282 26.3838 69.01 26.8482C68.5918 27.3087 68.029 27.541 67.3254 27.541C66.665 27.541 66.1061 27.3049 65.6566 26.8289ZM77.4794 15.4114C78.1634 15.1251 78.7692 14.7226 79.2929 14.204C79.8166 13.6854 80.2192 13.0893 80.5006 12.4198C80.782 11.7463 80.9266 11.0341 80.9266 10.2757C80.9266 9.52092 80.7859 8.80493 80.5006 8.13144C80.2192 7.45806 79.8127 6.86593 79.2929 6.34732C78.7848 5.84416 78.1829 5.4494 77.4911 5.15908C76.7993 4.87273 76.0685 4.72944 75.3063 4.72944C74.5442 4.72944 73.8134 4.87273 73.1216 5.15908C72.4298 5.44554 71.8279 5.8403 71.3199 6.34732C70.7961 6.86593 70.3896 7.46192 70.1004 8.13144C69.8112 8.80493 69.6666 9.51705 69.6666 10.2757C69.6666 11.0303 69.8112 11.7463 70.1004 12.4198C70.3896 13.0931 70.7961 13.6892 71.3199 14.204C71.8436 14.7226 72.4454 15.1251 73.1333 15.4114C73.8173 15.6979 74.5442 15.8411 75.3063 15.8411C76.0724 15.8411 76.7954 15.6979 77.4794 15.4114Z" fill="#002E73"/>
<path d="M107.306 0.692932C106.809 0.232191 106.245 0 105.607 0C104.957 0 104.397 0.232191 103.926 0.692932C103.472 1.14197 103.245 1.69931 103.245 2.37292V10.0839C103.218 10.8116 103.045 11.4967 102.736 12.1432C102.423 12.7896 102 13.3625 101.463 13.8658C100.938 14.369 100.34 14.76 99.6655 15.0309C98.9926 15.3058 98.2954 15.4413 97.5704 15.4413C96.8188 15.4413 96.1019 15.2941 95.4128 15C94.7237 14.7058 94.1203 14.2993 93.5956 13.7806C93.0559 13.2619 92.6402 12.6658 92.3425 11.9845C92.0449 11.3071 91.8966 10.5948 91.8966 9.85161V2.37292C91.8966 1.71477 91.6615 1.15356 91.1948 0.692932C90.7292 0.232191 90.1698 0 89.5154 0C88.8657 0 88.3052 0.232191 87.835 0.692932C87.3694 1.15356 87.1343 1.71477 87.1343 2.37292V9.82843C87.1343 11.2296 87.4041 12.5574 87.9415 13.8194C88.4777 15.0813 89.2294 16.1806 90.193 17.1174C91.1565 18.0697 92.2719 18.8129 93.5412 19.3432C94.8094 19.8774 96.1528 20.1407 97.5669 20.1407C99.6343 20.1407 101.526 19.4246 103.241 17.9961V19.6683C103.241 22.6452 100.782 25.1071 97.8484 25.1071C96.3219 25.1071 94.8372 24.4142 93.8029 23.2297C92.9378 22.169 91.4102 22.0451 90.42 22.9432C89.4286 23.8413 89.3035 25.3896 90.1733 26.4116C92.112 28.6955 94.8765 30 97.8484 30C103.418 30 108 25.351 108 19.6799V18.0194V17.7484V2.36133C108.008 1.71477 107.776 1.15356 107.306 0.692932Z" fill="#002E73"/>
<defs>
<linearGradient id="paint0_linear_382_2358" x1="22.8879" y1="3.11777" x2="37.4813" y2="17.7233" gradientUnits="userSpaceOnUse">
<stop stop-color="#00FFE6"/>
<stop offset="1" stop-color="#7B3DFF"/>
</linearGradient>
</defs>
</svg>
