<svg width="32" height="24" viewBox="0 0 32 24" fill="none" xmlns="http://www.w3.org/2000/svg">
<rect width="32" height="24" rx="4" fill="#363636"/>
<g clip-path="url(#clip0_2764_19906)">
<path d="M19.167 6.7876H12.8359V17.2106H19.167V6.7876Z" fill="#FF5F00"/>
<path d="M13.4869 12C13.4861 10.9963 13.7118 10.0056 14.1469 9.1029C14.5821 8.20017 15.2152 7.40903 15.9985 6.78936C15.0284 6.02089 13.8634 5.54302 12.6366 5.41037C11.4098 5.27772 10.1707 5.49565 9.061 6.03925C7.95127 6.58284 7.01565 7.43017 6.36108 8.48439C5.7065 9.53861 5.35938 10.7572 5.35938 12.0009C5.35937 13.2445 5.7065 14.4631 6.36108 15.5174C7.01565 16.5716 7.95127 17.4189 9.061 17.9625C10.1707 18.5061 11.4098 18.724 12.6366 18.5914C13.8634 18.4587 15.0284 17.9809 15.9985 17.2124C15.215 16.5925 14.5817 15.8011 14.1465 14.898C13.7114 13.9949 13.4858 13.0039 13.4869 12Z" fill="#EB001B"/>
<path d="M26.0108 16.1079V15.8943H26.1021V15.8501H25.8848V15.8943H25.9706V16.1079H26.0108ZM26.4328 16.1079V15.8501H26.367L26.2903 16.0342L26.2136 15.8501H26.1478V16.1079H26.1953V15.9127L26.2665 16.0802H26.3158L26.3871 15.9127V16.1079H26.4328Z" fill="#F79E1B"/>
<path d="M26.6401 12.0001C26.6401 13.2439 26.2928 14.4625 25.6382 15.5168C24.9835 16.5711 24.0477 17.4184 22.9378 17.9619C21.828 18.5054 20.5888 18.7232 19.3619 18.5904C18.1351 18.4575 16.97 17.9794 16 17.2107C16.7829 16.5905 17.4159 15.7991 17.8512 14.8963C18.2864 13.9936 18.5126 13.0029 18.5126 11.9992C18.5126 10.9955 18.2864 10.0048 17.8512 9.10204C17.4159 8.19926 16.7829 7.40791 16 6.78769C16.97 6.01897 18.1351 5.54087 19.3619 5.40803C20.5888 5.2752 21.828 5.49298 22.9378 6.0365C24.0477 6.58002 24.9835 7.42733 25.6382 8.48159C26.2928 9.53585 26.6401 10.7545 26.6401 11.9983V12.0001Z" fill="#F79E1B"/>
</g>
<defs>
<clipPath id="clip0_2764_19906">
<rect width="24" height="16" fill="white" transform="translate(4 4)"/>
</clipPath>
</defs>
</svg>
