<svg width="216" height="209" viewBox="0 0 216 209" fill="none" xmlns="http://www.w3.org/2000/svg">
<path d="M33.9937 24.0836C34.0045 21.4885 33.4157 18.926 32.2731 16.5959C31.1306 14.2658 29.4653 12.2311 27.407 10.6505C25.3487 9.06994 22.9532 7.98619 20.4071 7.48379C17.8611 6.98138 15.2334 7.07391 12.729 7.75415C10.2246 8.43438 7.91123 9.68394 5.96922 11.4054C4.02722 13.1268 2.50912 15.2736 1.53332 17.6783C0.557511 20.083 0.150382 22.6806 0.34368 25.2685C0.536978 27.8564 1.32548 30.3647 2.64768 32.5977L2.69839 32.6577C3.34375 33.7502 4.15045 34.5015 4.97098 35.6724L14.7528 48.6257C15.0359 49.0018 15.4025 49.3069 15.8236 49.517C16.2448 49.7271 16.7091 49.8365 17.1798 49.8365C17.6505 49.8365 18.1147 49.7271 18.5359 49.517C18.9571 49.3069 19.3237 49.0018 19.6068 48.6257L29.195 35.8845C30.0681 34.8546 30.8837 33.7774 31.6381 32.6577L31.675 32.6116C33.198 30.028 33.9988 27.0827 33.9937 24.0836ZM17.1452 31.4223C15.6783 31.4223 14.2443 30.9873 13.0245 30.1723C11.8048 29.3573 10.8542 28.1989 10.2928 26.8436C9.73141 25.4883 9.58452 23.997 9.87071 22.5583C10.1569 21.1195 10.8633 19.7979 11.9006 18.7606C12.9379 17.7233 14.2595 17.0169 15.6982 16.7307C17.137 16.4446 18.6283 16.5914 19.9836 17.1528C21.3389 17.7142 22.4973 18.6648 23.3122 19.8846C24.1272 21.1043 24.5622 22.5383 24.5622 24.0052C24.5628 24.9794 24.3714 25.9442 23.9989 26.8443C23.6264 27.7445 23.08 28.5624 22.3912 29.2512C21.7023 29.9401 20.8845 30.4864 19.9843 30.8589C19.0842 31.2314 18.1194 31.4229 17.1452 31.4223Z" fill="#F5F5F5"/>
<path d="M215.704 126.262C215.706 125.12 215.444 123.993 214.939 122.969C214.434 121.945 213.7 121.051 212.793 120.357C211.887 119.662 210.832 119.186 209.712 118.966C208.591 118.745 207.435 118.786 206.333 119.085C205.231 119.384 204.213 119.933 203.358 120.69C202.502 121.447 201.833 122.39 201.402 123.447C200.97 124.505 200.789 125.647 200.871 126.786C200.953 127.925 201.296 129.03 201.875 130.014V130.042C202.161 130.503 202.52 130.867 202.88 131.37L207.19 137.081C207.315 137.247 207.477 137.382 207.663 137.475C207.849 137.567 208.054 137.616 208.262 137.616C208.47 137.616 208.675 137.567 208.861 137.475C209.047 137.382 209.208 137.247 209.333 137.081L213.57 131.466C213.956 131.011 214.316 130.534 214.648 130.037V130.014C215.332 128.881 215.696 127.585 215.704 126.262ZM208.278 129.489C207.631 129.489 207 129.297 206.462 128.938C205.925 128.579 205.506 128.068 205.258 127.471C205.011 126.874 204.946 126.217 205.072 125.583C205.198 124.949 205.51 124.367 205.967 123.91C206.424 123.452 207.006 123.141 207.64 123.015C208.274 122.889 208.931 122.954 209.529 123.201C210.126 123.448 210.636 123.867 210.995 124.405C211.354 124.942 211.546 125.574 211.546 126.221C211.547 126.65 211.463 127.076 211.299 127.473C211.135 127.871 210.894 128.232 210.591 128.536C210.287 128.841 209.927 129.082 209.53 129.247C209.133 129.412 208.708 129.497 208.278 129.498V129.489Z" fill="#F5F5F5"/>
<path d="M190.096 184.839C197.358 177.576 197.358 165.802 190.096 158.54C182.834 151.278 171.06 151.278 163.797 158.54C156.535 165.802 156.535 177.576 163.797 184.839C171.06 192.101 182.834 192.101 190.096 184.839Z" fill="#F5F5F5"/>
<path d="M176.953 187.171C173.891 187.172 170.898 186.265 168.352 184.564C165.805 182.864 163.821 180.447 162.648 177.618C161.476 174.79 161.169 171.677 161.766 168.674C162.362 165.671 163.836 162.913 166.001 160.747C168.166 158.582 170.924 157.107 173.927 156.51C176.929 155.912 180.042 156.218 182.871 157.39C185.7 158.561 188.117 160.545 189.818 163.091C191.52 165.637 192.428 168.63 192.428 171.691C192.424 175.795 190.792 179.729 187.891 182.631C184.99 185.533 181.056 187.166 176.953 187.171ZM176.953 158.863C174.415 158.863 171.935 159.615 169.825 161.025C167.716 162.434 166.071 164.438 165.1 166.782C164.129 169.126 163.875 171.706 164.37 174.194C164.865 176.683 166.087 178.969 167.881 180.763C169.676 182.557 171.961 183.779 174.45 184.274C176.939 184.769 179.518 184.515 181.862 183.544C184.206 182.573 186.21 180.928 187.62 178.819C189.029 176.709 189.782 174.229 189.782 171.691C189.778 168.29 188.425 165.029 186.02 162.624C183.615 160.219 180.354 158.866 176.953 158.863Z" fill="white"/>
<path d="M176.843 176.983C175.715 176.983 174.612 176.648 173.674 176.022C172.737 175.395 172.006 174.504 171.574 173.462C171.143 172.42 171.03 171.273 171.251 170.167C171.471 169.06 172.014 168.044 172.812 167.247C173.61 166.45 174.627 165.907 175.733 165.688C176.84 165.468 177.986 165.582 179.028 166.014C180.07 166.446 180.96 167.178 181.586 168.116C182.212 169.055 182.546 170.157 182.545 171.285C182.544 172.797 181.943 174.246 180.873 175.315C179.804 176.383 178.354 176.983 176.843 176.983ZM176.843 168.225C176.239 168.225 175.649 168.404 175.147 168.739C174.646 169.074 174.254 169.551 174.023 170.108C173.793 170.666 173.732 171.28 173.85 171.872C173.968 172.464 174.258 173.007 174.685 173.434C175.112 173.861 175.656 174.151 176.247 174.269C176.839 174.387 177.453 174.327 178.011 174.096C178.568 173.865 179.045 173.473 179.38 172.972C179.715 172.47 179.894 171.88 179.894 171.276C179.891 170.469 179.568 169.696 178.996 169.126C178.424 168.556 177.65 168.235 176.843 168.234V168.225Z" fill="white"/>
<path d="M176.843 171.286H169.638L170.897 173.508L153.938 181.279L154.509 182.234L171.524 174.549L172.69 176.757L176.843 171.286Z" fill="#E0E0E0"/>
<path d="M153.937 181.28L153.757 181.104C153.32 180.678 152.778 180.376 152.186 180.228C151.594 180.081 150.973 180.094 150.387 180.265L143.625 182.234L147.391 183.889L145.879 187.913L152.227 185.673C152.923 185.423 153.521 184.957 153.932 184.342C154.343 183.727 154.545 182.996 154.509 182.257L153.937 181.28Z" fill="#E0E0E0"/>
<path d="M71.8733 185.179L72.0116 185.133L72.4127 185.018L73.9523 184.557L79.719 182.939L79.6637 183.035C79.3687 182.044 79.0368 180.938 78.6865 179.749V179.698L78.7326 179.656C80.3297 178.318 81.6888 176.719 82.7522 174.927C83.3447 173.917 83.7975 172.832 84.0983 171.7C84.4138 170.497 84.4875 169.244 84.3149 168.012C83.8966 165.336 82.5563 162.89 80.5257 161.098C78.3306 159.181 75.5902 157.999 72.6892 157.719C70.5115 157.534 68.326 157.972 66.3878 158.982C64.5199 159.891 62.9061 161.248 61.6905 162.932C60.5706 164.519 59.8756 166.367 59.6714 168.298C59.6438 168.759 59.5746 169.22 59.5838 169.681C59.5931 170.142 59.6069 170.603 59.6207 171.027C59.6939 171.892 59.8483 172.749 60.0817 173.585C60.3108 174.371 60.6197 175.131 61.0036 175.853C61.3796 176.526 61.8245 177.158 62.3312 177.739C63.2558 178.775 64.3463 179.651 65.558 180.329C67.3262 181.332 69.2638 182.001 71.2741 182.302H71.3063V182.33L71.7673 184.423C71.8134 184.653 71.8503 184.833 71.8733 184.962C71.8964 185.091 71.9102 185.147 71.9102 185.151C71.8883 185.098 71.8728 185.042 71.8641 184.985L71.735 184.46L71.2372 182.349L71.2787 182.385C69.2463 182.11 67.2838 181.455 65.4935 180.454C64.2649 179.774 63.1587 178.894 62.2206 177.849C61.6941 177.262 61.2307 176.621 60.8377 175.936C60.4365 175.204 60.1121 174.431 59.8696 173.632C59.6385 172.782 59.4842 171.913 59.4087 171.036L59.3672 169.653C59.3672 169.192 59.4271 168.731 59.4548 168.27C59.656 166.3 60.3608 164.414 61.5015 162.794C62.737 161.074 64.3793 159.687 66.2817 158.756C68.2665 157.721 70.5055 157.275 72.7353 157.47C75.6938 157.75 78.4888 158.955 80.724 160.913C81.7774 161.84 82.6537 162.951 83.31 164.191C83.4851 164.487 83.6391 164.795 83.771 165.113C83.9135 165.411 84.0336 165.719 84.1305 166.035C84.2273 166.357 84.3334 166.671 84.421 166.989C84.5085 167.307 84.5362 167.639 84.5961 167.962C84.7675 169.223 84.6876 170.506 84.361 171.737C84.0512 172.886 83.5859 173.987 82.9781 175.01C81.8938 176.817 80.5113 178.427 78.8893 179.772L78.9216 179.68L79.8758 182.966L79.8988 183.04L79.8251 183.063L73.9938 184.612L72.4588 185.013L72.0715 185.11L71.8733 185.179Z" fill="#E0E0E0"/>
<path d="M80.4714 185.184C79.1623 185.675 77.8246 186.086 76.4656 186.414C75.1284 186.824 73.7675 187.152 72.3906 187.396C73.7011 186.911 75.0387 186.501 76.3965 186.17C77.734 185.761 79.0947 185.431 80.4714 185.184Z" fill="#E0E0E0"/>
<path d="M78.6687 188.955C78.257 189.246 77.7838 189.438 77.2858 189.517C76.8056 189.672 76.2966 189.716 75.7969 189.646C76.2589 189.471 76.7378 189.344 77.2259 189.268C77.6953 189.116 78.1786 189.011 78.6687 188.955Z" fill="#E0E0E0"/>
<path d="M73.5173 184.75C73.4961 184.709 73.4806 184.666 73.4713 184.621C73.4436 184.52 73.4113 184.391 73.3652 184.229C73.273 183.864 73.144 183.361 72.978 182.722C72.6461 181.39 72.1759 179.495 71.5951 177.158C71.3047 175.982 70.9912 174.696 70.6732 173.318C70.6053 172.978 70.4688 172.654 70.2721 172.368C70.189 172.228 70.0579 172.122 69.9029 172.07C69.7479 172.018 69.5794 172.025 69.4285 172.087C69.2854 172.183 69.1701 172.315 69.094 172.469C69.0179 172.624 68.9839 172.796 68.9952 172.968C69.0063 173.337 69.1522 173.69 69.4055 173.959C69.6779 174.24 70.0143 174.451 70.386 174.574C70.7576 174.697 71.1535 174.728 71.5398 174.664C71.9449 174.603 72.3282 174.441 72.655 174.194C72.9818 173.947 73.2418 173.622 73.4113 173.249C73.7879 172.472 73.8824 171.589 73.6787 170.75C73.6001 170.326 73.3999 169.934 73.1025 169.621C72.9604 169.479 72.776 169.388 72.5771 169.36C72.3783 169.333 72.1759 169.371 72.0008 169.469C71.8499 169.604 71.7478 169.786 71.7103 169.985C71.6728 170.184 71.702 170.39 71.7933 170.571C71.9956 170.946 72.2908 171.264 72.6507 171.493C73.3302 172.033 74.1483 172.37 75.0109 172.465C75.422 172.502 75.836 172.44 76.2186 172.285C76.5798 172.118 76.8958 171.867 77.1406 171.553C77.3873 171.247 77.5352 170.874 77.5647 170.483C77.5799 170.295 77.5567 170.107 77.4965 169.928C77.4363 169.75 77.3402 169.586 77.2143 169.446C77.1063 169.311 76.9626 169.209 76.7996 169.152C76.6366 169.095 76.4609 169.085 76.2924 169.123C76.1278 169.183 75.979 169.28 75.8576 169.406C75.7361 169.532 75.6452 169.685 75.5917 169.852C75.3658 170.529 75.5641 171.285 75.647 171.981C75.8683 173.364 76.108 174.683 76.3523 175.867C76.8133 178.227 77.2143 180.14 77.4863 181.482C77.6154 182.132 77.7214 182.643 77.7952 183.008C77.8228 183.174 77.8505 183.303 77.8689 183.409C77.8734 183.455 77.8734 183.501 77.8689 183.547C77.85 183.504 77.8361 183.459 77.8274 183.413C77.7998 183.312 77.7675 183.183 77.726 183.021C77.6384 182.657 77.5232 182.15 77.3711 181.505C77.0714 180.187 76.6427 178.278 76.1587 175.904C75.919 174.719 75.6563 173.419 75.4212 172.013C75.3705 171.659 75.3105 171.304 75.2736 170.93C75.2198 170.544 75.2513 170.151 75.3658 169.778C75.431 169.578 75.5409 169.396 75.687 169.245C75.8332 169.094 76.0119 168.978 76.2094 168.907C76.4229 168.852 76.6474 168.859 76.8571 168.927C77.0668 168.994 77.253 169.12 77.3941 169.289C77.5393 169.452 77.6504 169.643 77.7208 169.849C77.7913 170.056 77.8197 170.275 77.8044 170.492C77.7784 170.933 77.6174 171.354 77.3434 171.7C77.0691 172.051 76.713 172.33 76.3062 172.511C75.8872 172.682 75.434 172.751 74.9832 172.714C74.0747 172.613 73.2125 172.261 72.494 171.695C72.0989 171.435 71.7806 171.074 71.572 170.649C71.4394 170.421 71.3965 170.152 71.4517 169.894C71.5068 169.636 71.656 169.408 71.8702 169.254C72.0844 169.101 72.3483 169.032 72.6102 169.063C72.8721 169.093 73.1134 169.22 73.2869 169.418C73.6175 169.766 73.8415 170.201 73.9322 170.672C74.1488 171.568 74.0461 172.512 73.6418 173.341C73.4524 173.748 73.1657 174.101 72.8071 174.371C72.4485 174.64 72.0291 174.817 71.5859 174.885C71.1605 174.954 70.7248 174.917 70.3167 174.779C69.9086 174.641 69.5404 174.405 69.2441 174.092C68.9534 173.78 68.7891 173.371 68.7832 172.945C68.771 172.732 68.8169 172.519 68.9159 172.33C69.0149 172.141 69.1634 171.982 69.3456 171.871C69.4442 171.823 69.5512 171.796 69.6604 171.791C69.7696 171.785 69.8788 171.801 69.9817 171.838C70.1686 171.917 70.3287 172.048 70.4427 172.216C70.6528 172.53 70.8014 172.88 70.8806 173.249C71.2079 174.632 71.5121 175.923 71.8025 177.103L73.0933 182.676C73.2362 183.321 73.3514 183.828 73.4344 184.197C73.4666 184.358 73.4943 184.487 73.5173 184.593C73.5271 184.645 73.5271 184.698 73.5173 184.75Z" fill="#E0E0E0"/>
<path d="M80.1616 186.908C79.1133 187.328 78.0346 187.669 76.9348 187.926C75.8516 188.264 74.7454 188.523 73.625 188.701C74.6733 188.28 75.752 187.94 76.8518 187.682C77.9352 187.345 79.0412 187.087 80.1616 186.908Z" fill="#E0E0E0"/>
<path d="M205.464 208.195C205.464 208.26 161.473 208.315 107.217 208.315C52.9606 208.315 8.96094 208.26 8.96094 208.195C8.96094 208.131 52.9422 208.075 107.217 208.075C161.492 208.075 205.464 208.126 205.464 208.195Z" fill="#263238"/>
<path d="M197.35 22.7646H17.1797V34.3074H197.35V22.7646Z" fill="#E0E0E0"/>
<path d="M197.327 44.9102H17.1562V145.955H197.327V44.9102Z" fill="white"/>
<path d="M17.1797 34.2198H41.92L44.3678 27.084H84.4722L86.92 34.2198H197.35V45.154H17.1797V34.2198Z" fill="#EBEBEB"/>
<path d="M23.1246 27.3699C23.1246 27.638 23.0451 27.9 22.8962 28.1228C22.7473 28.3457 22.5356 28.5194 22.288 28.622C22.0403 28.7246 21.7678 28.7514 21.5049 28.6991C21.242 28.6468 21.0005 28.5178 20.811 28.3282C20.6215 28.1387 20.4924 27.8972 20.4401 27.6343C20.3878 27.3714 20.4146 27.0989 20.5172 26.8513C20.6198 26.6036 20.7935 26.392 21.0164 26.2431C21.2392 26.0941 21.5013 26.0147 21.7693 26.0147C21.9475 26.014 22.124 26.0487 22.2887 26.1166C22.4534 26.1845 22.603 26.2843 22.729 26.4102C22.855 26.5362 22.9548 26.6859 23.0226 26.8506C23.0905 27.0153 23.1252 27.1918 23.1246 27.3699Z" fill="#263238"/>
<path d="M27.3199 27.3699C27.3199 27.638 27.2404 27.9 27.0915 28.1228C26.9426 28.3457 26.7309 28.5194 26.4833 28.622C26.2356 28.7246 25.9631 28.7514 25.7002 28.6991C25.4373 28.6468 25.1959 28.5178 25.0063 28.3282C24.8168 28.1387 24.6877 27.8972 24.6354 27.6343C24.5831 27.3714 24.61 27.0989 24.7125 26.8513C24.8151 26.6036 24.9888 26.392 25.2117 26.2431C25.4346 26.0941 25.6966 26.0147 25.9646 26.0147C26.1428 26.014 26.3193 26.0487 26.484 26.1166C26.6487 26.1845 26.7983 26.2843 26.9243 26.4102C27.0503 26.5362 27.1501 26.6859 27.218 26.8506C27.2859 27.0153 27.3205 27.1918 27.3199 27.3699Z" fill="#263238"/>
<path d="M31.5074 27.3699C31.5074 27.638 31.4279 27.9 31.279 28.1228C31.1301 28.3457 30.9184 28.5194 30.6708 28.622C30.4231 28.7246 30.1506 28.7514 29.8877 28.6991C29.6248 28.6468 29.3834 28.5178 29.1938 28.3282C29.0043 28.1387 28.8752 27.8972 28.8229 27.6343C28.7706 27.3714 28.7975 27.0989 28.9 26.8513C29.0026 26.6036 29.1763 26.392 29.3992 26.2431C29.6221 26.0941 29.8841 26.0147 30.1521 26.0147C30.3303 26.014 30.5068 26.0487 30.6715 26.1166C30.8362 26.1845 30.9858 26.2843 31.1118 26.4102C31.2378 26.5362 31.3376 26.6859 31.4055 26.8506C31.4734 27.0153 31.508 27.1918 31.5074 27.3699Z" fill="#263238"/>
<path d="M177.437 42.9784H53.8281C52.9185 42.9784 52.0461 42.6171 51.403 41.9739C50.7598 41.3307 50.3984 40.4584 50.3984 39.5488C50.3984 38.6392 50.7598 37.7668 51.403 37.1237C52.0461 36.4805 52.9185 36.1191 53.8281 36.1191H177.437C178.347 36.1191 179.219 36.4805 179.863 37.1237C180.506 37.7668 180.867 38.6392 180.867 39.5488C180.867 40.4584 180.506 41.3307 179.863 41.9739C179.219 42.6171 178.347 42.9784 177.437 42.9784Z" fill="#FAFAFA"/>
<path d="M56.7885 40.0049V41.1665H56.2031V40.0971C56.2031 39.7698 56.051 39.6361 55.7928 39.6361C55.5347 39.6361 55.3042 39.8113 55.3042 40.1801V41.185H54.7188V38.373H55.3042V39.3503C55.4803 39.1901 55.7115 39.1042 55.9495 39.1106C56.0666 39.1028 56.1839 39.121 56.293 39.164C56.4021 39.207 56.5004 39.2737 56.5806 39.3592C56.6609 39.4448 56.7211 39.5471 56.7571 39.6587C56.793 39.7704 56.8038 39.8886 56.7885 40.0049Z" fill="#E0E0E0"/>
<path d="M58.6242 41.0658C58.4868 41.1537 58.3263 41.1987 58.1632 41.1949C58.0631 41.2086 57.9612 41.1995 57.8651 41.1682C57.7691 41.1369 57.6814 41.0842 57.6086 41.0141C57.5358 40.944 57.4799 40.8583 57.445 40.7635C57.4101 40.6686 57.3972 40.5671 57.4072 40.4666V39.6368H57.0938V39.1759H57.4072V38.6826H57.9926V39.1759H58.4951V39.6368H57.9926V40.4666C57.9876 40.5017 57.9906 40.5374 58.0014 40.5712C58.0122 40.6049 58.0304 40.6358 58.0548 40.6615C58.0792 40.6872 58.1091 40.7071 58.1422 40.7197C58.1753 40.7322 58.2109 40.7371 58.2462 40.7339C58.3311 40.735 58.4139 40.7074 58.4813 40.6556L58.6242 41.0658Z" fill="#E0E0E0"/>
<path d="M60.2023 41.0658C60.0644 41.1527 59.9043 41.1976 59.7413 41.1949C59.6412 41.2086 59.5393 41.1995 59.4433 41.1682C59.3472 41.1369 59.2595 41.0842 59.1867 41.0141C59.114 40.944 59.058 40.8583 59.0232 40.7635C58.9883 40.6686 58.9753 40.5671 58.9853 40.4666V39.6368H58.6719V39.1759H58.9853V38.6826H59.5708V39.1759H60.0778V39.6368H59.5708V40.4666C59.5666 40.5015 59.5702 40.5369 59.5813 40.5703C59.5924 40.6036 59.6107 40.6342 59.6349 40.6597C59.6591 40.6852 59.6886 40.7051 59.7213 40.7179C59.7541 40.7307 59.7892 40.7362 59.8243 40.7339C59.9107 40.7349 59.9949 40.7074 60.064 40.6556L60.2023 41.0658Z" fill="#E0E0E0"/>
<path d="M62.7581 40.1524C62.7665 40.2886 62.7464 40.4252 62.6991 40.5532C62.6517 40.6812 62.5782 40.798 62.4832 40.896C62.3882 40.9941 62.2738 41.0712 62.1473 41.1226C62.0209 41.1739 61.8851 41.1983 61.7486 41.1942C61.6356 41.1995 61.5228 41.1805 61.4178 41.1383C61.3128 41.0961 61.2181 41.0319 61.1401 40.9499V41.8718H60.5547V39.106H61.1263V39.3411C61.206 39.2526 61.3045 39.183 61.4146 39.1375C61.5246 39.0921 61.6435 39.0718 61.7624 39.0783C61.9007 39.0758 62.0379 39.1024 62.1651 39.1566C62.2923 39.2107 62.4067 39.2911 62.5007 39.3925C62.5947 39.4939 62.6662 39.614 62.7106 39.745C62.7549 39.8759 62.7711 40.0147 62.7581 40.1524ZM62.1635 40.1524C62.1545 40.0527 62.1168 39.9578 62.055 39.8792C61.9931 39.8006 61.9097 39.7416 61.8149 39.7095C61.7201 39.6774 61.6181 39.6735 61.5212 39.6984C61.4242 39.7232 61.3366 39.7756 61.2689 39.8493C61.2013 39.9231 61.1565 40.0148 61.14 40.1135C61.1235 40.2122 61.1361 40.3136 61.1762 40.4053C61.2163 40.4969 61.2821 40.575 61.3657 40.63C61.4493 40.6849 61.5471 40.7144 61.6472 40.7148C61.7193 40.7158 61.7907 40.7016 61.8569 40.673C61.9231 40.6445 61.9825 40.6023 62.0313 40.5492C62.08 40.4961 62.117 40.4333 62.1398 40.3649C62.1625 40.2965 62.1706 40.2241 62.1635 40.1524Z" fill="#E0E0E0"/>
<path d="M63.0023 39.4751C63.0124 39.385 63.0554 39.3017 63.123 39.2413C63.1906 39.1809 63.2781 39.1475 63.3688 39.1475C63.4595 39.1475 63.547 39.1809 63.6146 39.2413C63.6822 39.3017 63.7251 39.385 63.7352 39.4751C63.741 39.5266 63.7359 39.5789 63.7201 39.6283C63.7043 39.6778 63.6783 39.7233 63.6437 39.762C63.6091 39.8007 63.5667 39.8317 63.5194 39.8529C63.472 39.8741 63.4207 39.885 63.3688 39.885C63.3169 39.885 63.2656 39.8741 63.2182 39.8529C63.1708 39.8317 63.1284 39.8007 63.0938 39.762C63.0593 39.7233 63.0332 39.6778 63.0174 39.6283C63.0017 39.5789 62.9965 39.5266 63.0023 39.4751ZM63.0023 40.8257C63.0124 40.7356 63.0554 40.6524 63.123 40.5919C63.1906 40.5315 63.2781 40.4981 63.3688 40.4981C63.4595 40.4981 63.547 40.5315 63.6146 40.5919C63.6822 40.6524 63.7251 40.7356 63.7352 40.8257C63.741 40.8773 63.7359 40.9295 63.7201 40.979C63.7043 41.0284 63.6783 41.074 63.6437 41.1127C63.6091 41.1514 63.5667 41.1823 63.5194 41.2035C63.472 41.2247 63.4207 41.2357 63.3688 41.2357C63.3169 41.2357 63.2656 41.2247 63.2182 41.2035C63.1708 41.1823 63.1284 41.1514 63.0938 41.1127C63.0593 41.074 63.0332 41.0284 63.0174 40.979C63.0017 40.9295 62.9965 40.8773 63.0023 40.8257Z" fill="#E0E0E0"/>
<path d="M65.1775 37.9951H65.703L64.4584 41.54H63.9375L65.1775 37.9951Z" fill="#E0E0E0"/>
<path d="M66.3774 37.9951H66.8983L65.6583 41.54H65.1328L66.3774 37.9951Z" fill="#E0E0E0"/>
<path d="M177.332 63.0813H69.6349C68.0223 63.0813 66.4758 62.4407 65.3355 61.3005C64.1953 60.1602 63.5547 58.6137 63.5547 57.0011C63.5559 55.3889 64.1969 53.8431 65.3369 52.7031C66.4769 51.5631 68.0227 50.9221 69.6349 50.9209H177.332C178.944 50.9221 180.49 51.5631 181.63 52.7031C182.77 53.8431 183.41 55.3889 183.412 57.0011C183.412 58.6137 182.771 60.1602 181.631 61.3005C180.491 62.4407 178.944 63.0813 177.332 63.0813Z" fill="#FAFAFA"/>
<path d="M177.326 63.0811C178.185 63.0625 179.032 62.8713 179.815 62.5187C180.586 62.1638 181.275 61.6528 181.839 61.018C182.402 60.3833 182.828 59.6385 183.088 58.8309C183.307 58.1102 183.391 57.3556 183.337 56.6044C183.28 55.7635 183.048 54.9439 182.655 54.1981C182.216 53.3811 181.596 52.6749 180.843 52.133C180.021 51.5403 179.061 51.166 178.055 51.0451C177.52 50.9993 176.982 50.9839 176.446 50.999H174.768H159.284L69.6388 51.0313C68.5624 51.0344 67.5066 51.3274 66.5826 51.8795C65.6746 52.4216 64.9272 53.1954 64.4171 54.1217C63.9069 55.048 63.6524 56.0933 63.6796 57.1505C63.7069 58.2076 64.0148 59.2384 64.5719 60.1373C65.1291 61.0361 65.9153 61.7705 66.8499 62.2651C67.7731 62.7436 68.8021 62.9814 69.8416 62.9566H99.8877L140.19 62.9843L167.388 63.0211H174.763H176.685C177.119 63.0211 177.34 63.0211 177.34 63.0211H176.685H174.763H167.388L140.19 63.0626L99.8877 63.0857H76.0832H69.8416C68.7632 63.1135 67.6955 62.866 66.7393 62.3665C65.5152 61.7193 64.543 60.6808 63.9777 59.4168C63.4124 58.1527 63.2865 56.7358 63.6201 55.3919C63.9537 54.048 64.7276 52.8545 65.8184 52.0015C66.9092 51.1485 68.2541 50.6853 69.6388 50.6855L159.307 50.8377H174.791H176.469C177.012 50.8244 177.555 50.8413 178.096 50.8884C179.121 51.0158 180.096 51.4012 180.931 52.0085C181.663 52.5332 182.269 53.2139 182.706 54.0016C183.143 54.7892 183.4 55.6641 183.457 56.5629C183.506 57.3258 183.415 58.0912 183.19 58.8217C182.981 59.4593 182.669 60.0587 182.268 60.5964C181.643 61.444 180.809 62.1157 179.848 62.5463C179.262 62.8039 178.64 62.9702 178.004 63.0396C177.547 63.0811 177.326 63.0811 177.326 63.0811Z" fill="#263238"/>
<path d="M72.1016 58.2966L72.3274 57.7896C72.6127 57.985 72.9497 58.091 73.2955 58.0938C73.6965 58.0938 73.8579 57.9601 73.8579 57.7804C73.8579 57.2318 72.1569 57.6098 72.1569 56.5219C72.1569 56.0241 72.5579 55.6 73.3923 55.6C73.7474 55.5932 74.0978 55.6823 74.4064 55.8581L74.199 56.3744C73.9533 56.228 73.6736 56.1485 73.3877 56.1439C72.9866 56.1439 72.8299 56.296 72.8299 56.4804C72.8299 57.0198 74.5309 56.6464 74.5309 57.7204C74.5309 58.2091 74.1252 58.6424 73.2909 58.6424C72.8683 58.6521 72.453 58.5314 72.1016 58.2966Z" fill="#E0E0E0"/>
<path d="M77.1369 57.6471H75.4359C75.4697 57.7889 75.5537 57.9137 75.6723 57.9984C75.7909 58.0831 75.9362 58.1221 76.0813 58.1081C76.1851 58.1113 76.2886 58.0934 76.3853 58.0553C76.4819 58.0173 76.5699 57.9599 76.6437 57.8868L76.9894 58.2648C76.8136 58.4339 76.5941 58.5505 76.3555 58.6015C76.117 58.6525 75.869 58.6359 75.6394 58.5534C75.4098 58.471 75.2078 58.3261 75.0562 58.135C74.9046 57.9439 74.8094 57.7143 74.7814 57.4719C74.7793 57.3159 74.8092 57.1611 74.8692 57.017C74.9293 56.8729 75.0182 56.7427 75.1304 56.6343C75.2427 56.5259 75.376 56.4416 75.5221 56.3867C75.6682 56.3318 75.824 56.3073 75.9799 56.3149C76.1353 56.307 76.2907 56.3317 76.436 56.3875C76.5813 56.4433 76.7134 56.5288 76.8237 56.6387C76.9339 56.7485 77.02 56.8802 77.0763 57.0253C77.1327 57.1704 77.158 57.3257 77.1507 57.4812C77.1507 57.5227 77.1415 57.5918 77.1369 57.6471ZM75.4267 57.2645H76.533C76.5093 57.1351 76.441 57.0181 76.3399 56.9339C76.2388 56.8497 76.1114 56.8035 75.9799 56.8035C75.8483 56.8035 75.7209 56.8497 75.6198 56.9339C75.5188 57.0181 75.4504 57.1351 75.4267 57.2645Z" fill="#E0E0E0"/>
<path d="M79.5171 57.3011V58.5872H78.9086V58.306C78.8327 58.4149 78.7289 58.5014 78.608 58.5566C78.4872 58.6117 78.3538 58.6334 78.2218 58.6194C77.6963 58.6194 77.3828 58.3244 77.3828 57.9372C77.3828 57.55 77.664 57.2642 78.3462 57.2642H78.8671C78.8671 56.9876 78.6966 56.8032 78.3462 56.8032C78.1144 56.8012 77.8881 56.8739 77.7009 57.0106L77.4658 56.5497C77.7545 56.3654 78.0914 56.2707 78.4338 56.2777C79.1022 56.3054 79.5171 56.6234 79.5171 57.3011ZM78.8671 57.8773V57.6468H78.4062C78.1019 57.6468 78.0051 57.7574 78.0051 57.9095C78.0051 58.0617 78.1434 58.1815 78.3693 58.1815C78.4741 58.1918 78.5794 58.1677 78.6692 58.1128C78.759 58.0579 78.8285 57.9752 78.8671 57.8773Z" fill="#E0E0E0"/>
<path d="M81.4983 56.3052V56.9045H81.3508C81.269 56.8977 81.1867 56.9093 81.1099 56.9383C81.0331 56.9673 80.9637 57.013 80.9068 57.0721C80.8499 57.1313 80.8068 57.2024 80.7808 57.2802C80.7547 57.358 80.7463 57.4407 80.7561 57.5222V58.587H80.1016V56.3375H80.7239V56.6325C80.8178 56.5205 80.937 56.4324 81.0716 56.3755C81.2063 56.3186 81.3525 56.2945 81.4983 56.3052Z" fill="#E0E0E0"/>
<path d="M81.7031 57.4625C81.7033 57.3022 81.7365 57.1437 81.8009 56.997C81.8652 56.8502 81.9592 56.7184 82.077 56.6097C82.1947 56.501 82.3337 56.4179 82.4852 56.3655C82.6366 56.3132 82.7972 56.2927 82.957 56.3054C83.1625 56.2889 83.3682 56.3346 83.5474 56.4366C83.7266 56.5385 83.871 56.692 83.9619 56.877L83.4548 57.149C83.4083 57.0557 83.3366 56.9773 83.2477 56.9227C83.1589 56.8681 83.0566 56.8395 82.9524 56.8402C82.7873 56.8402 82.629 56.9057 82.5123 57.0224C82.3956 57.1391 82.33 57.2974 82.33 57.4625C82.33 57.6275 82.3956 57.7858 82.5123 57.9025C82.629 58.0192 82.7873 58.0848 82.9524 58.0848C83.0568 58.0865 83.1596 58.0583 83.2486 58.0036C83.3376 57.9489 83.4092 57.8699 83.4548 57.7759L83.9619 58.0525C83.8694 58.2359 83.7245 58.3877 83.5455 58.4886C83.3666 58.5896 83.1618 58.6351 82.957 58.6195C82.7972 58.6322 82.6366 58.6117 82.4852 58.5594C82.3337 58.507 82.1947 58.4239 82.077 58.3152C81.9592 58.2065 81.8652 58.0747 81.8009 57.9279C81.7365 57.7812 81.7033 57.6227 81.7031 57.4625Z" fill="#E0E0E0"/>
<path d="M86.622 57.3016V58.5877H85.9674V57.3984C85.9674 57.0342 85.8014 56.8683 85.5064 56.8683C85.2114 56.8683 84.9671 57.0619 84.9671 57.4767V58.5877H84.3125V55.4854H84.9671V56.5732C85.0625 56.4835 85.1748 56.4136 85.2974 56.3677C85.4201 56.3218 85.5507 56.3008 85.6816 56.3059C85.8125 56.2958 85.944 56.3151 86.0665 56.3623C86.189 56.4096 86.2994 56.4837 86.3895 56.5792C86.4797 56.6746 86.5474 56.7891 86.5876 56.914C86.6278 57.039 86.6395 57.1715 86.622 57.3016Z" fill="#E0E0E0"/>
<path d="M88.2344 58.2084C88.2344 58.1008 88.2771 57.9976 88.3532 57.9216C88.4293 57.8455 88.5324 57.8027 88.64 57.8027C88.7476 57.8027 88.8508 57.8455 88.9269 57.9216C89.0029 57.9976 89.0457 58.1008 89.0457 58.2084C89.0457 58.316 89.0029 58.4192 88.9269 58.4952C88.8508 58.5713 88.7476 58.614 88.64 58.614C88.5324 58.614 88.4293 58.5713 88.3532 58.4952C88.2771 58.4192 88.2344 58.316 88.2344 58.2084Z" fill="#E0E0E0"/>
<path d="M89.3282 58.2087C89.3291 58.1286 89.3537 58.0507 89.3988 57.9846C89.444 57.9185 89.5076 57.8672 89.5818 57.8372C89.656 57.8072 89.7374 57.7998 89.8158 57.816C89.8942 57.8322 89.966 57.8711 90.0223 57.9281C90.0786 57.985 90.1168 58.0573 90.1321 58.1358C90.1473 58.2144 90.139 58.2957 90.1082 58.3696C90.0774 58.4434 90.0254 58.5065 89.9588 58.5509C89.8922 58.5952 89.8139 58.6189 89.7339 58.6189C89.6801 58.6196 89.6266 58.6093 89.5768 58.5889C89.527 58.5684 89.4819 58.5382 89.444 58.4999C89.4061 58.4616 89.3764 58.4161 89.3565 58.366C89.3366 58.316 89.327 58.2625 89.3282 58.2087Z" fill="#E0E0E0"/>
<path d="M90.4219 58.2084C90.4219 58.1008 90.4646 57.9976 90.5407 57.9216C90.6168 57.8455 90.7199 57.8027 90.8275 57.8027C90.9351 57.8027 91.0383 57.8455 91.1144 57.9216C91.1904 57.9976 91.2332 58.1008 91.2332 58.2084C91.2332 58.2617 91.2227 58.3144 91.2023 58.3636C91.1819 58.4128 91.152 58.4576 91.1144 58.4952C91.0767 58.5329 91.032 58.5628 90.9828 58.5832C90.9335 58.6035 90.8808 58.614 90.8275 58.614C90.7743 58.614 90.7215 58.6035 90.6723 58.5832C90.6231 58.5628 90.5784 58.5329 90.5407 58.4952C90.503 58.4576 90.4731 58.4128 90.4528 58.3636C90.4324 58.3144 90.4219 58.2617 90.4219 58.2084Z" fill="#E0E0E0"/>
<path d="M51.0086 73.656C51.0086 73.7251 46.6847 73.7758 41.3559 73.7758C36.027 73.7758 31.7031 73.7251 31.7031 73.656C31.7031 73.5868 36.0224 73.5361 41.3559 73.5361C46.6893 73.5361 51.0086 73.6007 51.0086 73.656Z" fill="black"/>
<path d="M51.7646 79.1826H31.7031V99.2441H51.7646V79.1826Z" fill="#7B3DFF"/>
<path d="M173.665 83.9128C173.665 83.9774 148.773 84.0327 118.054 84.0327C87.3345 84.0327 62.4375 83.9774 62.4375 83.9128C62.4375 83.8483 87.3299 83.793 118.054 83.793C148.777 83.793 173.665 83.8437 173.665 83.9128Z" fill="black"/>
<path d="M92.8678 91.4636C92.8678 91.5328 86.3036 91.5835 78.2136 91.5835C70.1235 91.5835 63.5547 91.5328 63.5547 91.4636C63.5547 91.3945 70.1143 91.3438 78.2136 91.3438C86.3128 91.3438 92.8678 91.3991 92.8678 91.4636Z" fill="black"/>
<path d="M155.896 98.4702C155.896 98.5347 135.222 98.59 109.726 98.59C84.2292 98.59 63.5547 98.5347 63.5547 98.4702C63.5547 98.4056 84.2246 98.3457 109.726 98.3457C135.226 98.3457 155.896 98.401 155.896 98.4702Z" fill="#E0E0E0"/>
<path d="M51.0086 109.612C51.0086 109.677 46.6847 109.732 41.3559 109.732C36.027 109.732 31.7031 109.677 31.7031 109.612C31.7031 109.548 36.0224 109.492 41.3559 109.492C46.6893 109.492 51.0086 109.534 51.0086 109.612Z" fill="black"/>
<path d="M51.7646 115.116H31.7031V135.178H51.7646V115.116Z" fill="#7B3DFF"/>
<path d="M180.275 119.841C180.275 119.91 153.894 119.96 121.359 119.96C88.8235 119.96 62.4375 119.91 62.4375 119.841C62.4375 119.771 88.8142 119.721 121.359 119.721C153.903 119.721 180.275 119.776 180.275 119.841Z" fill="black"/>
<path d="M92.8678 127.396C92.8678 127.461 86.3036 127.516 78.2136 127.516C70.1235 127.516 63.5547 127.461 63.5547 127.396C63.5547 127.332 70.1143 127.276 78.2136 127.276C86.3128 127.276 92.8678 127.332 92.8678 127.396Z" fill="black"/>
<path d="M171.975 134.398C171.975 134.467 147.705 134.518 117.769 134.518C87.834 134.518 63.5547 134.467 63.5547 134.398C63.5547 134.329 87.8248 134.278 117.769 134.278C147.714 134.278 171.975 134.334 171.975 134.398Z" fill="#E0E0E0"/>
<path d="M197.352 146.199C197.352 145.406 197.315 97.8894 197.255 22.765L197.352 22.8618H17.1952L17.315 22.7419C17.315 66.8015 17.315 108.662 17.315 146.176L17.2044 146.065L197.375 146.176L17.2044 146.282H17.0938V146.176C17.0938 108.662 17.0938 66.8015 17.0938 22.7419V22.6221H17.2274H197.384H197.481V22.7189C197.393 97.8894 197.352 145.406 197.352 146.199Z" fill="#263238"/>
<path d="M79.6017 31.7077C79.6017 31.7769 73.2403 31.8276 65.3946 31.8276C57.5489 31.8276 51.1875 31.7769 51.1875 31.7077C51.1875 31.6386 57.5489 31.5879 65.3946 31.5879C73.2403 31.5879 79.6017 31.6432 79.6017 31.7077Z" fill="black"/>
<path d="M53.9757 54.3965H28.7422V61.9979H53.9757V54.3965Z" fill="#455A64"/>
<path d="M98.6588 74.3064C98.6588 74.3755 90.8223 74.4262 81.1419 74.4262C71.4615 74.4262 63.625 74.3755 63.625 74.3064C63.625 74.2372 71.4615 74.1865 81.1419 74.1865C90.8223 74.1865 98.6588 74.2418 98.6588 74.3064Z" fill="#7B3DFF"/>
<path d="M98.6588 109.612C98.6588 109.677 90.8223 109.732 81.1419 109.732C71.4615 109.732 63.625 109.677 63.625 109.612C63.625 109.548 71.4615 109.492 81.1419 109.492C90.8223 109.492 98.6588 109.534 98.6588 109.612Z" fill="#7B3DFF"/>
<path d="M175.007 59.0247C174.426 59.0256 173.859 58.8543 173.376 58.5325C172.893 58.2107 172.517 57.7529 172.294 57.217C172.072 56.6811 172.013 56.0912 172.126 55.5221C172.239 54.9529 172.519 54.4301 172.929 54.0198C173.339 53.6095 173.862 53.3302 174.431 53.2172C175 53.1043 175.59 53.1627 176.126 53.3852C176.662 53.6077 177.12 53.9841 177.442 54.467C177.763 54.9498 177.935 55.5173 177.934 56.0975C177.933 56.8735 177.624 57.6173 177.075 58.166C176.526 58.7147 175.783 59.0235 175.007 59.0247ZM175.007 53.6267C174.518 53.6258 174.04 53.7699 173.633 54.0409C173.226 54.3118 172.908 54.6974 172.721 55.1488C172.533 55.6002 172.483 56.0971 172.578 56.5767C172.673 57.0563 172.908 57.497 173.253 57.843C173.599 58.189 174.039 58.4248 174.518 58.5205C174.998 58.6162 175.495 58.5676 175.947 58.3807C176.398 58.1938 176.784 57.8771 177.056 57.4707C177.328 57.0643 177.473 56.5864 177.473 56.0975C177.473 55.443 177.213 54.8153 176.751 54.352C176.288 53.8888 175.661 53.6279 175.007 53.6267Z" fill="#7B3DFF"/>
<path d="M178.611 60.3246C178.549 60.3245 178.489 60.2996 178.445 60.2555L176.537 58.3609C176.515 58.3394 176.498 58.3139 176.486 58.2858C176.475 58.2577 176.469 58.2276 176.469 58.1972C176.469 58.1669 176.475 58.1368 176.486 58.1087C176.498 58.0806 176.515 58.0551 176.537 58.0336C176.558 58.0121 176.584 57.9951 176.612 57.9834C176.64 57.9718 176.67 57.9658 176.7 57.9658C176.731 57.9658 176.761 57.9718 176.789 57.9834C176.817 57.9951 176.842 58.0121 176.864 58.0336L178.772 59.9282C178.803 59.961 178.824 60.002 178.832 60.0464C178.841 60.0907 178.836 60.1365 178.819 60.1783C178.802 60.2202 178.773 60.2562 178.737 60.2821C178.7 60.3081 178.656 60.3228 178.611 60.3246Z" fill="#7B3DFF"/>
<path d="M130.204 90.947C130.204 91.0115 122.658 91.0669 113.347 91.0669C104.035 91.0669 96.4844 91.0115 96.4844 90.947C96.4844 90.8825 104.035 90.8271 113.347 90.8271C122.658 90.8271 130.204 90.8779 130.204 90.947Z" fill="black"/>
<path d="M152.001 90.4265C152.001 90.4956 148.05 90.5463 143.182 90.5463C138.314 90.5463 134.359 90.4956 134.359 90.4265C134.359 90.3574 138.31 90.3066 143.182 90.3066C148.055 90.3066 152.001 90.362 152.001 90.4265Z" fill="black"/>
<path d="M130.051 127.396C130.051 127.461 122.505 127.516 113.194 127.516C103.882 127.516 96.3359 127.461 96.3359 127.396C96.3359 127.332 103.882 127.276 113.194 127.276C122.505 127.276 130.051 127.332 130.051 127.396Z" fill="black"/>
<path d="M39.5454 136.883C35.8023 138.819 32.9351 142.156 30.8746 145.83C28.814 149.504 27.4818 153.528 26.1681 157.553L25.0156 178.19C29.3672 170.787 32.8521 162.084 33.8017 153.547L30.9068 153.289C32.8475 152.994 34.4794 151.588 35.5165 149.919C36.5537 148.25 37.0838 146.328 37.6047 144.434L34.0737 144.959C36.8682 143.071 38.8279 140.178 39.5454 136.883Z" fill="#455A64"/>
<g opacity="0.3">
<path d="M39.5376 136.883C35.7945 138.819 32.9273 142.156 30.8668 145.83C28.8062 149.504 27.474 153.528 26.1602 157.553L25.0078 178.19C29.3594 170.787 32.8443 162.084 33.7939 153.547L30.899 153.289C32.8397 152.994 34.4715 151.588 35.5087 149.919C36.5459 148.25 37.076 146.328 37.5969 144.434L34.0659 144.959C36.8604 143.071 38.8201 140.178 39.5376 136.883Z" fill="black"/>
</g>
<path d="M24.366 182.999C24.366 182.999 14.9207 171.696 15.0313 160.904H18.8436C18.8436 160.904 14.6948 158.175 15.0267 156.649C15.3586 155.124 15.4877 149.348 15.4877 149.348L18.9772 150.219C18.9772 150.219 16.3589 148.91 16.0316 146.84C15.7043 144.77 16.7968 135.173 16.7968 135.173C16.7968 135.173 21.047 139.644 22.3562 144.222C23.6653 148.799 27.0765 154.142 26.0716 168.095C25.0667 182.049 24.366 182.999 24.366 182.999Z" fill="#455A64"/>
<path d="M29.1599 184.068C29.1599 184.068 39.3935 177.251 41.6661 168.552L38.596 167.695C38.596 167.695 42.5281 166.413 42.5972 165.113C42.6664 163.813 43.8419 159.144 43.8419 159.144L40.8456 159.084C40.8456 159.084 43.238 158.623 43.9525 157.009C44.667 155.396 45.8932 147.467 45.8932 147.467C45.8932 147.467 41.4955 150.127 39.4396 153.524C37.3837 156.922 33.447 160.462 31.2113 171.903C28.9756 183.345 29.1599 184.068 29.1599 184.068Z" fill="#455A64"/>
<path d="M19.3594 145.033C19.3756 145.07 19.388 145.108 19.3963 145.148L19.4792 145.494C19.553 145.821 19.6544 146.268 19.7881 146.835C20.0508 148.001 20.4012 149.693 20.7976 151.791C21.6043 155.981 22.5585 161.807 23.3099 168.279C24.0613 174.752 24.4577 180.643 24.6283 184.911C24.7159 187.046 24.762 188.77 24.7712 189.982C24.7712 190.567 24.7712 191.024 24.7712 191.365C24.7712 191.512 24.7712 191.628 24.7712 191.724C24.7781 191.764 24.7781 191.805 24.7712 191.844C24.7648 191.805 24.7648 191.764 24.7712 191.724C24.7712 191.632 24.7712 191.512 24.7712 191.37C24.7712 191.033 24.7435 190.577 24.7205 189.987C24.6836 188.793 24.6098 187.069 24.4992 184.939C24.2872 180.675 23.8585 174.798 23.1163 168.344C22.3741 161.89 21.443 156.055 20.6778 151.855C20.2998 149.758 19.9771 148.061 19.7558 146.89C19.6452 146.319 19.5576 145.867 19.4931 145.544C19.47 145.397 19.447 145.282 19.4331 145.189C19.3973 145.143 19.3721 145.09 19.3594 145.033Z" fill="#263238"/>
<path d="M23.0621 189.922C23.0621 189.922 14.4189 180.14 11.7314 174.185L13.7597 173.323C12.2892 173.562 10.7865 172.931 9.64785 171.972C8.55407 170.959 7.61309 169.793 6.85437 168.51L9.52339 168.049C7.07247 167.352 4.98318 165.74 3.6875 163.545C6.84054 164.062 9.68012 165.79 12.0357 167.952C13.905 169.744 15.6026 171.708 17.1064 173.816C17.8585 174.829 18.5158 175.909 19.0701 177.043C20.5129 180.048 23.0667 186.322 23.0621 189.922Z" fill="#455A64"/>
<path d="M41.8015 153.192C41.7944 153.228 41.782 153.262 41.7646 153.294L41.6355 153.58L41.1146 154.672C40.6537 155.594 40.0037 156.977 39.2108 158.687C37.6251 162.085 35.5231 166.833 33.4671 172.171C31.4112 177.509 29.7794 182.427 28.6454 186C28.0876 187.793 27.6497 189.226 27.3547 190.254L26.9997 191.421L26.9029 191.72C26.9029 191.785 26.866 191.822 26.8614 191.817C26.8568 191.813 26.8614 191.78 26.8614 191.711L26.9352 191.407L27.2394 190.236C27.5068 189.222 27.9217 187.761 28.461 185.963C29.5351 182.363 31.1531 177.43 33.2182 172.083C35.2834 166.736 37.4084 161.997 39.0357 158.613C39.847 156.922 40.5246 155.562 41.0086 154.631L41.571 153.557L41.7231 153.285C41.7456 153.251 41.7719 153.22 41.8015 153.192Z" fill="#263238"/>
<path d="M23.7979 194.126C23.7308 193.897 23.6845 193.663 23.6596 193.426C23.5904 192.965 23.4752 192.324 23.3139 191.522C22.89 189.437 22.3028 187.388 21.5576 185.396C20.8006 183.405 19.8866 181.479 18.824 179.633C18.4137 178.928 18.0726 178.361 17.8237 177.979C17.6879 177.783 17.5691 177.577 17.4688 177.361C17.6298 177.535 17.7748 177.723 17.9021 177.923C18.174 178.297 18.5428 178.845 18.9715 179.55C20.0829 181.38 21.0241 183.307 21.7834 185.308C22.5369 187.312 23.1047 189.381 23.4798 191.49C23.6181 192.301 23.7103 192.955 23.7518 193.416C23.7869 193.651 23.8023 193.889 23.7979 194.126Z" fill="#263238"/>
<path d="M35.1995 191.817H16.2812V195.675H35.1995V191.817Z" fill="#7B3DFF"/>
<path d="M18.0859 195.68L20.1326 208.657H31.5647L33.4731 195.68H18.0859Z" fill="#7B3DFF"/>
<path d="M34.0365 195.68C34.0365 195.744 30.4594 195.8 26.0433 195.8C21.6272 195.8 18.0547 195.744 18.0547 195.68C18.0547 195.615 21.6318 195.56 26.0433 195.56C30.4548 195.56 34.0365 195.611 34.0365 195.68Z" fill="#263238"/>
<path d="M116.438 199.082V208.652L135.743 208.56C135.605 206.619 125.007 202.747 125.007 202.747L125.219 199.059L116.438 199.082Z" fill="#455A64"/>
<g opacity="0.6">
<path d="M119.568 201.88C119.38 201.949 119.223 202.083 119.126 202.258C119.03 202.434 119 202.638 119.042 202.834C119.086 203.026 119.204 203.194 119.371 203.3C119.537 203.406 119.739 203.442 119.932 203.401C120.131 203.326 120.297 203.182 120.398 202.995C120.5 202.807 120.531 202.59 120.485 202.382C120.451 202.287 120.398 202.199 120.33 202.124C120.262 202.049 120.18 201.988 120.088 201.945C119.996 201.903 119.897 201.878 119.796 201.874C119.695 201.87 119.593 201.886 119.499 201.921" fill="white"/>
</g>
<path d="M116.438 208.652V207.126L134.876 207.343C134.876 207.343 135.835 207.919 135.748 208.56L116.438 208.652Z" fill="#263238"/>
<path d="M125.011 202.931C125.011 203.033 124.55 203.083 124.09 203.392C123.629 203.701 123.393 204.139 123.306 204.102C123.218 204.065 123.352 203.484 123.91 203.102C124.468 202.719 125.03 202.839 125.011 202.931Z" fill="#263238"/>
<path d="M127.537 203.817C127.537 203.913 127.155 204.089 126.841 204.513C126.528 204.937 126.445 205.384 126.353 205.379C126.26 205.375 126.191 204.817 126.588 204.296C126.984 203.775 127.533 203.724 127.537 203.817Z" fill="#263238"/>
<path d="M128.677 206.255C128.59 206.278 128.452 205.794 128.677 205.236C128.903 204.678 129.346 204.466 129.387 204.549C129.429 204.632 129.162 204.927 128.977 205.379C128.793 205.831 128.77 206.245 128.677 206.255Z" fill="#263238"/>
<path d="M124.822 200.207C124.785 200.299 124.361 200.17 123.821 200.207C123.282 200.244 122.899 200.437 122.835 200.35C122.77 200.262 123.176 199.889 123.798 199.861C124.421 199.834 124.868 200.129 124.822 200.207Z" fill="#263238"/>
<path d="M124.931 203.36C124.983 203.169 124.997 202.971 124.972 202.775C124.93 202.237 124.754 201.719 124.46 201.267C124.26 200.957 124.003 200.687 123.704 200.47C123.616 200.394 123.509 200.344 123.395 200.323C123.281 200.303 123.163 200.314 123.054 200.354C122.941 200.418 122.847 200.509 122.78 200.62C122.713 200.73 122.675 200.857 122.672 200.986C122.702 201.485 122.879 201.965 123.181 202.363C123.482 202.762 123.896 203.062 124.368 203.226C124.831 203.373 125.327 203.378 125.792 203.24C126.257 203.102 126.67 202.827 126.977 202.452C127.128 202.279 127.246 202.078 127.323 201.862C127.362 201.737 127.362 201.604 127.323 201.479C127.302 201.417 127.267 201.36 127.222 201.313C127.176 201.265 127.121 201.227 127.06 201.203C126.86 201.144 126.645 201.165 126.461 201.263C126.301 201.335 126.147 201.42 126 201.516C125.566 201.807 125.193 202.177 124.898 202.609C124.778 202.761 124.687 202.935 124.631 203.12C125.031 202.559 125.529 202.075 126.101 201.691C126.36 201.544 126.701 201.332 126.973 201.429C127.093 201.475 127.139 201.618 127.083 201.784C127.013 201.964 126.91 202.13 126.779 202.272C126.5 202.604 126.129 202.845 125.713 202.965C125.297 203.086 124.855 203.081 124.442 202.95C124.029 202.804 123.666 202.543 123.396 202.199C123.126 201.854 122.959 201.44 122.916 201.004C122.913 200.921 122.932 200.839 122.972 200.766C123.012 200.693 123.07 200.632 123.142 200.59C123.215 200.566 123.294 200.561 123.369 200.576C123.445 200.59 123.516 200.624 123.575 200.673C123.854 200.866 124.096 201.108 124.29 201.387C124.58 201.8 124.774 202.272 124.857 202.77C124.917 203.153 124.908 203.36 124.931 203.36Z" fill="#263238"/>
<path d="M109.385 200.465L109.712 202.931L109.495 208.486L102.258 208.661L102 202.931L102.821 199.524L109.385 200.465Z" fill="#455A64"/>
<path d="M105.917 208.066C105.871 208.066 105.977 206.37 106.148 204.272C106.318 202.175 106.498 200.469 106.539 200.465C106.581 200.46 106.479 202.166 106.309 204.263C106.138 206.361 105.959 208.066 105.917 208.066Z" fill="#263238"/>
<path d="M109.522 207.559L102.211 207.647V208.661L109.527 208.656L109.522 207.559Z" fill="#263238"/>
<path d="M102.234 204.365C102.234 204.365 102.285 204.25 102.419 204.075C102.61 203.823 102.827 203.592 103.064 203.383C103.413 203.067 103.806 202.803 104.23 202.6C104.973 202.236 105.812 202.122 106.625 202.272C107.437 202.422 108.18 202.829 108.743 203.434C108.956 203.671 109.135 203.936 109.273 204.222C109.332 204.323 109.371 204.434 109.389 204.55C109.164 204.194 108.911 203.856 108.633 203.54C107.909 202.827 106.934 202.426 105.918 202.424C104.899 202.455 103.922 202.836 103.152 203.503C102.557 203.996 102.262 204.393 102.234 204.365Z" fill="#263238"/>
<path d="M105.891 45.4174L105.836 70.4297L116.572 70.9414L116.885 64.8566C116.885 64.8566 120.698 65.6126 121.68 62.0908C122.311 59.8274 122.14 42.3428 122.14 42.3428L105.891 45.4174Z" fill="#B78876"/>
<path d="M123.537 44.0988C121.845 44.5829 121.476 47.3256 121.476 47.3256L118.826 53.1846C117.475 52.129 115.659 52.1889 115.318 54.5675C115.069 56.2823 117.203 56.628 117.203 56.628C115.959 58.7439 115.12 60.4541 113.308 62.4639C111.363 64.6535 110.256 64.8702 108.136 64.8979H105.794C105.794 64.8979 104.646 61.1778 102.526 51.88C100.175 41.5635 112.372 42.8911 114.636 40.259C118.319 35.9765 128.88 42.573 123.537 44.0988Z" fill="#263238"/>
<path d="M126.514 41.8495C126.421 41.2993 126.134 40.8006 125.705 40.4431C125.277 40.0856 124.735 39.8928 124.177 39.8996C124.351 39.6056 124.416 39.2595 124.361 38.9222C124.305 38.5849 124.132 38.2781 123.873 38.0557C123.603 37.844 123.291 37.6932 122.957 37.6136C122.624 37.534 122.277 37.5276 121.941 37.5948C121.269 37.7308 120.62 37.9637 120.014 38.2862C119.788 37.6176 119.351 37.0403 118.77 36.6405C118.144 36.2737 117.425 36.096 116.7 36.1289C113.404 36.1289 111.671 38.383 109.901 40.6833C109.642 41.1118 109.273 41.4623 108.831 41.6974C108.51 41.7919 108.174 41.8293 107.84 41.808C106.581 41.8479 105.354 42.2192 104.284 42.8845C103.214 43.5498 102.339 44.4855 101.746 45.5972C100.594 47.8237 99.7315 52.9727 102.719 56.1995L104.516 60.2146L121.724 46.5791C121.849 46.6436 122.928 47.1691 123.757 46.7358C125.818 45.6479 124.951 43.8409 124.951 43.8409C125.117 43.7257 126.689 42.9558 126.514 41.8495Z" fill="#263238"/>
<path d="M110.588 55.2686C110.732 55.8962 110.712 56.5504 110.529 57.1678C110.432 57.8051 110.169 58.4059 109.768 58.9102C109.694 58.8733 110.04 58.1081 110.261 57.1078C110.482 56.1075 110.51 55.2686 110.588 55.2686Z" fill="#455A64"/>
<path d="M111.887 54.0371C111.977 54.6523 111.943 55.2794 111.786 55.881C111.717 56.4943 111.524 57.0872 111.219 57.6235C111.264 57.0179 111.364 56.4177 111.518 55.8303C111.584 55.2223 111.708 54.6218 111.887 54.0371Z" fill="#455A64"/>
<path d="M115.602 49.9072C115.63 49.9441 115.326 50.1654 114.939 50.6171C114.445 51.2155 114.054 51.8915 113.782 52.6177C113.517 53.3521 113.303 54.1037 113.141 54.8673C113.095 55.1856 113.005 55.496 112.873 55.7892C112.854 55.4599 112.88 55.1294 112.952 54.8073C113.061 54.0207 113.254 53.248 113.528 52.5025C113.809 51.7463 114.242 51.0559 114.8 50.4742C115.019 50.2243 115.294 50.0299 115.602 49.9072Z" fill="#455A64"/>
<path d="M117.105 47.1006C117.137 47.1006 117.248 47.3403 117.317 47.7736C117.395 48.3446 117.362 48.9252 117.22 49.4838C117.085 50.0434 116.839 50.5701 116.496 51.0327C116.234 51.3876 116.035 51.5582 115.994 51.5351C115.952 51.5121 116.653 50.6731 116.957 49.4193C117.262 48.1654 117.022 47.1098 117.105 47.1006Z" fill="#455A64"/>
<path d="M104.293 53.3465C104.256 53.4156 103.929 53.3004 103.56 53.093C103.192 52.8855 102.92 52.6689 102.956 52.5997C102.993 52.5306 103.321 52.6504 103.689 52.8579C104.058 53.0653 104.33 53.282 104.293 53.3465Z" fill="#455A64"/>
<path d="M109.477 50.6773C109.519 51.0655 109.41 51.455 109.173 51.7652C108.841 52.3137 108.394 52.5995 108.348 52.5442C108.302 52.4889 108.638 52.1294 108.938 51.6223C109.238 51.1152 109.399 50.6589 109.477 50.6773Z" fill="#455A64"/>
<path d="M111.075 49.8203C111.069 50.2927 110.907 50.7499 110.614 51.1203C110.185 51.7748 109.646 52.1252 109.604 52.0422C109.563 51.9592 109.987 51.5812 110.388 50.9497C110.595 50.5602 110.824 50.1831 111.075 49.8203Z" fill="#455A64"/>
<path d="M119.01 39.338C119.01 39.338 118.807 39.1858 118.42 38.9646C117.866 38.6707 117.249 38.5127 116.622 38.5036C115.692 38.4789 114.775 38.7239 113.981 39.2089C113.027 39.8353 112.253 40.6996 111.736 41.7166C111.34 42.4608 111.03 43.248 110.814 44.0629L110.768 44.2196L110.625 44.1413C109.886 43.7544 109.067 43.5446 108.232 43.5282C107.57 43.5131 106.91 43.6129 106.282 43.8232C105.724 44.0305 105.189 44.2979 104.688 44.6207C104.791 44.4974 104.912 44.3902 105.047 44.3026C105.409 44.0387 105.807 43.8261 106.227 43.6711C106.867 43.4273 107.547 43.3038 108.232 43.3069C109.107 43.3047 109.97 43.5118 110.749 43.9108L110.56 43.9938C110.773 43.1586 111.083 42.3511 111.482 41.5875C112.022 40.5289 112.835 39.6343 113.838 38.9968C114.672 38.5 115.634 38.261 116.604 38.31C117.257 38.338 117.892 38.5332 118.447 38.877C118.596 38.9708 118.733 39.0806 118.858 39.2043C118.973 39.2872 119.014 39.3333 119.01 39.338Z" fill="#455A64"/>
<path d="M124.652 40.7014C124.629 40.7014 124.947 40.6185 125.265 40.978C125.357 41.0854 125.426 41.21 125.469 41.3446C125.512 41.4792 125.527 41.621 125.514 41.7617C125.486 41.9492 125.415 42.1276 125.306 42.2828C125.197 42.438 125.054 42.5658 124.887 42.656C124.491 42.8805 124.024 42.9449 123.583 42.8357C123.097 42.7078 122.641 42.4854 122.241 42.1812C121.821 41.8464 121.381 41.5385 120.923 41.2592C120.427 40.991 119.892 40.8028 119.337 40.7014C118.26 40.5074 117.151 40.5835 116.11 40.9227C115.255 41.2044 114.449 41.6148 113.718 42.1397C112.464 43.0386 111.846 43.7946 111.805 43.7531C111.929 43.5619 112.072 43.3842 112.233 43.223C112.655 42.7682 113.118 42.3531 113.616 41.9829C114.351 41.4223 115.171 40.9834 116.046 40.683C117.128 40.316 118.286 40.2304 119.411 40.4341C119.993 40.5412 120.555 40.7404 121.075 41.0241C121.538 41.3023 121.983 41.6102 122.407 41.9461C122.778 42.2377 123.202 42.4538 123.656 42.5822C124.045 42.6891 124.46 42.6447 124.818 42.4577C124.963 42.384 125.089 42.2785 125.187 42.1492C125.285 42.0199 125.353 41.8701 125.385 41.711C125.418 41.4644 125.353 41.2146 125.205 41.0149C125.064 40.8481 124.868 40.737 124.652 40.7014Z" fill="#455A64"/>
<path d="M174.667 59.9006C174.261 59.541 168.794 61.8321 168.794 61.8321C168.794 61.8321 164.714 65.0589 163.036 66.9258L161.999 67.7878L146.483 79.8514L127.399 71.9135L123.25 82.5573C123.25 82.5573 144.676 91.0899 147.94 89.6286C151.484 88.0429 164.691 74.2183 164.724 74.1722L166.632 72.3284C166.632 72.3284 167.641 72.3284 168.407 72.2638C169.172 72.1993 171.412 70.7288 171.412 70.7288C171.625 70.3197 171.771 69.8793 171.846 69.4243C171.892 69.243 171.877 69.0513 171.802 68.8799C171.727 68.7085 171.596 68.5674 171.431 68.4793C171.509 68.125 171.521 67.7594 171.468 67.4006C171.38 66.7921 170.546 66.0868 170.546 66.0868C170.806 65.8218 170.983 65.4872 171.057 65.1234C171.242 64.4181 170.334 63.7405 170.334 63.7405C170.334 63.7405 173.51 61.5831 174.279 61.2005C175.049 60.8179 175.072 60.2602 174.667 59.9006Z" fill="#B78876"/>
<path d="M130.207 168.935C130.272 168.234 130.304 167.695 130.304 167.358L132.461 132.956C132.461 132.956 130.65 122.907 129.792 120.242L122.09 117.26L111.824 121.256C111.759 120.431 111.718 119.92 111.718 119.92L96.6116 125.147C96.6116 125.147 96.2198 135.459 96.6116 138.598C96.7407 139.608 97.1325 142.212 97.612 145.282C97.612 145.282 98.1006 151.952 98.202 152.326C98.5662 153.686 98.663 157.019 98.663 160.356C98.663 164.597 98.8935 169.644 99.1608 172.042C99.4282 174.439 99.5526 200.825 99.5526 200.825H110.708L112.142 158.802C112.381 154.299 112.741 147.412 112.971 142.429L115.59 157.945C115.59 158.512 117.185 167.386 117.185 167.386C116.817 170.178 116.589 172.988 116.503 175.803C116.318 183.64 115.401 200.825 115.401 200.825H126.317C126.317 200.825 129.599 175.987 130.235 168.935H130.207Z" fill="#263238"/>
<path d="M132.107 130.896C131.749 130.76 131.409 130.579 131.097 130.356C130.323 129.86 129.6 129.287 128.94 128.646C128.28 128.007 127.684 127.304 127.161 126.549C126.925 126.247 126.734 125.914 126.594 125.558C126.847 125.838 127.081 126.136 127.294 126.447C127.85 127.166 128.456 127.846 129.106 128.48C129.757 129.108 130.452 129.689 131.185 130.218C131.508 130.422 131.816 130.648 132.107 130.896Z" fill="#455A64"/>
<path d="M112.62 137.146C112.532 137.044 112.461 136.929 112.408 136.805C112.236 136.482 112.082 136.149 111.947 135.81C111.48 134.691 111.138 133.523 110.928 132.329C110.723 131.135 110.649 129.921 110.707 128.711C110.734 128.25 110.771 127.876 110.813 127.618C110.821 127.482 110.85 127.348 110.9 127.222C110.937 127.222 110.9 127.798 110.877 128.715C110.863 129.912 110.959 131.108 111.163 132.288C111.367 133.467 111.675 134.625 112.085 135.75C112.412 136.612 112.652 137.128 112.62 137.146Z" fill="#455A64"/>
<path d="M114.24 150.099C114.172 149.905 114.124 149.704 114.098 149.5C114.018 149.063 113.916 148.515 113.793 147.854C113.554 146.411 113.231 144.512 112.871 142.41C112.254 138.552 111.834 135.924 111.641 134.703C111.891 135.425 112.067 136.171 112.166 136.929C112.433 138.312 112.765 140.244 113.116 142.369C113.466 144.494 113.756 146.43 113.959 147.826C114.047 148.49 114.125 149.043 114.185 149.486C114.226 149.688 114.245 149.893 114.24 150.099Z" fill="#455A64"/>
<path d="M87.9121 92.7178C87.9121 92.7178 86.4416 103.085 86.165 106.717C85.9991 108.907 88.221 111.788 89.9173 112.023C91.6137 112.258 97.3297 112.576 97.3297 112.576L97.7907 106.072L97.6432 104.777L95.8685 104.445L96.4032 94.1283L87.9121 92.7178Z" fill="#B78876"/>
<path d="M96.1767 94.4785C96.2224 94.6625 96.2456 94.8513 96.2459 95.0409C96.2735 95.4051 96.292 95.9306 96.3058 96.5852C96.3381 97.8851 96.3058 99.6875 96.1952 101.656C96.0845 103.624 95.9232 105.436 95.7987 106.727C95.7296 107.372 95.6743 107.897 95.6282 108.257C95.6178 108.446 95.5853 108.633 95.5314 108.815C95.5104 108.626 95.5104 108.436 95.5314 108.248C95.5544 107.833 95.5867 107.326 95.6236 106.708C95.7112 105.357 95.8218 103.592 95.9463 101.637C96.0707 99.6829 96.1168 97.8667 96.1306 96.5667C96.1306 95.9582 96.1306 95.4419 96.1306 95.0271C96.1268 94.8431 96.1422 94.6593 96.1767 94.4785Z" fill="#AA6550"/>
<g opacity="0.3">
<path d="M96.736 125.336C99.6401 126.415 102.821 126.502 105.905 126.235C108.989 125.968 112.04 125.345 115.124 125.055C119.798 124.618 124.511 124.929 129.087 125.977C129.406 126.074 129.742 126.105 130.073 126.069C130.238 126.048 130.393 125.978 130.517 125.868C130.641 125.758 130.729 125.612 130.769 125.451C130.852 124.935 130.285 124.576 129.806 124.377C124.53 122.195 118.858 121.134 113.15 121.261C107.442 121.388 101.822 122.7 96.6484 125.115" fill="black"/>
</g>
<path d="M141.209 76.6251L124.836 68.4752C122.254 68.1722 119.653 68.0582 117.055 68.134H106.217C106.217 68.134 93.0887 72.0062 90.9175 75.5787L85.2891 92.4503L96.4169 94.1282L97.7998 106.252C97.7998 106.252 96.4169 120.288 96.4169 122.326C96.3867 123.269 96.4438 124.214 96.5875 125.147C96.5875 125.147 118.852 121.763 124.333 123.547C129.814 125.331 131.294 125.147 131.294 125.147C131.294 125.147 130.833 119.32 130.432 115.928L129.169 99.0099L128.247 86.1027L138.55 89.2557L141.209 76.6251Z" fill="#7B3DFF"/>
<path d="M96.3148 94.2616C96.2733 94.2616 96.1627 93.5656 95.9183 92.4408C95.5929 90.9778 95.1615 89.5404 94.6276 88.1399C94.0824 86.7289 93.4449 85.3553 92.7192 84.0281L92.0462 82.8203C91.9509 82.6773 91.875 82.5223 91.8203 82.3594C91.9407 82.4832 92.0459 82.621 92.1338 82.7696C92.3228 83.0416 92.5947 83.4427 92.8759 83.9497C93.6542 85.2603 94.3204 86.6343 94.8673 88.057C95.4066 89.4675 95.817 90.924 96.0935 92.4085C96.1949 92.9755 96.2595 93.4365 96.2917 93.7592C96.3201 93.9251 96.3279 94.0938 96.3148 94.2616Z" fill="#263238"/>
<path d="M117.318 99.0518C117.309 99.1296 117.289 99.2057 117.258 99.2776L117.05 99.8999C116.958 100.172 116.843 100.499 116.691 100.877C116.539 101.255 116.377 101.689 116.165 102.149C115.764 103.071 115.243 104.187 114.589 105.376C113.934 106.566 113.16 107.829 112.284 109.11C111.408 110.392 110.44 111.549 109.569 112.572C108.697 113.595 107.826 114.457 107.079 115.158C106.715 115.518 106.36 115.817 106.061 116.08C105.761 116.343 105.489 116.578 105.268 116.758L104.751 117.163C104.693 117.214 104.63 117.259 104.562 117.297C104.562 117.297 104.613 117.232 104.724 117.126L105.208 116.665C105.42 116.481 105.669 116.246 105.973 115.965C106.277 115.684 106.609 115.379 106.964 115.015C107.692 114.305 108.522 113.42 109.403 112.406C110.283 111.392 111.196 110.221 112.09 108.953C112.984 107.686 113.75 106.418 114.395 105.266C115.04 104.113 115.589 103.007 116.008 102.08C116.23 101.619 116.4 101.191 116.562 100.822C116.723 100.453 116.857 100.13 116.963 99.8631C117.069 99.5957 117.142 99.4021 117.212 99.2546C117.238 99.1828 117.274 99.1147 117.318 99.0518Z" fill="#263238"/>
<path d="M124.873 69.5908C124.443 70.2067 124.149 70.9078 124.011 71.6468C123.873 72.4475 123.873 73.2661 124.011 74.0669C124.19 75.0526 124.421 76.0281 124.703 76.9894C125.27 79.0546 125.864 80.8938 126.321 82.2214C126.537 82.8483 126.717 83.3739 126.865 83.7933C126.941 83.9826 127 84.1786 127.04 84.3788C126.932 84.2039 126.843 84.0185 126.773 83.8256C126.62 83.466 126.404 82.9405 126.155 82.2814C125.657 80.9676 125.03 79.1237 124.463 77.0539C124.187 76.0885 123.967 75.1081 123.804 74.1176C123.669 73.2937 123.681 72.4524 123.841 71.6329C123.954 71.0799 124.17 70.553 124.477 70.0795C124.578 69.8938 124.713 69.7282 124.873 69.5908Z" fill="#263238"/>
<path d="M93.9808 87.3518C93.7379 87.6141 93.4384 87.8175 93.1049 87.9464C92.3216 88.3059 91.4501 88.4281 90.5981 88.2979C89.7461 88.1676 88.951 87.7906 88.3108 87.2135C88.0319 86.9927 87.8078 86.7102 87.6562 86.3884C87.6885 86.3607 87.9282 86.688 88.4215 87.0844C89.0631 87.6031 89.8312 87.9418 90.6469 88.0658C91.4627 88.1897 92.2967 88.0944 93.0634 87.7897C93.6304 87.5592 93.9577 87.3195 93.9808 87.3518Z" fill="white"/>
<path d="M125.364 79.7412C125.332 79.8638 125.287 79.9828 125.231 80.0962C125.129 80.3266 124.973 80.6585 124.747 81.0734C124.098 82.25 123.278 83.3235 122.313 84.2587C120.871 85.6584 119.072 86.6357 117.113 87.0845C115.958 87.3492 114.765 87.4007 113.591 87.2366C112.336 87.0368 111.128 86.6071 110.028 85.9689C107.765 84.7059 105.852 83.1063 103.759 82.3411C101.908 81.6568 99.8932 81.5459 97.9782 82.023C96.6857 82.3332 95.4659 82.8921 94.3872 83.6687C93.6312 84.2265 93.2763 84.6183 93.2578 84.5906C93.5805 84.2212 93.9404 83.886 94.3319 83.5903C95.6701 82.5762 97.2399 81.9115 98.8995 81.6564C100.559 81.4012 102.256 81.5637 103.837 82.129C105.981 82.9035 107.907 84.5077 110.143 85.7523C111.216 86.3844 112.396 86.8156 113.624 87.0246C114.77 87.1859 115.937 87.139 117.067 86.8863C118.991 86.455 120.763 85.5104 122.193 84.1527C123.161 83.2407 123.993 82.1944 124.664 81.0458C124.899 80.6401 125.074 80.3128 125.185 80.0916C125.235 79.9702 125.295 79.8531 125.364 79.7412Z" fill="white"/>
<path d="M135.614 73.8271C135.705 73.9966 135.776 74.176 135.826 74.3619C135.978 74.8606 136.068 75.3762 136.093 75.8969C136.183 77.6429 135.63 79.3613 134.54 80.7279C133.907 81.4291 133.219 82.0795 132.484 82.6732C131.907 83.1572 131.436 83.7551 131.101 84.4295C130.875 84.8837 130.768 85.3884 130.792 85.8954C130.82 86.2549 130.898 86.4485 130.875 86.4531C130.852 86.4578 130.843 86.4117 130.806 86.3195C130.754 86.186 130.718 86.0467 130.7 85.9046C130.637 85.3771 130.721 84.8425 130.944 84.3603C131.268 83.6541 131.74 83.0253 132.327 82.5165C133.043 81.9201 133.716 81.2747 134.342 80.585C135.394 79.2576 135.95 77.6044 135.914 75.9107C135.878 75.2084 135.778 74.5109 135.614 73.8271Z" fill="white"/>
<path d="M108.984 112.691C108.839 112.769 108.684 112.826 108.523 112.862C108.079 112.989 107.626 113.085 107.168 113.148C106.478 113.262 105.771 113.221 105.098 113.028C104.7 112.901 104.331 112.694 104.015 112.419C103.698 112.118 103.402 111.795 103.13 111.451C102.863 111.125 102.553 110.836 102.208 110.594C101.88 110.38 101.525 110.209 101.153 110.087C100.515 109.883 99.8401 109.819 99.175 109.898C98.7241 109.948 98.2848 110.072 97.875 110.267C97.7272 110.349 97.573 110.42 97.4141 110.479C97.5347 110.358 97.675 110.258 97.8289 110.184C98.2369 109.948 98.6858 109.792 99.1519 109.723C99.8422 109.612 100.549 109.661 101.217 109.866C101.613 109.987 101.99 110.164 102.337 110.391C102.706 110.639 103.035 110.941 103.314 111.285C103.579 111.619 103.866 111.935 104.172 112.23C104.464 112.487 104.804 112.685 105.172 112.811C105.815 113.001 106.49 113.056 107.154 112.973C108.275 112.839 108.975 112.65 108.984 112.691Z" fill="white"/>
<path d="M130.182 111.71C130.138 111.757 130.089 111.799 130.034 111.834C129.887 111.945 129.733 112.046 129.573 112.139C129.001 112.488 128.379 112.751 127.73 112.918C126.753 113.169 125.737 113.228 124.738 113.093C123.505 112.926 122.335 112.45 121.336 111.71C120.386 110.943 119.478 110.126 118.616 109.262C117.911 108.576 117.094 108.015 116.201 107.603C115.601 107.325 114.948 107.18 114.288 107.179C113.827 107.179 113.559 107.257 113.555 107.229C113.613 107.202 113.675 107.182 113.739 107.169C113.917 107.121 114.099 107.092 114.283 107.082C114.964 107.051 115.644 107.175 116.27 107.446C117.192 107.846 118.036 108.407 118.764 109.101C119.607 109.848 120.446 110.756 121.479 111.516C122.446 112.228 123.576 112.687 124.765 112.853C125.739 112.994 126.729 112.955 127.688 112.738C128.33 112.585 128.949 112.351 129.532 112.042C129.742 111.918 129.959 111.807 130.182 111.71Z" fill="white"/>
<path d="M169.365 46.0249C166.017 44.4234 163.094 42.0537 160.836 39.1088C158.577 36.1639 157.046 32.7271 156.367 29.0784C155.687 25.4296 155.88 21.6721 156.928 18.1118C157.976 14.5514 159.851 11.2891 162.398 8.5903C164.946 5.89154 168.095 3.83274 171.589 2.58156C175.084 1.33039 178.824 0.922232 182.506 1.39033C186.187 1.85843 189.707 3.18955 192.776 5.27528C195.846 7.36101 198.38 10.1424 200.172 13.3928C202.584 17.764 203.546 22.7886 202.918 27.7417C202.289 32.6949 200.104 37.3203 196.676 40.9509C193.249 44.5814 188.757 47.0292 183.848 47.9412C178.939 48.8532 173.868 48.1821 169.365 46.0249ZM189.012 4.93398C184.283 2.67674 178.903 2.18314 173.843 3.54218C168.782 4.90122 164.374 8.02348 161.412 12.346C158.45 16.6686 157.13 21.9071 157.69 27.1169C158.25 32.3268 160.652 37.1653 164.465 40.7601C168.277 44.3549 173.248 46.4695 178.482 46.7226C183.715 46.9756 188.867 45.3506 193.009 42.1404C197.15 38.9302 200.008 34.3461 201.068 29.2145C202.128 24.0829 201.32 18.7416 198.789 14.1534C196.572 10.1347 193.153 6.91074 189.012 4.93398Z" fill="#263238"/>
<path d="M209.136 71.8124C208.475 72.2192 207.679 72.3472 206.923 72.1684C206.167 71.9895 205.512 71.5184 205.103 70.8581L189.693 45.8781C189.623 45.765 189.6 45.6287 189.63 45.499C189.661 45.3694 189.741 45.257 189.854 45.1867L193.141 43.1584C193.253 43.09 193.387 43.0676 193.515 43.096C193.643 43.1243 193.755 43.2012 193.828 43.3105L210.035 67.6636C210.258 67.9921 210.412 68.3623 210.488 68.752C210.563 69.1417 210.559 69.5426 210.475 69.9305C210.391 70.3185 210.229 70.6853 209.999 71.0087C209.769 71.3322 209.475 71.6056 209.136 71.8124Z" fill="#263238"/>
<path d="M169.932 44.8361C166.582 43.2354 163.657 40.8659 161.396 37.9207C159.136 34.9754 157.603 31.5377 156.922 27.8877C156.242 24.2377 156.434 20.4785 157.482 16.9166C158.53 13.3547 160.405 10.0908 162.953 7.39081C165.502 4.69079 168.652 2.63108 172.148 1.3795C175.643 0.127908 179.385 -0.280149 183.068 0.188571C186.751 0.657291 190.272 1.98953 193.343 4.07674C196.413 6.16394 198.947 8.94707 200.738 12.1994C203.149 16.5708 204.11 21.595 203.481 26.5475C202.852 31.5 200.667 36.1249 197.24 39.7553C193.813 43.3856 189.322 45.8339 184.414 46.7471C179.506 47.6602 174.435 46.9911 169.932 44.8361ZM189.578 3.74515C184.85 1.4879 179.47 0.994301 174.409 2.35334C169.349 3.71238 164.94 6.83465 161.979 11.1572C159.017 15.4798 157.697 20.7182 158.257 25.9281C158.816 31.138 161.219 35.9765 165.031 39.5713C168.844 43.1661 173.815 45.2807 179.049 45.5337C184.282 45.7868 189.434 44.1618 193.576 40.9515C197.717 37.7413 200.575 33.1572 201.635 28.0257C202.695 22.8941 201.886 17.5527 199.356 12.9646C197.139 8.94584 193.72 5.7219 189.578 3.74515Z" fill="#455A64"/>
<path d="M190 44.2297L194.131 41.6812L210.519 68.2456C210.84 68.7658 210.941 69.3923 210.8 69.9871C210.659 70.5819 210.287 71.0964 209.767 71.4173L209.528 71.5649C209.008 71.8859 208.381 71.987 207.786 71.8461C207.191 71.7051 206.677 71.3337 206.356 70.8134L189.969 44.249L190 44.2297Z" fill="#455A64"/>
<path d="M162.5 17.9791C162.522 17.7331 162.565 17.4894 162.629 17.2508C162.684 16.9669 162.756 16.6867 162.846 16.4118C162.95 16.0416 163.073 15.677 163.214 15.3193L163.45 14.697C163.537 14.4804 163.652 14.2683 163.758 14.0378C163.966 13.5769 164.247 13.1159 164.528 12.6319C165.182 11.5937 165.939 10.6239 166.787 9.73697C167.651 8.86751 168.599 8.08616 169.617 7.40445C170.065 7.11257 170.526 6.84333 171 6.59776C171.222 6.48251 171.434 6.36266 171.646 6.26586L172.263 6.0031C172.616 5.85172 172.976 5.71939 173.342 5.60667C173.615 5.50852 173.893 5.42845 174.176 5.36696C174.414 5.2996 174.656 5.24877 174.9 5.21484C174.673 5.31082 174.439 5.38941 174.199 5.44994C173.922 5.5263 173.65 5.61864 173.384 5.72652C173.024 5.84912 172.672 5.99069 172.328 6.15061L171.724 6.42259C171.512 6.51939 171.305 6.64385 171.088 6.7591C170.627 6.98497 170.203 7.27999 169.728 7.57502C168.734 8.25249 167.808 9.02436 166.962 9.87987C166.125 10.7544 165.373 11.7068 164.717 12.7241C164.436 13.185 164.15 13.646 163.938 14.107C163.832 14.3282 163.712 14.5357 163.62 14.7477L163.362 15.3608C163.187 15.7434 163.081 16.1122 162.966 16.4303C162.867 16.7002 162.783 16.9757 162.717 17.2554C162.664 17.502 162.591 17.7441 162.5 17.9791Z" fill="#E0E0E0"/>
</svg>
