<svg width="24" height="24" viewBox="0 0 24 24" fill="none" xmlns="http://www.w3.org/2000/svg">
<path d="M20.4601 5.08821C20.445 4.96846 20.3244 4.91524 20.2339 4.90193C20.1434 4.88863 18.3338 4.87532 18.3338 4.87532C18.3338 4.87532 16.8107 3.5714 16.6599 3.43834C16.509 3.30529 16.2225 3.34521 16.1019 3.37182C16.1019 3.37182 15.8153 3.45165 15.3328 3.5847C15.2574 3.35851 15.1367 3.0791 14.9708 2.79969C14.4279 1.88162 13.6438 1.40263 12.6786 1.40263C12.6183 1.40263 12.5429 1.40263 12.4826 1.41593C12.4524 1.38932 12.4223 1.36271 12.3921 1.32279C11.9698 0.923634 11.442 0.737359 10.8086 0.750665C9.57205 0.777275 8.35054 1.56229 7.34015 2.97266C6.63137 3.95725 6.10355 5.19465 5.95275 6.15263C4.53519 6.53849 3.53988 6.8046 3.5248 6.8179C2.81602 7.01748 2.78586 7.03079 2.69538 7.62953C2.61997 8.0686 0.75 20.855 0.75 20.855L16.4487 23.25L23.25 21.7598C23.25 21.7598 20.4752 5.19465 20.4601 5.08821ZM14.5486 3.79759C14.1867 3.89073 13.7795 4.01047 13.3271 4.13022C13.312 3.5847 13.2366 2.81299 12.9501 2.14773C13.9001 2.30739 14.3525 3.23876 14.5486 3.79759ZM12.5127 4.35641C11.6833 4.5826 10.7936 4.8221 9.88874 5.0749C10.1451 4.22336 10.6277 3.37182 11.2158 2.81299C11.442 2.60011 11.7436 2.37392 12.1056 2.24086C12.4524 2.86621 12.5127 3.75767 12.5127 4.35641ZM10.8237 1.48246C11.1103 1.48246 11.3515 1.53568 11.5627 1.65543C11.2309 1.80179 10.8991 2.02798 10.5975 2.3207C9.81334 3.06579 9.21012 4.21005 8.96883 5.3277C8.21481 5.52728 7.49095 5.72686 6.81233 5.91314C7.26475 4.15683 8.92359 1.53568 10.8237 1.48246Z" fill="#95BF47"/>
<path d="M20.2339 4.90193C20.1434 4.88863 18.3338 4.87532 18.3338 4.87532C18.3338 4.87532 16.8107 3.5714 16.6599 3.43834C16.5995 3.38512 16.5238 3.35854 16.4484 3.35854L16.4487 23.25L23.25 21.7598C23.25 21.7598 20.4752 5.20795 20.4601 5.08821C20.43 4.96846 20.3244 4.91524 20.2339 4.90193Z" fill="#5E8E3E"/>
<path d="M12.6782 7.9887L11.8941 10.5965C11.8941 10.5965 11.0194 10.2373 9.96377 10.3038C8.42556 10.3837 8.41048 11.2352 8.42556 11.4614C8.51604 12.6323 11.9845 12.8851 12.1806 15.6127C12.3314 17.7681 10.8837 19.2317 8.80257 19.3515C6.29922 19.4845 4.9269 18.1939 4.9269 18.1939L5.45472 16.2114C5.45472 16.2114 6.84212 17.1295 7.94299 17.0762C8.66685 17.0363 8.92322 16.5174 8.89305 16.1449C8.78749 14.6281 5.95237 14.7079 5.77141 12.2198C5.6206 10.1176 7.18897 7.9887 10.6424 7.78912C11.9996 7.68268 12.6782 7.9887 12.6782 7.9887Z" fill="white"/>
</svg>
