<svg width="200" height="60" viewBox="0 0 200 60" fill="none" xmlns="http://www.w3.org/2000/svg">
<path d="M43.9556 12.3475C43.9233 12.0535 43.6648 11.9229 43.4708 11.8902C43.2769 11.8576 39.3984 11.8249 39.3984 11.8249C39.3984 11.8249 36.1339 8.62408 35.8107 8.29747C35.4875 7.97086 34.8734 8.06884 34.6148 8.13416C34.6148 8.13416 34.0007 8.33013 32.9665 8.65674C32.8049 8.1015 32.5463 7.41561 32.1908 6.72972C31.0272 4.47609 29.3465 3.30028 27.2779 3.30028C27.1487 3.30028 26.987 3.30028 26.8578 3.33294C26.7931 3.26762 26.7285 3.2023 26.6638 3.10431C25.7588 2.12447 24.6276 1.66721 23.2701 1.69987C20.6198 1.7652 18.0018 3.69222 15.8363 7.15432C14.3172 9.57126 13.1859 12.6088 12.8627 14.9604C9.82452 15.9076 7.69133 16.5608 7.659 16.5935C6.13991 17.0834 6.07527 17.116 5.88134 18.5858C5.71974 19.6636 1.71191 51.0512 1.71191 51.0512L35.3582 56.9302L49.9351 53.2722C49.9351 53.2722 43.988 12.6088 43.9556 12.3475ZM31.2858 9.17933C30.5101 9.40796 29.6374 9.70191 28.6677 9.99586C28.6354 8.65674 28.4738 6.76239 27.8597 5.12932C29.896 5.52125 30.8656 7.80755 31.2858 9.17933ZM26.9224 10.5511C25.1447 11.1063 23.2378 11.6943 21.2985 12.3148C21.848 10.2245 22.8823 8.13416 24.1428 6.76239C24.6276 6.2398 25.274 5.68456 26.0497 5.35795C26.7931 6.89303 26.9224 9.08134 26.9224 10.5511ZM23.3024 3.49625C23.9165 3.49625 24.4337 3.62689 24.8862 3.92085C24.1751 4.28012 23.464 4.83536 22.8176 5.55391C21.1369 7.38295 19.8441 10.1918 19.3269 12.9354C17.7109 13.4253 16.1595 13.9152 14.705 14.3725C15.6746 10.0612 19.23 3.62689 23.3024 3.49625Z" fill="#95BF47"/>
<path d="M43.47 11.8903C43.2761 11.8576 39.3976 11.825 39.3976 11.825C39.3976 11.825 36.1331 8.62414 35.8099 8.29753C35.6806 8.16689 35.519 8.10156 35.3574 8.10156V56.9303L49.9343 53.2722C49.9343 53.2722 43.9872 12.6415 43.9548 12.3475C43.8902 12.0536 43.664 11.9229 43.47 11.8903Z" fill="#5E8E3E"/>
<path d="M27.2771 19.4675L25.5964 25.8691C25.5964 25.8691 23.7218 24.9873 21.4593 25.1506C18.1626 25.3465 18.1302 27.4369 18.1626 27.9921C18.3565 30.8663 25.7904 31.4869 26.2105 38.1824C26.5337 43.4736 23.4309 47.0663 18.9706 47.3603C13.6053 47.6869 10.6641 44.5187 10.6641 44.5187L11.7953 39.6522C11.7953 39.6522 14.7688 41.9058 17.1283 41.7752C18.6797 41.6772 19.2292 40.4034 19.1645 39.4889C18.9383 35.7655 12.8619 35.9615 12.474 29.8538C12.1508 24.6933 15.5122 19.4675 22.9138 18.9776C25.8227 18.7163 27.2771 19.4675 27.2771 19.4675Z" fill="white"/>
<path d="M69.6828 33.1202C68.0021 32.2057 67.1295 31.4218 67.1295 30.344C67.1295 28.9722 68.3253 28.0903 70.2323 28.0903C72.4301 28.0903 74.3694 29.0048 74.3694 29.0048L75.9208 24.2363C75.9208 24.2363 74.4987 23.1258 70.3293 23.1258C64.5115 23.1258 60.4713 26.4899 60.4713 31.2258C60.4713 33.904 62.3459 35.9617 64.867 37.4315C66.9032 38.6073 67.6143 39.4238 67.6143 40.6649C67.6143 41.9387 66.6123 42.9512 64.7054 42.9512C61.8934 42.9512 59.2431 41.4815 59.2431 41.4815L57.5947 46.25C57.5947 46.25 60.0511 47.9158 64.1559 47.9158C70.1353 47.9158 74.434 44.9436 74.434 39.5871C74.4664 36.6803 72.3008 34.6226 69.6828 33.1202ZM93.5358 23.0605C90.5946 23.0605 88.2675 24.4649 86.4898 26.6206L86.3929 26.5879L88.9462 13.0661H82.2881L75.8239 47.4585H82.482L84.7122 35.7004C85.5848 31.2585 87.8473 28.5149 89.9805 28.5149C91.4673 28.5149 92.0491 29.5274 92.0491 30.9972C92.0491 31.9117 91.9521 33.0548 91.7582 33.9694L89.2371 47.4258H95.8953L98.5133 33.5121C98.8042 32.0423 98.9981 30.2786 98.9981 29.1355C98.9981 25.3794 96.9942 23.0605 93.5358 23.0605ZM114.06 23.0605C106.044 23.0605 100.743 30.3766 100.743 38.542C100.743 43.7678 103.943 47.9484 109.923 47.9484C117.777 47.9484 123.11 40.8283 123.11 32.4669C123.077 27.6657 120.265 23.0605 114.06 23.0605ZM110.763 42.7879C108.501 42.7879 107.531 40.8283 107.531 38.4113C107.531 34.5573 109.502 28.2536 113.122 28.2536C115.482 28.2536 116.258 30.3113 116.258 32.3036C116.258 36.4516 114.286 42.7879 110.763 42.7879ZM140.111 23.0605C135.618 23.0605 133.065 27.0452 133.065 27.0452H132.968L133.355 23.4197H127.473C127.182 25.8693 126.665 29.5601 126.116 32.3363L121.494 56.963H128.152L129.994 47.0013H130.123C130.123 47.0013 131.481 47.8831 134.034 47.8831C141.856 47.8831 146.963 39.7831 146.963 31.5851C146.995 27.1105 144.991 23.0605 140.111 23.0605ZM133.743 42.8859C131.998 42.8859 130.996 41.9061 130.996 41.9061L132.095 35.6024C132.871 31.4218 135.036 28.6129 137.363 28.6129C139.4 28.6129 140.014 30.5073 140.014 32.3363C140.014 36.6803 137.46 42.8859 133.743 42.8859ZM156.497 13.4254C154.364 13.4254 152.684 15.1238 152.684 17.3447C152.684 19.3371 153.944 20.7089 155.819 20.7089H155.916C157.984 20.7089 159.794 19.3044 159.827 16.7895C159.827 14.8298 158.534 13.4254 156.497 13.4254ZM147.189 47.4585H153.847L158.372 23.6157H151.649L147.189 47.4585ZM175.308 23.5504H170.686L170.913 22.4399C171.301 20.1536 172.658 18.0959 174.856 18.0959C176.052 18.0959 176.989 18.4226 176.989 18.4226L178.282 13.1641C178.282 13.1641 177.118 12.5762 174.662 12.5762C172.302 12.5762 169.943 13.2621 168.133 14.8298C165.871 16.7895 164.804 19.5984 164.255 22.4399L164.061 23.5504H160.958L159.988 28.6129H163.091L159.568 47.4585H166.226L169.749 28.6129H174.339L175.308 23.5504ZM191.34 23.6157C191.34 23.6157 187.17 34.2307 185.296 40.0117H185.199C185.069 38.15 183.55 23.6157 183.55 23.6157H176.569L180.577 45.5315C180.674 46.0214 180.609 46.3154 180.447 46.642C179.672 48.1444 178.379 49.6142 176.827 50.692C175.567 51.6065 174.177 52.1944 173.046 52.5863L174.888 58.3021C176.246 58.0081 179.025 56.8976 181.417 54.644C184.455 51.7698 187.267 47.3279 190.144 41.2855L198.289 23.6157H191.34Z" fill="black"/>
</svg>
