<svg width="32" height="24" viewBox="0 0 32 24" fill="none" xmlns="http://www.w3.org/2000/svg">
<rect width="32" height="24" rx="4" fill="#00579F"/>
<path d="M11.8312 15.9201L13.0956 9.13864H15.118L13.8527 15.9201H11.8312ZM21.159 9.28482C20.7584 9.14744 20.1305 9 19.3465 9C17.3482 9 15.9405 9.91974 15.9286 11.238C15.9172 12.2124 16.9335 12.756 17.7005 13.0804C18.4878 13.4128 18.7523 13.6248 18.7486 13.9216C18.7437 14.3762 18.12 14.5838 17.5388 14.5838C16.7293 14.5838 16.2993 14.4811 15.6351 14.2279L15.3745 14.1201L15.0907 15.6382C15.563 15.8275 16.4365 15.9915 17.3434 16C19.4693 16 20.8492 15.0908 20.865 13.6831C20.8726 12.9116 20.3338 12.3246 19.167 11.8406C18.4602 11.5269 18.0273 11.3175 18.0318 10.9999C18.0318 10.718 18.3983 10.4165 19.19 10.4165C19.8513 10.4072 20.3304 10.539 20.7037 10.6764L20.8849 10.7546L21.159 9.28482ZM26.3631 9.13853H24.8004C24.3163 9.13853 23.954 9.25933 23.7414 9.70091L20.738 15.9156H22.8616C22.8616 15.9156 23.2088 15.08 23.2873 14.8966C23.5195 14.8966 25.5824 14.8995 25.8774 14.8995C25.9379 15.1369 26.1234 15.9156 26.1234 15.9156H28L26.3631 9.13853ZM23.8837 13.5176C24.051 13.1269 24.6895 11.6219 24.6895 11.6219C24.6775 11.64 24.8555 11.2293 24.9576 10.9747L25.0943 11.5594C25.0943 11.5594 25.4816 13.1781 25.5625 13.5176H23.8837ZM10.1144 9.13853L8.13442 13.7632L7.92343 12.8234C7.55484 11.74 6.40645 10.5663 5.12263 9.97867L6.933 15.9093L9.07274 15.9071L12.2566 9.13846L10.1144 9.13853Z" fill="white"/>
<path d="M6.28684 9.13827H3.02581L3 9.27937C5.53701 9.8407 7.21571 11.1972 7.91271 12.827L7.20358 9.71066C7.08116 9.28127 6.72607 9.15327 6.28684 9.13827Z" fill="#F2AE14"/>
</svg>
