<svg width="133" height="80" viewBox="0 0 133 80" fill="none" xmlns="http://www.w3.org/2000/svg">
<path fill-rule="evenodd" clip-rule="evenodd" d="M120.582 0H12.3413C5.49126 0 -0.0539686 5.60633 0.000396355 12.4102V53.7774C0.000396355 60.6355 5.54562 66.1875 12.3956 66.1875H63.6617L87.0932 79.2508L81.7654 66.1875H120.582C127.432 66.1875 132.977 60.6355 132.977 53.7774V12.4102C132.977 5.5519 127.432 0 120.582 0ZM10.0582 9.57976C8.53593 9.68863 7.39425 10.2329 6.63315 11.2671C5.87205 12.2469 5.60024 13.4987 5.76331 14.9139C8.97085 35.3256 11.9609 49.0963 14.7335 56.2268C15.8208 58.8393 17.0712 60.0915 18.5391 59.9826C20.8224 59.8191 23.5407 56.6623 26.7482 50.5117C28.4335 47.0278 31.043 41.8028 34.5768 34.8355C37.5123 45.1228 41.5353 52.8522 46.5915 58.023C48.0051 59.4925 49.4729 60.1457 50.8861 60.0369C52.1368 59.928 53.1151 59.2748 53.7675 58.0772C54.3112 57.0431 54.5287 55.8456 54.4199 54.4849C54.0937 49.5318 54.5832 42.6191 55.9423 33.7469C57.3555 24.6026 59.0953 18.0165 61.2156 14.0975C61.6505 13.281 61.8134 12.4646 61.7593 11.4848C61.6505 10.2329 61.1068 9.19875 60.074 8.3823C59.0411 7.56584 57.8992 7.18483 56.6489 7.29367C55.0724 7.40254 53.8762 8.16456 53.0609 9.68863C49.6903 15.8393 47.2981 25.8001 45.8848 39.6254C43.8188 34.4001 42.079 28.2494 40.7199 21.0102C40.122 17.7988 38.6542 16.2747 36.262 16.438C34.6311 16.5469 33.272 17.6355 32.1847 19.7038L20.2788 42.4014C18.3216 34.5089 16.4732 24.8747 14.7879 13.4987C14.4074 10.6684 12.8308 9.36202 10.0582 9.57976ZM114.819 13.4989C118.679 14.3154 121.561 16.3838 123.518 19.8129C125.258 22.7521 126.127 26.2901 126.127 30.5357C126.127 36.1419 124.714 41.2584 121.887 45.9395C118.625 51.3826 114.384 54.104 109.111 54.104C108.187 54.104 107.208 53.9951 106.175 53.7774C102.316 52.961 99.4342 50.8929 97.4769 47.4636C95.7374 44.4699 94.8675 40.8776 94.8675 36.6863C94.8675 31.08 96.2811 25.9635 99.1079 21.3369C102.424 15.8939 106.665 13.1723 111.884 13.1723C112.808 13.1723 113.787 13.2812 114.819 13.4989ZM112.536 42.9457C114.548 41.1496 115.907 38.4824 116.668 34.8901C116.885 33.6382 117.048 32.2775 117.048 30.8623C117.048 29.2838 116.722 27.5965 116.07 25.9091C115.254 23.7863 114.167 22.6433 112.862 22.3711C110.905 21.9901 109.002 23.0787 107.208 25.7458C105.741 27.8142 104.816 29.9914 104.327 32.223C104.055 33.475 103.946 34.8358 103.946 36.1965C103.946 37.775 104.272 39.4623 104.925 41.1496C105.741 43.2723 106.828 44.4153 108.133 44.6877C109.492 44.9597 110.959 44.361 112.536 42.9457ZM89.4309 19.8129C87.4736 16.3838 84.538 14.3154 80.7325 13.4989C79.6993 13.2812 78.7211 13.1723 77.7966 13.1723C72.5779 13.1723 68.3374 15.8939 65.0211 21.3369C62.1939 25.9635 60.7806 31.08 60.7806 36.6863C60.7806 40.8776 61.6505 44.4699 63.39 47.4636C65.3473 50.8929 68.2287 52.961 72.0884 53.7774C73.1212 53.9951 74.0998 54.104 75.0243 54.104C80.2976 54.104 84.538 51.3826 87.7998 45.9395C90.627 41.2584 92.0403 36.1419 92.0403 30.5357C92.0403 26.2901 91.1704 22.7521 89.4309 19.8129ZM82.5807 34.8901C81.8199 38.4824 80.4605 41.1496 78.449 42.9457C76.8725 44.361 75.4047 44.9597 74.0457 44.6877C72.7408 44.4153 71.6534 43.2723 70.838 41.1496C70.1856 39.4623 69.8594 37.775 69.8594 36.1965C69.8594 34.8358 69.9681 33.475 70.2402 32.223C70.7293 29.9914 71.6534 27.8142 73.1212 25.7458C74.9156 23.0787 76.8183 21.9901 78.7752 22.3711C80.0801 22.6433 81.1675 23.7863 81.9829 25.9091C82.6353 27.5965 82.9615 29.2838 82.9615 30.8623C82.9615 32.2775 82.8528 33.6382 82.5807 34.8901Z" fill="#7F54B3"/>
</svg>
