<svg width="24" height="15" viewBox="0 0 24 15" fill="none" xmlns="http://www.w3.org/2000/svg">
<path fill-rule="evenodd" clip-rule="evenodd" d="M21.7629 0.5H2.22738C0.991075 0.5 -0.00974039 1.50807 7.1535e-05 2.73146V10.1697C7.1535e-05 11.4028 1.00089 12.4011 2.23719 12.4011H11.4898L15.7188 14.75L14.7572 12.4011H21.7629C22.9992 12.4011 24 11.4028 24 10.1697V2.73146C24 1.49828 22.9992 0.5 21.7629 0.5ZM1.81532 2.22253C1.54058 2.2421 1.33453 2.33997 1.19717 2.52592C1.0598 2.70209 1.01074 2.9272 1.04018 3.18166C1.61908 6.85185 2.15873 9.32796 2.65914 10.6101C2.85538 11.0798 3.08106 11.305 3.34598 11.2854C3.75807 11.256 4.24867 10.6884 4.82758 9.58245C5.13174 8.95603 5.60272 8.01651 6.2405 6.76373C6.77031 8.61348 7.49639 10.0033 8.40893 10.933C8.66406 11.1973 8.92898 11.3147 9.18404 11.2952C9.40977 11.2756 9.58633 11.1581 9.70408 10.9428C9.80221 10.7569 9.84146 10.5415 9.82184 10.2969C9.76296 9.40627 9.85131 8.1633 10.0966 6.568C10.3517 4.92377 10.6657 3.73953 11.0483 3.03486C11.1268 2.88805 11.1562 2.74124 11.1465 2.56508C11.1268 2.33997 11.0287 2.15402 10.8423 2.00721C10.6559 1.86041 10.4498 1.7919 10.2241 1.81147C9.93959 1.83104 9.72371 1.96806 9.57655 2.2421C8.96823 3.34804 8.53647 5.13908 8.2814 7.625C7.90852 6.68545 7.59451 5.5795 7.34923 4.27781C7.24132 3.70038 6.97641 3.42634 6.54465 3.4557C6.2503 3.47527 6.00501 3.67102 5.80877 4.04292L3.65996 8.12415C3.30673 6.70502 2.97312 4.9727 2.66896 2.9272C2.60027 2.41827 2.31572 2.18337 1.81532 2.22253ZM20.7229 2.92723C21.4195 3.07404 21.9396 3.44595 22.2928 4.06253C22.6068 4.59104 22.7637 5.2272 22.7637 5.99059C22.7637 6.99864 22.5087 7.91864 21.9984 8.76033C21.4097 9.73905 20.6444 10.2284 19.6926 10.2284C19.5259 10.2284 19.3492 10.2088 19.1628 10.1697C18.4662 10.0229 17.9461 9.65099 17.5929 9.03439C17.2789 8.49609 17.1219 7.85015 17.1219 7.09652C17.1219 6.08846 17.377 5.16847 17.8872 4.33657C18.4858 3.35786 19.2511 2.86851 20.1931 2.86851C20.3598 2.86851 20.5365 2.88808 20.7229 2.92723ZM20.3108 8.22203C20.6738 7.89906 20.9191 7.41949 21.0565 6.77355C21.0958 6.54845 21.1252 6.30378 21.1252 6.04931C21.1252 5.76549 21.0663 5.46209 20.9485 5.15868C20.8014 4.77699 20.6051 4.57146 20.3696 4.52252C20.0164 4.45401 19.673 4.64976 19.3492 5.12933C19.0843 5.50123 18.9175 5.89272 18.8292 6.29399C18.7801 6.5191 18.7605 6.76379 18.7605 7.00846C18.7605 7.29228 18.8193 7.59567 18.9371 7.89906C19.0843 8.28076 19.2805 8.48627 19.516 8.53524C19.7613 8.58415 20.0262 8.47651 20.3108 8.22203ZM16.1407 4.06253C15.7874 3.44595 15.2576 3.07404 14.5708 2.92723C14.3843 2.88808 14.2078 2.86851 14.0409 2.86851C13.099 2.86851 12.3337 3.35786 11.7352 4.33657C11.2249 5.16847 10.9698 6.08846 10.9698 7.09652C10.9698 7.85015 11.1268 8.49609 11.4408 9.03439C11.794 9.65099 12.3141 10.0229 13.0107 10.1697C13.1971 10.2088 13.3737 10.2284 13.5406 10.2284C14.4923 10.2284 15.2576 9.73905 15.8463 8.76033C16.3566 7.91864 16.6116 6.99864 16.6116 5.99059C16.6116 5.2272 16.4546 4.59104 16.1407 4.06253ZM14.9044 6.77355C14.767 7.41949 14.5217 7.89906 14.1587 8.22203C13.8741 8.47651 13.6092 8.58415 13.3639 8.53524C13.1284 8.48627 12.9322 8.28076 12.785 7.89906C12.6673 7.59567 12.6084 7.29228 12.6084 7.00846C12.6084 6.76379 12.628 6.5191 12.6771 6.29399C12.7654 5.89272 12.9322 5.50123 13.1971 5.12933C13.5209 4.64976 13.8643 4.45401 14.2175 4.52252C14.453 4.57146 14.6493 4.77699 14.7965 5.15868C14.9142 5.46209 14.9731 5.76549 14.9731 6.04931C14.9731 6.30378 14.9535 6.54845 14.9044 6.77355Z" fill="#7F54B3"/>
</svg>
