<svg width="48" height="49" viewBox="0 0 48 49" fill="none" xmlns="http://www.w3.org/2000/svg">
<circle cx="24" cy="24.9802" r="23" stroke="#002E73" stroke-width="2"/>
<path fill-rule="evenodd" clip-rule="evenodd" d="M28.5823 26.9653C28.3328 26.8411 27.1095 26.2428 26.8817 26.1594C26.6539 26.0769 26.4881 26.0361 26.3215 26.2844C26.1557 26.5311 25.6793 27.0894 25.5344 27.2544C25.3887 27.4203 25.2438 27.4403 24.9952 27.3169C24.7465 27.1919 23.9443 26.9311 22.9939 26.0878C22.2545 25.4311 21.7546 24.6203 21.6098 24.3719C21.4649 24.1244 21.5939 23.9903 21.7186 23.8669C21.8308 23.7561 21.9673 23.5778 22.0921 23.4336C22.2169 23.2886 22.2579 23.1853 22.3408 23.0194C22.4245 22.8544 22.3826 22.7103 22.3198 22.5861C22.2579 22.4619 21.7605 21.2428 21.5528 20.7469C21.351 20.2644 21.1459 20.3303 20.9935 20.3219C20.8478 20.3153 20.682 20.3136 20.5162 20.3136C20.3504 20.3136 20.0808 20.3753 19.853 20.6236C19.6244 20.8711 18.9822 21.4703 18.9822 22.6894C18.9822 23.9078 19.8731 25.0853 19.9979 25.2511C20.1227 25.4161 21.7521 27.9178 24.2482 28.9903C24.8428 29.2453 25.3058 29.3978 25.6667 29.5111C26.2629 29.7003 26.8055 29.6736 27.2342 29.6094C27.7115 29.5386 28.7063 29.0103 28.9139 28.4319C29.1208 27.8536 29.1207 27.3578 29.0588 27.2544C28.9968 27.1511 28.831 27.0894 28.5815 26.9653H28.5823ZM24.0423 33.1344H24.0389C22.5563 33.1347 21.101 32.7381 19.8254 31.9861L19.524 31.8078L16.3906 32.6261L17.2271 29.5861L17.0303 29.2744C16.2015 27.9614 15.7629 26.4417 15.7651 24.8911C15.7668 20.3494 19.4796 16.6544 24.0456 16.6544C26.2562 16.6544 28.3345 17.5128 29.897 19.0694C30.6676 19.8332 31.2785 20.7416 31.6941 21.7418C32.1098 22.7421 32.322 23.8145 32.3186 24.8969C32.3169 29.4386 28.6041 33.1344 24.0423 33.1344ZM31.086 17.8869C30.1634 16.9627 29.0657 16.2299 27.8564 15.7309C26.6472 15.232 25.3505 14.9768 24.0414 14.9803C18.5535 14.9803 14.0854 19.4261 14.0837 24.8903C14.0812 26.6292 14.5396 28.3381 15.4126 29.8444L14 34.9803L19.2786 33.6019C20.7388 34.3937 22.3752 34.8086 24.0381 34.8086H24.0423C29.5302 34.8086 33.9983 30.3628 34 24.8978C34.004 23.5955 33.7485 22.3053 33.2484 21.102C32.7482 19.8986 32.0132 18.8058 31.086 17.8869Z" fill="#002E73"/>
</svg>
