<svg width="500" height="83" viewBox="0 0 500 83" fill="none" xmlns="http://www.w3.org/2000/svg">
<path d="M5.33523 79V67.3636H9.69886C10.5928 67.3636 11.3428 67.5189 11.9489 67.8295C12.5587 68.1402 13.0189 68.5758 13.3295 69.1364C13.6439 69.6932 13.8011 70.3428 13.8011 71.0852C13.8011 71.8314 13.642 72.4792 13.3239 73.0284C13.0095 73.5739 12.5455 73.9962 11.9318 74.2955C11.3182 74.5909 10.5644 74.7386 9.67045 74.7386H6.5625V72.9886H9.38636C9.90909 72.9886 10.3371 72.9167 10.6705 72.7727C11.0038 72.625 11.25 72.411 11.4091 72.1307C11.572 71.8466 11.6534 71.4981 11.6534 71.0852C11.6534 70.6723 11.572 70.3201 11.4091 70.0284C11.2462 69.733 10.9981 69.5095 10.6648 69.358C10.3314 69.2027 9.90152 69.125 9.375 69.125H7.44318V79H5.33523ZM11.3466 73.7273L14.2273 79H11.875L9.04545 73.7273H11.3466ZM19.3892 79.1705C18.5142 79.1705 17.7585 78.9886 17.1222 78.625C16.4896 78.2576 16.0028 77.7386 15.6619 77.0682C15.321 76.3939 15.1506 75.6004 15.1506 74.6875C15.1506 73.7898 15.321 73.0019 15.6619 72.3239C16.0066 71.642 16.4877 71.1117 17.1051 70.733C17.7225 70.3504 18.4479 70.1591 19.2812 70.1591C19.8191 70.1591 20.3267 70.2462 20.804 70.4205C21.285 70.5909 21.7093 70.8561 22.0767 71.2159C22.4479 71.5758 22.7396 72.0341 22.9517 72.5909C23.1638 73.1439 23.2699 73.803 23.2699 74.5682V75.1989H16.1165V73.8125H21.2983C21.2945 73.4186 21.2093 73.0682 21.0426 72.7614C20.8759 72.4508 20.643 72.2064 20.3438 72.0284C20.0483 71.8504 19.7036 71.7614 19.3097 71.7614C18.8892 71.7614 18.5199 71.8636 18.2017 72.0682C17.8835 72.2689 17.6354 72.5341 17.4574 72.8636C17.2831 73.1894 17.1941 73.5473 17.1903 73.9375V75.1477C17.1903 75.6553 17.2831 76.0909 17.4688 76.4545C17.6544 76.8144 17.9138 77.0909 18.2472 77.2841C18.5805 77.4735 18.9706 77.5682 19.4176 77.5682C19.7169 77.5682 19.9877 77.5265 20.2301 77.4432C20.4725 77.3561 20.6828 77.2292 20.8608 77.0625C21.0388 76.8958 21.1733 76.6894 21.2642 76.4432L23.1847 76.6591C23.0634 77.1667 22.8324 77.6098 22.4915 77.9886C22.1544 78.3636 21.7225 78.6553 21.196 78.8636C20.6695 79.0682 20.0672 79.1705 19.3892 79.1705ZM28.8168 79.1705C27.9455 79.1705 27.1974 78.9792 26.5724 78.5966C25.9512 78.214 25.4721 77.6856 25.1349 77.0114C24.8016 76.3333 24.6349 75.553 24.6349 74.6705C24.6349 73.7841 24.8054 73.0019 25.1463 72.3239C25.4872 71.642 25.9683 71.1117 26.5895 70.733C27.2145 70.3504 27.9531 70.1591 28.8054 70.1591C29.5137 70.1591 30.1406 70.2898 30.6861 70.5511C31.2353 70.8087 31.6728 71.1742 31.9986 71.6477C32.3243 72.1174 32.5099 72.6667 32.5554 73.2955H30.5895C30.5099 72.875 30.3205 72.5246 30.0213 72.2443C29.7259 71.9602 29.33 71.8182 28.8338 71.8182C28.4134 71.8182 28.044 71.9318 27.7259 72.1591C27.4077 72.3826 27.1596 72.7045 26.9815 73.125C26.8073 73.5455 26.7202 74.0492 26.7202 74.6364C26.7202 75.2311 26.8073 75.7424 26.9815 76.1705C27.1558 76.5947 27.4001 76.9223 27.7145 77.1534C28.0327 77.3807 28.4058 77.4943 28.8338 77.4943C29.1368 77.4943 29.4077 77.4375 29.6463 77.3239C29.8887 77.2064 30.0914 77.0379 30.2543 76.8182C30.4171 76.5985 30.5289 76.3314 30.5895 76.017H32.5554C32.5062 76.6345 32.3243 77.1818 32.0099 77.6591C31.6955 78.1326 31.2675 78.5038 30.7259 78.7727C30.1842 79.0379 29.5478 79.1705 28.8168 79.1705ZM38.108 79.1705C37.233 79.1705 36.4773 78.9886 35.8409 78.625C35.2083 78.2576 34.7216 77.7386 34.3807 77.0682C34.0398 76.3939 33.8693 75.6004 33.8693 74.6875C33.8693 73.7898 34.0398 73.0019 34.3807 72.3239C34.7254 71.642 35.2064 71.1117 35.8239 70.733C36.4413 70.3504 37.1667 70.1591 38 70.1591C38.5379 70.1591 39.0455 70.2462 39.5227 70.4205C40.0038 70.5909 40.428 70.8561 40.7955 71.2159C41.1667 71.5758 41.4583 72.0341 41.6705 72.5909C41.8826 73.1439 41.9886 73.803 41.9886 74.5682V75.1989H34.8352V73.8125H40.017C40.0133 73.4186 39.928 73.0682 39.7614 72.7614C39.5947 72.4508 39.3617 72.2064 39.0625 72.0284C38.767 71.8504 38.4223 71.7614 38.0284 71.7614C37.608 71.7614 37.2386 71.8636 36.9205 72.0682C36.6023 72.2689 36.3542 72.5341 36.1761 72.8636C36.0019 73.1894 35.9129 73.5473 35.9091 73.9375V75.1477C35.9091 75.6553 36.0019 76.0909 36.1875 76.4545C36.3731 76.8144 36.6326 77.0909 36.9659 77.2841C37.2992 77.4735 37.6894 77.5682 38.1364 77.5682C38.4356 77.5682 38.7064 77.5265 38.9489 77.4432C39.1913 77.3561 39.4015 77.2292 39.5795 77.0625C39.7576 76.8958 39.892 76.6894 39.983 76.4432L41.9034 76.6591C41.7822 77.1667 41.5511 77.6098 41.2102 77.9886C40.8731 78.3636 40.4413 78.6553 39.9148 78.8636C39.3883 79.0682 38.786 79.1705 38.108 79.1705ZM43.7287 79V70.2727H45.7855V79H43.7287ZM44.7628 69.0341C44.437 69.0341 44.1567 68.9261 43.9219 68.7102C43.687 68.4905 43.5696 68.2273 43.5696 67.9205C43.5696 67.6098 43.687 67.3466 43.9219 67.1307C44.1567 66.911 44.437 66.8011 44.7628 66.8011C45.0923 66.8011 45.3726 66.911 45.6037 67.1307C45.8385 67.3466 45.956 67.6098 45.956 67.9205C45.956 68.2273 45.8385 68.4905 45.6037 68.7102C45.3726 68.9261 45.0923 69.0341 44.7628 69.0341ZM52.2585 70.2727V71.8636H47.2415V70.2727H52.2585ZM48.4801 68.1818H50.5369V76.375C50.5369 76.6515 50.5786 76.8636 50.6619 77.0114C50.7491 77.1553 50.8627 77.2538 51.0028 77.3068C51.143 77.3598 51.2983 77.3864 51.4688 77.3864C51.5975 77.3864 51.715 77.3769 51.821 77.358C51.9309 77.339 52.0142 77.322 52.071 77.3068L52.4176 78.9148C52.3078 78.9527 52.1506 78.9943 51.946 79.0398C51.7453 79.0852 51.4991 79.1117 51.2074 79.1193C50.6922 79.1345 50.2282 79.0568 49.8153 78.8864C49.4025 78.7121 49.0748 78.4432 48.8324 78.0795C48.5938 77.7159 48.4763 77.2614 48.4801 76.7159V68.1818ZM56.4901 79.1761C55.937 79.1761 55.4389 79.0777 54.9957 78.8807C54.5563 78.6799 54.2079 78.3845 53.9503 77.9943C53.6965 77.6042 53.5696 77.1231 53.5696 76.5511C53.5696 76.0587 53.6605 75.6515 53.8423 75.3295C54.0241 75.0076 54.2723 74.75 54.5866 74.5568C54.901 74.3636 55.2552 74.2178 55.6491 74.1193C56.0469 74.017 56.4579 73.9432 56.8821 73.8977C57.3935 73.8447 57.8082 73.7973 58.1264 73.7557C58.4446 73.7102 58.6757 73.642 58.8196 73.5511C58.9673 73.4564 59.0412 73.3106 59.0412 73.1136V73.0795C59.0412 72.6515 58.9143 72.3201 58.6605 72.0852C58.4067 71.8504 58.0412 71.733 57.5639 71.733C57.0601 71.733 56.6605 71.8428 56.3651 72.0625C56.0734 72.2822 55.8764 72.5417 55.7741 72.8409L53.8537 72.5682C54.0052 72.0379 54.2552 71.5947 54.6037 71.2386C54.9522 70.8788 55.3783 70.6098 55.8821 70.4318C56.3859 70.25 56.9427 70.1591 57.5526 70.1591C57.973 70.1591 58.3916 70.2083 58.8082 70.3068C59.2249 70.4053 59.6056 70.5682 59.9503 70.7955C60.295 71.0189 60.5715 71.3239 60.7798 71.7102C60.992 72.0966 61.098 72.5795 61.098 73.1591V79H59.1207V77.8011H59.0526C58.9276 78.0436 58.7514 78.2708 58.5241 78.483C58.3007 78.6913 58.0185 78.8598 57.6776 78.9886C57.3404 79.1136 56.9446 79.1761 56.4901 79.1761ZM57.0241 77.6648C57.437 77.6648 57.795 77.5833 58.098 77.4205C58.401 77.2538 58.634 77.0341 58.7969 76.7614C58.9635 76.4886 59.0469 76.1913 59.0469 75.8693V74.8409C58.9825 74.8939 58.8726 74.9432 58.7173 74.9886C58.5658 75.0341 58.3954 75.0739 58.206 75.108C58.0166 75.142 57.8291 75.1723 57.6435 75.1989C57.4579 75.2254 57.2969 75.2481 57.1605 75.267C56.8537 75.3087 56.5791 75.3769 56.3366 75.4716C56.0942 75.5663 55.9029 75.6989 55.7628 75.8693C55.6226 76.036 55.5526 76.2519 55.5526 76.517C55.5526 76.8958 55.6908 77.1818 55.9673 77.375C56.2438 77.5682 56.5961 77.6648 57.0241 77.6648ZM67.1349 79V70.2727H69.1009V71.7557H69.2031C69.3849 71.2557 69.6861 70.8655 70.1065 70.5852C70.527 70.3011 71.0289 70.1591 71.6122 70.1591C72.2031 70.1591 72.7012 70.303 73.1065 70.5909C73.5156 70.875 73.8035 71.2633 73.9702 71.7557H74.0611C74.2543 71.2708 74.58 70.8845 75.0384 70.5966C75.5005 70.3049 76.0478 70.1591 76.6804 70.1591C77.4834 70.1591 78.1387 70.4129 78.6463 70.9205C79.1539 71.428 79.4077 72.1686 79.4077 73.142V79H77.3452V73.4602C77.3452 72.9186 77.2012 72.5227 76.9134 72.2727C76.6255 72.0189 76.2732 71.892 75.8565 71.892C75.3603 71.892 74.9721 72.0473 74.6918 72.358C74.4152 72.6648 74.277 73.0644 74.277 73.5568V79H72.2599V73.375C72.2599 72.9242 72.1236 72.5644 71.8509 72.2955C71.5819 72.0265 71.2296 71.892 70.794 71.892C70.4986 71.892 70.2296 71.9678 69.9872 72.1193C69.7448 72.267 69.5516 72.4773 69.4077 72.75C69.2637 73.0189 69.1918 73.3333 69.1918 73.6932V79H67.1349ZM85.358 79.1705C84.483 79.1705 83.7273 78.9886 83.0909 78.625C82.4583 78.2576 81.9716 77.7386 81.6307 77.0682C81.2898 76.3939 81.1193 75.6004 81.1193 74.6875C81.1193 73.7898 81.2898 73.0019 81.6307 72.3239C81.9754 71.642 82.4564 71.1117 83.0739 70.733C83.6913 70.3504 84.4167 70.1591 85.25 70.1591C85.7879 70.1591 86.2955 70.2462 86.7727 70.4205C87.2538 70.5909 87.678 70.8561 88.0455 71.2159C88.4167 71.5758 88.7083 72.0341 88.9205 72.5909C89.1326 73.1439 89.2386 73.803 89.2386 74.5682V75.1989H82.0852V73.8125H87.267C87.2633 73.4186 87.178 73.0682 87.0114 72.7614C86.8447 72.4508 86.6117 72.2064 86.3125 72.0284C86.017 71.8504 85.6723 71.7614 85.2784 71.7614C84.858 71.7614 84.4886 71.8636 84.1705 72.0682C83.8523 72.2689 83.6042 72.5341 83.4261 72.8636C83.2519 73.1894 83.1629 73.5473 83.1591 73.9375V75.1477C83.1591 75.6553 83.2519 76.0909 83.4375 76.4545C83.6231 76.8144 83.8826 77.0909 84.2159 77.2841C84.5492 77.4735 84.9394 77.5682 85.3864 77.5682C85.6856 77.5682 85.9564 77.5265 86.1989 77.4432C86.4413 77.3561 86.6515 77.2292 86.8295 77.0625C87.0076 76.8958 87.142 76.6894 87.233 76.4432L89.1534 76.6591C89.0322 77.1667 88.8011 77.6098 88.4602 77.9886C88.1231 78.3636 87.6913 78.6553 87.1648 78.8636C86.6383 79.0682 86.036 79.1705 85.358 79.1705ZM93.0355 73.8864V79H90.9787V70.2727H92.9446V71.7557H93.0469C93.2476 71.267 93.5677 70.8788 94.0071 70.5909C94.4503 70.303 94.9976 70.1591 95.6491 70.1591C96.2514 70.1591 96.776 70.2879 97.223 70.5455C97.6738 70.803 98.0223 71.1761 98.2685 71.6648C98.5185 72.1534 98.6416 72.7462 98.6378 73.4432V79H96.581V73.7614C96.581 73.178 96.4295 72.7216 96.1264 72.392C95.8272 72.0625 95.4124 71.8977 94.8821 71.8977C94.5223 71.8977 94.2022 71.9773 93.9219 72.1364C93.6454 72.2917 93.4276 72.517 93.2685 72.8125C93.1132 73.108 93.0355 73.4659 93.0355 73.8864ZM107.626 72.5795L105.751 72.7841C105.698 72.5947 105.606 72.4167 105.473 72.25C105.344 72.0833 105.17 71.9489 104.95 71.8466C104.731 71.7443 104.462 71.6932 104.143 71.6932C103.715 71.6932 103.356 71.786 103.064 71.9716C102.776 72.1572 102.634 72.3977 102.638 72.6932C102.634 72.947 102.727 73.1534 102.916 73.3125C103.109 73.4716 103.428 73.6023 103.871 73.7045L105.359 74.0227C106.185 74.2008 106.799 74.483 107.2 74.8693C107.606 75.2557 107.81 75.7614 107.814 76.3864C107.81 76.9356 107.649 77.4205 107.331 77.8409C107.017 78.2576 106.579 78.5833 106.018 78.8182C105.458 79.053 104.814 79.1705 104.087 79.1705C103.018 79.1705 102.159 78.947 101.507 78.5C100.856 78.0492 100.467 77.4223 100.342 76.6193L102.348 76.4261C102.439 76.8201 102.632 77.1174 102.928 77.3182C103.223 77.5189 103.607 77.6193 104.081 77.6193C104.57 77.6193 104.962 77.5189 105.257 77.3182C105.556 77.1174 105.706 76.8693 105.706 76.5739C105.706 76.3239 105.609 76.1174 105.416 75.9545C105.227 75.7917 104.931 75.6667 104.53 75.5795L103.041 75.267C102.204 75.0928 101.585 74.7992 101.183 74.3864C100.782 73.9697 100.583 73.4432 100.587 72.8068C100.583 72.2689 100.729 71.803 101.024 71.4091C101.323 71.0114 101.738 70.7045 102.268 70.4886C102.803 70.2689 103.418 70.1591 104.115 70.1591C105.138 70.1591 105.943 70.3769 106.53 70.8125C107.121 71.2481 107.486 71.8371 107.626 72.5795ZM112.021 79.1761C111.468 79.1761 110.97 79.0777 110.527 78.8807C110.088 78.6799 109.739 78.3845 109.482 77.9943C109.228 77.6042 109.101 77.1231 109.101 76.5511C109.101 76.0587 109.192 75.6515 109.374 75.3295C109.555 75.0076 109.804 74.75 110.118 74.5568C110.432 74.3636 110.786 74.2178 111.18 74.1193C111.578 74.017 111.989 73.9432 112.413 73.8977C112.925 73.8447 113.339 73.7973 113.658 73.7557C113.976 73.7102 114.207 73.642 114.351 73.5511C114.499 73.4564 114.572 73.3106 114.572 73.1136V73.0795C114.572 72.6515 114.446 72.3201 114.192 72.0852C113.938 71.8504 113.572 71.733 113.095 71.733C112.591 71.733 112.192 71.8428 111.896 72.0625C111.605 72.2822 111.408 72.5417 111.305 72.8409L109.385 72.5682C109.536 72.0379 109.786 71.5947 110.135 71.2386C110.483 70.8788 110.91 70.6098 111.413 70.4318C111.917 70.25 112.474 70.1591 113.084 70.1591C113.504 70.1591 113.923 70.2083 114.339 70.3068C114.756 70.4053 115.137 70.5682 115.482 70.7955C115.826 71.0189 116.103 71.3239 116.311 71.7102C116.523 72.0966 116.629 72.5795 116.629 73.1591V79H114.652V77.8011H114.584C114.459 78.0436 114.283 78.2708 114.055 78.483C113.832 78.6913 113.55 78.8598 113.209 78.9886C112.872 79.1136 112.476 79.1761 112.021 79.1761ZM112.555 77.6648C112.968 77.6648 113.326 77.5833 113.629 77.4205C113.932 77.2538 114.165 77.0341 114.328 76.7614C114.495 76.4886 114.578 76.1913 114.578 75.8693V74.8409C114.514 74.8939 114.404 74.9432 114.249 74.9886C114.097 75.0341 113.927 75.0739 113.737 75.108C113.548 75.142 113.36 75.1723 113.175 75.1989C112.989 75.2254 112.828 75.2481 112.692 75.267C112.385 75.3087 112.11 75.3769 111.868 75.4716C111.625 75.5663 111.434 75.6989 111.294 75.8693C111.154 76.036 111.084 76.2519 111.084 76.517C111.084 76.8958 111.222 77.1818 111.499 77.375C111.775 77.5682 112.127 77.6648 112.555 77.6648ZM120.754 67.3636V79H118.697V67.3636H120.754Z" fill="#002E73"/>
<path d="M216.413 79V67.3636H220.777C221.671 67.3636 222.421 67.5189 223.027 67.8295C223.637 68.1402 224.097 68.5758 224.408 69.1364C224.722 69.6932 224.879 70.3428 224.879 71.0852C224.879 71.8314 224.72 72.4792 224.402 73.0284C224.088 73.5739 223.624 73.9962 223.01 74.2955C222.396 74.5909 221.643 74.7386 220.749 74.7386H217.641V72.9886H220.464C220.987 72.9886 221.415 72.9167 221.749 72.7727C222.082 72.625 222.328 72.411 222.487 72.1307C222.65 71.8466 222.732 71.4981 222.732 71.0852C222.732 70.6723 222.65 70.3201 222.487 70.0284C222.324 69.733 222.076 69.5095 221.743 69.358C221.41 69.2027 220.98 69.125 220.453 69.125H218.521V79H216.413ZM222.425 73.7273L225.305 79H222.953L220.124 73.7273H222.425ZM230.467 79.1705C229.592 79.1705 228.837 78.9886 228.2 78.625C227.568 78.2576 227.081 77.7386 226.74 77.0682C226.399 76.3939 226.229 75.6004 226.229 74.6875C226.229 73.7898 226.399 73.0019 226.74 72.3239C227.085 71.642 227.566 71.1117 228.183 70.733C228.801 70.3504 229.526 70.1591 230.359 70.1591C230.897 70.1591 231.405 70.2462 231.882 70.4205C232.363 70.5909 232.787 70.8561 233.155 71.2159C233.526 71.5758 233.818 72.0341 234.03 72.5909C234.242 73.1439 234.348 73.803 234.348 74.5682V75.1989H227.195V73.8125H232.376C232.373 73.4186 232.287 73.0682 232.121 72.7614C231.954 72.4508 231.721 72.2064 231.422 72.0284C231.126 71.8504 230.782 71.7614 230.388 71.7614C229.967 71.7614 229.598 71.8636 229.28 72.0682C228.962 72.2689 228.714 72.5341 228.536 72.8636C228.361 73.1894 228.272 73.5473 228.268 73.9375V75.1477C228.268 75.6553 228.361 76.0909 228.547 76.4545C228.732 76.8144 228.992 77.0909 229.325 77.2841C229.659 77.4735 230.049 77.5682 230.496 77.5682C230.795 77.5682 231.066 77.5265 231.308 77.4432C231.551 77.3561 231.761 77.2292 231.939 77.0625C232.117 76.8958 232.251 76.6894 232.342 76.4432L234.263 76.6591C234.142 77.1667 233.911 77.6098 233.57 77.9886C233.232 78.3636 232.801 78.6553 232.274 78.8636C231.748 79.0682 231.145 79.1705 230.467 79.1705ZM239.895 79.1705C239.024 79.1705 238.276 78.9792 237.651 78.5966C237.029 78.214 236.55 77.6856 236.213 77.0114C235.88 76.3333 235.713 75.553 235.713 74.6705C235.713 73.7841 235.884 73.0019 236.224 72.3239C236.565 71.642 237.046 71.1117 237.668 70.733C238.293 70.3504 239.031 70.1591 239.884 70.1591C240.592 70.1591 241.219 70.2898 241.764 70.5511C242.313 70.8087 242.751 71.1742 243.077 71.6477C243.402 72.1174 243.588 72.6667 243.634 73.2955H241.668C241.588 72.875 241.399 72.5246 241.099 72.2443C240.804 71.9602 240.408 71.8182 239.912 71.8182C239.491 71.8182 239.122 71.9318 238.804 72.1591C238.486 72.3826 238.238 72.7045 238.06 73.125C237.885 73.5455 237.798 74.0492 237.798 74.6364C237.798 75.2311 237.885 75.7424 238.06 76.1705C238.234 76.5947 238.478 76.9223 238.793 77.1534C239.111 77.3807 239.484 77.4943 239.912 77.4943C240.215 77.4943 240.486 77.4375 240.724 77.3239C240.967 77.2064 241.17 77.0379 241.332 76.8182C241.495 76.5985 241.607 76.3314 241.668 76.017H243.634C243.584 76.6345 243.402 77.1818 243.088 77.6591C242.774 78.1326 242.346 78.5038 241.804 78.7727C241.262 79.0379 240.626 79.1705 239.895 79.1705ZM249.129 79.1705C248.277 79.1705 247.538 78.983 246.913 78.608C246.288 78.233 245.804 77.7083 245.459 77.0341C245.118 76.3598 244.947 75.572 244.947 74.6705C244.947 73.7689 245.118 72.9792 245.459 72.3011C245.804 71.6231 246.288 71.0966 246.913 70.7216C247.538 70.3466 248.277 70.1591 249.129 70.1591C249.982 70.1591 250.72 70.3466 251.345 70.7216C251.97 71.0966 252.453 71.6231 252.794 72.3011C253.139 72.9792 253.311 73.7689 253.311 74.6705C253.311 75.572 253.139 76.3598 252.794 77.0341C252.453 77.7083 251.97 78.233 251.345 78.608C250.72 78.983 249.982 79.1705 249.129 79.1705ZM249.141 77.5227C249.603 77.5227 249.989 77.3958 250.3 77.142C250.61 76.8845 250.841 76.5398 250.993 76.108C251.148 75.6761 251.226 75.1951 251.226 74.6648C251.226 74.1307 251.148 73.6477 250.993 73.2159C250.841 72.7803 250.61 72.4337 250.3 72.1761C249.989 71.9186 249.603 71.7898 249.141 71.7898C248.667 71.7898 248.273 71.9186 247.959 72.1761C247.648 72.4337 247.415 72.7803 247.26 73.2159C247.108 73.6477 247.033 74.1307 247.033 74.6648C247.033 75.1951 247.108 75.6761 247.26 76.108C247.415 76.5398 247.648 76.8845 247.959 77.142C248.273 77.3958 248.667 77.5227 249.141 77.5227ZM255.057 79V70.2727H257.023V71.7557H257.125C257.307 71.2557 257.608 70.8655 258.028 70.5852C258.449 70.3011 258.951 70.1591 259.534 70.1591C260.125 70.1591 260.623 70.303 261.028 70.5909C261.438 70.875 261.725 71.2633 261.892 71.7557H261.983C262.176 71.2708 262.502 70.8845 262.96 70.5966C263.422 70.3049 263.97 70.1591 264.602 70.1591C265.405 70.1591 266.061 70.4129 266.568 70.9205C267.076 71.428 267.33 72.1686 267.33 73.142V79H265.267V73.4602C265.267 72.9186 265.123 72.5227 264.835 72.2727C264.547 72.0189 264.195 71.892 263.778 71.892C263.282 71.892 262.894 72.0473 262.614 72.358C262.337 72.6648 262.199 73.0644 262.199 73.5568V79H260.182V73.375C260.182 72.9242 260.045 72.5644 259.773 72.2955C259.504 72.0265 259.152 71.892 258.716 71.892C258.42 71.892 258.152 71.9678 257.909 72.1193C257.667 72.267 257.473 72.4773 257.33 72.75C257.186 73.0189 257.114 73.3333 257.114 73.6932V79H255.057ZM269.416 82.2727V70.2727H271.439V71.7159H271.558C271.664 71.5038 271.814 71.2784 272.007 71.0398C272.2 70.7973 272.462 70.5909 272.791 70.4205C273.121 70.2462 273.541 70.1591 274.053 70.1591C274.727 70.1591 275.335 70.3314 275.876 70.6761C276.422 71.017 276.854 71.5227 277.172 72.1932C277.494 72.8598 277.655 73.678 277.655 74.6477C277.655 75.6061 277.498 76.4205 277.183 77.0909C276.869 77.7614 276.441 78.2727 275.899 78.625C275.357 78.9773 274.744 79.1534 274.058 79.1534C273.558 79.1534 273.143 79.0701 272.814 78.9034C272.484 78.7367 272.219 78.536 272.018 78.3011C271.821 78.0625 271.668 77.8371 271.558 77.625H271.473V82.2727H269.416ZM271.433 74.6364C271.433 75.2008 271.513 75.6951 271.672 76.1193C271.835 76.5436 272.068 76.875 272.371 77.1136C272.678 77.3485 273.049 77.4659 273.484 77.4659C273.939 77.4659 274.32 77.3447 274.626 77.1023C274.933 76.8561 275.164 76.5208 275.32 76.0966C275.479 75.6686 275.558 75.1818 275.558 74.6364C275.558 74.0947 275.481 73.6136 275.325 73.1932C275.17 72.7727 274.939 72.4432 274.632 72.2045C274.325 71.9659 273.943 71.8466 273.484 71.8466C273.045 71.8466 272.672 71.9621 272.365 72.1932C272.058 72.4242 271.825 72.7481 271.666 73.1648C271.511 73.5814 271.433 74.072 271.433 74.6364ZM279.416 79V70.2727H281.411V71.7273H281.501C281.661 71.2235 281.933 70.8352 282.32 70.5625C282.71 70.286 283.155 70.1477 283.655 70.1477C283.768 70.1477 283.895 70.1534 284.036 70.1648C284.179 70.1723 284.299 70.1856 284.393 70.2045V72.0966C284.306 72.0663 284.168 72.0398 283.979 72.017C283.793 71.9905 283.613 71.9773 283.439 71.9773C283.064 71.9773 282.727 72.0587 282.428 72.2216C282.132 72.3807 281.899 72.6023 281.729 72.8864C281.558 73.1705 281.473 73.4981 281.473 73.8693V79H279.416ZM288.115 79.1761C287.562 79.1761 287.064 79.0777 286.621 78.8807C286.181 78.6799 285.833 78.3845 285.575 77.9943C285.321 77.6042 285.195 77.1231 285.195 76.5511C285.195 76.0587 285.286 75.6515 285.467 75.3295C285.649 75.0076 285.897 74.75 286.212 74.5568C286.526 74.3636 286.88 74.2178 287.274 74.1193C287.672 74.017 288.083 73.9432 288.507 73.8977C289.018 73.8447 289.433 73.7973 289.751 73.7557C290.07 73.7102 290.301 73.642 290.445 73.5511C290.592 73.4564 290.666 73.3106 290.666 73.1136V73.0795C290.666 72.6515 290.539 72.3201 290.286 72.0852C290.032 71.8504 289.666 71.733 289.189 71.733C288.685 71.733 288.286 71.8428 287.99 72.0625C287.698 72.2822 287.501 72.5417 287.399 72.8409L285.479 72.5682C285.63 72.0379 285.88 71.5947 286.229 71.2386C286.577 70.8788 287.003 70.6098 287.507 70.4318C288.011 70.25 288.568 70.1591 289.178 70.1591C289.598 70.1591 290.017 70.2083 290.433 70.3068C290.85 70.4053 291.231 70.5682 291.575 70.7955C291.92 71.0189 292.196 71.3239 292.405 71.7102C292.617 72.0966 292.723 72.5795 292.723 73.1591V79H290.746V77.8011H290.678C290.553 78.0436 290.376 78.2708 290.149 78.483C289.926 78.6913 289.643 78.8598 289.303 78.9886C288.965 79.1136 288.57 79.1761 288.115 79.1761ZM288.649 77.6648C289.062 77.6648 289.42 77.5833 289.723 77.4205C290.026 77.2538 290.259 77.0341 290.422 76.7614C290.589 76.4886 290.672 76.1913 290.672 75.8693V74.8409C290.607 74.8939 290.498 74.9432 290.342 74.9886C290.191 75.0341 290.02 75.0739 289.831 75.108C289.642 75.142 289.454 75.1723 289.268 75.1989C289.083 75.2254 288.922 75.2481 288.786 75.267C288.479 75.3087 288.204 75.3769 287.962 75.4716C287.719 75.5663 287.528 75.6989 287.388 75.8693C287.248 76.036 287.178 76.2519 287.178 76.517C287.178 76.8958 287.316 77.1818 287.592 77.375C287.869 77.5682 288.221 77.6648 288.649 77.6648Z" fill="#002E73"/>
<path d="M387.281 79V67.3636H389.388V77.233H394.513V79H387.281ZM396.252 79V70.2727H398.309V79H396.252ZM397.286 69.0341C396.96 69.0341 396.68 68.9261 396.445 68.7102C396.21 68.4905 396.093 68.2273 396.093 67.9205C396.093 67.6098 396.21 67.3466 396.445 67.1307C396.68 66.911 396.96 66.8011 397.286 66.8011C397.616 66.8011 397.896 66.911 398.127 67.1307C398.362 67.3466 398.479 67.6098 398.479 67.9205C398.479 68.2273 398.362 68.4905 398.127 68.7102C397.896 68.9261 397.616 69.0341 397.286 69.0341ZM404.844 70.2727V71.8636H399.685V70.2727H404.844ZM400.975 79V69.4489C400.975 68.8617 401.096 68.3731 401.339 67.983C401.585 67.5928 401.915 67.3011 402.327 67.108C402.74 66.9148 403.199 66.8182 403.702 66.8182C404.058 66.8182 404.375 66.8466 404.651 66.9034C404.928 66.9602 405.132 67.0114 405.265 67.0568L404.856 68.6477C404.769 68.6212 404.659 68.5947 404.526 68.5682C404.394 68.5379 404.246 68.5227 404.083 68.5227C403.701 68.5227 403.43 68.6155 403.271 68.8011C403.115 68.983 403.038 69.2443 403.038 69.5852V79H400.975ZM409.991 79.1705C409.116 79.1705 408.36 78.9886 407.724 78.625C407.091 78.2576 406.604 77.7386 406.263 77.0682C405.923 76.3939 405.752 75.6004 405.752 74.6875C405.752 73.7898 405.923 73.0019 406.263 72.3239C406.608 71.642 407.089 71.1117 407.707 70.733C408.324 70.3504 409.049 70.1591 409.883 70.1591C410.421 70.1591 410.928 70.2462 411.406 70.4205C411.887 70.5909 412.311 70.8561 412.678 71.2159C413.049 71.5758 413.341 72.0341 413.553 72.5909C413.765 73.1439 413.871 73.803 413.871 74.5682V75.1989H406.718V73.8125H411.9C411.896 73.4186 411.811 73.0682 411.644 72.7614C411.478 72.4508 411.245 72.2064 410.945 72.0284C410.65 71.8504 410.305 71.7614 409.911 71.7614C409.491 71.7614 409.121 71.8636 408.803 72.0682C408.485 72.2689 408.237 72.5341 408.059 72.8636C407.885 73.1894 407.796 73.5473 407.792 73.9375V75.1477C407.792 75.6553 407.885 76.0909 408.07 76.4545C408.256 76.8144 408.515 77.0909 408.849 77.2841C409.182 77.4735 409.572 77.5682 410.019 77.5682C410.318 77.5682 410.589 77.5265 410.832 77.4432C411.074 77.3561 411.284 77.2292 411.462 77.0625C411.64 76.8958 411.775 76.6894 411.866 76.4432L413.786 76.6591C413.665 77.1667 413.434 77.6098 413.093 77.9886C412.756 78.3636 412.324 78.6553 411.798 78.8636C411.271 79.0682 410.669 79.1705 409.991 79.1705ZM419.969 70.2727V71.8636H414.952V70.2727H419.969ZM416.191 68.1818H418.248V76.375C418.248 76.6515 418.29 76.8636 418.373 77.0114C418.46 77.1553 418.574 77.2538 418.714 77.3068C418.854 77.3598 419.009 77.3864 419.18 77.3864C419.308 77.3864 419.426 77.3769 419.532 77.358C419.642 77.339 419.725 77.322 419.782 77.3068L420.129 78.9148C420.019 78.9527 419.862 78.9943 419.657 79.0398C419.456 79.0852 419.21 79.1117 418.918 79.1193C418.403 79.1345 417.939 79.0568 417.526 78.8864C417.113 78.7121 416.786 78.4432 416.543 78.0795C416.305 77.7159 416.187 77.2614 416.191 76.7159V68.1818ZM421.69 79V70.2727H423.746V79H421.69ZM422.724 69.0341C422.398 69.0341 422.118 68.9261 421.883 68.7102C421.648 68.4905 421.531 68.2273 421.531 67.9205C421.531 67.6098 421.648 67.3466 421.883 67.1307C422.118 66.911 422.398 66.8011 422.724 66.8011C423.053 66.8011 423.334 66.911 423.565 67.1307C423.799 67.3466 423.917 67.6098 423.917 67.9205C423.917 68.2273 423.799 68.4905 423.565 68.7102C423.334 68.9261 423.053 69.0341 422.724 69.0341ZM425.862 79V70.2727H427.827V71.7557H427.93C428.112 71.2557 428.413 70.8655 428.833 70.5852C429.254 70.3011 429.755 70.1591 430.339 70.1591C430.93 70.1591 431.428 70.303 431.833 70.5909C432.242 70.875 432.53 71.2633 432.697 71.7557H432.788C432.981 71.2708 433.307 70.8845 433.765 70.5966C434.227 70.3049 434.774 70.1591 435.407 70.1591C436.21 70.1591 436.865 70.4129 437.373 70.9205C437.88 71.428 438.134 72.1686 438.134 73.142V79H436.072V73.4602C436.072 72.9186 435.928 72.5227 435.64 72.2727C435.352 72.0189 435 71.892 434.583 71.892C434.087 71.892 433.699 72.0473 433.418 72.358C433.142 72.6648 433.004 73.0644 433.004 73.5568V79H430.987V73.375C430.987 72.9242 430.85 72.5644 430.577 72.2955C430.308 72.0265 429.956 71.892 429.521 71.892C429.225 71.892 428.956 71.9678 428.714 72.1193C428.471 72.267 428.278 72.4773 428.134 72.75C427.99 73.0189 427.918 73.3333 427.918 73.6932V79H425.862ZM444.085 79.1705C443.21 79.1705 442.454 78.9886 441.817 78.625C441.185 78.2576 440.698 77.7386 440.357 77.0682C440.016 76.3939 439.846 75.6004 439.846 74.6875C439.846 73.7898 440.016 73.0019 440.357 72.3239C440.702 71.642 441.183 71.1117 441.8 70.733C442.418 70.3504 443.143 70.1591 443.977 70.1591C444.514 70.1591 445.022 70.2462 445.499 70.4205C445.98 70.5909 446.405 70.8561 446.772 71.2159C447.143 71.5758 447.435 72.0341 447.647 72.5909C447.859 73.1439 447.965 73.803 447.965 74.5682V75.1989H440.812V73.8125H445.994C445.99 73.4186 445.905 73.0682 445.738 72.7614C445.571 72.4508 445.338 72.2064 445.039 72.0284C444.744 71.8504 444.399 71.7614 444.005 71.7614C443.585 71.7614 443.215 71.8636 442.897 72.0682C442.579 72.2689 442.331 72.5341 442.153 72.8636C441.978 73.1894 441.889 73.5473 441.886 73.9375V75.1477C441.886 75.6553 441.978 76.0909 442.164 76.4545C442.35 76.8144 442.609 77.0909 442.942 77.2841C443.276 77.4735 443.666 77.5682 444.113 77.5682C444.412 77.5682 444.683 77.5265 444.925 77.4432C445.168 77.3561 445.378 77.2292 445.556 77.0625C445.734 76.8958 445.869 76.6894 445.96 76.4432L447.88 76.6591C447.759 77.1667 447.528 77.6098 447.187 77.9886C446.85 78.3636 446.418 78.6553 445.891 78.8636C445.365 79.0682 444.763 79.1705 444.085 79.1705ZM455.322 67.3636L458.35 76.5227H458.469L461.492 67.3636H463.81L459.708 79H457.106L453.009 67.3636H455.322ZM466.857 79.1761C466.304 79.1761 465.806 79.0777 465.363 78.8807C464.924 78.6799 464.575 78.3845 464.317 77.9943C464.064 77.6042 463.937 77.1231 463.937 76.5511C463.937 76.0587 464.028 75.6515 464.21 75.3295C464.391 75.0076 464.639 74.75 464.954 74.5568C465.268 74.3636 465.622 74.2178 466.016 74.1193C466.414 74.017 466.825 73.9432 467.249 73.8977C467.761 73.8447 468.175 73.7973 468.494 73.7557C468.812 73.7102 469.043 73.642 469.187 73.5511C469.335 73.4564 469.408 73.3106 469.408 73.1136V73.0795C469.408 72.6515 469.281 72.3201 469.028 72.0852C468.774 71.8504 468.408 71.733 467.931 71.733C467.427 71.733 467.028 71.8428 466.732 72.0625C466.441 72.2822 466.244 72.5417 466.141 72.8409L464.221 72.5682C464.372 72.0379 464.622 71.5947 464.971 71.2386C465.319 70.8788 465.746 70.6098 466.249 70.4318C466.753 70.25 467.31 70.1591 467.92 70.1591C468.34 70.1591 468.759 70.2083 469.175 70.3068C469.592 70.4053 469.973 70.5682 470.317 70.7955C470.662 71.0189 470.939 71.3239 471.147 71.7102C471.359 72.0966 471.465 72.5795 471.465 73.1591V79H469.488V77.8011H469.42C469.295 78.0436 469.119 78.2708 468.891 78.483C468.668 78.6913 468.386 78.8598 468.045 78.9886C467.708 79.1136 467.312 79.1761 466.857 79.1761ZM467.391 77.6648C467.804 77.6648 468.162 77.5833 468.465 77.4205C468.768 77.2538 469.001 77.0341 469.164 76.7614C469.331 76.4886 469.414 76.1913 469.414 75.8693V74.8409C469.35 74.8939 469.24 74.9432 469.085 74.9886C468.933 75.0341 468.763 75.0739 468.573 75.108C468.384 75.142 468.196 75.1723 468.011 75.1989C467.825 75.2254 467.664 75.2481 467.528 75.267C467.221 75.3087 466.946 75.3769 466.704 75.4716C466.461 75.5663 466.27 75.6989 466.13 75.8693C465.99 76.036 465.92 76.2519 465.92 76.517C465.92 76.8958 466.058 77.1818 466.335 77.375C466.611 77.5682 466.963 77.6648 467.391 77.6648ZM475.59 67.3636V79H473.533V67.3636H475.59ZM483.268 75.3295V70.2727H485.325V79H483.33V77.4489H483.239C483.042 77.9375 482.719 78.3371 482.268 78.6477C481.821 78.9583 481.27 79.1136 480.614 79.1136C480.042 79.1136 479.537 78.9867 479.097 78.733C478.662 78.4754 478.321 78.1023 478.075 77.6136C477.828 77.1212 477.705 76.5265 477.705 75.8295V70.2727H479.762V75.5114C479.762 76.0644 479.914 76.5038 480.217 76.8295C480.52 77.1553 480.917 77.3182 481.41 77.3182C481.713 77.3182 482.006 77.2443 482.29 77.0966C482.575 76.9489 482.808 76.7292 482.989 76.4375C483.175 76.142 483.268 75.7727 483.268 75.3295ZM491.303 79.1705C490.428 79.1705 489.673 78.9886 489.036 78.625C488.404 78.2576 487.917 77.7386 487.576 77.0682C487.235 76.3939 487.065 75.6004 487.065 74.6875C487.065 73.7898 487.235 73.0019 487.576 72.3239C487.921 71.642 488.402 71.1117 489.019 70.733C489.637 70.3504 490.362 70.1591 491.195 70.1591C491.733 70.1591 492.241 70.2462 492.718 70.4205C493.199 70.5909 493.623 70.8561 493.991 71.2159C494.362 71.5758 494.654 72.0341 494.866 72.5909C495.078 73.1439 495.184 73.803 495.184 74.5682V75.1989H488.031V73.8125H493.212C493.209 73.4186 493.123 73.0682 492.957 72.7614C492.79 72.4508 492.557 72.2064 492.258 72.0284C491.962 71.8504 491.618 71.7614 491.224 71.7614C490.803 71.7614 490.434 71.8636 490.116 72.0682C489.798 72.2689 489.549 72.5341 489.371 72.8636C489.197 73.1894 489.108 73.5473 489.104 73.9375V75.1477C489.104 75.6553 489.197 76.0909 489.383 76.4545C489.568 76.8144 489.828 77.0909 490.161 77.2841C490.495 77.4735 490.885 77.5682 491.332 77.5682C491.631 77.5682 491.902 77.5265 492.144 77.4432C492.387 77.3561 492.597 77.2292 492.775 77.0625C492.953 76.8958 493.087 76.6894 493.178 76.4432L495.099 76.6591C494.978 77.1667 494.746 77.6098 494.406 77.9886C494.068 78.3636 493.637 78.6553 493.11 78.8636C492.584 79.0682 491.981 79.1705 491.303 79.1705Z" fill="#002E73"/>
<path d="M27.0137 27.4082V33.7812H1.67383V27.4082H27.0137ZM17.8223 17.3789V44.293H10.8906V17.3789H17.8223ZM56.416 42.2871V48H31.127V43.125L43.0859 30.3027C44.2878 28.9655 45.2357 27.7891 45.9297 26.7734C46.6237 25.7409 47.123 24.8184 47.4277 24.0059C47.7493 23.1764 47.9102 22.3893 47.9102 21.6445C47.9102 20.5273 47.724 19.571 47.3516 18.7754C46.9792 17.9629 46.429 17.3366 45.7012 16.8965C44.9902 16.4564 44.11 16.2363 43.0605 16.2363C41.9434 16.2363 40.9785 16.5072 40.166 17.0488C39.3704 17.5905 38.7611 18.3438 38.3379 19.3086C37.9316 20.2734 37.7285 21.3652 37.7285 22.584H30.3906C30.3906 20.3835 30.9154 18.3691 31.9648 16.541C33.0143 14.696 34.4954 13.2318 36.4082 12.1484C38.321 11.0482 40.5892 10.498 43.2129 10.498C45.8027 10.498 47.9863 10.9212 49.7637 11.7676C51.5579 12.597 52.9121 13.7988 53.8262 15.373C54.7572 16.9303 55.2227 18.7923 55.2227 20.959C55.2227 22.1777 55.028 23.3711 54.6387 24.5391C54.2493 25.6901 53.6908 26.8411 52.9629 27.9922C52.252 29.1263 51.3887 30.2773 50.373 31.4453C49.3574 32.6133 48.2318 33.8236 46.9961 35.0762L40.5723 42.2871H56.416ZM85.8691 26.2656V32.6641C85.8691 35.4401 85.5729 37.8353 84.9805 39.8496C84.388 41.847 83.5332 43.4889 82.416 44.7754C81.3158 46.0449 80.0039 46.9844 78.4805 47.5938C76.957 48.2031 75.2643 48.5078 73.4023 48.5078C71.9128 48.5078 70.5247 48.3216 69.2383 47.9492C67.9518 47.5599 66.7923 46.959 65.7598 46.1465C64.7441 45.334 63.8639 44.3099 63.1191 43.0742C62.3913 41.8216 61.8327 40.332 61.4434 38.6055C61.054 36.8789 60.8594 34.8984 60.8594 32.6641V26.2656C60.8594 23.4896 61.1556 21.1113 61.748 19.1309C62.3574 17.1335 63.2122 15.5 64.3125 14.2305C65.4297 12.9609 66.75 12.0299 68.2734 11.4375C69.7969 10.8281 71.4896 10.5234 73.3516 10.5234C74.8411 10.5234 76.2207 10.7181 77.4902 11.1074C78.7767 11.4798 79.9362 12.0638 80.9688 12.8594C82.0013 13.6549 82.8815 14.679 83.6094 15.9316C84.3372 17.1673 84.8958 18.6484 85.2852 20.375C85.6745 22.0846 85.8691 24.0482 85.8691 26.2656ZM78.5312 33.6289V25.2754C78.5312 23.9382 78.4551 22.7702 78.3027 21.7715C78.1673 20.7728 77.9557 19.9264 77.668 19.2324C77.3802 18.5215 77.0247 17.946 76.6016 17.5059C76.1784 17.0658 75.696 16.7441 75.1543 16.541C74.6126 16.3379 74.0117 16.2363 73.3516 16.2363C72.5221 16.2363 71.7858 16.3971 71.1426 16.7188C70.5163 17.0404 69.9831 17.5566 69.543 18.2676C69.1029 18.9616 68.7643 19.8926 68.5273 21.0605C68.3073 22.2116 68.1973 23.6165 68.1973 25.2754V33.6289C68.1973 34.9661 68.265 36.1426 68.4004 37.1582C68.5527 38.1738 68.7728 39.0456 69.0605 39.7734C69.3652 40.4844 69.7207 41.0684 70.127 41.5254C70.5501 41.9655 71.0326 42.2871 71.5742 42.4902C72.1328 42.6934 72.7422 42.7949 73.4023 42.7949C74.2148 42.7949 74.9342 42.6341 75.5605 42.3125C76.2038 41.974 76.7454 41.4492 77.1855 40.7383C77.6426 40.0104 77.9811 39.0625 78.2012 37.8945C78.4212 36.7266 78.5312 35.3047 78.5312 33.6289ZM90.7441 20.0957V18.1406C90.7441 16.7357 91.0488 15.4577 91.6582 14.3066C92.2676 13.1556 93.1647 12.2331 94.3496 11.5391C95.5345 10.8451 96.9902 10.498 98.7168 10.498C100.494 10.498 101.975 10.8451 103.16 11.5391C104.362 12.2331 105.259 13.1556 105.852 14.3066C106.461 15.4577 106.766 16.7357 106.766 18.1406V20.0957C106.766 21.4668 106.461 22.7279 105.852 23.8789C105.259 25.0299 104.37 25.9525 103.186 26.6465C102.001 27.3405 100.536 27.6875 98.793 27.6875C97.0326 27.6875 95.5514 27.3405 94.3496 26.6465C93.1647 25.9525 92.2676 25.0299 91.6582 23.8789C91.0488 22.7279 90.7441 21.4668 90.7441 20.0957ZM95.5938 18.1406V20.0957C95.5938 20.6882 95.7038 21.2552 95.9238 21.7969C96.1608 22.3216 96.5163 22.7533 96.9902 23.0918C97.4811 23.4134 98.0736 23.5742 98.7676 23.5742C99.4954 23.5742 100.088 23.4134 100.545 23.0918C101.002 22.7533 101.34 22.3216 101.561 21.7969C101.781 21.2552 101.891 20.6882 101.891 20.0957V18.1406C101.891 17.5143 101.772 16.9388 101.535 16.4141C101.315 15.8724 100.968 15.4408 100.494 15.1191C100.037 14.7806 99.4447 14.6113 98.7168 14.6113C98.0397 14.6113 97.4642 14.7806 96.9902 15.1191C96.5163 15.4408 96.1608 15.8724 95.9238 16.4141C95.7038 16.9388 95.5938 17.5143 95.5938 18.1406ZM108.416 40.8906V38.9355C108.416 37.5475 108.721 36.278 109.33 35.127C109.956 33.9759 110.862 33.0534 112.047 32.3594C113.249 31.6654 114.721 31.3184 116.465 31.3184C118.225 31.3184 119.698 31.6654 120.883 32.3594C122.068 33.0534 122.965 33.9759 123.574 35.127C124.184 36.278 124.488 37.5475 124.488 38.9355V40.8906C124.488 42.2786 124.184 43.5482 123.574 44.6992C122.982 45.8503 122.093 46.7728 120.908 47.4668C119.723 48.1608 118.259 48.5078 116.516 48.5078C114.755 48.5078 113.274 48.1608 112.072 47.4668C110.87 46.7728 109.956 45.8503 109.33 44.6992C108.721 43.5482 108.416 42.2786 108.416 40.8906ZM113.291 38.9355V40.8906C113.291 41.5 113.426 42.0755 113.697 42.6172C113.968 43.1589 114.34 43.5905 114.814 43.9121C115.305 44.2337 115.872 44.3945 116.516 44.3945C117.328 44.3945 117.963 44.2337 118.42 43.9121C118.877 43.5905 119.19 43.1589 119.359 42.6172C119.546 42.0755 119.639 41.5 119.639 40.8906V38.9355C119.639 38.3262 119.52 37.7591 119.283 37.2344C119.046 36.6927 118.691 36.2611 118.217 35.9395C117.76 35.6009 117.176 35.4316 116.465 35.4316C115.754 35.4316 115.161 35.6009 114.688 35.9395C114.23 36.2611 113.883 36.6927 113.646 37.2344C113.41 37.7591 113.291 38.3262 113.291 38.9355ZM118.268 16.3125L100.215 45.207L96.6602 43.3281L114.713 14.4336L118.268 16.3125Z" fill="url(#paint0_linear_382_2372)"/>
<path d="M218.014 27.4082V33.7812H192.674V27.4082H218.014ZM208.822 17.3789V44.293H201.891V17.3789H208.822ZM239.951 10.9551V48H232.639V19.3848L223.854 22.1777V16.4141L239.164 10.9551H239.951ZM276.869 26.2656V32.6641C276.869 35.4401 276.573 37.8353 275.98 39.8496C275.388 41.847 274.533 43.4889 273.416 44.7754C272.316 46.0449 271.004 46.9844 269.48 47.5938C267.957 48.2031 266.264 48.5078 264.402 48.5078C262.913 48.5078 261.525 48.3216 260.238 47.9492C258.952 47.5599 257.792 46.959 256.76 46.1465C255.744 45.334 254.864 44.3099 254.119 43.0742C253.391 41.8216 252.833 40.332 252.443 38.6055C252.054 36.8789 251.859 34.8984 251.859 32.6641V26.2656C251.859 23.4896 252.156 21.1113 252.748 19.1309C253.357 17.1335 254.212 15.5 255.312 14.2305C256.43 12.9609 257.75 12.0299 259.273 11.4375C260.797 10.8281 262.49 10.5234 264.352 10.5234C265.841 10.5234 267.221 10.7181 268.49 11.1074C269.777 11.4798 270.936 12.0638 271.969 12.8594C273.001 13.6549 273.882 14.679 274.609 15.9316C275.337 17.1673 275.896 18.6484 276.285 20.375C276.674 22.0846 276.869 24.0482 276.869 26.2656ZM269.531 33.6289V25.2754C269.531 23.9382 269.455 22.7702 269.303 21.7715C269.167 20.7728 268.956 19.9264 268.668 19.2324C268.38 18.5215 268.025 17.946 267.602 17.5059C267.178 17.0658 266.696 16.7441 266.154 16.541C265.613 16.3379 265.012 16.2363 264.352 16.2363C263.522 16.2363 262.786 16.3971 262.143 16.7188C261.516 17.0404 260.983 17.5566 260.543 18.2676C260.103 18.9616 259.764 19.8926 259.527 21.0605C259.307 22.2116 259.197 23.6165 259.197 25.2754V33.6289C259.197 34.9661 259.265 36.1426 259.4 37.1582C259.553 38.1738 259.773 39.0456 260.061 39.7734C260.365 40.4844 260.721 41.0684 261.127 41.5254C261.55 41.9655 262.033 42.2871 262.574 42.4902C263.133 42.6934 263.742 42.7949 264.402 42.7949C265.215 42.7949 265.934 42.6341 266.561 42.3125C267.204 41.974 267.745 41.4492 268.186 40.7383C268.643 40.0104 268.981 39.0625 269.201 37.8945C269.421 36.7266 269.531 35.3047 269.531 33.6289ZM281.744 20.0957V18.1406C281.744 16.7357 282.049 15.4577 282.658 14.3066C283.268 13.1556 284.165 12.2331 285.35 11.5391C286.535 10.8451 287.99 10.498 289.717 10.498C291.494 10.498 292.975 10.8451 294.16 11.5391C295.362 12.2331 296.259 13.1556 296.852 14.3066C297.461 15.4577 297.766 16.7357 297.766 18.1406V20.0957C297.766 21.4668 297.461 22.7279 296.852 23.8789C296.259 25.0299 295.37 25.9525 294.186 26.6465C293.001 27.3405 291.536 27.6875 289.793 27.6875C288.033 27.6875 286.551 27.3405 285.35 26.6465C284.165 25.9525 283.268 25.0299 282.658 23.8789C282.049 22.7279 281.744 21.4668 281.744 20.0957ZM286.594 18.1406V20.0957C286.594 20.6882 286.704 21.2552 286.924 21.7969C287.161 22.3216 287.516 22.7533 287.99 23.0918C288.481 23.4134 289.074 23.5742 289.768 23.5742C290.495 23.5742 291.088 23.4134 291.545 23.0918C292.002 22.7533 292.34 22.3216 292.561 21.7969C292.781 21.2552 292.891 20.6882 292.891 20.0957V18.1406C292.891 17.5143 292.772 16.9388 292.535 16.4141C292.315 15.8724 291.968 15.4408 291.494 15.1191C291.037 14.7806 290.445 14.6113 289.717 14.6113C289.04 14.6113 288.464 14.7806 287.99 15.1191C287.516 15.4408 287.161 15.8724 286.924 16.4141C286.704 16.9388 286.594 17.5143 286.594 18.1406ZM299.416 40.8906V38.9355C299.416 37.5475 299.721 36.278 300.33 35.127C300.956 33.9759 301.862 33.0534 303.047 32.3594C304.249 31.6654 305.721 31.3184 307.465 31.3184C309.225 31.3184 310.698 31.6654 311.883 32.3594C313.068 33.0534 313.965 33.9759 314.574 35.127C315.184 36.278 315.488 37.5475 315.488 38.9355V40.8906C315.488 42.2786 315.184 43.5482 314.574 44.6992C313.982 45.8503 313.093 46.7728 311.908 47.4668C310.723 48.1608 309.259 48.5078 307.516 48.5078C305.755 48.5078 304.274 48.1608 303.072 47.4668C301.87 46.7728 300.956 45.8503 300.33 44.6992C299.721 43.5482 299.416 42.2786 299.416 40.8906ZM304.291 38.9355V40.8906C304.291 41.5 304.426 42.0755 304.697 42.6172C304.968 43.1589 305.34 43.5905 305.814 43.9121C306.305 44.2337 306.872 44.3945 307.516 44.3945C308.328 44.3945 308.963 44.2337 309.42 43.9121C309.877 43.5905 310.19 43.1589 310.359 42.6172C310.546 42.0755 310.639 41.5 310.639 40.8906V38.9355C310.639 38.3262 310.52 37.7591 310.283 37.2344C310.046 36.6927 309.691 36.2611 309.217 35.9395C308.76 35.6009 308.176 35.4316 307.465 35.4316C306.754 35.4316 306.161 35.6009 305.688 35.9395C305.23 36.2611 304.883 36.6927 304.646 37.2344C304.41 37.7591 304.291 38.3262 304.291 38.9355ZM309.268 16.3125L291.215 45.207L287.66 43.3281L305.713 14.4336L309.268 16.3125Z" fill="url(#paint1_linear_382_2372)"/>
<path d="M409.109 27.4082V33.7812H383.77V27.4082H409.109ZM399.918 17.3789V44.293H392.986V17.3789H399.918ZM437.75 42.0586V48H419.139V42.0586H437.75ZM421.602 11.0312V48H413.984V11.0312H421.602ZM452.857 11.0312V48H445.266V11.0312H452.857ZM464.232 11.0312V16.998H434.068V11.0312H464.232ZM482.311 40.2812L491.02 11.0312H499.5L486.627 48H481.041L482.311 40.2812ZM474.287 11.0312L482.971 40.2812L484.291 48H478.654L465.857 11.0312H474.287Z" fill="url(#paint2_linear_382_2372)"/>
<defs>
<linearGradient id="paint0_linear_382_2372" x1="17.5307" y1="9.35583" x2="52.0798" y2="80.0563" gradientUnits="userSpaceOnUse">
<stop stop-color="#00FFE6"/>
<stop offset="1" stop-color="#7B3DFF"/>
</linearGradient>
<linearGradient id="paint1_linear_382_2372" x1="208.531" y1="9.35583" x2="243.08" y2="80.0563" gradientUnits="userSpaceOnUse">
<stop stop-color="#00FFE6"/>
<stop offset="1" stop-color="#7B3DFF"/>
</linearGradient>
<linearGradient id="paint2_linear_382_2372" x1="398.288" y1="9.35583" x2="434.371" y2="77.9621" gradientUnits="userSpaceOnUse">
<stop stop-color="#00FFE6"/>
<stop offset="1" stop-color="#7B3DFF"/>
</linearGradient>
</defs>
</svg>
